<?xml version="1.0" encoding="UTF-8"?>
<svg id="layer" xmlns="http://www.w3.org/2000/svg" version="1.1" xmlns:inkscape="http://www.inkscape.org/namespaces/inkscape" xmlns:sodipodi="http://sodipodi.sourceforge.net/DTD/sodipodi-0.dtd" xmlns:svg="http://www.w3.org/2000/svg" viewBox="0 0 720 720">
  <!-- Generator: Adobe Illustrator 29.2.1, SVG Export Plug-In . SVG Version: 2.1.0 Build 116)  -->
  <defs>
    <style>
      .st0 {
        fill: #fff;
      }

      .st1 {
        fill: #eb5424;
      }
    </style>
  </defs>
  <sodipodi:namedview id="namedview9" bordercolor="#666666" borderopacity="1.0" fit-margin-bottom="0" fit-margin-left="0" fit-margin-right="0" fit-margin-top="0" inkscape:current-layer="layer" inkscape:cx="735.06731" inkscape:cy="362.04808" inkscape:pagecheckerboard="0" inkscape:pageopacity="0.0" inkscape:pageshadow="2" inkscape:window-height="1017" inkscape:window-maximized="1" inkscape:window-width="1920" inkscape:window-x="1912" inkscape:window-y="-8" inkscape:zoom="0.31901841" pagecolor="#ffffff" showgrid="false"/>
  <path id="path4" class="st1" d="M549.2,582.5l-72.3-222.5,189.3-137.5c46.6,142.7,0,275-117,360ZM666.3,222.5L594,0h-234l71.9,222.5h234.4ZM359.9,0H125.9L54,222.5h234L359.9,0ZM53.6,222.5c-46.2,142.7,0,275,117,360l71.9-222.5L53.6,222.5ZM170.6,582.5l189.3,137.5,189.3-137.5-189.3-137.5-189.3,137.5h0Z"/>
  <polygon class="st0" points="359.91 0 432.34 222.5 666.72 222.5 477.1 360 549.53 582.5 359.91 444.99 170.3 582.5 242.73 360 53.11 222.5 287.49 222.5 359.91 0"/>
</svg>