<?xml version="1.0" encoding="UTF-8"?>
<svg id="Layer_1" xmlns="http://www.w3.org/2000/svg" version="1.1" viewBox="0 0 500 500">
  <!-- Generator: Adobe Illustrator 29.2.1, SVG Export Plug-In . SVG Version: 2.1.0 Build 116)  -->
  <defs>
    <style>
      .st0 {
        fill: #fff;
      }

      .st1 {
        fill: #f90;
        fill-rule: evenodd;
      }

      .st2 {
        fill: #252f3e;
      }
    </style>
  </defs>
  <rect class="st2" width="500" height="500" rx="50" ry="50"/>
  <g>
    <path class="st0" d="M162.72,217.27c0,4.92.53,8.91,1.46,11.84,1.06,2.93,2.39,6.12,4.26,9.58.67,1.06.93,2.13.93,3.06,0,1.33-.8,2.66-2.53,3.99l-8.38,5.59c-1.2.8-2.39,1.2-3.46,1.2-1.33,0-2.66-.67-3.99-1.86-1.86-2-3.46-4.12-4.79-6.25-1.33-2.26-2.66-4.79-4.12-7.85-10.38,12.24-23.41,18.36-39.11,18.36-11.18,0-20.09-3.19-26.61-9.58-6.52-6.39-9.84-14.9-9.84-25.54,0-11.31,3.99-20.49,12.11-27.41,8.12-6.92,18.89-10.38,32.59-10.38,4.52,0,9.18.4,14.1,1.06s9.98,1.73,15.3,2.93v-9.71c0-10.11-2.13-17.16-6.25-21.29-4.26-4.12-11.44-6.12-21.68-6.12-4.66,0-9.45.53-14.37,1.73s-9.71,2.66-14.37,4.52c-2.13.93-3.73,1.46-4.66,1.73-.93.27-1.6.4-2.13.4-1.86,0-2.79-1.33-2.79-4.12v-6.52c0-2.13.27-3.73.93-4.66s1.86-1.86,3.73-2.79c4.66-2.39,10.24-4.39,16.76-5.99,6.52-1.73,13.44-2.53,20.75-2.53,15.83,0,27.41,3.59,34.86,10.78,7.32,7.18,11.04,18.09,11.04,32.73v43.1h.27ZM108.71,237.49c4.39,0,8.91-.8,13.7-2.39,4.79-1.6,9.05-4.52,12.64-8.51,2.13-2.53,3.73-5.32,4.52-8.51s1.33-7.05,1.33-11.57v-5.59c-3.86-.93-7.98-1.73-12.24-2.26s-8.38-.8-12.51-.8c-8.91,0-15.43,1.73-19.82,5.32-4.39,3.59-6.52,8.65-6.52,15.3,0,6.25,1.6,10.91,4.92,14.1,3.19,3.33,7.85,4.92,13.97,4.92ZM215.54,251.86c-2.39,0-3.99-.4-5.06-1.33-1.06-.8-2-2.66-2.79-5.19l-31.26-102.84c-.8-2.66-1.2-4.39-1.2-5.32,0-2.13,1.06-3.33,3.19-3.33h13.04c2.53,0,4.26.4,5.19,1.33,1.06.8,1.86,2.66,2.66,5.19l22.35,88.07,20.75-88.07c.67-2.66,1.46-4.39,2.53-5.19,1.06-.8,2.93-1.33,5.32-1.33h10.64c2.53,0,4.26.4,5.32,1.33,1.06.8,2,2.66,2.53,5.19l21.02,89.13,23.02-89.13c.8-2.66,1.73-4.39,2.66-5.19,1.06-.8,2.79-1.33,5.19-1.33h12.37c2.13,0,3.33,1.06,3.33,3.33,0,.67-.13,1.33-.27,2.13-.13.8-.4,1.86-.93,3.33l-32.06,102.84c-.8,2.66-1.73,4.39-2.79,5.19s-2.79,1.33-5.06,1.33h-11.44c-2.53,0-4.26-.4-5.32-1.33s-2-2.66-2.53-5.32l-20.62-85.81-20.49,85.68c-.67,2.66-1.46,4.39-2.53,5.32-1.06.93-2.93,1.33-5.32,1.33h-11.44ZM386.49,255.45c-6.92,0-13.84-.8-20.49-2.39-6.65-1.6-11.84-3.33-15.3-5.32-2.13-1.2-3.59-2.53-4.12-3.73-.53-1.2-.8-2.53-.8-3.73v-6.78c0-2.79,1.06-4.12,3.06-4.12.8,0,1.6.13,2.39.4.8.27,2,.8,3.33,1.33,4.52,2,9.45,3.59,14.63,4.66,5.32,1.06,10.51,1.6,15.83,1.6,8.38,0,14.9-1.46,19.42-4.39,4.52-2.93,6.92-7.18,6.92-12.64,0-3.73-1.2-6.78-3.59-9.31-2.39-2.53-6.92-4.79-13.44-6.92l-19.29-5.99c-9.71-3.06-16.9-7.58-21.29-13.57-4.39-5.85-6.65-12.37-6.65-19.29,0-5.59,1.2-10.51,3.59-14.77,2.39-4.26,5.59-7.98,9.58-10.91,3.99-3.06,8.51-5.32,13.84-6.92,5.32-1.6,10.91-2.26,16.76-2.26,2.93,0,5.99.13,8.91.53,3.06.4,5.85.93,8.65,1.46,2.66.67,5.19,1.33,7.58,2.13,2.39.8,4.26,1.6,5.59,2.39,1.86,1.06,3.19,2.13,3.99,3.33.8,1.06,1.2,2.53,1.2,4.39v6.25c0,2.79-1.06,4.26-3.06,4.26-1.06,0-2.79-.53-5.06-1.6-7.58-3.46-16.1-5.19-25.54-5.19-7.58,0-13.57,1.2-17.69,3.73s-6.25,6.39-6.25,11.84c0,3.73,1.33,6.92,3.99,9.45,2.66,2.53,7.58,5.06,14.63,7.32l18.89,5.99c9.58,3.06,16.5,7.32,20.62,12.77,4.12,5.45,6.12,11.71,6.12,18.63,0,5.72-1.2,10.91-3.46,15.43-2.39,4.52-5.59,8.51-9.71,11.71-4.12,3.33-9.05,5.72-14.77,7.45-5.99,1.86-12.24,2.79-19.02,2.79Z"/>
    <g>
      <path class="st1" d="M411.63,320.11c-43.77,32.33-107.36,49.49-162.04,49.49-76.63,0-145.67-28.34-197.82-75.43-4.12-3.73-.4-8.78,4.52-5.85,56.41,32.73,125.98,52.55,197.96,52.55,48.56,0,101.91-10.11,151-30.86,7.32-3.33,13.57,4.79,6.39,10.11Z"/>
      <path class="st1" d="M429.86,299.36c-5.59-7.18-36.98-3.46-51.22-1.73-4.26.53-4.92-3.19-1.06-5.99,25.01-17.56,66.12-12.51,70.91-6.65,4.79,5.99-1.33,47.09-24.74,66.78-3.59,3.06-7.05,1.46-5.45-2.53,5.32-13.17,17.16-42.84,11.57-49.89Z"/>
    </g>
  </g>
</svg>