<?xml version="1.0" encoding="UTF-8"?>
<svg id="Layer_1" xmlns="http://www.w3.org/2000/svg" version="1.1" viewBox="0 0 500 500">
  <!-- Generator: Adobe Illustrator 29.3.1, SVG Export Plug-In . SVG Version: 2.1.0 Build 151)  -->
  <defs>
    <style>
      .st0 {
        fill: #fff;
      }

      .st1 {
        fill: #f90;
        fill-rule: evenodd;
      }

      .st2 {
        fill: #252f3e;
      }
    </style>
  </defs>
  <rect class="st2" width="500" height="500" rx="50" ry="50"/>
  <g>
    <path class="st0" d="M162.7,217.3c0,4.9.5,8.9,1.5,11.8,1.1,2.9,2.4,6.1,4.3,9.6.7,1.1.9,2.1.9,3.1,0,1.3-.8,2.7-2.5,4l-8.4,5.6c-1.2.8-2.4,1.2-3.5,1.2s-2.7-.7-4-1.9c-1.9-2-3.5-4.1-4.8-6.2-1.3-2.3-2.7-4.8-4.1-7.9-10.4,12.2-23.4,18.4-39.1,18.4s-20.1-3.2-26.6-9.6c-6.5-6.4-9.8-14.9-9.8-25.5s4-20.5,12.1-27.4,18.9-10.4,32.6-10.4,9.2.4,14.1,1.1c4.9.7,10,1.7,15.3,2.9v-9.7c0-10.1-2.1-17.2-6.2-21.3-4.3-4.1-11.4-6.1-21.7-6.1s-9.4.5-14.4,1.7-9.7,2.7-14.4,4.5c-2.1.9-3.7,1.5-4.7,1.7-.9.3-1.6.4-2.1.4-1.9,0-2.8-1.3-2.8-4.1v-6.5c0-2.1.3-3.7.9-4.7s1.9-1.9,3.7-2.8c4.7-2.4,10.2-4.4,16.8-6,6.5-1.7,13.4-2.5,20.8-2.5,15.8,0,27.4,3.6,34.9,10.8,7.3,7.2,11,18.1,11,32.7v43.1h.3,0ZM108.7,237.5c4.4,0,8.9-.8,13.7-2.4,4.8-1.6,9-4.5,12.6-8.5,2.1-2.5,3.7-5.3,4.5-8.5s1.3-7.1,1.3-11.6v-5.6c-3.9-.9-8-1.7-12.2-2.3s-8.4-.8-12.5-.8c-8.9,0-15.4,1.7-19.8,5.3-4.4,3.6-6.5,8.6-6.5,15.3s1.6,10.9,4.9,14.1c3.2,3.3,7.8,4.9,14,4.9h0ZM215.5,251.9c-2.4,0-4-.4-5.1-1.3-1.1-.8-2-2.7-2.8-5.2l-31.3-102.8c-.8-2.7-1.2-4.4-1.2-5.3,0-2.1,1.1-3.3,3.2-3.3h13c2.5,0,4.3.4,5.2,1.3,1.1.8,1.9,2.7,2.7,5.2l22.4,88.1,20.8-88.1c.7-2.7,1.5-4.4,2.5-5.2,1.1-.8,2.9-1.3,5.3-1.3h10.6c2.5,0,4.3.4,5.3,1.3,1.1.8,2,2.7,2.5,5.2l21,89.1,23-89.1c.8-2.7,1.7-4.4,2.7-5.2,1.1-.8,2.8-1.3,5.2-1.3h12.4c2.1,0,3.3,1.1,3.3,3.3s-.1,1.3-.3,2.1c-.1.8-.4,1.9-.9,3.3l-32.1,102.8c-.8,2.7-1.7,4.4-2.8,5.2s-2.8,1.3-5.1,1.3h-11.4c-2.5,0-4.3-.4-5.3-1.3s-2-2.7-2.5-5.3l-20.6-85.8-20.5,85.7c-.7,2.7-1.5,4.4-2.5,5.3-1.1.9-2.9,1.3-5.3,1.3h-11.4ZM386.5,255.4c-6.9,0-13.8-.8-20.5-2.4-6.6-1.6-11.8-3.3-15.3-5.3-2.1-1.2-3.6-2.5-4.1-3.7s-.8-2.5-.8-3.7v-6.8c0-2.8,1.1-4.1,3.1-4.1s1.6.1,2.4.4c.8.3,2,.8,3.3,1.3,4.5,2,9.5,3.6,14.6,4.7,5.3,1.1,10.5,1.6,15.8,1.6,8.4,0,14.9-1.5,19.4-4.4,4.5-2.9,6.9-7.2,6.9-12.6s-1.2-6.8-3.6-9.3c-2.4-2.5-6.9-4.8-13.4-6.9l-19.3-6c-9.7-3.1-16.9-7.6-21.3-13.6-4.4-5.9-6.6-12.4-6.6-19.3s1.2-10.5,3.6-14.8c2.4-4.3,5.6-8,9.6-10.9,4-3.1,8.5-5.3,13.8-6.9,5.3-1.6,10.9-2.3,16.8-2.3s6,.1,8.9.5c3.1.4,5.9.9,8.6,1.5,2.7.7,5.2,1.3,7.6,2.1,2.4.8,4.3,1.6,5.6,2.4,1.9,1.1,3.2,2.1,4,3.3.8,1.1,1.2,2.5,1.2,4.4v6.2c0,2.8-1.1,4.3-3.1,4.3s-2.8-.5-5.1-1.6c-7.6-3.5-16.1-5.2-25.5-5.2s-13.6,1.2-17.7,3.7-6.2,6.4-6.2,11.8,1.3,6.9,4,9.4,7.6,5.1,14.6,7.3l18.9,6c9.6,3.1,16.5,7.3,20.6,12.8s6.1,11.7,6.1,18.6-1.2,10.9-3.5,15.4c-2.4,4.5-5.6,8.5-9.7,11.7-4.1,3.3-9,5.7-14.8,7.4-6,1.9-12.2,2.8-19,2.8h0Z"/>
    <g>
      <path class="st1" d="M411.6,320.1c-43.8,32.3-107.4,49.5-162,49.5s-145.7-28.3-197.8-75.4c-4.1-3.7-.4-8.8,4.5-5.9,56.4,32.7,126,52.5,198,52.5s101.9-10.1,151-30.9c7.3-3.3,13.6,4.8,6.4,10.1h0Z"/>
      <path class="st1" d="M429.9,299.4c-5.6-7.2-37-3.5-51.2-1.7-4.3.5-4.9-3.2-1.1-6,25-17.6,66.1-12.5,70.9-6.6,4.8,6-1.3,47.1-24.7,66.8-3.6,3.1-7,1.5-5.5-2.5,5.3-13.2,17.2-42.8,11.6-49.9h0Z"/>
    </g>
  </g>
</svg>