<?xml version="1.0" encoding="UTF-8"?>
<svg id="Layer_1" xmlns="http://www.w3.org/2000/svg" version="1.1" xmlns:xlink="http://www.w3.org/1999/xlink" viewBox="0 0 137.5 137.5">
  <!-- Generator: Adobe Illustrator 29.2.1, SVG Export Plug-In . SVG Version: 2.1.0 Build 116)  -->
  <defs>
    <style>
      .st0 {
        fill: url(#linear-gradient2);
      }

      .st1 {
        fill: url(#linear-gradient1);
      }

      .st2 {
        fill: #0078d4;
      }

      .st3 {
        fill: url(#linear-gradient);
      }
    </style>
    <linearGradient id="linear-gradient" x1="-1166.33" y1="-363.45" x2="-1193.43" y2="-443.35" gradientTransform="translate(1916.1 -536.33) scale(1.6 -1.6)" gradientUnits="userSpaceOnUse">
      <stop offset="0" stop-color="#114a8b"/>
      <stop offset="1" stop-color="#0669bc"/>
    </linearGradient>
    <linearGradient id="linear-gradient1" x1="-1179.01" y1="-389.22" x2="-1185.31" y2="-391.32" gradientTransform="translate(1916.1 -536.33) scale(1.6 -1.6)" gradientUnits="userSpaceOnUse">
      <stop offset="0" stop-color="#000" stop-opacity=".3"/>
      <stop offset="0" stop-color="#000" stop-opacity=".2"/>
      <stop offset=".3" stop-color="#000" stop-opacity=".1"/>
      <stop offset=".6" stop-color="#000" stop-opacity="0"/>
      <stop offset="1" stop-color="#000" stop-opacity="0"/>
    </linearGradient>
    <linearGradient id="linear-gradient2" x1="-1153.41" y1="-344.27" x2="-1123.81" y2="-423.37" gradientTransform="translate(1916.1 -536.33) scale(1.6 -1.6)" gradientUnits="userSpaceOnUse">
      <stop offset="0" stop-color="#3ccbf4"/>
      <stop offset="1" stop-color="#2892df"/>
    </linearGradient>
  </defs>
  <path class="st3" d="M45.8,3.95h40.7l-42.2,125.1c-.9,2.6-3.4,4.4-6.1,4.4H6.5c-3.6,0-6.5-2.9-6.5-6.4,0-.7.1-1.4.3-2.1L39.7,8.35c.9-2.6,3.4-4.4,6.1-4.4h0Z"/>
  <path class="st2" d="M105,87.85H40.4c-1.6,0-3,1.3-3,3,0,.8.3,1.6,1,2.2l41.5,38.7c1.2,1.1,2.8,1.8,4.4,1.8h36.5l-15.9-45.6.1-.1Z"/>
  <path class="st1" d="M45.8,3.95c-2.8,0-5.3,1.8-6.2,4.5L.4,124.85c-1.2,3.4.5,7.1,3.9,8.3.7.3,1.5.4,2.2.4h32.5c2.5-.4,4.5-2.2,5.3-4.5l7.8-23.1,28,26.1c1.2,1,2.6,1.5,4.2,1.5h36.4l-16-45.6h-46.5L86.7,3.95h-40.9Z"/>
  <path class="st0" d="M97.8,8.35c-.9-2.6-3.4-4.4-6.1-4.4h-45.3c2.8,0,5.2,1.8,6.1,4.4l39.4,116.6c1.1,3.4-.7,7.1-4.1,8.2-.7.2-1.4.3-2.1.3h45.3c3.6,0,6.5-2.9,6.5-6.5,0-.7-.1-1.4-.3-2.1L97.8,8.35Z"/>
</svg>