<?xml version="1.0" encoding="UTF-8"?>
<svg id="Layer_1" xmlns="http://www.w3.org/2000/svg" version="1.1" xmlns:xlink="http://www.w3.org/1999/xlink" viewBox="0 0 512 512">
  <!-- Generator: Adobe Illustrator 29.2.1, SVG Export Plug-In . SVG Version: 2.1.0 Build 116)  -->
  <defs>
    <style>
      .st0 {
        fill: url(#linear-gradient1);
        stroke: #fff;
      }

      .st1 {
        fill: url(#linear-gradient);
      }
    </style>
    <linearGradient id="linear-gradient" x1="51.55" y1="420.3" x2="498.95" y2="65.16" gradientTransform="translate(0 514) scale(1 -1)" gradientUnits="userSpaceOnUse">
      <stop offset="0" stop-color="#9013fe"/>
      <stop offset="1" stop-color="#6610f2"/>
    </linearGradient>
    <linearGradient id="linear-gradient1" x1="189.15" y1="349.68" x2="289.15" y2="180.55" gradientTransform="translate(0 514) scale(1 -1)" gradientUnits="userSpaceOnUse">
      <stop offset="0" stop-color="#fff"/>
      <stop offset="1" stop-color="#f1e5fc"/>
    </linearGradient>
  </defs>
  <path class="st1" d="M56.48,105.32c-.97-27.74,20.65-53.32,49.86-53.32h299.35c29.21,0,50.83,25.58,49.86,53.32-.93,26.65.28,61.17,8.96,89.31,8.71,28.23,23.41,46.08,47.48,48.37v26c-24.07,2.29-38.77,20.14-47.48,48.37-8.69,28.14-9.89,62.66-8.96,89.31.97,27.74-20.65,53.32-49.86,53.32H106.34c-29.21,0-50.83-25.58-49.86-53.32.93-26.65-.28-61.17-8.97-89.31-8.71-28.23-23.45-46.08-47.52-48.37v-26c24.07-2.29,38.8-20.14,47.52-48.37,8.69-28.15,9.89-62.66,8.97-89.31Z"/>
  <path class="st0" d="M267.1,364.46c47.3,0,75.8-23.16,75.8-61.35,0-28.87-20.34-49.78-50.53-53.09v-1.2c22.18-3.61,39.59-24.21,39.59-47.22,0-32.78-25.88-54.14-65.32-54.14h-88.74v217h89.2ZM212.41,174.98h45.91c24.96,0,39.13,11.13,39.13,31.28,0,21.51-16.48,33.54-46.37,33.54h-38.67v-64.81ZM212.41,336.94v-71.43h45.6c32.66,0,49.61,12.03,49.61,35.49s-16.48,35.94-47.61,35.94h-47.6Z"/>
</svg>