<?xml version="1.0" encoding="UTF-8"?>
<svg id="Layer_1" xmlns="http://www.w3.org/2000/svg" version="1.1" xmlns:xlink="http://www.w3.org/1999/xlink" viewBox="0 0 512 512">
  <!-- Generator: Adobe Illustrator 29.3.1, SVG Export Plug-In . SVG Version: 2.1.0 Build 151)  -->
  <defs>
    <style>
      .st0 {
        fill: url(#linear-gradient1);
        stroke: #fff;
      }

      .st1 {
        fill: url(#linear-gradient);
      }
    </style>
    <linearGradient id="linear-gradient" x1="51.6" y1="79.7" x2="499" y2="434.8" gradientTransform="translate(0 14)" gradientUnits="userSpaceOnUse">
      <stop offset="0" stop-color="#9013fe"/>
      <stop offset="1" stop-color="#6610f2"/>
    </linearGradient>
    <linearGradient id="linear-gradient1" x1="189.1" y1="150.3" x2="289.1" y2="319.5" gradientTransform="translate(0 14)" gradientUnits="userSpaceOnUse">
      <stop offset="0" stop-color="#fff"/>
      <stop offset="1" stop-color="#f1e5fc"/>
    </linearGradient>
  </defs>
  <path class="st1" d="M56.5,105.3c-1-27.7,20.6-53.3,49.9-53.3h299.4c29.2,0,50.8,25.6,49.9,53.3-.9,26.7.3,61.2,9,89.3,8.7,28.2,23.4,46.1,47.5,48.4v26c-24.1,2.3-38.8,20.1-47.5,48.4-8.7,28.1-9.9,62.7-9,89.3,1,27.7-20.6,53.3-49.9,53.3H106.3c-29.2,0-50.8-25.6-49.9-53.3.9-26.6-.3-61.2-9-89.3-8.7-28.2-23.5-46.1-47.5-48.4v-26c24.1-2.3,38.8-20.1,47.5-48.4,8.7-28.1,9.9-62.7,9-89.3Z"/>
  <path class="st0" d="M267.1,364.5c47.3,0,75.8-23.2,75.8-61.4s-20.3-49.8-50.5-53.1v-1.2c22.2-3.6,39.6-24.2,39.6-47.2,0-32.8-25.9-54.1-65.3-54.1h-88.7v217h89.2,0ZM212.4,175h45.9c25,0,39.1,11.1,39.1,31.3s-16.5,33.5-46.4,33.5h-38.7v-64.8h0ZM212.4,336.9v-71.4h45.6c32.7,0,49.6,12,49.6,35.5s-16.5,35.9-47.6,35.9h-47.6Z"/>
</svg>