<?xml version="1.0" encoding="UTF-8"?>
<svg id="Layer_1" xmlns="http://www.w3.org/2000/svg" version="1.1" viewBox="0 0 500 500">
  <!-- Generator: Adobe Illustrator 29.2.1, SVG Export Plug-In . SVG Version: 2.1.0 Build 116)  -->
  <defs>
    <style>
      .st0 {
        fill: #fff;
      }

      .st1 {
        fill: #323232;
      }
    </style>
  </defs>
  <rect class="st1" width="500" height="500" rx="50" ry="50"/>
  <path class="st0" d="M450,359.9c-14.5,3.7-23.5.2-31.6-12-18.1-27.2-38.1-53.1-57.4-79.4-2.5-3.4-5.1-6.8-8.3-11-22.8,30.8-45.7,60.2-67.1,90.7-7.7,10.9-15.7,15.7-30,11.8l85.9-115.3-80-104.1c13.8-2.7,23.3-1.3,31.7,11,18.6,27.2,39.1,53.1,59.6,80.4,20.6-27.3,40.8-53.2,60-80.1,7.7-10.9,16-15.1,29.8-11-10.5,13.9-20.7,27.5-31,41.1-13.9,18.3-27.6,36.8-42,54.7-5.1,6.4-4.3,10.5.3,16.6,26.7,35.1,53,70.5,80.2,106.7ZM50.1,242.8c2.3-11.5,3.8-23.3,7-34.6,19.1-68.4,97.6-96.8,151.6-54.4,31.6,24.9,39.4,59.9,37.9,99.4H68.5c-2.7,70.9,48.3,113.6,113.4,91.8,22.8-7.7,36.2-25.5,43-47.9,3.4-11.2,9.1-13,19.6-9.8-5.4,27.9-17.6,51.3-43.1,65.9-38.3,21.9-92.9,14.8-121.7-15.6-17-17.9-24.2-40.1-27.4-64.1-.5-3.8-1.5-7.6-2.2-11.4,0-6.5,0-12.9,0-19.4ZM68.8,238.1h160.9c-1.1-51.2-33-87.6-76.6-88-47.9-.4-82.3,35.2-84.3,88Z"/>
</svg>