<?xml version="1.0" encoding="UTF-8"?>
<svg id="Layer_1" xmlns="http://www.w3.org/2000/svg" version="1.1" viewBox="0 0 500 500">
  <!-- Generator: Adobe Illustrator 29.2.1, SVG Export Plug-In . SVG Version: 2.1.0 Build 116)  -->
  <defs>
    <style>
      .st0 {
        fill: #fff;
      }

      .st1 {
        fill: #149287;
      }
    </style>
  </defs>
  <rect class="st1" x="0" y="0" width="500" height="500" rx="250" ry="250"/>
  <path class="st0" d="M437,174.5c-1.5-4.2-6.4-6.4-10.5-4.6-2.9,1.2-4.8,4.1-4.8,7.2,0,.9.2,2,.4,2.9,7.7,20.2,11.6,41.9,11.6,64.8,0,93.3-69.6,170.4-159.6,182.2v-85.8c5.5-1.1,10.8-2.4,16-4.2v72c74-18,128.9-84.7,128.9-164.2s-35.3-119.2-87.4-148c-4-2.2-9-.7-11,3.5-.7,1.1-.9,2.4-.9,3.5,0,2.9,1.5,5.5,4.2,7,47.2,26.1,79,76.4,79,133.9s-40.2,120.1-97,142.5v-63.9c9.9-3.1,17.3-12.3,17.3-23.3s-4.6-16.9-12.1-21.1c5.7-55.1,31-40.6,31-58.2v-10.3c0-26.3-61-112.2-89.6-114.2h-5.3c-28.5,2-89.6,87.8-89.6,114.2v10.3c0,17.6,25.2,3.1,31,58.2-7.5,4.2-12.1,12.1-12.1,21.1s7.5,20.2,17.3,23.3v63.9c-56.9-22.4-97-77.7-97-142.5s31.8-107.8,79-133.9c3.7-2,5.1-6.6,3.3-10.5-1.3-2.9-4.2-4.4-7.2-4.4s-2.6.2-3.7,1.1c-52.3,28.8-87.4,84.1-87.4,148s54.9,146.2,128.9,164.2v-72c5.3,1.7,10.5,3.3,16,4.2v85.8c-91.4-12.1-159.7-90-159.7-182.2,0-22.1,3.9-44,11.6-64.8,1.5-4-.4-8.5-4.4-10.1-1-.4-2-.6-3.1-.7-3.3,0-6.4,2-7.5,5.3-8.1,22-12.7,45.7-12.7,70.3,0,107.6,85,195.4,191.7,199.6v-101.2c2.7.1,5.4.2,8.1.2,0,0,5.3,0,8.1-.2v101.2c106.7-4.2,191.7-92,191.7-199.5-.2-24.8-4.6-48.5-12.7-70.5ZM286.7,288.4c3.1-3.1,7-4.8,11.6-4.8s8.6,1.7,11.6,4.8c3.1,3.1,4.8,7,4.8,11.6s-1.7,8.6-4.8,11.6c-3.1,3.1-7,4.8-11.6,4.8s-8.6-1.7-11.6-4.8c-3.1-3.1-4.8-7-4.8-11.6.2-4.4,2-8.6,4.8-11.6ZM213.1,311.7c-3.1,3.1-7,4.8-11.6,4.8s-8.6-1.7-11.6-4.8c-3.1-3.1-4.8-7-4.8-11.6s1.7-8.6,4.8-11.6c3.1-3.1,7-4.8,11.6-4.8s8.6,1.7,11.6,4.8,4.8,7,4.8,11.6c0,4.4-1.8,8.5-4.8,11.6Z"/>
</svg>