<?xml version="1.0" encoding="UTF-8"?>
<svg id="Layer_1" xmlns="http://www.w3.org/2000/svg" version="1.1" viewBox="0 0 36 36">
  <!-- Generator: Adobe Illustrator 29.3.1, SVG Export Plug-In . SVG Version: 2.1.0 Build 151)  -->
  <defs>
    <style>
      .st0 {
        fill: #ea4335;
      }

      .st1 {
        fill: #4285f4;
      }

      .st2 {
        fill: #34a853;
      }

      .st3 {
        fill: #fbbc05;
      }
    </style>
  </defs>
  <path class="st0" d="M22.8,11.5h1.1l3.1-3.1.2-1.3c-5.8-5.1-14.7-4.6-19.9,1.2-1.4,1.6-2.5,3.5-3,5.6.3-.1.7-.2,1.1,0l6.3-1s.3-.5.5-.5c2.8-3.1,7.5-3.4,10.7-.8h-.1Z"/>
  <path class="st1" d="M31.5,13.9c-.7-2.6-2.2-5-4.2-6.9l-4.4,4.4c1.9,1.5,2.9,3.8,2.9,6.2v.8c2.2,0,3.9,1.8,3.9,3.9s-1.8,3.9-3.9,3.9h-7.8l-.8.8v4.7l.8.8h7.8c5.6,0,10.2-4.5,10.2-10.1s-1.7-6.6-4.5-8.5Z"/>
  <path class="st2" d="M10.1,32.4h7.8v-6.3h-7.8c-.6,0-1.1-.1-1.6-.4l-1.1.3-3.2,3.1-.3,1.1c1.8,1.3,3.9,2.1,6.1,2v.2Z"/>
  <path class="st3" d="M10.1,12.1c-5.6,0-10.1,4.7-10.1,10.3s1.5,6.1,4,8l4.5-4.5c-2-.9-2.8-3.2-2-5.2s3.2-2.8,5.2-2c.9.4,1.6,1.1,2,2l4.5-4.5c-1.9-2.5-4.9-4-8.1-4h0Z"/>
</svg>