<?xml version="1.0" encoding="UTF-8"?>
<svg id="Layer_1" xmlns="http://www.w3.org/2000/svg" version="1.1" viewBox="0 0 2334.9 2334.9">
  <!-- Generator: Adobe Illustrator 29.2.1, SVG Export Plug-In . SVG Version: 2.1.0 Build 116)  -->
  <defs>
    <style>
      .st0, .st1 {
        fill: #fff;
      }

      .st2 {
        fill: #e1e1e1;
      }

      .st3 {
        fill: none;
      }

      .st1, .st4 {
        fill-opacity: .2;
      }

      .st5 {
        fill: #0535c1;
      }

      .st6 {
        fill: #f4481e;
      }

      .st7 {
        fill: #212121;
        fill-opacity: .1;
      }

      .st8 {
        fill: #eee;
      }

      .st4 {
        fill: #263238;
      }

      .st9 {
        fill: #fff176;
      }

      .st10 {
        fill: #fafafa;
      }

      .st11 {
        fill: #eaeaea;
      }
    </style>
  </defs>
  <circle class="st5" cx="1167.4" cy="1167.4" r="1167.4"/>
  <path class="st3" d="M1419.5,530.7h689.8v689.8h-689.8v-689.8Z"/>
  <path class="st11" d="M1936.9,818.1h-69.8c-34.7-99.3-136.1-158.9-239.8-141.2s-179.3,107.8-179,213c0,119.1,96.5,215.6,215.6,215.6h273c77.5-2.6,139-66.2,139-143.7s-61.5-141.1-139-143.7h0Z"/>
  <path class="st1" d="M2080.6,963.6v-1.8c0-79.4-64.4-143.7-143.8-143.8h-71.8v3.6h71.8c78.7,0,142.7,63.2,143.8,141.8h0Z"/>
  <g>
    <path class="st2" d="M1663.9,674.4l116.5,368.1c38.9-39.1,99-93,99-152.5,0-119.1-96.5-215.6-215.6-215.6h0Z"/>
    <circle class="st8" cx="1663.9" cy="890" r="215.6"/>
    <path class="st1" d="M1663.9,678c118.4,0,214.6,95.5,215.6,213.9v-1.8c0-119.1-96.4-215.6-215.5-215.7s-215.6,96.4-215.7,215.5v1.8c1.1-118.3,97.3-213.7,215.6-213.7h0Z"/>
    <path class="st7" d="M1936.9,1101.9h-273.1c-118.4,0-214.6-95.5-215.6-213.9v1.8c0,119,96.6,215.5,215.6,215.5h273c79.4,0,143.7-64.3,143.8-143.7v-1.8c-1,78.7-65.1,142-143.8,142h0Z"/>
    <path class="st9" d="M849,490.9h610.3v530.7h-610.3V490.9Z"/>
    <path class="st0" d="M782.7,1300.1h729.7v729.7h-729.7v-729.7Z"/>
    <g>
      <path class="st6" d="M1592,968.4h106.1v212.3H636.8v-212.3h106.1v-424.5l424.5-265.3,424.5,265.3v424.5ZM1379.7,968.4v-306.9l-212.3-132.7-212.3,132.7v306.9h424.5Z"/>
      <path class="st6" d="M589.7,2182.1l179.8-1213.7h796l179.8,1213.7c-176,100.4-375.2,153.1-577.8,152.8-202.6.3-401.8-52.4-577.8-152.8h0ZM1405.1,1334.7l-499.4,162.2-60.7,409.7,615.1-199.9-55.1-372Z"/>
    </g>
  </g>
  <path class="st3" d="M252.1,756.2h796v796H252.1v-796Z"/>
  <g>
    <path class="st10" d="M849,1087.8h-80.6c-40.3-114.3-157.1-183-276.6-162.5-119.5,20.5-206.8,124.2-206.6,245.4,0,137.3,111.4,248.7,248.8,248.7h315c90-2.3,161.7-75.9,161.7-165.8s-71.7-163.6-161.7-165.8Z"/>
    <path class="st1" d="M1014.9,1255.6v-2c0-91.5-74.3-165.8-165.8-165.8h-82.9v4.1h82.9c90.7,0,164.6,72.9,165.8,163.7h0Z"/>
    <path class="st2" d="M534,922l134.4,424.6c44.9-45.1,114.2-107.3,114.2-176,0-137.3-111.4-248.6-248.7-248.7h0Z"/>
    <circle class="st0" cx="534" cy="1170.8" r="248.8"/>
    <path class="st1" d="M534,926.2c136.6,0,247.6,110.2,248.7,246.8v-2c0-137.4-111.3-248.8-248.7-248.8-137.4,0-248.8,111.3-248.8,248.7v2c1.2-136.5,112.2-246.6,248.8-246.6h0Z"/>
    <path class="st7" d="M849,1415.4h-315.1c-136.6,0-247.6-110.2-248.7-246.8v2c0,137.4,111.4,248.7,248.8,248.8h315c91.5,0,165.8-74.3,165.8-165.8v-2c-1.1,90.8-75,163.8-165.8,163.9Z"/>
    <path class="st1" d="M1167.4,12.2c642.7,0,1164,519.4,1167.3,1161.3v-6.1C2334.9,522.7,1812.2,0,1167.4,0S0,522.7,0,1167.4s.2,4,.2,6.1C3.4,531.6,524.6,12.2,1167.4,12.2h0Z"/>
    <path class="st4" d="M2334.8,1161.3c-3.4,642-524.6,1161.3-1167.3,1161.3S3.4,1803.3.2,1161.3c0,2.1-.2,4.1-.2,6.1,0,644.7,522.7,1167.4,1167.4,1167.4s1167.4-522.7,1167.4-1167.4v-6.1Z"/>
  </g>
</svg>