<?xml version="1.0" encoding="UTF-8"?><svg id="Layer_2" xmlns="http://www.w3.org/2000/svg" xmlns:xlink="http://www.w3.org/1999/xlink" viewBox="0 0 847 91.1"><defs><style>.cls-1{fill:url(#linear-gradient);}.cls-1,.cls-2{isolation:isolate;}.cls-3{fill:#4072fc;}.cls-2{fill:none;stroke:#4072fc;stroke-miterlimit:10;}</style><linearGradient id="linear-gradient" x1="-1827.8" y1="-3304.4" x2="-1737.6" y2="-3304.4" gradientTransform="translate(3728 -1737.1) rotate(-90)" gradientUnits="userSpaceOnUse"><stop offset="0" stop-color="#0043fb"/><stop offset="1" stop-color="#0043fb" stop-opacity="0"/></linearGradient></defs><g id="Layer_1-2"><rect id="bg" class="cls-1" x=".2" y=".5" width="846.8" height="90.2" transform="translate(847.2 91.2) rotate(180)"/><g id="lines-group"><line class="cls-2" x1="28.5" y1="40.2" x2="170.2" y2="68.5"/><line class="cls-2" x1=".4" y1="90.7" x2="78.6" y2="62.3"/><line class="cls-2" x1=".3" y1="66" x2="78.6" y2="62.3"/><line class="cls-2" x1=".3" y1="56.7" x2="28.5" y2="40.2"/><line class="cls-2" x1="170.2" y1="68.5" x2="246.7" y2="46.1"/><line class="cls-2" x1="60" y1="15" x2="246.7" y2="46.1"/><line class="cls-2" x1="246.7" y1="46.1" x2="379.6" y2="18.7"/><line class="cls-2" x1="246.7" y1="46.1" x2="441.9" y2="28.8"/><line class="cls-2" x1="441.9" y1="28.8" x2="513.5" y2=".5"/><line class="cls-2" x1="151.3" y1="13.4" x2="335.6" y2=".8"/><line class="cls-2" x1="246.7" y1="46.1" x2="223.2" y2=".7"/><line class="cls-2" x1="170.2" y1="68.8" x2="182.2" y2=".7"/><line class="cls-2" x1="151.7" y1="13.4" x2="79" y2="62.3"/><line class="cls-2" x1=".5" y1="6.4" x2="151.7" y2="13.4"/><line class="cls-2" x1="60" y1="15" x2="170.2" y2="68.5"/><line class="cls-2" x1="28.5" y1="40.2" x2="60" y2="15"/><line class="cls-2" x1=".2" y1="41.8" x2="28.5" y2="40.2"/><line class="cls-2" x1="48.3" y1=".6" x2="60" y2="15"/><line class="cls-2" x1=".5" y1="16.4" x2="28.5" y2="40.2"/><line class="cls-2" x1="838.1" y1=".5" x2="827.4" y2="56.3"/><line class="cls-2" x1="804.9" y1="79.4" x2="846" y2="90.7"/><line class="cls-2" x1="676.9" y1="65" x2="804.9" y2="79.4"/><line class="cls-2" x1="750.3" y1="37.2" x2="804.9" y2="80"/><line class="cls-2" x1="676.9" y1="65" x2="846.2" y2="70.3"/><line class="cls-2" x1="805.2" y1="80" x2="827.4" y2="56.3"/><line class="cls-2" x1="750.3" y1="37.2" x2="846.2" y2="44"/><line class="cls-2" x1="762" y1=".7" x2="773.6" y2="9.9"/><line class="cls-2" x1="773.6" y1="9.9" x2="750.3" y2="37.2"/><line class="cls-2" x1="541.4" y1=".6" x2="550.6" y2="12.2"/><line class="cls-2" x1="550.6" y1="12.2" x2="583.6" y2="46.4"/><line class="cls-2" x1="366.7" y1=".5" x2="583.6" y2="46.4"/><line class="cls-2" x1="433.2" y1=".5" x2="379.6" y2="18.7"/><line class="cls-2" x1="379.6" y1="18.7" x2="349.8" y2=".5"/><line class="cls-2" x1="636.2" y1=".8" x2="640.1" y2="6.4"/><line class="cls-2" x1="640.1" y1="6.3" x2="750.3" y2="37.2"/><line class="cls-2" x1="583.9" y1="46" x2="750.3" y2="37.2"/><line class="cls-2" x1="550.6" y1="12.2" x2="640.1" y2="6.4"/><line class="cls-2" x1="490.5" y1=".8" x2="550.6" y2="12.2"/><line class="cls-2" x1="640.1" y1="6.3" x2="676.9" y2="65"/><line class="cls-2" x1="583.9" y1="46" x2="773.6" y2="9.9"/></g><g id="circles"><circle class="cls-3" cx="28.4" cy="40" r="1.7"/><circle class="cls-3" cx="78.6" cy="62.2" r="1.7"/><circle class="cls-3" cx="59.9" cy="15" r="1.7"/><circle class="cls-3" cx="151.7" cy="13.3" r="1.7"/><circle class="cls-3" cx="170.1" cy="68.5" r="1.7"/><circle class="cls-3" cx="246.4" cy="45.9" r="1.7"/><circle class="cls-3" cx="379.1" cy="18.5" r="1.7"/><circle class="cls-3" cx="441.9" cy="28.8" r="1.7"/><circle class="cls-3" cx="550.6" cy="12" r="1.7"/><circle class="cls-3" cx="583.4" cy="46" r="1.7"/><circle class="cls-3" cx="640.1" cy="6.4" r="1.7"/><circle class="cls-3" cx="676.9" cy="65" r="1.7"/><circle class="cls-3" cx="750.3" cy="37.2" r="1.7"/><circle class="cls-3" cx="773.6" cy="9.9" r="1.7"/><circle class="cls-3" cx="804.9" cy="79.4" r="1.7"/><circle class="cls-3" cx="827.4" cy="56.3" r="1.7"/></g></g></svg>