<?xml version="1.0" encoding="UTF-8"?><svg id="Layer_2" xmlns="http://www.w3.org/2000/svg" xmlns:xlink="http://www.w3.org/1999/xlink" viewBox="0 0 846.4 91.1"><defs><style>.cls-1{fill:url(#linear-gradient);}.cls-1,.cls-2{isolation:isolate;}.cls-3{fill:#fff;}.cls-2{fill:#606060;stroke:#fff;stroke-miterlimit:10;}</style><linearGradient id="linear-gradient" x1="-157.7" y1="1292.6" x2="-67.5" y2="1292.6" gradientTransform="translate(-869.3 -67) rotate(-90)" gradientUnits="userSpaceOnUse"><stop offset="0" stop-color="#0043fb"/><stop offset="1" stop-color="#0043fb" stop-opacity="0"/></linearGradient></defs><g id="Layer_1-2"><rect id="bg" class="cls-1" x=".3" y=".5" width="846" height="90.2" transform="translate(846.6 91.2) rotate(180)"/><g id="lines-group"><line class="cls-2" x1="28.6" y1="40.2" x2="170.3" y2="68.5"/><line class="cls-2" x1=".5" y1="90.7" x2="78.7" y2="62.3"/><line class="cls-2" x1=".4" y1="66" x2="78.7" y2="62.3"/><line class="cls-2" x1=".4" y1="56.7" x2="28.6" y2="40.2"/><line class="cls-2" x1="170.3" y1="68.5" x2="246.8" y2="46.1"/><line class="cls-2" x1="60.1" y1="15" x2="246.8" y2="46.1"/><line class="cls-2" x1="246.8" y1="46.1" x2="379.7" y2="18.7"/><line class="cls-2" x1="246.8" y1="46.1" x2="442" y2="28.8"/><line class="cls-2" x1="442" y1="28.8" x2="513.6" y2=".5"/><line class="cls-2" x1="151.4" y1="13.4" x2="335.7" y2=".8"/><line class="cls-2" x1="246.8" y1="46.1" x2="223.3" y2=".7"/><line class="cls-2" x1="170.3" y1="68.8" x2="182.3" y2=".4"/><line class="cls-2" x1="151.8" y1="13.4" x2="79.1" y2="62.3"/><line class="cls-2" x1=".6" y1="6.4" x2="151.8" y2="13.4"/><line class="cls-2" x1="60.1" y1="15" x2="170.3" y2="68.5"/><line class="cls-2" x1="28.6" y1="40.2" x2="60.1" y2="15"/><line class="cls-2" x1=".3" y1="41.8" x2="28.6" y2="40.2"/><line class="cls-2" x1="48.4" y1=".6" x2="60.1" y2="15"/><line class="cls-2" x1=".3" y1="16.4" x2="28.6" y2="40.2"/><line class="cls-2" x1="838.2" y1=".5" x2="827.5" y2="56.3"/><line class="cls-2" x1="805" y1="79.4" x2="846.1" y2="90.7"/><line class="cls-2" x1="677" y1="65" x2="805" y2="79.4"/><line class="cls-2" x1="750.4" y1="37.2" x2="805" y2="80"/><line class="cls-2" x1="677" y1="65" x2="846.3" y2="70.3"/><line class="cls-2" x1="805.3" y1="80" x2="827.5" y2="56.3"/><line class="cls-2" x1="750.4" y1="37.2" x2="846.3" y2="44"/><line class="cls-2" x1="762.1" y1=".5" x2="773.7" y2="9.9"/><line class="cls-2" x1="773.7" y1="9.9" x2="750.4" y2="37.2"/><line class="cls-2" x1="541.5" y1=".6" x2="550.7" y2="12.2"/><line class="cls-2" x1="550.7" y1="12.2" x2="583.7" y2="46.4"/><line class="cls-2" x1="366.8" y1=".5" x2="583.7" y2="46.4"/><line class="cls-2" x1="433.3" y1=".5" x2="379.7" y2="18.7"/><line class="cls-2" x1="379.7" y1="18.7" x2="349.9" y2=".5"/><line class="cls-2" x1="636.3" y1=".5" x2="640.2" y2="6.4"/><line class="cls-2" x1="640.2" y1="6.3" x2="750.4" y2="37.2"/><line class="cls-2" x1="584" y1="46" x2="750.4" y2="37.2"/><line class="cls-2" x1="550.7" y1="12.2" x2="640.2" y2="6.4"/><line class="cls-2" x1="490.6" y1=".8" x2="550.7" y2="12.2"/><line class="cls-2" x1="640.2" y1="6.3" x2="677" y2="65"/><line class="cls-2" x1="584" y1="46" x2="773.7" y2="9.9"/></g><g id="circles"><circle class="cls-3" cx="28.5" cy="40" r="1.7"/><circle class="cls-3" cx="78.7" cy="62.2" r="1.7"/><circle class="cls-3" cx="60" cy="15" r="1.7"/><circle class="cls-3" cx="151.8" cy="13.3" r="1.7"/><circle class="cls-3" cx="170.2" cy="68.5" r="1.7"/><circle class="cls-3" cx="246.5" cy="45.9" r="1.7"/><circle class="cls-3" cx="379.2" cy="18.5" r="1.7"/><circle class="cls-3" cx="442" cy="28.8" r="1.7"/><circle class="cls-3" cx="550.7" cy="12" r="1.7"/><circle class="cls-3" cx="583.5" cy="46" r="1.7"/><circle class="cls-3" cx="640.2" cy="6.4" r="1.7"/><circle class="cls-3" cx="677" cy="65" r="1.7"/><circle class="cls-3" cx="750.4" cy="37.2" r="1.7"/><circle class="cls-3" cx="773.7" cy="9.9" r="1.7"/><circle class="cls-3" cx="805" cy="79.4" r="1.7"/><circle class="cls-3" cx="827.5" cy="56.3" r="1.7"/></g></g></svg>