<?xml version="1.0" encoding="UTF-8"?>
<svg id="Layer_1" xmlns="http://www.w3.org/2000/svg" version="1.1" viewBox="0 0 500 500">
  <!-- Generator: Adobe Illustrator 29.2.1, SVG Export Plug-In . SVG Version: 2.1.0 Build 116)  -->
  <defs>
    <style>
      .st0 {
        fill: #fff;
      }

      .st1 {
        fill: #0669ac;
      }
    </style>
  </defs>
  <rect class="st1" x="0" y="0" width="500" height="500" rx="250" ry="250"/>
  <path class="st0" d="M75.4,147.9c-35.4,50.9-31,117.1-3.9,171.2.6,1.3,1.3,2.6,2,3.8.4.8.8,1.6,1.3,2.5.2.5.5.9.8,1.4.4.9.9,1.7,1.4,2.5.9,1.5,1.7,3,2.6,4.4.5.8,1,1.6,1.5,2.4.9,1.6,2,3.1,3,4.7.4.7.8,1.3,1.3,2,1.4,2.1,2.8,4.2,4.3,6.3,0,0,0,.1.1.1.2.4.5.7.7,1,1.3,1.8,2.6,3.5,4,5.2.5.6,1,1.3,1.4,1.9,1.2,1.5,2.5,3,3.7,4.5.5.5.9,1.1,1.4,1.6,1.6,2,3.3,3.9,5.1,5.8,0,0,0,0,0,.1,0,0,.1.1.2.2,1.7,1.8,3.4,3.6,5.1,5.5.6.5,1.1,1.1,1.7,1.7,1.3,1.4,2.7,2.7,4.1,4,.6.5,1.2,1.1,1.7,1.6,1.9,1.7,3.7,3.5,5.7,5.1,0,0,0,0,0,0,.3.3.7.5,1,.8,1.7,1.5,3.4,2.9,5.2,4.4.7.6,1.4,1.1,2.1,1.7,1.4,1.1,2.9,2.2,4.4,3.4.8.6,1.5,1.1,2.3,1.7,1.6,1.2,3.2,2.3,4.8,3.5.6.4,1.2.8,1.8,1.2.1.1.3.2.5.4,1.6,1,3.1,2.1,4.7,3.1.7.5,1.4.9,2,1.3,2.4,1.5,4.9,3,7.3,4.5.7.4,1.4.8,2.1,1.1,1.8,1,3.6,2.1,5.5,3.1,1,.6,2,1.1,3.1,1.6,1.2.7,2.6,1.4,3.9,2.1.3.1.6.2.9.4.6.2,1.1.5,1.6.8,2,1,4.1,2,6.3,2.9.4.2.8.4,1.3.6,2.4,1,4.8,2,7.3,3,.6.2,1.2.5,1.8.7,2.2.9,4.6,1.7,6.9,2.5.3.1.6.2.8.3,2.6.9,5.1,1.7,7.7,2.5.6.2,1.2.4,1.9.5,2.6.8,5.2,1.7,7.9,2.2,171.3,31.2,221-102.9,221-102.9-41.8,54.4-116,68.8-186.3,52.8-2.6-.6-5.2-1.4-7.8-2.2-.6-.2-1.3-.4-1.9-.6-2.6-.8-5.1-1.6-7.5-2.4-.4-.1-.7-.2-1.1-.4-2.2-.8-4.4-1.6-6.6-2.5-.6-.3-1.2-.5-1.9-.7-2.4-1-4.8-2-7.2-3-.5-.2-1-.4-1.4-.6-2.1-1-4-1.9-6-2.8-.6-.3-1.2-.5-1.8-.9-1.6-.7-3.1-1.6-4.7-2.4-1.1-.5-2.1-1.1-3.1-1.6-1.9-1-3.8-2.1-5.7-3.1-.6-.4-1.2-.7-1.9-1.1-2.4-1.5-4.9-3-7.3-4.5-.7-.4-1.3-.9-2-1.3-1.8-1.1-3.5-2.3-5.2-3.5-.6-.4-1.1-.8-1.7-1.2-1.6-1.2-3.3-2.3-4.9-3.5-.7-.5-1.4-1.1-2.2-1.6-1.5-1.1-3-2.3-4.4-3.5-.6-.5-1.3-1.1-1.9-1.6-1.9-1.5-3.7-3.1-5.5-4.7-.2-.2-.4-.4-.6-.5-1.9-1.7-3.9-3.5-5.8-5.3-.6-.5-1.1-1.1-1.6-1.6-1.4-1.4-2.8-2.7-4.1-4.1-.6-.6-1.1-1.1-1.6-1.7-1.7-1.8-3.4-3.6-5.1-5.4,0,0-.2-.2-.3-.3-1.8-1.9-3.5-3.9-5.2-5.9-.5-.5-.9-1.1-1.4-1.6-1.2-1.5-2.5-3.1-3.8-4.6-.4-.6-.9-1.2-1.3-1.7-1.5-1.9-2.9-3.8-4.3-5.8-39-53.2-53.1-126.6-21.9-186.9"/>
  <path class="st0" d="M185.4,104.9c-25.7,36.8-24.3,86.2-4.3,125.2,3.3,6.5,7.1,12.9,11.3,18.9,3.8,5.5,8.1,12,13.2,16.5,1.8,2,3.7,4,5.8,6,.5.5,1,1,1.5,1.5,1.9,1.8,3.9,3.6,5.9,5.4,0,0,.2.1.2.2,0,0,0,0,0,0,2.2,2,4.5,3.8,6.9,5.7.6.4,1,.8,1.6,1.2,2.3,1.8,4.7,3.5,7.1,5.3,0,0,.1,0,.3.1,1,.8,2.1,1.5,3.3,2.2.5.3,1,.7,1.5,1,1.8,1.1,3.5,2.2,5.3,3.3.3.1.5.3.8.4,1.5.9,3.1,1.8,4.7,2.6.6.3,1.1.6,1.6.9,1.1.5,2.2,1.1,3.3,1.7.1,0,.4.2.5.2,2.3,1.1,4.5,2.1,6.8,3.2.5.2,1,.4,1.5.6,1.9.8,3.7,1.6,5.6,2.3.8.3,1.6.6,2.4.9,1.7.6,3.5,1.2,5.2,1.8.8.3,1.6.5,2.4.8,2.4.8,4.9,1.8,7.5,2.2,132.2,21.9,162.8-79.9,162.8-79.9-27.5,39.7-80.8,58.5-137.7,43.8-2.5-.6-5-1.4-7.5-2.2-.8-.2-1.5-.5-2.2-.7-1.8-.6-3.5-1.2-5.2-1.8-.8-.3-1.6-.6-2.4-.9-1.9-.7-3.8-1.5-5.6-2.3-.5-.2-1.1-.4-1.5-.6-2.4-1-4.7-2.1-6.9-3.2-1.2-.6-2.3-1.2-3.5-1.8-.7-.4-1.4-.7-2-1-1.5-.8-3-1.6-4.4-2.5-.4-.2-.7-.4-1-.6-1.8-1.1-3.6-2.1-5.3-3.3-.6-.3-1.1-.7-1.6-1.1-1.2-.7-2.3-1.5-3.5-2.3-2.4-1.7-4.8-3.4-7.1-5.2-.6-.4-1.1-.9-1.6-1.3-24.9-19.6-44.7-46.5-54-76.9-9.9-31.6-7.7-67.1,9.3-95.8"/>
  <path class="st0" d="M277.8,72.9c-15.1,22.2-16.6,49.8-6.1,74.3,11.1,26.1,33.7,46.5,60.1,56.2,1.1.4,2.1.8,3.2,1.1.5.1,1,.3,1.5.5,1.5.5,3.1,1.1,4.7,1.4,73,14.1,92.8-37.5,98.1-45.1-17.4,25-46.5,31-82.3,22.3-2.8-.7-5.9-1.7-8.6-2.7-3.5-1.2-6.9-2.7-10.3-4.2-6.3-3.1-12.4-6.7-18-11-32-24.3-51.9-70.6-31-108.3"/>
</svg>