<?xml version="1.0" encoding="UTF-8"?>
<svg id="Layer_1" xmlns="http://www.w3.org/2000/svg" version="1.1" viewBox="0 0 500 500">
  <!-- Generator: Adobe Illustrator 29.2.1, SVG Export Plug-In . SVG Version: 2.1.0 Build 116)  -->
  <defs>
    <style>
      .st0 {
        fill: #fff;
      }

      .st1 {
        fill: #0669ac;
      }
    </style>
  </defs>
  <rect class="st1" width="500" height="500" rx="50" ry="50"/>
  <path class="st0" d="M75.42,147.85c-35.42,50.89-31.04,117.09-3.94,171.17.61,1.32,1.31,2.57,1.97,3.84.38.83.81,1.65,1.28,2.47.2.45.52.94.78,1.38.44.88.9,1.7,1.36,2.54.87,1.47,1.74,2.96,2.61,4.41.49.81.96,1.62,1.51,2.44.93,1.57,2,3.12,2.96,4.68.43.67.84,1.32,1.31,1.97,1.39,2.12,2.79,4.21,4.32,6.27,0,.06.06.12.11.14.23.35.49.68.73,1,1.31,1.78,2.61,3.53,3.98,5.25.46.64.98,1.27,1.45,1.9,1.25,1.51,2.47,3.02,3.68,4.51.47.53.93,1.1,1.42,1.65,1.62,1.96,3.34,3.9,5.08,5.82,0,.03.06.07.09.11.06.07.11.14.23.22,1.68,1.84,3.39,3.65,5.13,5.45.55.55,1.1,1.09,1.71,1.67,1.33,1.35,2.67,2.71,4.09,4.05.58.55,1.16,1.09,1.71,1.62,1.86,1.74,3.71,3.48,5.66,5.15.03.03.06.05.09.07.32.28.67.55.96.83,1.71,1.47,3.42,2.91,5.16,4.35.7.58,1.39,1.13,2.09,1.7,1.45,1.15,2.9,2.25,4.35,3.35.76.57,1.51,1.15,2.29,1.74,1.57,1.17,3.19,2.32,4.79,3.45.58.42,1.16.84,1.77,1.23.14.13.32.25.46.36,1.59,1.04,3.1,2.06,4.67,3.09.69.45,1.36.88,2.03,1.33,2.44,1.55,4.87,3.05,7.28,4.5.69.36,1.39.75,2.06,1.15,1.8,1.04,3.63,2.08,5.48,3.06,1.01.57,2.03,1.06,3.07,1.58,1.25.68,2.55,1.38,3.89,2.06.32.13.64.25.93.41.55.25,1.07.52,1.59.78,2.03,1,4.12,1.95,6.27,2.9.41.19.84.36,1.28.58,2.41,1.04,4.82,2.05,7.28,3.02.58.22,1.16.48,1.77.68,2.24.87,4.55,1.73,6.85,2.55.29.12.55.21.84.3,2.55.87,5.07,1.7,7.66,2.5.61.17,1.22.39,1.86.55,2.64.8,5.19,1.73,7.89,2.24,171.26,31.22,221.02-102.92,221.02-102.92-41.81,54.41-115.99,68.79-186.26,52.8-2.61-.59-5.19-1.42-7.83-2.21-.61-.17-1.31-.38-1.92-.59-2.55-.77-5.07-1.6-7.54-2.44-.35-.11-.72-.24-1.07-.39-2.23-.77-4.44-1.61-6.64-2.46-.61-.26-1.25-.48-1.86-.71-2.44-.96-4.84-1.99-7.19-3.02-.52-.19-.96-.41-1.45-.61-2.06-.95-4.03-1.87-6.03-2.83-.61-.26-1.16-.55-1.77-.85-1.57-.74-3.13-1.57-4.67-2.38-1.07-.55-2.12-1.06-3.13-1.62-1.89-1.01-3.77-2.09-5.66-3.13-.58-.39-1.22-.73-1.89-1.09-2.44-1.45-4.9-2.95-7.31-4.48-.69-.44-1.34-.87-1.97-1.32-1.77-1.12-3.51-2.29-5.22-3.45-.55-.39-1.1-.8-1.68-1.2-1.65-1.16-3.28-2.33-4.93-3.54-.7-.55-1.42-1.1-2.18-1.65-1.48-1.15-2.96-2.28-4.44-3.47-.64-.53-1.31-1.06-1.95-1.58-1.91-1.54-3.71-3.08-5.54-4.67-.17-.19-.43-.35-.64-.51-1.94-1.74-3.89-3.52-5.8-5.29-.58-.55-1.07-1.06-1.65-1.58-1.39-1.36-2.79-2.69-4.15-4.08-.58-.58-1.1-1.12-1.65-1.67-1.74-1.76-3.45-3.57-5.13-5.42-.09-.08-.17-.16-.26-.26-1.77-1.94-3.48-3.92-5.19-5.92-.47-.54-.9-1.09-1.36-1.61-1.25-1.54-2.5-3.09-3.77-4.63-.41-.6-.87-1.16-1.34-1.74-1.48-1.9-2.9-3.8-4.32-5.76-38.99-53.2-53.06-126.61-21.87-186.85"/>
  <path class="st0" d="M185.38,104.95c-25.68,36.85-24.26,86.18-4.27,125.17,3.31,6.53,7.08,12.87,11.31,18.89,3.83,5.51,8.07,12.04,13.2,16.46,1.8,2.03,3.74,4,5.75,5.99.49.49.99.98,1.51,1.5,1.92,1.84,3.86,3.65,5.86,5.42.06.08.17.15.24.22.03.02.06.04.06.04,2.23,1.97,4.5,3.84,6.85,5.67.55.39,1.04.83,1.59,1.22,2.32,1.81,4.7,3.55,7.11,5.26.09.03.14.09.26.13,1.04.75,2.14,1.45,3.28,2.17.49.32,1.01.69,1.51,1,1.77,1.15,3.51,2.22,5.31,3.28.26.13.52.27.78.4,1.51.91,3.1,1.81,4.7,2.63.55.33,1.1.6,1.65.9,1.1.55,2.21,1.13,3.28,1.7.14.08.35.16.52.23,2.26,1.12,4.55,2.14,6.82,3.18.55.22,1.02.41,1.54.62,1.86.8,3.74,1.58,5.6,2.29.84.28,1.62.61,2.41.88,1.71.61,3.45,1.2,5.17,1.77.84.28,1.59.51,2.35.76,2.44.77,4.9,1.76,7.48,2.16,132.18,21.92,162.76-79.9,162.76-79.9-27.53,39.66-80.83,58.55-137.69,43.78-2.55-.65-5.05-1.38-7.49-2.18-.78-.2-1.48-.45-2.23-.71-1.77-.57-3.54-1.16-5.25-1.8-.78-.29-1.59-.58-2.38-.88-1.89-.74-3.77-1.47-5.6-2.28-.55-.22-1.07-.41-1.51-.64-2.35-1.02-4.67-2.11-6.93-3.19-1.16-.6-2.29-1.18-3.45-1.78-.69-.35-1.36-.68-1.97-1-1.54-.8-2.96-1.64-4.41-2.49-.35-.19-.69-.36-1.04-.57-1.77-1.07-3.6-2.14-5.28-3.26-.58-.33-1.07-.71-1.62-1.06-1.16-.74-2.29-1.48-3.48-2.28-2.41-1.67-4.76-3.44-7.1-5.21-.55-.45-1.07-.85-1.6-1.29-24.95-19.64-44.68-46.5-54.02-76.93-9.86-31.6-7.69-67.06,9.31-95.83"/>
  <path class="st0" d="M277.81,72.91c-15.14,22.22-16.6,49.83-6.15,74.34,11.08,26.06,33.74,46.49,60.15,56.17,1.07.42,2.14.77,3.25,1.15.49.14.96.3,1.48.46,1.54.48,3.07,1.06,4.67,1.37,73.02,14.1,92.81-37.47,98.12-45.06-17.38,24.98-46.54,30.97-82.31,22.28-2.81-.68-5.89-1.7-8.62-2.68-3.48-1.23-6.93-2.67-10.3-4.25-6.29-3.06-12.39-6.74-18.02-11.01-32.03-24.28-51.87-70.6-30.99-108.33"/>
</svg>