<?xml version="1.0" encoding="UTF-8"?>
<svg id="Layer_1" xmlns="http://www.w3.org/2000/svg" version="1.1" viewBox="0 0 500 500">
  <!-- Generator: Adobe Illustrator 29.2.1, SVG Export Plug-In . SVG Version: 2.1.0 Build 116)  -->
  <defs>
    <style>
      .st0 {
        fill: #fff;
        fill-rule: evenodd;
      }

      .st1 {
        fill: #00678c;
      }
    </style>
  </defs>
  <rect class="st1" width="500" height="500" rx="50" ry="50"/>
  <path class="st0" d="M417.97,356.45c-21.7-.6-38.53,1.62-52.64,7.55-4.06,1.63-10.58,1.63-11.12,6.74,2.17,2.15,2.43,5.66,4.34,8.63,3.25,5.4,8.96,12.67,14.11,16.44l17.36,12.41c10.58,6.47,22.52,10.24,32.83,16.72,5.97,3.78,11.94,8.63,17.91,12.68,3.04,2.16,4.88,5.67,8.68,7.01v-.82c-1.9-2.42-2.44-5.92-4.34-8.63l-8.15-7.81c-7.86-10.52-17.64-19.69-28.22-27.23-8.68-5.93-27.67-14.02-31.2-23.99l-.54-.6c5.96-.6,13.01-2.7,18.72-4.32,9.23-2.42,17.64-1.89,27.12-4.31l13.03-3.78v-2.42c-4.88-4.85-8.41-11.33-13.56-15.91-13.83-11.86-29.04-23.46-44.78-33.17-8.41-5.39-19.27-8.9-28.22-13.48-3.27-1.62-8.68-2.43-10.58-5.12-4.9-5.92-7.6-13.75-11.13-20.77l-22.25-46.92c-4.88-10.52-7.88-21.03-13.83-30.74-27.95-45.84-58.34-73.61-105.01-100.85-10.03-5.66-21.97-8.1-34.66-11.06l-20.35-1.09c-4.35-1.89-8.68-7.01-12.48-9.44-15.46-9.71-55.35-30.74-66.75-3.02-7.33,17.53,10.86,34.78,17.03,43.68,4.62,6.2,10.58,13.21,13.85,20.22,1.82,4.58,2.43,9.44,4.34,14.29,4.34,11.86,8.41,25.08,14.11,36.14,3.04,5.66,6.23,11.6,10.03,16.72,2.17,3.02,5.97,4.32,6.78,9.17-3.8,5.4-4.06,13.48-6.23,20.23-9.77,30.47-5.97,68.22,7.86,90.65,4.35,6.74,14.6,21.58,28.5,15.91,12.21-4.85,9.49-20.22,13.01-33.71.82-3.23.27-5.39,1.9-7.55v.6l11.13,22.38c8.41,13.21,23.07,26.97,35.27,36.14,6.51,4.85,11.66,13.22,19.8,16.18v-.82h-.54c-1.63-2.42-4.07-3.51-6.25-5.39-4.88-4.85-10.31-10.79-14.11-16.18-11.39-15.1-21.42-31.82-30.38-49.07-4.35-8.36-8.15-17.53-11.66-25.88-1.64-3.24-1.64-8.1-4.35-9.71-4.07,5.92-10.03,11.06-13.03,18.34-5.16,11.59-5.69,25.88-7.59,40.72-1.09.27-.61,0-1.09.6-8.67-2.15-11.66-11.06-14.92-18.6-8.14-19.15-9.5-49.88-2.44-72,1.9-5.66,10.05-23.46,6.79-28.85-1.64-5.12-7.05-8.09-10.05-12.14-3.53-5.12-7.32-11.59-9.76-17.25-6.51-15.11-9.76-31.82-16.82-46.92-3.27-7.01-8.96-14.29-13.57-20.76-5.16-7.28-10.84-12.41-14.92-21.03-1.36-3.02-3.25-7.82-1.08-11.06.54-2.16,1.63-3.02,3.79-3.51,3.53-3.02,13.57.81,17.1,2.42,10.03,4.05,18.44,7.82,26.86,13.48,3.8,2.7,7.88,7.82,12.76,9.17h5.7c8.68,1.89,18.44.6,26.58,3.02,14.38,4.59,27.4,11.33,39.08,18.61,35.54,22.38,64.85,54.2,84.65,92.23,3.25,6.2,4.61,11.86,7.6,18.34,5.7,13.22,12.76,26.69,18.44,39.65,5.7,12.67,11.13,25.62,19.27,36.14,4.07,5.66,20.35,8.62,27.67,11.59,5.43,2.42,13.83,4.59,18.73,7.55,9.22,5.66,18.44,12.14,27.12,18.34,4.34,3.23,17.91,9.97,18.72,15.35l.03-.14ZM141.27,122.12c-3.75-.03-7.49.42-11.12,1.35v.6h.54c2.17,4.32,5.97,7.28,8.68,11.06l6.25,12.95.54-.6c3.8-2.7,5.7-7.01,5.7-13.48-1.63-1.89-1.9-3.78-3.25-5.66-1.63-2.7-5.16-4.05-7.33-6.2h0Z"/>
</svg>