<?xml version="1.0" encoding="UTF-8"?>
<svg id="Layer_1" xmlns="http://www.w3.org/2000/svg" version="1.1" xmlns:xlink="http://www.w3.org/1999/xlink" viewBox="0 0 800 800">
  <!-- Generator: Adobe Illustrator 29.2.1, SVG Export Plug-In . SVG Version: 2.1.0 Build 116)  -->
  <defs>
    <style>
      .st0 {
        fill: #fff;
      }
    </style>
  </defs>
  <path d="M373.8.2c-1.7.2-7.2.7-12.1,1.1C248.1,11.6,141.6,72.8,74.2,167.1,36.7,219.5,12.7,278.9,3.6,341.8c-3.2,22-3.6,28.5-3.6,58.2s.4,36.3,3.6,58.2c21.7,150.2,128.6,276.4,273.6,323.2,26,8.4,53.3,14.1,84.5,17.5,12.1,1.3,64.5,1.3,76.6,0,53.7-5.9,99.2-19.2,144.1-42.1,6.9-3.5,8.2-4.5,7.3-5.2-.6-.5-30-39.8-65.1-87.3l-64-86.4-80.2-118.6c-44.1-65.2-80.4-118.5-80.7-118.5-.3,0-.6,52.6-.8,117-.2,112.7-.3,117.2-1.7,119.9-2,3.8-3.6,5.4-6.9,7.1-2.5,1.2-4.7,1.5-16.5,1.5h-13.5l-3.6-2.3c-2.4-1.5-4.1-3.4-5.2-5.7l-1.6-3.5.2-156.8.2-156.9,2.4-3c1.2-1.6,3.9-3.8,5.8-4.8,3.2-1.6,4.5-1.7,18-1.7s18.6.6,22.8,5.2c1.2,1.2,44.6,66.6,96.5,145.4,51.9,78.7,122.9,186.2,157.8,239l63.3,95.9,3.2-2.1c28.4-18.5,58.4-44.7,82.2-72.1,50.6-58.1,83.2-128.9,94.2-204.5,3.2-22,3.6-28.5,3.6-58.2s-.4-36.3-3.6-58.2c-21.7-150.2-128.6-276.4-273.6-323.2-25.6-8.3-52.8-14-83.3-17.4-7.5-.8-59.2-1.6-65.7-1h0ZM537.6,242.1c3.8,1.9,6.8,5.5,7.9,9.2.6,2,.8,45.5.6,143.5l-.2,140.6-24.8-38-24.9-38v-102.2c0-66.1.3-103.2.8-105,1.2-4.4,4-7.8,7.7-9.9,3.2-1.6,4.4-1.8,16.7-1.8s13.6.2,16.2,1.6h0Z"/>
  <g>
    <path class="st0" d="M553.5,641.1c-34.9-52.8-105.9-160.3-157.8-239-51.9-78.7-95.3-144.1-96.5-145.4-4.2-4.5-6.8-5.2-22.8-5.2s-14.8.2-18,1.7c-1.9,1-4.5,3.1-5.8,4.8l-2.4,3-.2,156.9-.2,156.8,1.6,3.5c1.2,2.3,2.9,4.2,5.2,5.7l3.6,2.3h13.5c11.8,0,14-.2,16.5-1.5,3.3-1.7,4.9-3.3,6.9-7.1,1.4-2.7,1.5-7.2,1.7-119.9.1-64.4.5-117,.8-117,.3,0,36.6,53.3,80.7,118.5l80.2,118.6,64,86.4c35.2,47.5,64.5,86.9,65.1,87.3.2.1.3.3.3.5,9-4.9,17.9-10.1,26.5-15.7l-63-95.3Z"/>
    <path class="st0" d="M545.9,535.4l.2-140.6c.2-98,0-141.4-.6-143.5-1.1-3.8-4.2-7.3-7.9-9.2h0c-2.6-1.4-4.6-1.6-16.2-1.6s-13.5.2-16.7,1.8c-3.8,2-6.5,5.5-7.7,9.9-.5,1.8-.8,38.9-.8,105v102.2l24.9,38,24.8,38Z"/>
  </g>
</svg>