<?xml version="1.0" encoding="UTF-8"?>
<svg id="Layer_1" xmlns="http://www.w3.org/2000/svg" version="1.1" viewBox="0 0 145.4 145.4">
  <!-- Generator: Adobe Illustrator 29.2.1, SVG Export Plug-In . SVG Version: 2.1.0 Build 116)  -->
  <defs>
    <style>
      .st0 {
        fill: #689f63;
      }

      .st1 {
        fill: #fff;
      }
    </style>
  </defs>
  <path class="st1" d="M8.15,42.32v60.31c0,4.26,2.28,8.2,5.97,10.33l52.34,30.17c3.69,2.13,8.23,2.13,11.92,0l52.34-30.17c3.69-2.13,5.97-6.07,5.97-10.33v-60.31c0-4.26-2.28-8.2-5.97-10.33L78.38,1.81c-3.69-2.13-8.23-2.13-11.92,0L14.12,31.98c-3.69,2.13-5.97,6.07-5.97,10.33Z"/>
  <path class="st0" d="M72.75,145.4c-1.9,0-3.9-.5-5.6-1.5l-17.8-10.5c-2.7-1.5-1.4-2-.5-2.3,3.5-1.2,4.3-1.5,8-3.7.4-.2.9-.1,1.3,0l13.7,8.1c.5.3,1.2.3,1.7,0l53.3-30.7c.5-.3.8-.9.8-1.4v-61.5c0-.6-.3-1.2-.8-1.5l-53.2-30.7c-.5-.3-1.1-.3-1.6,0l-53.3,30.7c-.5.3-.8.9-.8,1.5v61.5c0,.6.3,1.1.8,1.4l14.6,8.4c7.9,4,12.8-.7,12.8-5.4v-60.7c0-.9.7-1.5,1.5-1.5h6.7c.8,0,1.5.7,1.5,1.5v60.7c0,10.6-5.8,16.6-15.8,16.6s-5.5,0-12.3-3.3l-14-8.1c-3.5-2-5.6-5.7-5.6-9.7v-61.5c0-4,2.1-7.7,5.6-9.7L67.15,1.4c3.4-1.9,7.9-1.9,11.2,0l53.3,30.8c3.4,2,5.6,5.7,5.6,9.7v61.5c0,4-2.1,7.7-5.6,9.7l-53.3,30.8c-1.7,1-3.6,1.5-5.6,1.5"/>
  <path class="st0" d="M89.25,103c-23.3,0-28.2-10.7-28.2-19.7s.7-1.5,1.5-1.5h6.9c.8,0,1.4.6,1.5,1.3,1,7,4.1,10.5,18.2,10.5s16-2.5,16-8.5-1.4-6-18.8-7.7c-14.6-1.4-23.6-4.7-23.6-16.3s9.1-17.1,24.3-17.1,25.5,5.9,26.6,18.6c0,.4-.1.9-.4,1.2s-.7.5-1.1.5h-6.9c-.7,0-1.3-.5-1.5-1.2-1.7-7.4-5.7-9.7-16.6-9.7s-13.7,4.3-13.7,7.5,1.7,5,18.2,7.2c16.4,2.2,24.1,5.2,24.1,16.7s-9.7,18.3-26.6,18.3"/>
</svg>