<?xml version="1.0" encoding="UTF-8"?>
<svg id="Playwright--Streamline-Svg-Logos" xmlns="http://www.w3.org/2000/svg" version="1.1" viewBox="0 0 23.5 23.5">
  <!-- Generator: Adobe Illustrator 29.7.1, SVG Export Plug-In . SVG Version: 2.1.1 Build 8)  -->
  <defs>
    <style>
      .st0 {
        fill: #d65348;
      }

      .st1 {
        fill: #1d8d22;
      }

      .st2 {
        fill: #e2574c;
      }

      .st3 {
        fill: #2d4552;
      }

      .st4 {
        fill: #c04b41;
      }

      .st5 {
        fill: #2ead33;
      }
    </style>
  </defs>
  <path class="st3" d="M7.8,12.9c-.9.2-1.5.7-1.8,1.1.4-.3.8-.6,1.5-.8.7-.2,1.2-.2,1.7,0v-.4c-.4,0-.9,0-1.4.1ZM5.9,9.8l-3.3.9s0,0,.2.2l2.8-.7s0,.5-.4,1c.6-.5.7-1.3.7-1.3ZM8.6,17.4c-4.6,1.2-7-4.1-7.7-6.8-.3-1.3-.5-2.2-.5-2.9,0,0,0-.1,0-.2-.2,0-.4.1-.3.5,0,.6.2,1.6.5,2.9.7,2.8,3.2,8.1,7.7,6.8,1-.3,1.7-.8,2.3-1.4-.5.5-1.2.8-2,1.1ZM9.5,6.5v.3h1.8c0-.1,0-.2-.1-.3h-1.7Z"/>
  <path class="st3" d="M11.7,9.2c.8.2,1.2.8,1.5,1.3l.9.3s-.1-1.8-1.7-2.2c-1.5-.4-2.4.8-2.5,1,.4-.3,1.1-.6,1.9-.3ZM18.8,10.5c-1.5-.4-2.4.8-2.5,1,.4-.3,1.1-.6,1.9-.3.8.2,1.2.8,1.5,1.3l.9.3s-.1-1.8-1.7-2.2ZM18,15.2l-7.5-2.1s0,.4.4.9l6.3,1.8c.5-.3.8-.6.8-.6ZM12.8,19.7c-5.9-1.6-5.2-9.2-4.3-12.7.4-1.5.8-2.6,1.1-3.3-.2,0-.4,0-.5.4-.4.7-.8,1.9-1.3,3.6-1,3.6-1.7,11.2,4.3,12.7,2.8.8,5-.4,6.6-2.2-1.5,1.4-3.5,2.2-6,1.5Z"/>
  <path class="st2" d="M9.5,15.7v-1.5l-4.2,1.2s.3-1.8,2.5-2.4c.7-.2,1.2-.2,1.7,0v-6.3h2.1c-.2-.7-.5-1.3-.6-1.6-.3-.6-.6-.2-1.4.4-.5.4-1.8,1.3-3.7,1.9-1.9.5-3.5.4-4.2.3-.9-.2-1.4-.4-1.4.3,0,.6.2,1.6.5,2.9.7,2.8,3.2,8.1,7.7,6.8,1.2-.3,2-1,2.6-1.8h-1.8ZM2.6,10.6l3.3-.9s0,1.3-1.3,1.6c-1.2.3-1.9-.7-1.9-.7Z"/>
  <path class="st5" d="M21.7,6.6c-.8.1-2.9.3-5.4-.3-2.5-.7-4.2-1.8-4.8-2.4-.9-.8-1.3-1.3-1.8-.5-.4.7-.8,1.9-1.3,3.6-1,3.6-1.7,11.2,4.3,12.7,5.9,1.6,9.1-5.3,10.1-8.9.4-1.7.6-2.9.7-3.7,0-.9-.6-.6-1.8-.4ZM9.8,9.6s.9-1.5,2.5-1c1.6.5,1.7,2.2,1.7,2.2l-4.2-1.2ZM13.7,16.1c-2.8-.8-3.2-3-3.2-3l7.5,2.1s-1.5,1.8-4.3.9ZM16.3,11.5s.9-1.5,2.5-1c1.6.5,1.7,2.2,1.7,2.2,0,0-4.2-1.2-4.2-1.2Z"/>
  <path class="st0" d="M8,14.6l-2.8.8s.3-1.7,2.3-2.4l-1.6-5.9h-.1c-1.9.6-3.5.4-4.2.3-.9-.2-1.4-.4-1.4.3,0,.6.2,1.6.5,2.9.7,2.8,3.2,8.1,7.7,6.8h.1s-.8-2.9-.8-2.9ZM2.6,10.6l3.3-.9s0,1.3-1.3,1.6c-1.2.3-1.9-.7-1.9-.7Z"/>
  <path class="st1" d="M13.8,16.1h-.1c-2.8-.8-3.2-3.1-3.2-3.1l3.9,1.1,2-7.9h0c-2.5-.7-4.2-1.9-4.8-2.4-.9-.8-1.3-1.3-1.8-.5-.4.7-.8,1.9-1.3,3.6-1,3.6-1.7,11.2,4.3,12.7h.1s.9-3.5.9-3.5ZM9.8,9.6s.9-1.5,2.5-1c1.6.5,1.7,2.2,1.7,2.2l-4.2-1.2Z"/>
  <path class="st4" d="M8.1,14.5l-.7.2c.2,1,.5,1.9,1,2.8,0,0,.2,0,.3,0,.2,0,.4-.1.6-.2-.5-.8-.9-1.7-1.1-2.7ZM7.8,7.6c-.4,1.4-.7,3.5-.6,5.5.2,0,.3-.1.5-.2h.1c-.2-2.2.2-4.5.6-6,.1-.4.2-.7.3-1.1-.2.1-.3.2-.5.3-.1.4-.3.9-.4,1.4Z"/>
</svg>