<?xml version="1.0" encoding="UTF-8"?>
<svg id="Layer_1" xmlns="http://www.w3.org/2000/svg" version="1.1" viewBox="0 0 500 500">
  <!-- Generator: Adobe Illustrator 29.2.1, SVG Export Plug-In . SVG Version: 2.1.0 Build 116)  -->
  <defs>
    <style>
      .st0 {
        fill: #61dafb;
      }

      .st1 {
        fill: #23272f;
      }
    </style>
  </defs>
  <rect class="st1" width="500" height="500" rx="50" ry="50"/>
  <path class="st0" d="M450.2,250.04c0-26.51-33.2-51.63-84.09-67.21,11.75-51.88,6.53-93.15-16.48-106.36-5.3-3.1-11.5-4.57-18.27-4.57v18.19c3.75,0,6.77.73,9.3,2.12,11.09,6.36,15.91,30.59,12.15,61.74-.9,7.67-2.36,15.74-4.16,23.98-15.99-3.92-33.44-6.93-51.79-8.89-11.01-15.09-22.43-28.79-33.93-40.78,26.59-24.71,51.55-38.25,68.52-38.25v-18.19c-22.43,0-51.79,15.99-81.48,43.72-29.69-27.57-59.05-43.39-81.48-43.39v18.19c16.88,0,41.92,13.46,68.51,38.01-11.42,11.99-22.84,25.61-33.69,40.7-18.43,1.96-35.89,4.98-51.87,8.97-1.88-8.16-3.26-16.07-4.24-23.65-3.83-31.16.9-55.38,11.91-61.83,2.45-1.47,5.63-2.12,9.38-2.12v-18.19c-6.85,0-13.05,1.47-18.43,4.57-22.92,13.21-28.06,54.4-16.23,106.12-50.73,15.66-83.77,40.7-83.77,67.13s33.2,51.63,84.09,67.21c-11.75,51.88-6.53,93.15,16.48,106.36,5.3,3.1,11.5,4.57,18.35,4.57,22.43,0,51.79-15.99,81.48-43.72,29.69,27.57,59.05,43.39,81.48,43.39,6.85,0,13.05-1.47,18.43-4.57,22.92-13.21,28.06-54.4,16.23-106.11,50.57-15.58,83.6-40.7,83.6-67.13h0ZM344,195.64c-3.02,10.52-6.77,21.37-11.01,32.22-3.34-6.52-6.85-13.05-10.68-19.58-3.75-6.52-7.75-12.89-11.75-19.09,11.58,1.71,22.76,3.83,33.44,6.44h0ZM306.64,282.5c-6.36,11.01-12.89,21.45-19.66,31.16-12.15,1.06-24.47,1.63-36.87,1.63s-24.63-.57-36.7-1.55c-6.77-9.71-13.38-20.06-19.74-30.99-6.2-10.68-11.83-21.53-16.97-32.46,5.06-10.93,10.77-21.86,16.89-32.55,6.36-11.01,12.89-21.45,19.66-31.16,12.15-1.06,24.47-1.63,36.87-1.63s24.63.57,36.7,1.55c6.77,9.71,13.38,20.06,19.74,30.99,6.2,10.68,11.83,21.53,16.97,32.46-5.14,10.93-10.77,21.86-16.89,32.54ZM332.99,271.9c4.28,10.63,8.04,21.46,11.26,32.46-10.69,2.61-21.94,4.81-33.6,6.53,4-6.28,7.99-12.72,11.75-19.33,3.75-6.52,7.26-13.13,10.6-19.66h0ZM250.28,358.93c-7.59-7.83-15.17-16.56-22.67-26.1,7.34.33,14.84.57,22.43.57s15.25-.16,22.68-.57c-7,9.1-14.49,17.81-22.43,26.1ZM189.6,310.89c-11.58-1.71-22.76-3.83-33.44-6.44,3.02-10.52,6.77-21.37,11.01-32.22,3.34,6.53,6.85,13.05,10.68,19.58,3.83,6.53,7.75,12.89,11.75,19.09ZM249.87,141.15c7.59,7.83,15.17,16.56,22.67,26.1-7.34-.33-14.84-.57-22.43-.57s-15.25.16-22.67.57c7-9.1,14.49-17.81,22.43-26.1ZM189.52,189.19c-4,6.28-7.99,12.72-11.74,19.33-3.75,6.53-7.26,13.05-10.6,19.58-4.28-10.63-8.04-21.46-11.26-32.46,10.68-2.53,21.94-4.73,33.6-6.44ZM115.7,291.31c-28.87-12.32-47.55-28.47-47.55-41.27s18.68-29.04,47.55-41.27c7.01-3.02,14.68-5.71,22.59-8.24,4.65,15.99,10.77,32.63,18.35,49.67-7.5,16.97-13.54,33.52-18.11,49.43-8.07-2.53-15.74-5.3-22.84-8.32h0ZM159.58,407.87c-11.09-6.36-15.91-30.59-12.15-61.75.9-7.67,2.36-15.74,4.16-23.98,15.99,3.92,33.44,6.93,51.79,8.89,11.01,15.09,22.43,28.79,33.93,40.78-26.59,24.72-51.55,38.25-68.52,38.25-3.67-.08-6.77-.82-9.22-2.2ZM353.05,345.72c3.83,31.16-.9,55.38-11.91,61.83-2.45,1.47-5.63,2.12-9.38,2.12-16.88,0-41.92-13.46-68.51-38.01,11.42-11.99,22.84-25.61,33.69-40.7,18.43-1.96,35.89-4.98,51.87-8.97,1.88,8.24,3.34,16.15,4.24,23.74h0ZM384.46,291.31c-7.01,3.02-14.68,5.71-22.59,8.24-4.65-15.99-10.77-32.63-18.35-49.67,7.51-16.97,13.54-33.52,18.11-49.43,8.08,2.53,15.74,5.3,22.92,8.32,28.87,12.31,47.55,28.47,47.55,41.27-.08,12.81-18.76,29.04-47.63,41.27h0Z"/>
  <path class="st0" d="M250.04,287.32c20.59,0,37.28-16.69,37.28-37.28s-16.69-37.27-37.28-37.27-37.27,16.69-37.27,37.27,16.69,37.28,37.27,37.28Z"/>
</svg>