<?xml version="1.0" encoding="UTF-8"?>
<svg id="Layer_1" xmlns="http://www.w3.org/2000/svg" version="1.1" viewBox="0 0 36 36">
  <!-- Generator: Adobe Illustrator 29.2.1, SVG Export Plug-In . SVG Version: 2.1.0 Build 116)  -->
  <defs>
    <style>
      .st0 {
        fill: #fff;
      }

      .st1 {
        fill: #764abc;
      }
    </style>
  </defs>
  <rect class="st1" x="0" y="0" width="36" height="36" rx="5" ry="5"/>
  <g>
    <path class="st0" d="M23.6,23.4c1.1-.1,1.9-1,1.8-2.1s-1-2-2.1-2h0c-1.1,0-2,1-2,2.1,0,.6.3,1,.6,1.4-1.2,2.5-3.2,4.3-6,5.8-1.9,1-4,1.4-6,1.1-1.6-.2-2.9-1-3.7-2.2-1.2-1.8-1.3-3.7-.3-5.7.7-1.4,1.8-2.4,2.5-2.9-.1-.5-.4-1.3-.5-1.9-5.3,3.8-4.8,9.1-3.2,11.5,1.2,1.8,3.7,3,6.4,3s1.5,0,2.2-.3c4.7-.9,8.2-3.7,10.3-7.8h0Z"/>
    <path class="st0" d="M30,18.9c-2.8-3.3-6.9-5.1-11.6-5.1h-.6c-.3-.7-1-1.1-1.8-1.1h0c-1.1,0-2,1-2,2.1,0,1.1,1,2,2.1,2h0c.8,0,1.5-.6,1.8-1.2h.7c2.8,0,5.4.8,7.8,2.4,1.8,1.2,3.2,2.8,3.9,4.7.6,1.5.6,3,0,4.3-1,1.9-2.7,3-5,3s-2.9-.4-3.6-.8c-.4.4-1.1,1-1.6,1.3,1.6.7,3.2,1.1,4.7,1.1,3.5,0,6.1-1.9,7.1-3.9,1.1-2.1,1-5.8-1.8-8.9h0Z"/>
    <path class="st0" d="M11.4,24c0,1.1,1,2,2.1,2h0c1.1,0,2-1,2-2.1,0-1.1-1-2-2.1-2h0c0,0-.2,0-.3,0-1.5-2.5-2.1-5.2-1.9-8.1.1-2.2.9-4.1,2.2-5.7,1.1-1.4,3.1-2,4.5-2.1,3.9,0,5.5,4.8,5.6,6.7.5.1,1.3.4,1.8.6-.4-5.9-4.1-9-7.6-9s-6.3,2.4-7.5,5.9c-1.7,4.7-.6,9.2,1.5,12.8-.2.3-.3.7-.3,1.1h0Z"/>
  </g>
</svg>