<?xml version="1.0" encoding="UTF-8"?>
<svg id="Layer_1" xmlns="http://www.w3.org/2000/svg" version="1.1" viewBox="0 0 500 500">
  <!-- Generator: Adobe Illustrator 29.2.1, SVG Export Plug-In . SVG Version: 2.1.0 Build 116)  -->
  <defs>
    <style>
      .st0 {
        fill: #fff;
      }

      .st1 {
        fill: #764abc;
      }
    </style>
  </defs>
  <rect class="st1" width="500" height="500" rx="50" ry="50"/>
  <g>
    <path class="st0" d="M327.16,325.33c14.76-1.53,25.96-14.25,25.45-29.52s-13.23-27.49-28.5-27.49h-1.02c-15.78.51-28,13.74-27.49,29.52.51,7.64,3.56,14.25,8.14,18.83-17.31,34.1-43.78,59.05-83.48,79.92-26.98,14.25-54.97,19.34-82.97,15.78-22.91-3.05-40.72-13.23-51.92-30.03-16.29-24.94-17.82-51.92-4.07-78.9,9.67-19.34,24.94-33.6,34.61-40.72-2.04-6.62-5.09-17.82-6.62-25.96-73.81,53.45-66.17,125.73-43.78,159.83,16.8,25.45,50.9,41.23,88.57,41.23,10.18,0,20.36-1.02,30.54-3.56,65.15-12.73,114.53-51.41,142.52-108.93Z"/>
    <path class="st0" d="M416.74,262.22c-38.69-45.3-95.7-70.24-160.85-70.24h-8.14c-4.58-9.16-14.25-15.27-24.94-15.27h-1.02c-15.78.51-28,13.74-27.49,29.52.51,15.27,13.23,27.49,28.5,27.49h1.02c11.2-.51,20.87-7.64,24.94-17.31h9.16c38.69,0,75.33,11.2,108.42,33.09,25.45,16.8,43.78,38.69,53.96,65.15,8.65,21.38,8.14,42.25-1.02,60.06-14.25,26.98-38.18,41.74-69.74,41.74-20.36,0-39.7-6.11-49.88-10.69-5.6,5.09-15.78,13.23-22.91,18.32,21.89,10.18,44.28,15.78,65.66,15.78,48.87,0,85.01-26.98,98.75-53.96,14.76-29.52,13.74-80.42-24.43-123.69Z"/>
    <path class="st0" d="M158.16,333.99c.51,15.27,13.23,27.49,28.5,27.49h1.02c15.78-.51,28-13.74,27.49-29.52-.51-15.27-13.23-27.49-28.5-27.49h-1.02c-1.02,0-2.55,0-3.56.51-20.87-34.61-29.52-72.28-26.47-113,2.04-30.54,12.22-57.01,30.03-78.9,14.76-18.83,43.27-28,62.61-28.5,53.96-1.02,76.86,66.17,78.39,93.15,6.62,1.53,17.82,5.09,25.45,7.64-6.11-82.46-57.01-125.22-105.88-125.22-45.81,0-88.06,33.09-104.86,81.95-23.41,65.15-8.14,127.76,20.36,177.14-2.55,3.56-4.07,9.16-3.56,14.76Z"/>
  </g>
</svg>