<?xml version="1.0" encoding="UTF-8"?>
<svg id="Layer_1" xmlns="http://www.w3.org/2000/svg" version="1.1" viewBox="0 0 2500 2500">
  <!-- Generator: Adobe Illustrator 29.2.1, SVG Export Plug-In . SVG Version: 2.1.0 Build 116)  -->
  <defs>
    <style>
      .st0 {
        fill: #764abc;
      }
    </style>
  </defs>
  <path class="st0" d="M1732.2,1716.1c92.3-9.6,162.2-89.1,159.1-184.5-3.2-95.4-82.7-171.8-178.2-171.8h-6.4c-98.6,3.2-175,85.9-171.8,184.5,3.2,47.7,22.3,89.1,50.9,117.7-108.2,213.2-273.6,369.1-521.7,499.5-168.6,89.1-343.6,120.9-518.6,98.6-143.2-19.1-254.5-82.7-324.5-187.7-101.8-155.9-111.3-324.5-25.4-493.1,60.4-120.9,155.9-210,216.3-254.5-12.7-41.4-31.8-111.3-41.4-162.2C-90.7,1496.6-43,1948.4,97,2161.5c105,159.1,318.1,257.7,553.6,257.7s127.2-6.4,190.9-22.3c407.2-79.5,715.8-321.3,890.8-680.8h0ZM2292.2,1321.6c-241.8-283.2-598.1-439-1005.3-439h-50.9c-28.6-57.3-89.1-95.4-155.9-95.4h-6.4c-98.6,3.2-175,85.9-171.8,184.5,3.2,95.4,82.7,171.8,178.2,171.8h6.4c70-3.2,130.4-47.7,155.9-108.2h57.3c241.8,0,470.8,70,677.6,206.8,159.1,105,273.6,241.8,337.2,407.2,54.1,133.6,50.9,264.1-6.4,375.4-89.1,168.6-238.6,260.9-435.8,260.9s-248.1-38.2-311.8-66.8c-35,31.8-98.6,82.7-143.2,114.5,136.8,63.6,276.8,98.6,410.4,98.6,305.4,0,531.3-168.6,617.2-337.2,92.3-184.5,85.9-502.7-152.7-773.1h0ZM676,1770.2c3.2,95.4,82.7,171.8,178.2,171.8h6.4c98.6-3.2,175-85.9,171.8-184.5-3.2-95.4-82.7-171.8-178.2-171.8h-6.4c-6.4,0-15.9,0-22.3,3.2-130.4-216.3-184.5-451.8-165.4-706.3,12.7-190.9,76.3-356.3,187.7-493.1,92.3-117.7,270.4-175,391.3-178.2,337.2-6.4,480.4,413.6,489.9,582.2,41.4,9.5,111.3,31.8,159.1,47.7C1849.9,325.8,1531.8,58.6,1226.4,58.6s-550.4,206.8-655.4,512.2c-146.3,407.2-50.9,798.5,127.3,1107.1-15.9,22.3-25.4,57.3-22.3,92.3h0Z"/>
</svg>