<svg xmlns="http://www.w3.org/2000/svg" viewBox="0 0 16 16" class="size-4">
  <style>
    path { fill: #1F2328; /* GitHub light theme text color */ }
    @media (prefers-color-scheme: dark) {
      path { fill: #E6EDF3; /* GitHub dark theme text color */ }
    }
  </style>
  <path fill-rule="evenodd" d="M4 2a1.5 1.5 0 0 0-1.5 1.5v9A1.5 1.5 0 0 0 4 14h8a1.5 1.5 0 0 0 1.5-1.5V6.621a1.5 1.5 0 0 0-.44-1.06L9.94 2.439A1.5 1.5 0 0 0 8.878 2H4Zm1 5.75A.75.75 0 0 1 5.75 7h4.5a.75.75 0 0 1 0 1.5h-4.5A.75.75 0 0 1 5 7.75Zm0 3a.75.75 0 0 1 .75-.75h4.5a.75.75 0 0 1 0 1.5h-4.5a.75.75 0 0 1-.75-.75Z" clip-rule="evenodd" />
</svg>
