<?xml version="1.0" encoding="UTF-8"?>
<svg id="Layer_1" xmlns="http://www.w3.org/2000/svg" version="1.1" viewBox="0 0 500 500">
  <!-- Generator: Adobe Illustrator 29.2.1, SVG Export Plug-In . SVG Version: 2.1.0 Build 116)  -->
  <defs>
    <style>
      .st0 {
        fill: #362d59;
      }

      .st1 {
        fill: #fff;
      }
    </style>
  </defs>
  <rect class="st0" width="500" height="500" rx="50" ry="50"/>
  <path class="st1" d="M281.81,91.93c-10.65-17.68-33.63-23.38-51.31-12.73-5.21,3.14-9.58,7.51-12.73,12.73l-52.67,90.21c81.87,40.88,135.94,122.09,142.07,213.39h-36.98c-6.12-78.26-53.19-147.44-123.74-181.85l-48.75,84.28c39.61,17.77,67.45,54.48,73.88,97.41h-84.92c-3.35-.24-5.88-3.15-5.64-6.5.06-.83.29-1.65.68-2.39l23.53-40.02c-7.97-6.65-17.08-11.8-26.89-15.21l-23.29,40.02c-10.11,17.34-4.25,39.59,13.09,49.7.14.08.29.17.44.25,5.52,3.11,11.75,4.77,18.09,4.8h116.3c4.39-54.21-19.9-106.77-64.03-138.55l18.49-32.02c55.72,38.27,87.07,103.13,82.44,170.57h98.53c4.67-102.18-45.36-199.13-131.35-254.53l37.38-64.03c1.73-2.9,5.48-3.87,8.4-2.16,4.24,2.32,162.4,278.3,165.36,281.5,1.64,2.93.58,6.64-2.35,8.28-.94.53-2.01.79-3.09.77h-38.1c.48,10.19.48,20.36,0,30.5h38.26c20.29.13,36.85-16.21,36.98-36.5,0-.13,0-.27,0-.4,0-6.42-1.71-12.72-4.96-18.25L281.81,91.93Z"/>
</svg>