<?xml version="1.0" encoding="UTF-8"?>
<svg id="Layer_1" xmlns="http://www.w3.org/2000/svg" version="1.1" xmlns:xlink="http://www.w3.org/1999/xlink" viewBox="0 0 664.9 230">
  <!-- Generator: Adobe Illustrator 29.7.1, SVG Export Plug-In . SVG Version: 2.1.1 Build 8)  -->
  <defs>
    <style>
      .st0, .st1, .st2 {
        stroke: #000;
      }

      .st0, .st3 {
        isolation: isolate;
        opacity: .4;
        stroke-miterlimit: 10;
      }

      .st4, .st5 {
        fill: #fff;
      }

      .st6 {
        opacity: .2;
      }

      .st5, .st1, .st7, .st2, .st8, .st9, .st10, .st11, .st12 {
        stroke-linecap: round;
        stroke-linejoin: round;
      }

      .st5, .st3, .st8, .st9, .st10, .st11, .st12 {
        stroke: #333a4c;
      }

      .st13, .st12 {
        fill: #b7c6fd;
      }

      .st14, .st1, .st7, .st10 {
        fill: none;
      }

      .st15 {
        clip-path: url(#clippath-1);
      }

      .st7 {
        stroke: #fff;
        stroke-width: .5px;
      }

      .st16 {
        clip-path: url(#clippath-3);
      }

      .st17 {
        fill: #0045ff;
      }

      .st8, .st18 {
        fill: #333a4c;
      }

      .st19 {
        fill: #00ff41;
      }

      .st20 {
        clip-path: url(#clippath-2);
      }

      .st9 {
        fill: #252a37;
      }

      .st11 {
        fill: #b28e59;
      }

      .st21 {
        clip-path: url(#clippath);
      }
    </style>
    <clipPath id="clippath">
      <path class="st14" d="M239.7,35s2.1,6.7,1.8,10.2-1.3,5.9-.9,7.5c.4,1.6,3.3,2.8,4.1,5.8s-.9,18.8-1.8,22c-.7,3.2,0,4-1.8,4.7-1.8.7-7.1-.3-7.1-.3,0,0-2.7,1.1-2.8,2.3v5.4l-30.5-5.2s2.9-5.2,3.1-11c.2-5.8-4.5-13.6-4.5-13.6,0,0-7.7-19,2.9-27.7,10.6-8.7,28.9-9.6,32.4-7.5,3.5,2.1,5,7.7,5,7.7v-.3Z"/>
    </clipPath>
    <clipPath id="clippath-1">
      <path class="st14" d="M196.1,92.4s-.2.3-.6.7c-2.1,2.5-10.2,11.7-16.1,19.4-6.9,9-4.2,21.6-2.1,31.5s11.5,72.1,11.9,80,14.3,6.3,27.7,4.9c13.5-1.5,29.6-7.8,36.6-13.7,7.1-5.8,9.1-6.2,8-10.2s-3.3-13.5-3.5-14.3c-.2-.8-6.2-48.2-10.1-61.5-3.9-13.3-4.6-21-9.5-26.9-4.9-6-14.3-9.1-25.9-10-11.6-.8-16.6,0-16.6,0h.2Z"/>
    </clipPath>
    <clipPath id="clippath-2">
      <path class="st14" d="M196.3,85.5l-2.9,9.7s16.1-.3,24.8.8,21.4,6.9,21.4,6.9c0,0-4.1-9.2-6.3-11.2-2.1-2-19.8-6.3-26.8-7-7-.7-10.2.9-10.2.9h0Z"/>
    </clipPath>
    <clipPath id="clippath-3">
      <path class="st14" d="M228.5,125.1s-3.4,8.5-3.7,14.6c-.2,6,3.9,13.6,5,15.3s46.2,53.1,50.9,58c3.1,3.3,5.8,4.2,8,3.9,1.4-.2,2.3-.8,2.8-1.1,6.3-4.2,13.8-11.8,20.3-16.8,4.1-3.2,7.7-7.1,12.1-10,.3-.2,1.5-1,2.4-2.5.2-.4,1.2-2.2.8-4.3-.4-2.8-2.8-4.3-4-5.2-3.4-2.2-7-2.1-8.5-1.9-9,2.4-18,4.7-27,7.1,0,0-27.9-47.1-32.1-56.5-4.2-9.4-1.4-9.4-8.1-13.3-6.6-3.9-14-6.2-14-6.2l-4.8,18.9h0Z"/>
    </clipPath>
  </defs>
  <g id="Background_Simple" class="st6">
    <path class="st4" d="M128.6,79.8c-4.1-29.2,17.4-50,34.8-60.4C193.1.1,225.7,0,249.3,0s54.3,6.8,97.7,19.5c0,0,48.5,14.3,113.8,44.4,16,7.6,50.5,24.7,60.5,34.3,54.4,50.6,11.5,120.5-40.9,131.2-18.8.9-88.6-.4-114.4.2,0,0-123.8,1.2-149-.6-9-.7-12.4-2.8-19.8-3.5-.7,0-2.8-.2-4.5-1.5-1.3-1-1.8-2.5-2.6-4.3-3.4-4.8-51.8-71.6-61.6-140h.1Z"/>
  </g>
  <g id="Plants">
    <path class="st13" d="M473.4,177.1c-3.6,4.5-5.4,7-6.2,8.2.7-3.9,2-8.8,4.1-14.6,1.4-3.8,2.2-7.6,2.5-11.4-.2,0-.3.2-.3.2l-.3-.6c.1,0,12.5-6.6,15.9-12.8l.6.3c-3.2,5.6-12.9,11.2-15.6,12.7,2.5-.2,10.4-1.4,15.1-7.2,5.6-7,4.7-15.6,4.7-15.6,0,0-10.6,7.3-15,13-2.7,3.6-4.3,6.6-5,8.4.2-4.6-.2-9.2-1-13.7,3.5-2.8,16.6-13.5,18-21.6,1.7-9.3-.7-25.2-.7-25.2,0,0-1.7,4.3-4.7,9.6-3,5.3-12.3,13.6-14,22.6-.5,2.5-.6,4.8-.7,6.8-1.5-5.2-3.4-10.2-5.4-14.7-.5-1.2-1-2.6-1.3-4h0l-.3-.2s6-10.2,6-13.1h.7c0,2.7-4.6,10.8-5.8,12.9,2.1-1.3,5.5-3.8,6.8-7.8,1.9-5.9-.9-11.3-.9-11.3,0,0-5.1,7.4-6.4,12.2-.9,3-1.1,5.3-1.2,6.7-1-2.5-2.5-5.8-4.2-8.1-3-4-5-10-5-10,0,0-3.7,6.3-1,13,2.2,5.5,8.4,7.6,10.5,8.1.2.7.5,1.4.8,2.1,2.6,6.2,5.2,13.1,6.8,20.4-1.6-2.1-4.5-5.7-7.2-7.7-4-2.9-7.7-8.1-7.7-8.1,0,0-1.7,7.1,2.8,12.7,3.7,4.6,10.2,4.8,12.4,4.7,1.5,8,1.7,16.4-.9,24.6-.2-1.6-1.1-5.9-6.3-10.7-6.6-6.1-19.8-25.4-19.8-25.4,0,0,1.1,22.9,7.4,30.4,5.8,6.9,16.7,6.5,18.5,6.4-.1.4-.2.7-.4,1.1-4.2,11.2-5,19-5.1,23.2h-7.8v36.2h21.6v-36.2h-12.4c0-1.7.2-4.1.7-7h-.2l-.2-.7c.1,0,13.7-3.9,23.1-13.6l.5.5c-7.6,7.9-17.9,11.9-21.8,13.2,3.9-.5,13.4-1.9,17.9-4.8,5.6-3.7,10.6-14.6,10.6-14.6,0,0-18.3,4-23.6,10.6h.4ZM463.2,118.2s-7-3.3-8.7-11.6h.7c1.6,7.9,8.2,11,8.3,11l-.3.6ZM472.7,144l-.2.2h-.3c-.4-.3-9.2-3.9-12.8-9.1l.6-.4c3.1,4.6,10.8,8,12.3,8.7,1.1-1.8,8.3-12.9,10.8-19.9l.6.2c-2.7,7.7-11,20.2-11.1,20.3h.1ZM469.6,168.8s-10.2-4-14.7-13.1l.6-.3c4.4,8.9,14.3,12.7,14.4,12.8l-.2.6h0Z"/>
  </g>
  <g id="Table">
    <g>
      <g>
        <g>
          <rect class="st5" x="408" y="197" width="6.4" height="32.5"/>
          <polygon class="st12" points="442.4 229.6 442.4 174.5 414.4 197 414.4 229.6 442.4 229.6"/>
        </g>
        <g>
          <rect class="st5" x="189" y="197" width="6.4" height="32.5"/>
          <polygon class="st8" points="223.4 229.6 223.4 174.5 195.5 197 195.5 229.6 223.4 229.6"/>
        </g>
        <g>
          <polygon class="st5" points="422.2 202.8 164.2 202.8 164.1 200.7 463 169.3 463 171.4 422.2 202.8"/>
          <polygon class="st5" points="422.2 200.7 164.2 200.7 229.3 169.3 463 169.3 422.2 200.7"/>
          <polygon class="st8" points="422.2 202.8 422.2 200.7 463 169.3 463 171.4 422.2 202.8"/>
        </g>
      </g>
      <g>
        <path class="st18" d="M408.6,176.7s-4.4-.8-7.6.8-3.7,4.5-4.8,6.9c-.5,1.2.4,2.5,1.7,2.5h6c.5,0,1-.2,1.4-.6l6-6.7s-.3-2.6-2.6-2.9h-.1Z"/>
        <path class="st7" d="M404.9,185s-.6-4.1,3.7-6.5"/>
      </g>
    </g>
    <g>
      <g>
        <polygon class="st5" points="375.3 192.1 279.3 192.1 302.6 173.5 398.6 173.5 375.3 192.1"/>
        <polygon class="st10" points="398.6 174.7 398.6 173.5 375.3 192.1 375.3 193.3 398.6 174.7"/>
        <rect class="st5" x="279.3" y="192.1" width="96" height="1.2"/>
      </g>
      <g>
        <polygon class="st10" points="310.6 184.1 307.5 186.6 313.8 186.6 316.9 184.1 310.6 184.1"/>
        <polygon class="st10" points="316.9 184.1 313.8 186.6 320.2 186.6 323.3 184.1 316.9 184.1"/>
        <polygon class="st10" points="304.2 184.1 301.2 186.6 307.5 186.6 310.6 184.1 304.2 184.1"/>
        <polygon class="st10" points="313.7 181.6 307.3 181.6 304.2 184.1 310.6 184.1 313.7 181.6"/>
        <polygon class="st10" points="320 181.6 323.1 179.1 316.7 179.1 313.7 181.6 320 181.6"/>
        <polygon class="st10" points="316.7 179.1 310.4 179.1 307.3 181.6 313.7 181.6 316.7 179.1"/>
        <polygon class="st10" points="323.3 184.1 320.2 186.6 326.5 186.6 329.6 184.1 323.3 184.1"/>
        <polygon class="st10" points="354.9 184.1 351.9 186.6 358.2 186.6 361.3 184.1 354.9 184.1"/>
        <polygon class="st10" points="326.3 181.6 329.4 179.1 323.1 179.1 320 181.6 326.3 181.6"/>
        <polygon class="st10" points="329.6 184.1 326.5 186.6 332.8 186.6 335.9 184.1 329.6 184.1"/>
        <polygon class="st10" points="364.5 186.6 370.9 186.6 373.9 184.1 367.6 184.1 364.5 186.6"/>
        <polygon class="st10" points="367.6 184.1 373.9 184.1 377 181.6 370.7 181.6 367.6 184.1"/>
        <polygon class="st10" points="361.3 184.1 358.2 186.6 364.5 186.6 367.6 184.1 361.3 184.1"/>
        <polygon class="st10" points="348.6 184.1 345.5 186.6 351.9 186.6 354.9 184.1 348.6 184.1"/>
        <polygon class="st10" points="335.9 184.1 332.8 186.6 339.2 186.6 342.3 184.1 335.9 184.1"/>
        <polygon class="st10" points="342.3 184.1 339.2 186.6 345.5 186.6 348.6 184.1 342.3 184.1"/>
        <polygon class="st10" points="351.7 181.6 354.8 179.1 348.4 179.1 345.3 181.6 351.7 181.6"/>
        <polygon class="st10" points="358 181.6 354.9 184.1 361.3 184.1 364.4 181.6 358 181.6"/>
        <polygon class="st10" points="345.3 181.6 342.3 184.1 348.6 184.1 351.7 181.6 345.3 181.6"/>
        <polygon class="st10" points="332.7 181.6 329.6 184.1 335.9 184.1 339 181.6 332.7 181.6"/>
        <polygon class="st10" points="351.7 181.6 348.6 184.1 354.9 184.1 358 181.6 351.7 181.6"/>
        <polygon class="st10" points="332.7 181.6 335.8 179.1 329.4 179.1 326.3 181.6 332.7 181.6"/>
        <polygon class="st10" points="313.7 181.6 310.6 184.1 316.9 184.1 320 181.6 313.7 181.6"/>
        <polygon class="st10" points="326.3 181.6 323.3 184.1 329.6 184.1 332.7 181.6 326.3 181.6"/>
        <polygon class="st10" points="320 181.6 316.9 184.1 323.3 184.1 326.3 181.6 320 181.6"/>
        <polygon class="st10" points="339 181.6 335.9 184.1 342.3 184.1 345.3 181.6 339 181.6"/>
        <polygon class="st10" points="345.3 181.6 348.4 179.1 342.1 179.1 339 181.6 345.3 181.6"/>
        <polygon class="st10" points="370.7 181.6 377 181.6 380.1 179.1 373.8 179.1 370.7 181.6"/>
        <polygon class="st10" points="339 181.6 342.1 179.1 335.8 179.1 332.7 181.6 339 181.6"/>
        <polygon class="st10" points="364.4 181.6 367.4 179.1 361.1 179.1 358 181.6 364.4 181.6"/>
        <polygon class="st10" points="370.7 181.6 373.8 179.1 367.4 179.1 364.4 181.6 370.7 181.6"/>
        <polygon class="st10" points="361.3 184.1 367.6 184.1 370.7 181.6 364.4 181.6 361.3 184.1"/>
        <polygon class="st10" points="358 181.6 361.1 179.1 354.8 179.1 351.7 181.6 358 181.6"/>
        <polygon class="st10" points="339.2 186.6 336.1 189.1 342.4 189.1 345.5 186.6 339.2 186.6"/>
        <polygon class="st10" points="345.5 186.6 342.4 189.1 348.8 189.1 351.9 186.6 345.5 186.6"/>
        <polygon class="st10" points="332.8 186.6 329.8 189.1 336.1 189.1 339.2 186.6 332.8 186.6"/>
        <polygon class="st10" points="351.9 186.6 348.8 189.1 355.1 189.1 358.2 186.6 351.9 186.6"/>
        <polygon class="st10" points="326.5 186.6 323.4 189.1 329.8 189.1 332.8 186.6 326.5 186.6"/>
        <polygon class="st10" points="320.2 186.6 317.1 189.1 323.4 189.1 326.5 186.6 320.2 186.6"/>
        <polygon class="st10" points="358.2 186.6 355.1 189.1 361.4 189.1 364.5 186.6 358.2 186.6"/>
        <polygon class="st10" points="307.5 186.6 304.4 189.1 310.7 189.1 313.8 186.6 307.5 186.6"/>
        <polygon class="st10" points="313.8 186.6 310.7 189.1 317.1 189.1 320.2 186.6 313.8 186.6"/>
        <polygon class="st10" points="373.9 184.1 380.3 184.1 383.4 181.6 377 181.6 373.9 184.1"/>
        <polygon class="st10" points="383.2 176.6 380.1 179.1 386.5 179.1 389.5 176.6 383.2 176.6"/>
        <polygon class="st10" points="377 181.6 383.4 181.6 386.5 179.1 380.1 179.1 377 181.6"/>
        <polygon class="st10" points="301.2 186.6 298.1 189.1 304.4 189.1 307.5 186.6 301.2 186.6"/>
        <polygon class="st10" points="364.5 186.6 361.4 189.1 367.8 189.1 370.9 186.6 364.5 186.6"/>
        <polygon class="st10" points="367.8 189.1 374.1 189.1 377.2 186.6 370.9 186.6 367.8 189.1"/>
        <polygon class="st10" points="370.9 186.6 377.2 186.6 380.3 184.1 373.9 184.1 370.9 186.6"/>
        <polygon class="st10" points="307.3 181.6 301 181.6 297.9 184.1 304.2 184.1 307.3 181.6"/>
        <polygon class="st10" points="348.4 179.1 351.5 176.6 345.2 176.6 342.1 179.1 348.4 179.1"/>
        <polygon class="st10" points="354.8 179.1 357.9 176.6 351.5 176.6 348.4 179.1 354.8 179.1"/>
        <polygon class="st10" points="342.1 179.1 345.2 176.6 338.8 176.6 335.8 179.1 342.1 179.1"/>
        <polygon class="st10" points="361.1 179.1 364.2 176.6 357.9 176.6 354.8 179.1 361.1 179.1"/>
        <polygon class="st10" points="373.8 179.1 376.9 176.6 370.5 176.6 367.4 179.1 373.8 179.1"/>
        <polygon class="st10" points="367.4 179.1 370.5 176.6 364.2 176.6 361.1 179.1 367.4 179.1"/>
        <polygon class="st10" points="335.8 179.1 338.8 176.6 332.5 176.6 329.4 179.1 335.8 179.1"/>
        <polygon class="st10" points="304.2 184.1 297.9 184.1 294.8 186.6 301.2 186.6 304.2 184.1"/>
        <polygon class="st10" points="310.4 179.1 304.1 179.1 301 181.6 307.3 181.6 310.4 179.1"/>
        <polygon class="st10" points="380.1 179.1 383.2 176.6 376.9 176.6 373.8 179.1 380.1 179.1"/>
        <polygon class="st10" points="294.8 186.6 291.7 189.1 298.1 189.1 301.2 186.6 294.8 186.6"/>
        <polygon class="st10" points="313.5 176.6 307.2 176.6 304.1 179.1 310.4 179.1 313.5 176.6"/>
        <polygon class="st10" points="323.1 179.1 326.2 176.6 319.8 176.6 316.7 179.1 323.1 179.1"/>
        <polygon class="st10" points="316.7 179.1 319.8 176.6 313.5 176.6 310.4 179.1 316.7 179.1"/>
        <polygon class="st10" points="329.4 179.1 332.5 176.6 326.2 176.6 323.1 179.1 329.4 179.1"/>
      </g>
    </g>
  </g>
  <g>
    <g id="Device_1">
      <g>
        <rect class="st5" x="218" y="58" width="218.3" height="78.8"/>
        <rect class="st9" x="223.9" y="62.3" width="207" height="70.3"/>
        <g>
          <path class="st19" d="M245.5,67.1h-2.5c-.3,0-.6-.3-.6-.6s.3-.6.6-.6h2.5c.3,0,.6.3.6.6s-.3.6-.6.6ZM246.1,69.2c0-.3-.3-.6-.6-.6h-2.5c-.3,0-.6.3-.6.6s.3.6.6.6h2.5c.3,0,.6-.3.6-.6ZM246.1,71.8c0-.3-.3-.6-.6-.6h-2.5c-.3,0-.6.3-.6.6s.3.6.6.6h2.5c.3,0,.6-.3.6-.6ZM246.1,74.5c0-.3-.3-.6-.6-.6h-2.5c-.3,0-.6.3-.6.6s.3.6.6.6h2.5c.3,0,.6-.3.6-.6ZM246.1,77.1c0-.3-.3-.6-.6-.6h-2.5c-.3,0-.6.3-.6.6s.3.6.6.6h2.5c.3,0,.6-.3.6-.6ZM246.1,79.8c0-.3-.3-.6-.6-.6h-2.5c-.3,0-.6.3-.6.6s.3.6.6.6h2.5c.3,0,.6-.3.6-.6ZM246.1,82.4c0-.3-.3-.6-.6-.6h-2.5c-.3,0-.6.3-.6.6s.3.6.6.6h2.5c.3,0,.6-.3.6-.6ZM246.1,85.1c0-.3-.3-.6-.6-.6h-2.5c-.3,0-.6.3-.6.6s.3.6.6.6h2.5c.3,0,.6-.3.6-.6ZM255.5,66.5c0-.3-.3-.6-.6-.6h-6.6c-.3,0-.6.3-.6.6s.3.6.6.6h6.6c.3,0,.6-.3.6-.6ZM255.5,69.2c0-.3-.3-.6-.6-.6h-6.6c-.3,0-.6.3-.6.6s.3.6.6.6h6.6c.3,0,.6-.3.6-.6ZM255.5,71.8c0-.3-.3-.6-.6-.6h-6.6c-.3,0-.6.3-.6.6s.3.6.6.6h6.6c.3,0,.6-.3.6-.6ZM255.5,74.5c0-.3-.3-.6-.6-.6h-6.6c-.3,0-.6.3-.6.6s.3.6.6.6h6.6c.3,0,.6-.3.6-.6ZM255.5,77.1c0-.3-.3-.6-.6-.6h-6.6c-.3,0-.6.3-.6.6s.3.6.6.6h6.6c.3,0,.6-.3.6-.6ZM263.3,79.8c0-.3-.3-.6-.6-.6h-6.6c-.3,0-.6.3-.6.6s.3.6.6.6h6.6c.3,0,.6-.3.6-.6ZM263.3,82.4c0-.3-.3-.6-.6-.6h-6.6c-.3,0-.6.3-.6.6s.3.6.6.6h6.6c.3,0,.6-.3.6-.6ZM263.3,85.1c0-.3-.3-.6-.6-.6h-6.6c-.3,0-.6.3-.6.6s.3.6.6.6h6.6c.3,0,.6-.3.6-.6ZM258.4,66.5c0-.4-.3-.7-.7-.7s-.7.3-.7.7.3.7.7.7.7-.3.7-.7ZM260.5,66.5c0-.4-.3-.7-.7-.7s-.7.3-.7.7.3.7.7.7.7-.3.7-.7ZM262.7,66.5c0-.4-.3-.7-.7-.7s-.7.3-.7.7.3.7.7.7.7-.3.7-.7ZM264.8,66.5c0-.4-.3-.7-.7-.7s-.7.3-.7.7.3.7.7.7.7-.3.7-.7ZM267,66.5c0-.4-.3-.7-.7-.7s-.7.3-.7.7.3.7.7.7.7-.3.7-.7ZM269.1,66.5c0-.4-.3-.7-.7-.7s-.7.3-.7.7.3.7.7.7.7-.3.7-.7ZM258.4,71.8c0-.4-.3-.7-.7-.7s-.7.3-.7.7.3.7.7.7.7-.3.7-.7ZM260.5,71.8c0-.4-.3-.7-.7-.7s-.7.3-.7.7.3.7.7.7.7-.3.7-.7ZM262.7,71.8c0-.4-.3-.7-.7-.7s-.7.3-.7.7.3.7.7.7.7-.3.7-.7ZM264.8,71.8c0-.4-.3-.7-.7-.7s-.7.3-.7.7.3.7.7.7.7-.3.7-.7ZM267,71.8c0-.4-.3-.7-.7-.7s-.7.3-.7.7.3.7.7.7.7-.3.7-.7ZM269.1,71.8c0-.4-.3-.7-.7-.7s-.7.3-.7.7.3.7.7.7.7-.3.7-.7ZM265.7,79.4c0-.4-.3-.7-.7-.7s-.7.3-.7.7.3.7.7.7.7-.3.7-.7ZM267.9,79.4c0-.4-.3-.7-.7-.7s-.7.3-.7.7.3.7.7.7.7-.3.7-.7ZM270,79.4c0-.4-.3-.7-.7-.7s-.7.3-.7.7.3.7.7.7.7-.3.7-.7ZM272.2,79.4c0-.4-.3-.7-.7-.7s-.7.3-.7.7.3.7.7.7.7-.3.7-.7ZM274.3,79.4c0-.4-.3-.7-.7-.7s-.7.3-.7.7.3.7.7.7.7-.3.7-.7ZM276.5,79.4c0-.4-.3-.7-.7-.7s-.7.3-.7.7.3.7.7.7.7-.3.7-.7ZM265.7,84.9c0-.4-.3-.7-.7-.7s-.7.3-.7.7.3.7.7.7.7-.3.7-.7ZM267.9,84.9c0-.4-.3-.7-.7-.7s-.7.3-.7.7.3.7.7.7.7-.3.7-.7ZM270,84.9c0-.4-.3-.7-.7-.7s-.7.3-.7.7.3.7.7.7.7-.3.7-.7ZM272.2,84.9c0-.4-.3-.7-.7-.7s-.7.3-.7.7.3.7.7.7.7-.3.7-.7ZM274.3,84.9c0-.4-.3-.7-.7-.7s-.7.3-.7.7.3.7.7.7.7-.3.7-.7ZM276.5,84.9c0-.4-.3-.7-.7-.7s-.7.3-.7.7.3.7.7.7.7-.3.7-.7Z"/>
          <path class="st19" d="M245.5,88.3h-2.5c-.3,0-.6-.3-.6-.6s.3-.6.6-.6h2.5c.3,0,.6.3.6.6s-.3.6-.6.6ZM246.1,90.4c0-.3-.3-.6-.6-.6h-2.5c-.3,0-.6.3-.6.6s.3.6.6.6h2.5c.3,0,.6-.3.6-.6ZM246.1,93c0-.3-.3-.6-.6-.6h-2.5c-.3,0-.6.3-.6.6s.3.6.6.6h2.5c.3,0,.6-.3.6-.6ZM246.1,95.7c0-.3-.3-.6-.6-.6h-2.5c-.3,0-.6.3-.6.6s.3.6.6.6h2.5c.3,0,.6-.3.6-.6ZM246.1,98.3c0-.3-.3-.6-.6-.6h-2.5c-.3,0-.6.3-.6.6s.3.6.6.6h2.5c.3,0,.6-.3.6-.6ZM246.1,101c0-.3-.3-.6-.6-.6h-2.5c-.3,0-.6.3-.6.6s.3.6.6.6h2.5c.3,0,.6-.3.6-.6ZM246.1,103.6c0-.3-.3-.6-.6-.6h-2.5c-.3,0-.6.3-.6.6s.3.6.6.6h2.5c.3,0,.6-.3.6-.6ZM246.1,106.3c0-.3-.3-.6-.6-.6h-2.5c-.3,0-.6.3-.6.6s.3.6.6.6h2.5c.3,0,.6-.3.6-.6ZM255.5,87.7c0-.3-.3-.6-.6-.6h-6.6c-.3,0-.6.3-.6.6s.3.6.6.6h6.6c.3,0,.6-.3.6-.6ZM255.5,90.4c0-.3-.3-.6-.6-.6h-6.6c-.3,0-.6.3-.6.6s.3.6.6.6h6.6c.3,0,.6-.3.6-.6ZM255.5,93c0-.3-.3-.6-.6-.6h-6.6c-.3,0-.6.3-.6.6s.3.6.6.6h6.6c.3,0,.6-.3.6-.6ZM255.5,95.7c0-.3-.3-.6-.6-.6h-6.6c-.3,0-.6.3-.6.6s.3.6.6.6h6.6c.3,0,.6-.3.6-.6ZM255.5,98.3c0-.3-.3-.6-.6-.6h-6.6c-.3,0-.6.3-.6.6s.3.6.6.6h6.6c.3,0,.6-.3.6-.6ZM263.3,101c0-.3-.3-.6-.6-.6h-6.6c-.3,0-.6.3-.6.6s.3.6.6.6h6.6c.3,0,.6-.3.6-.6ZM263.3,103.6c0-.3-.3-.6-.6-.6h-6.6c-.3,0-.6.3-.6.6s.3.6.6.6h6.6c.3,0,.6-.3.6-.6ZM263.3,106.3c0-.3-.3-.6-.6-.6h-6.6c-.3,0-.6.3-.6.6s.3.6.6.6h6.6c.3,0,.6-.3.6-.6ZM258.4,87.7c0-.4-.3-.7-.7-.7s-.7.3-.7.7.3.7.7.7.7-.3.7-.7ZM260.5,87.7c0-.4-.3-.7-.7-.7s-.7.3-.7.7.3.7.7.7.7-.3.7-.7ZM262.7,87.7c0-.4-.3-.7-.7-.7s-.7.3-.7.7.3.7.7.7.7-.3.7-.7ZM264.8,87.7c0-.4-.3-.7-.7-.7s-.7.3-.7.7.3.7.7.7.7-.3.7-.7ZM267,87.7c0-.4-.3-.7-.7-.7s-.7.3-.7.7.3.7.7.7.7-.3.7-.7ZM269.1,87.7c0-.4-.3-.7-.7-.7s-.7.3-.7.7.3.7.7.7.7-.3.7-.7ZM258.4,93c0-.4-.3-.7-.7-.7s-.7.3-.7.7.3.7.7.7.7-.3.7-.7ZM260.5,93c0-.4-.3-.7-.7-.7s-.7.3-.7.7.3.7.7.7.7-.3.7-.7ZM262.7,93c0-.4-.3-.7-.7-.7s-.7.3-.7.7.3.7.7.7.7-.3.7-.7ZM264.8,93c0-.4-.3-.7-.7-.7s-.7.3-.7.7.3.7.7.7.7-.3.7-.7ZM267,93c0-.4-.3-.7-.7-.7s-.7.3-.7.7.3.7.7.7.7-.3.7-.7ZM269.1,93c0-.4-.3-.7-.7-.7s-.7.3-.7.7.3.7.7.7.7-.3.7-.7ZM265.7,100.6c0-.4-.3-.7-.7-.7s-.7.3-.7.7.3.7.7.7.7-.3.7-.7ZM267.9,100.6c0-.4-.3-.7-.7-.7s-.7.3-.7.7.3.7.7.7.7-.3.7-.7ZM270,100.6c0-.4-.3-.7-.7-.7s-.7.3-.7.7.3.7.7.7.7-.3.7-.7ZM272.2,100.6c0-.4-.3-.7-.7-.7s-.7.3-.7.7.3.7.7.7.7-.3.7-.7ZM274.3,100.6c0-.4-.3-.7-.7-.7s-.7.3-.7.7.3.7.7.7.7-.3.7-.7ZM276.5,100.6c0-.4-.3-.7-.7-.7s-.7.3-.7.7.3.7.7.7.7-.3.7-.7ZM265.7,106.1c0-.4-.3-.7-.7-.7s-.7.3-.7.7.3.7.7.7.7-.3.7-.7ZM267.9,106.1c0-.4-.3-.7-.7-.7s-.7.3-.7.7.3.7.7.7.7-.3.7-.7ZM270,106.1c0-.4-.3-.7-.7-.7s-.7.3-.7.7.3.7.7.7.7-.3.7-.7ZM272.2,106.1c0-.4-.3-.7-.7-.7s-.7.3-.7.7.3.7.7.7.7-.3.7-.7ZM274.3,106.1c0-.4-.3-.7-.7-.7s-.7.3-.7.7.3.7.7.7.7-.3.7-.7ZM276.5,106.1c0-.4-.3-.7-.7-.7s-.7.3-.7.7.3.7.7.7.7-.3.7-.7Z"/>
          <path class="st19" d="M245.5,110h-2.5c-.3,0-.6-.3-.6-.6s.3-.6.6-.6h2.5c.3,0,.6.3.6.6s-.3.6-.6.6ZM246.1,112.1c0-.3-.3-.6-.6-.6h-2.5c-.3,0-.6.3-.6.6s.3.6.6.6h2.5c.3,0,.6-.3.6-.6ZM246.1,114.7c0-.3-.3-.6-.6-.6h-2.5c-.3,0-.6.3-.6.6s.3.6.6.6h2.5c.3,0,.6-.3.6-.6ZM246.1,117.4c0-.3-.3-.6-.6-.6h-2.5c-.3,0-.6.3-.6.6s.3.6.6.6h2.5c.3,0,.6-.3.6-.6ZM246.1,120c0-.3-.3-.6-.6-.6h-2.5c-.3,0-.6.3-.6.6s.3.6.6.6h2.5c.3,0,.6-.3.6-.6ZM246.1,122.7c0-.3-.3-.6-.6-.6h-2.5c-.3,0-.6.3-.6.6s.3.6.6.6h2.5c.3,0,.6-.3.6-.6ZM246.1,125.3c0-.3-.3-.6-.6-.6h-2.5c-.3,0-.6.3-.6.6s.3.6.6.6h2.5c.3,0,.6-.3.6-.6ZM246.1,128c0-.3-.3-.6-.6-.6h-2.5c-.3,0-.6.3-.6.6s.3.6.6.6h2.5c.3,0,.6-.3.6-.6ZM255.5,109.4c0-.3-.3-.6-.6-.6h-6.6c-.3,0-.6.3-.6.6s.3.6.6.6h6.6c.3,0,.6-.3.6-.6ZM255.5,112.1c0-.3-.3-.6-.6-.6h-6.6c-.3,0-.6.3-.6.6s.3.6.6.6h6.6c.3,0,.6-.3.6-.6ZM255.5,114.7c0-.3-.3-.6-.6-.6h-6.6c-.3,0-.6.3-.6.6s.3.6.6.6h6.6c.3,0,.6-.3.6-.6ZM255.5,117.4c0-.3-.3-.6-.6-.6h-6.6c-.3,0-.6.3-.6.6s.3.6.6.6h6.6c.3,0,.6-.3.6-.6ZM255.5,120c0-.3-.3-.6-.6-.6h-6.6c-.3,0-.6.3-.6.6s.3.6.6.6h6.6c.3,0,.6-.3.6-.6ZM263.3,122.7c0-.3-.3-.6-.6-.6h-6.6c-.3,0-.6.3-.6.6s.3.6.6.6h6.6c.3,0,.6-.3.6-.6ZM263.3,125.3c0-.3-.3-.6-.6-.6h-6.6c-.3,0-.6.3-.6.6s.3.6.6.6h6.6c.3,0,.6-.3.6-.6ZM263.3,128c0-.3-.3-.6-.6-.6h-6.6c-.3,0-.6.3-.6.6s.3.6.6.6h6.6c.3,0,.6-.3.6-.6ZM258.4,109.4c0-.4-.3-.7-.7-.7s-.7.3-.7.7.3.7.7.7.7-.3.7-.7ZM260.5,109.4c0-.4-.3-.7-.7-.7s-.7.3-.7.7.3.7.7.7.7-.3.7-.7ZM262.7,109.4c0-.4-.3-.7-.7-.7s-.7.3-.7.7.3.7.7.7.7-.3.7-.7ZM264.8,109.4c0-.4-.3-.7-.7-.7s-.7.3-.7.7.3.7.7.7.7-.3.7-.7ZM267,109.4c0-.4-.3-.7-.7-.7s-.7.3-.7.7.3.7.7.7.7-.3.7-.7ZM269.1,109.4c0-.4-.3-.7-.7-.7s-.7.3-.7.7.3.7.7.7.7-.3.7-.7ZM258.4,114.7c0-.4-.3-.7-.7-.7s-.7.3-.7.7.3.7.7.7.7-.3.7-.7ZM260.5,114.7c0-.4-.3-.7-.7-.7s-.7.3-.7.7.3.7.7.7.7-.3.7-.7ZM262.7,114.7c0-.4-.3-.7-.7-.7s-.7.3-.7.7.3.7.7.7.7-.3.7-.7ZM264.8,114.7c0-.4-.3-.7-.7-.7s-.7.3-.7.7.3.7.7.7.7-.3.7-.7ZM267,114.7c0-.4-.3-.7-.7-.7s-.7.3-.7.7.3.7.7.7.7-.3.7-.7ZM269.1,114.7c0-.4-.3-.7-.7-.7s-.7.3-.7.7.3.7.7.7.7-.3.7-.7ZM265.7,122.3c0-.4-.3-.7-.7-.7s-.7.3-.7.7.3.7.7.7.7-.3.7-.7ZM267.9,122.3c0-.4-.3-.7-.7-.7s-.7.3-.7.7.3.7.7.7.7-.3.7-.7ZM270,122.3c0-.4-.3-.7-.7-.7s-.7.3-.7.7.3.7.7.7.7-.3.7-.7ZM272.2,122.3c0-.4-.3-.7-.7-.7s-.7.3-.7.7.3.7.7.7.7-.3.7-.7ZM274.3,122.3c0-.4-.3-.7-.7-.7s-.7.3-.7.7.3.7.7.7.7-.3.7-.7ZM276.5,122.3c0-.4-.3-.7-.7-.7s-.7.3-.7.7.3.7.7.7.7-.3.7-.7ZM265.7,127.8c0-.4-.3-.7-.7-.7s-.7.3-.7.7.3.7.7.7.7-.3.7-.7ZM267.9,127.8c0-.4-.3-.7-.7-.7s-.7.3-.7.7.3.7.7.7.7-.3.7-.7ZM270,127.8c0-.4-.3-.7-.7-.7s-.7.3-.7.7.3.7.7.7.7-.3.7-.7ZM272.2,127.8c0-.4-.3-.7-.7-.7s-.7.3-.7.7.3.7.7.7.7-.3.7-.7ZM274.3,127.8c0-.4-.3-.7-.7-.7s-.7.3-.7.7.3.7.7.7.7-.3.7-.7ZM276.5,127.8c0-.4-.3-.7-.7-.7s-.7.3-.7.7.3.7.7.7.7-.3.7-.7Z"/>
          <path class="st19" d="M284,67.1h-2.5c-.3,0-.6-.3-.6-.6s.3-.6.6-.6h2.5c.3,0,.6.3.6.6s-.3.6-.6.6ZM284.6,69.2c0-.3-.3-.6-.6-.6h-2.5c-.3,0-.6.3-.6.6s.3.6.6.6h2.5c.3,0,.6-.3.6-.6ZM284.6,71.8c0-.3-.3-.6-.6-.6h-2.5c-.3,0-.6.3-.6.6s.3.6.6.6h2.5c.3,0,.6-.3.6-.6ZM284.6,74.5c0-.3-.3-.6-.6-.6h-2.5c-.3,0-.6.3-.6.6s.3.6.6.6h2.5c.3,0,.6-.3.6-.6ZM284.6,77.1c0-.3-.3-.6-.6-.6h-2.5c-.3,0-.6.3-.6.6s.3.6.6.6h2.5c.3,0,.6-.3.6-.6ZM284.6,79.8c0-.3-.3-.6-.6-.6h-2.5c-.3,0-.6.3-.6.6s.3.6.6.6h2.5c.3,0,.6-.3.6-.6ZM284.6,82.4c0-.3-.3-.6-.6-.6h-2.5c-.3,0-.6.3-.6.6s.3.6.6.6h2.5c.3,0,.6-.3.6-.6ZM284.6,85.1c0-.3-.3-.6-.6-.6h-2.5c-.3,0-.6.3-.6.6s.3.6.6.6h2.5c.3,0,.6-.3.6-.6ZM294,66.5c0-.3-.3-.6-.6-.6h-6.6c-.3,0-.6.3-.6.6s.3.6.6.6h6.6c.3,0,.6-.3.6-.6ZM294,69.2c0-.3-.3-.6-.6-.6h-6.6c-.3,0-.6.3-.6.6s.3.6.6.6h6.6c.3,0,.6-.3.6-.6ZM294,71.8c0-.3-.3-.6-.6-.6h-6.6c-.3,0-.6.3-.6.6s.3.6.6.6h6.6c.3,0,.6-.3.6-.6ZM294,74.5c0-.3-.3-.6-.6-.6h-6.6c-.3,0-.6.3-.6.6s.3.6.6.6h6.6c.3,0,.6-.3.6-.6ZM294,77.1c0-.3-.3-.6-.6-.6h-6.6c-.3,0-.6.3-.6.6s.3.6.6.6h6.6c.3,0,.6-.3.6-.6ZM427,65.9c0-.3-.3-.6-.6-.6h-6.6c-.3,0-.6.3-.6.6s.3.6.6.6h6.6c.3,0,.6-.3.6-.6ZM427,68.6c0-.3-.3-.6-.6-.6h-6.6c-.3,0-.6.3-.6.6s.3.6.6.6h6.6c.3,0,.6-.3.6-.6ZM427,71.2c0-.3-.3-.6-.6-.6h-6.6c-.3,0-.6.3-.6.6s.3.6.6.6h6.6c.3,0,.6-.3.6-.6ZM427,73.9c0-.3-.3-.6-.6-.6h-6.6c-.3,0-.6.3-.6.6s.3.6.6.6h6.6c.3,0,.6-.3.6-.6ZM427,76.5c0-.3-.3-.6-.6-.6h-6.6c-.3,0-.6.3-.6.6s.3.6.6.6h6.6c.3,0,.6-.3.6-.6ZM427.5,104.1c0-.3-.3-.6-.6-.6h-6.6c-.3,0-.6.3-.6.6s.3.6.6.6h6.6c.3,0,.6-.3.6-.6ZM427.5,106.8c0-.3-.3-.6-.6-.6h-6.6c-.3,0-.6.3-.6.6s.3.6.6.6h6.6c.3,0,.6-.3.6-.6ZM427.5,109.4c0-.3-.3-.6-.6-.6h-6.6c-.3,0-.6.3-.6.6s.3.6.6.6h6.6c.3,0,.6-.3.6-.6ZM427.5,112.1c0-.3-.3-.6-.6-.6h-6.6c-.3,0-.6.3-.6.6s.3.6.6.6h6.6c.3,0,.6-.3.6-.6ZM427.5,114.7c0-.3-.3-.6-.6-.6h-6.6c-.3,0-.6.3-.6.6s.3.6.6.6h6.6c.3,0,.6-.3.6-.6ZM301.9,79.8c0-.3-.3-.6-.6-.6h-6.6c-.3,0-.6.3-.6.6s.3.6.6.6h6.6c.3,0,.6-.3.6-.6ZM301.9,82.4c0-.3-.3-.6-.6-.6h-6.6c-.3,0-.6.3-.6.6s.3.6.6.6h6.6c.3,0,.6-.3.6-.6ZM301.9,85.1c0-.3-.3-.6-.6-.6h-6.6c-.3,0-.6.3-.6.6s.3.6.6.6h6.6c.3,0,.6-.3.6-.6ZM296.9,66.5c0-.4-.3-.7-.7-.7s-.7.3-.7.7.3.7.7.7.7-.3.7-.7ZM299,66.5c0-.4-.3-.7-.7-.7s-.7.3-.7.7.3.7.7.7.7-.3.7-.7ZM301.2,66.5c0-.4-.3-.7-.7-.7s-.7.3-.7.7.3.7.7.7.7-.3.7-.7ZM303.3,66.5c0-.4-.3-.7-.7-.7s-.7.3-.7.7.3.7.7.7.7-.3.7-.7ZM305.5,66.5c0-.4-.3-.7-.7-.7s-.7.3-.7.7.3.7.7.7.7-.3.7-.7ZM307.6,66.5c0-.4-.3-.7-.7-.7s-.7.3-.7.7.3.7.7.7.7-.3.7-.7ZM296.9,71.8c0-.4-.3-.7-.7-.7s-.7.3-.7.7.3.7.7.7.7-.3.7-.7ZM299,71.8c0-.4-.3-.7-.7-.7s-.7.3-.7.7.3.7.7.7.7-.3.7-.7ZM301.2,71.8c0-.4-.3-.7-.7-.7s-.7.3-.7.7.3.7.7.7.7-.3.7-.7ZM303.3,71.8c0-.4-.3-.7-.7-.7s-.7.3-.7.7.3.7.7.7.7-.3.7-.7ZM305.5,71.8c0-.4-.3-.7-.7-.7s-.7.3-.7.7.3.7.7.7.7-.3.7-.7ZM307.6,71.8c0-.4-.3-.7-.7-.7s-.7.3-.7.7.3.7.7.7.7-.3.7-.7ZM304.2,79.4c0-.4-.3-.7-.7-.7s-.7.3-.7.7.3.7.7.7.7-.3.7-.7ZM306.4,79.4c0-.4-.3-.7-.7-.7s-.7.3-.7.7.3.7.7.7.7-.3.7-.7ZM308.5,79.4c0-.4-.3-.7-.7-.7s-.7.3-.7.7.3.7.7.7.7-.3.7-.7ZM310.7,79.4c0-.4-.3-.7-.7-.7s-.7.3-.7.7.3.7.7.7.7-.3.7-.7ZM312.8,79.4c0-.4-.3-.7-.7-.7s-.7.3-.7.7.3.7.7.7.7-.3.7-.7ZM315,79.4c0-.4-.3-.7-.7-.7s-.7.3-.7.7.3.7.7.7.7-.3.7-.7ZM304.2,84.9c0-.4-.3-.7-.7-.7s-.7.3-.7.7.3.7.7.7.7-.3.7-.7ZM306.4,84.9c0-.4-.3-.7-.7-.7s-.7.3-.7.7.3.7.7.7.7-.3.7-.7ZM308.5,84.9c0-.4-.3-.7-.7-.7s-.7.3-.7.7.3.7.7.7.7-.3.7-.7ZM310.7,84.9c0-.4-.3-.7-.7-.7s-.7.3-.7.7.3.7.7.7.7-.3.7-.7ZM312.8,84.9c0-.4-.3-.7-.7-.7s-.7.3-.7.7.3.7.7.7.7-.3.7-.7ZM315,84.9c0-.4-.3-.7-.7-.7s-.7.3-.7.7.3.7.7.7.7-.3.7-.7Z"/>
          <path class="st19" d="M284,88.8h-2.5c-.3,0-.6-.3-.6-.6s.3-.6.6-.6h2.5c.3,0,.6.3.6.6s-.3.6-.6.6ZM284.6,90.9c0-.3-.3-.6-.6-.6h-2.5c-.3,0-.6.3-.6.6s.3.6.6.6h2.5c.3,0,.6-.3.6-.6ZM284.6,93.5c0-.3-.3-.6-.6-.6h-2.5c-.3,0-.6.3-.6.6s.3.6.6.6h2.5c.3,0,.6-.3.6-.6ZM284.6,96.2c0-.3-.3-.6-.6-.6h-2.5c-.3,0-.6.3-.6.6s.3.6.6.6h2.5c.3,0,.6-.3.6-.6ZM284.6,98.8c0-.3-.3-.6-.6-.6h-2.5c-.3,0-.6.3-.6.6s.3.6.6.6h2.5c.3,0,.6-.3.6-.6ZM284.6,101.5c0-.3-.3-.6-.6-.6h-2.5c-.3,0-.6.3-.6.6s.3.6.6.6h2.5c.3,0,.6-.3.6-.6ZM284.6,104.1c0-.3-.3-.6-.6-.6h-2.5c-.3,0-.6.3-.6.6s.3.6.6.6h2.5c.3,0,.6-.3.6-.6ZM284.6,106.8c0-.3-.3-.6-.6-.6h-2.5c-.3,0-.6.3-.6.6s.3.6.6.6h2.5c.3,0,.6-.3.6-.6ZM294,88.2c0-.3-.3-.6-.6-.6h-6.6c-.3,0-.6.3-.6.6s.3.6.6.6h6.6c.3,0,.6-.3.6-.6ZM294,90.9c0-.3-.3-.6-.6-.6h-6.6c-.3,0-.6.3-.6.6s.3.6.6.6h6.6c.3,0,.6-.3.6-.6ZM294,93.5c0-.3-.3-.6-.6-.6h-6.6c-.3,0-.6.3-.6.6s.3.6.6.6h6.6c.3,0,.6-.3.6-.6ZM294,96.2c0-.3-.3-.6-.6-.6h-6.6c-.3,0-.6.3-.6.6s.3.6.6.6h6.6c.3,0,.6-.3.6-.6ZM294,98.8c0-.3-.3-.6-.6-.6h-6.6c-.3,0-.6.3-.6.6s.3.6.6.6h6.6c.3,0,.6-.3.6-.6ZM301.9,101.5c0-.3-.3-.6-.6-.6h-6.6c-.3,0-.6.3-.6.6s.3.6.6.6h6.6c.3,0,.6-.3.6-.6ZM301.9,104.1c0-.3-.3-.6-.6-.6h-6.6c-.3,0-.6.3-.6.6s.3.6.6.6h6.6c.3,0,.6-.3.6-.6ZM301.9,106.8c0-.3-.3-.6-.6-.6h-6.6c-.3,0-.6.3-.6.6s.3.6.6.6h6.6c.3,0,.6-.3.6-.6ZM296.9,88.2c0-.4-.3-.7-.7-.7s-.7.3-.7.7.3.7.7.7.7-.3.7-.7ZM299,88.2c0-.4-.3-.7-.7-.7s-.7.3-.7.7.3.7.7.7.7-.3.7-.7ZM301.2,88.2c0-.4-.3-.7-.7-.7s-.7.3-.7.7.3.7.7.7.7-.3.7-.7ZM303.3,88.2c0-.4-.3-.7-.7-.7s-.7.3-.7.7.3.7.7.7.7-.3.7-.7ZM305.5,88.2c0-.4-.3-.7-.7-.7s-.7.3-.7.7.3.7.7.7.7-.3.7-.7ZM307.6,88.2c0-.4-.3-.7-.7-.7s-.7.3-.7.7.3.7.7.7.7-.3.7-.7ZM296.9,93.5c0-.4-.3-.7-.7-.7s-.7.3-.7.7.3.7.7.7.7-.3.7-.7ZM299,93.5c0-.4-.3-.7-.7-.7s-.7.3-.7.7.3.7.7.7.7-.3.7-.7ZM301.2,93.5c0-.4-.3-.7-.7-.7s-.7.3-.7.7.3.7.7.7.7-.3.7-.7ZM303.3,93.5c0-.4-.3-.7-.7-.7s-.7.3-.7.7.3.7.7.7.7-.3.7-.7ZM305.5,93.5c0-.4-.3-.7-.7-.7s-.7.3-.7.7.3.7.7.7.7-.3.7-.7ZM307.6,93.5c0-.4-.3-.7-.7-.7s-.7.3-.7.7.3.7.7.7.7-.3.7-.7ZM304.2,101.1c0-.4-.3-.7-.7-.7s-.7.3-.7.7.3.7.7.7.7-.3.7-.7ZM306.4,101.1c0-.4-.3-.7-.7-.7s-.7.3-.7.7.3.7.7.7.7-.3.7-.7ZM308.5,101.1c0-.4-.3-.7-.7-.7s-.7.3-.7.7.3.7.7.7.7-.3.7-.7ZM310.7,101.1c0-.4-.3-.7-.7-.7s-.7.3-.7.7.3.7.7.7.7-.3.7-.7ZM312.8,101.1c0-.4-.3-.7-.7-.7s-.7.3-.7.7.3.7.7.7.7-.3.7-.7ZM315,101.1c0-.4-.3-.7-.7-.7s-.7.3-.7.7.3.7.7.7.7-.3.7-.7ZM304.2,106.6c0-.4-.3-.7-.7-.7s-.7.3-.7.7.3.7.7.7.7-.3.7-.7ZM306.4,106.6c0-.4-.3-.7-.7-.7s-.7.3-.7.7.3.7.7.7.7-.3.7-.7ZM308.5,106.6c0-.4-.3-.7-.7-.7s-.7.3-.7.7.3.7.7.7.7-.3.7-.7ZM310.7,106.6c0-.4-.3-.7-.7-.7s-.7.3-.7.7.3.7.7.7.7-.3.7-.7ZM312.8,106.6c0-.4-.3-.7-.7-.7s-.7.3-.7.7.3.7.7.7.7-.3.7-.7ZM315,106.6c0-.4-.3-.7-.7-.7s-.7.3-.7.7.3.7.7.7.7-.3.7-.7Z"/>
        </g>
      </g>
    </g>
    <g>
      <path class="st19" d="M339.7,67.3h-2.3c-.3,0-.6-.3-.6-.6s.3-.6.6-.6h2.3c.3,0,.6.3.6.6s-.3.6-.6.6ZM340.3,69.4c0-.3-.3-.6-.6-.6h-2.3c-.3,0-.6.3-.6.6s.3.6.6.6h2.3c.3,0,.6-.3.6-.6ZM340.3,72c0-.3-.3-.6-.6-.6h-2.3c-.3,0-.6.3-.6.6s.3.6.6.6h2.3c.3,0,.6-.3.6-.6ZM340.3,74.7c0-.3-.3-.6-.6-.6h-2.3c-.3,0-.6.3-.6.6s.3.6.6.6h2.3c.3,0,.6-.3.6-.6ZM340.3,77.3c0-.3-.3-.6-.6-.6h-2.3c-.3,0-.6.3-.6.6s.3.6.6.6h2.3c.3,0,.6-.3.6-.6ZM340.3,80c0-.3-.3-.6-.6-.6h-2.3c-.3,0-.6.3-.6.6s.3.6.6.6h2.3c.3,0,.6-.3.6-.6ZM340.3,82.6c0-.3-.3-.6-.6-.6h-2.3c-.3,0-.6.3-.6.6s.3.6.6.6h2.3c.3,0,.6-.3.6-.6ZM340.3,85.3c0-.3-.3-.6-.6-.6h-2.3c-.3,0-.6.3-.6.6s.3.6.6.6h2.3c.3,0,.6-.3.6-.6ZM349,66.7c0-.3-.3-.6-.6-.6h-6.1c-.3,0-.6.3-.6.6s.3.6.6.6h6.1c.3,0,.6-.3.6-.6ZM349,69.4c0-.3-.3-.6-.6-.6h-6.1c-.3,0-.6.3-.6.6s.3.6.6.6h6.1c.3,0,.6-.3.6-.6ZM349,72c0-.3-.3-.6-.6-.6h-6.1c-.3,0-.6.3-.6.6s.3.6.6.6h6.1c.3,0,.6-.3.6-.6ZM349,74.7c0-.3-.3-.6-.6-.6h-6.1c-.3,0-.6.3-.6.6s.3.6.6.6h6.1c.3,0,.6-.3.6-.6ZM349,77.3c0-.3-.3-.6-.6-.6h-6.1c-.3,0-.6.3-.6.6s.3.6.6.6h6.1c.3,0,.6-.3.6-.6ZM356.3,80c0-.3-.3-.6-.6-.6h-6.1c-.3,0-.6.3-.6.6s.3.6.6.6h6.1c.3,0,.6-.3.6-.6ZM356.3,82.6c0-.3-.3-.6-.6-.6h-6.1c-.3,0-.6.3-.6.6s.3.6.6.6h6.1c.3,0,.6-.3.6-.6ZM356.3,85.3c0-.3-.3-.6-.6-.6h-6.1c-.3,0-.6.3-.6.6s.3.6.6.6h6.1c.3,0,.6-.3.6-.6ZM351.7,66.7c0-.4-.3-.7-.7-.7s-.7.3-.7.7.3.7.7.7.7-.3.7-.7ZM353.7,66.7c0-.4-.3-.7-.7-.7s-.7.3-.7.7.3.7.7.7.7-.3.7-.7ZM355.7,66.7c0-.4-.3-.7-.7-.7s-.7.3-.7.7.3.7.7.7.7-.3.7-.7ZM357.7,66.7c0-.4-.3-.7-.7-.7s-.7.3-.7.7.3.7.7.7.7-.3.7-.7ZM359.7,66.7c0-.4-.3-.7-.7-.7s-.7.3-.7.7.3.7.7.7.7-.3.7-.7ZM361.7,66.7c0-.4-.3-.7-.7-.7s-.7.3-.7.7.3.7.7.7.7-.3.7-.7ZM351.7,72c0-.4-.3-.7-.7-.7s-.7.3-.7.7.3.7.7.7.7-.3.7-.7ZM353.7,72c0-.4-.3-.7-.7-.7s-.7.3-.7.7.3.7.7.7.7-.3.7-.7ZM355.7,72c0-.4-.3-.7-.7-.7s-.7.3-.7.7.3.7.7.7.7-.3.7-.7ZM357.7,72c0-.4-.3-.7-.7-.7s-.7.3-.7.7.3.7.7.7.7-.3.7-.7ZM359.7,72c0-.4-.3-.7-.7-.7s-.7.3-.7.7.3.7.7.7.7-.3.7-.7ZM361.7,72c0-.4-.3-.7-.7-.7s-.7.3-.7.7.3.7.7.7.7-.3.7-.7ZM358.5,79.6c0-.4-.3-.7-.7-.7s-.7.3-.7.7.3.7.7.7.7-.3.7-.7ZM360.5,79.6c0-.4-.3-.7-.7-.7s-.7.3-.7.7.3.7.7.7.7-.3.7-.7ZM362.5,79.6c0-.4-.3-.7-.7-.7s-.7.3-.7.7.3.7.7.7.7-.3.7-.7ZM364.5,79.6c0-.4-.3-.7-.7-.7s-.7.3-.7.7.3.7.7.7.7-.3.7-.7ZM366.5,79.6c0-.4-.3-.7-.7-.7s-.7.3-.7.7.3.7.7.7.7-.3.7-.7ZM368.5,79.6c0-.4-.3-.7-.7-.7s-.7.3-.7.7.3.7.7.7.7-.3.7-.7ZM358.5,85.1c0-.4-.3-.7-.7-.7s-.7.3-.7.7.3.7.7.7.7-.3.7-.7ZM360.5,85.1c0-.4-.3-.7-.7-.7s-.7.3-.7.7.3.7.7.7.7-.3.7-.7ZM362.5,85.1c0-.4-.3-.7-.7-.7s-.7.3-.7.7.3.7.7.7.7-.3.7-.7ZM364.5,85.1c0-.4-.3-.7-.7-.7s-.7.3-.7.7.3.7.7.7.7-.3.7-.7ZM366.5,85.1c0-.4-.3-.7-.7-.7s-.7.3-.7.7.3.7.7.7.7-.3.7-.7ZM368.5,85.1c0-.4-.3-.7-.7-.7s-.7.3-.7.7.3.7.7.7.7-.3.7-.7Z"/>
      <path class="st19" d="M339.7,88.5h-2.3c-.3,0-.6-.3-.6-.6s.3-.6.6-.6h2.3c.3,0,.6.3.6.6s-.3.6-.6.6ZM340.3,90.6c0-.3-.3-.6-.6-.6h-2.3c-.3,0-.6.3-.6.6s.3.6.6.6h2.3c.3,0,.6-.3.6-.6ZM340.3,93.2c0-.3-.3-.6-.6-.6h-2.3c-.3,0-.6.3-.6.6s.3.6.6.6h2.3c.3,0,.6-.3.6-.6ZM340.3,95.9c0-.3-.3-.6-.6-.6h-2.3c-.3,0-.6.3-.6.6s.3.6.6.6h2.3c.3,0,.6-.3.6-.6ZM340.3,98.5c0-.3-.3-.6-.6-.6h-2.3c-.3,0-.6.3-.6.6s.3.6.6.6h2.3c.3,0,.6-.3.6-.6ZM340.3,101.2c0-.3-.3-.6-.6-.6h-2.3c-.3,0-.6.3-.6.6s.3.6.6.6h2.3c.3,0,.6-.3.6-.6ZM340.3,103.8c0-.3-.3-.6-.6-.6h-2.3c-.3,0-.6.3-.6.6s.3.6.6.6h2.3c.3,0,.6-.3.6-.6ZM340.3,106.5c0-.3-.3-.6-.6-.6h-2.3c-.3,0-.6.3-.6.6s.3.6.6.6h2.3c.3,0,.6-.3.6-.6ZM349,87.9c0-.3-.3-.6-.6-.6h-6.1c-.3,0-.6.3-.6.6s.3.6.6.6h6.1c.3,0,.6-.3.6-.6ZM349,90.6c0-.3-.3-.6-.6-.6h-6.1c-.3,0-.6.3-.6.6s.3.6.6.6h6.1c.3,0,.6-.3.6-.6ZM349,93.2c0-.3-.3-.6-.6-.6h-6.1c-.3,0-.6.3-.6.6s.3.6.6.6h6.1c.3,0,.6-.3.6-.6ZM349,95.9c0-.3-.3-.6-.6-.6h-6.1c-.3,0-.6.3-.6.6s.3.6.6.6h6.1c.3,0,.6-.3.6-.6ZM349,98.5c0-.3-.3-.6-.6-.6h-6.1c-.3,0-.6.3-.6.6s.3.6.6.6h6.1c.3,0,.6-.3.6-.6ZM356.3,101.2c0-.3-.3-.6-.6-.6h-6.1c-.3,0-.6.3-.6.6s.3.6.6.6h6.1c.3,0,.6-.3.6-.6ZM356.3,103.8c0-.3-.3-.6-.6-.6h-6.1c-.3,0-.6.3-.6.6s.3.6.6.6h6.1c.3,0,.6-.3.6-.6ZM356.3,106.5c0-.3-.3-.6-.6-.6h-6.1c-.3,0-.6.3-.6.6s.3.6.6.6h6.1c.3,0,.6-.3.6-.6ZM351.7,87.9c0-.4-.3-.7-.7-.7s-.7.3-.7.7.3.7.7.7.7-.3.7-.7ZM353.7,87.9c0-.4-.3-.7-.7-.7s-.7.3-.7.7.3.7.7.7.7-.3.7-.7ZM355.7,87.9c0-.4-.3-.7-.7-.7s-.7.3-.7.7.3.7.7.7.7-.3.7-.7ZM357.7,87.9c0-.4-.3-.7-.7-.7s-.7.3-.7.7.3.7.7.7.7-.3.7-.7ZM359.7,87.9c0-.4-.3-.7-.7-.7s-.7.3-.7.7.3.7.7.7.7-.3.7-.7ZM361.7,87.9c0-.4-.3-.7-.7-.7s-.7.3-.7.7.3.7.7.7.7-.3.7-.7ZM351.7,93.2c0-.4-.3-.7-.7-.7s-.7.3-.7.7.3.7.7.7.7-.3.7-.7ZM353.7,93.2c0-.4-.3-.7-.7-.7s-.7.3-.7.7.3.7.7.7.7-.3.7-.7ZM355.7,93.2c0-.4-.3-.7-.7-.7s-.7.3-.7.7.3.7.7.7.7-.3.7-.7ZM357.7,93.2c0-.4-.3-.7-.7-.7s-.7.3-.7.7.3.7.7.7.7-.3.7-.7ZM359.7,93.2c0-.4-.3-.7-.7-.7s-.7.3-.7.7.3.7.7.7.7-.3.7-.7ZM361.7,93.2c0-.4-.3-.7-.7-.7s-.7.3-.7.7.3.7.7.7.7-.3.7-.7ZM358.5,100.8c0-.4-.3-.7-.7-.7s-.7.3-.7.7.3.7.7.7.7-.3.7-.7ZM360.5,100.8c0-.4-.3-.7-.7-.7s-.7.3-.7.7.3.7.7.7.7-.3.7-.7ZM362.5,100.8c0-.4-.3-.7-.7-.7s-.7.3-.7.7.3.7.7.7.7-.3.7-.7ZM364.5,100.8c0-.4-.3-.7-.7-.7s-.7.3-.7.7.3.7.7.7.7-.3.7-.7ZM366.5,100.8c0-.4-.3-.7-.7-.7s-.7.3-.7.7.3.7.7.7.7-.3.7-.7ZM368.5,100.8c0-.4-.3-.7-.7-.7s-.7.3-.7.7.3.7.7.7.7-.3.7-.7ZM358.5,106.3c0-.4-.3-.7-.7-.7s-.7.3-.7.7.3.7.7.7.7-.3.7-.7ZM360.5,106.3c0-.4-.3-.7-.7-.7s-.7.3-.7.7.3.7.7.7.7-.3.7-.7ZM362.5,106.3c0-.4-.3-.7-.7-.7s-.7.3-.7.7.3.7.7.7.7-.3.7-.7ZM364.5,106.3c0-.4-.3-.7-.7-.7s-.7.3-.7.7.3.7.7.7.7-.3.7-.7ZM366.5,106.3c0-.4-.3-.7-.7-.7s-.7.3-.7.7.3.7.7.7.7-.3.7-.7ZM368.5,106.3c0-.4-.3-.7-.7-.7s-.7.3-.7.7.3.7.7.7.7-.3.7-.7Z"/>
      <path class="st19" d="M339.7,110.2h-2.3c-.3,0-.6-.3-.6-.6s.3-.6.6-.6h2.3c.3,0,.6.3.6.6s-.3.6-.6.6ZM340.3,112.3c0-.3-.3-.6-.6-.6h-2.3c-.3,0-.6.3-.6.6s.3.6.6.6h2.3c.3,0,.6-.3.6-.6ZM340.3,114.9c0-.3-.3-.6-.6-.6h-2.3c-.3,0-.6.3-.6.6s.3.6.6.6h2.3c.3,0,.6-.3.6-.6ZM340.3,117.6c0-.3-.3-.6-.6-.6h-2.3c-.3,0-.6.3-.6.6s.3.6.6.6h2.3c.3,0,.6-.3.6-.6ZM340.3,120.2c0-.3-.3-.6-.6-.6h-2.3c-.3,0-.6.3-.6.6s.3.6.6.6h2.3c.3,0,.6-.3.6-.6ZM340.3,122.9c0-.3-.3-.6-.6-.6h-2.3c-.3,0-.6.3-.6.6s.3.6.6.6h2.3c.3,0,.6-.3.6-.6ZM340.3,125.5c0-.3-.3-.6-.6-.6h-2.3c-.3,0-.6.3-.6.6s.3.6.6.6h2.3c.3,0,.6-.3.6-.6ZM340.3,128.2c0-.3-.3-.6-.6-.6h-2.3c-.3,0-.6.3-.6.6s.3.6.6.6h2.3c.3,0,.6-.3.6-.6ZM349,109.6c0-.3-.3-.6-.6-.6h-6.1c-.3,0-.6.3-.6.6s.3.6.6.6h6.1c.3,0,.6-.3.6-.6ZM349,112.3c0-.3-.3-.6-.6-.6h-6.1c-.3,0-.6.3-.6.6s.3.6.6.6h6.1c.3,0,.6-.3.6-.6ZM349,114.9c0-.3-.3-.6-.6-.6h-6.1c-.3,0-.6.3-.6.6s.3.6.6.6h6.1c.3,0,.6-.3.6-.6ZM349,117.6c0-.3-.3-.6-.6-.6h-6.1c-.3,0-.6.3-.6.6s.3.6.6.6h6.1c.3,0,.6-.3.6-.6ZM349,120.2c0-.3-.3-.6-.6-.6h-6.1c-.3,0-.6.3-.6.6s.3.6.6.6h6.1c.3,0,.6-.3.6-.6ZM356.3,122.9c0-.3-.3-.6-.6-.6h-6.1c-.3,0-.6.3-.6.6s.3.6.6.6h6.1c.3,0,.6-.3.6-.6ZM356.3,125.5c0-.3-.3-.6-.6-.6h-6.1c-.3,0-.6.3-.6.6s.3.6.6.6h6.1c.3,0,.6-.3.6-.6ZM356.3,128.2c0-.3-.3-.6-.6-.6h-6.1c-.3,0-.6.3-.6.6s.3.6.6.6h6.1c.3,0,.6-.3.6-.6ZM351.7,109.6c0-.4-.3-.7-.7-.7s-.7.3-.7.7.3.7.7.7.7-.3.7-.7ZM353.7,109.6c0-.4-.3-.7-.7-.7s-.7.3-.7.7.3.7.7.7.7-.3.7-.7ZM355.7,109.6c0-.4-.3-.7-.7-.7s-.7.3-.7.7.3.7.7.7.7-.3.7-.7ZM357.7,109.6c0-.4-.3-.7-.7-.7s-.7.3-.7.7.3.7.7.7.7-.3.7-.7ZM359.7,109.6c0-.4-.3-.7-.7-.7s-.7.3-.7.7.3.7.7.7.7-.3.7-.7ZM361.7,109.6c0-.4-.3-.7-.7-.7s-.7.3-.7.7.3.7.7.7.7-.3.7-.7ZM351.7,114.9c0-.4-.3-.7-.7-.7s-.7.3-.7.7.3.7.7.7.7-.3.7-.7ZM353.7,114.9c0-.4-.3-.7-.7-.7s-.7.3-.7.7.3.7.7.7.7-.3.7-.7ZM355.7,114.9c0-.4-.3-.7-.7-.7s-.7.3-.7.7.3.7.7.7.7-.3.7-.7ZM357.7,114.9c0-.4-.3-.7-.7-.7s-.7.3-.7.7.3.7.7.7.7-.3.7-.7ZM359.7,114.9c0-.4-.3-.7-.7-.7s-.7.3-.7.7.3.7.7.7.7-.3.7-.7ZM361.7,114.9c0-.4-.3-.7-.7-.7s-.7.3-.7.7.3.7.7.7.7-.3.7-.7ZM358.5,122.5c0-.4-.3-.7-.7-.7s-.7.3-.7.7.3.7.7.7.7-.3.7-.7ZM360.5,122.5c0-.4-.3-.7-.7-.7s-.7.3-.7.7.3.7.7.7.7-.3.7-.7ZM362.5,122.5c0-.4-.3-.7-.7-.7s-.7.3-.7.7.3.7.7.7.7-.3.7-.7ZM364.5,122.5c0-.4-.3-.7-.7-.7s-.7.3-.7.7.3.7.7.7.7-.3.7-.7ZM366.5,122.5c0-.4-.3-.7-.7-.7s-.7.3-.7.7.3.7.7.7.7-.3.7-.7ZM368.5,122.5c0-.4-.3-.7-.7-.7s-.7.3-.7.7.3.7.7.7.7-.3.7-.7ZM358.5,128c0-.4-.3-.7-.7-.7s-.7.3-.7.7.3.7.7.7.7-.3.7-.7ZM360.5,128c0-.4-.3-.7-.7-.7s-.7.3-.7.7.3.7.7.7.7-.3.7-.7ZM362.5,128c0-.4-.3-.7-.7-.7s-.7.3-.7.7.3.7.7.7.7-.3.7-.7ZM364.5,128c0-.4-.3-.7-.7-.7s-.7.3-.7.7.3.7.7.7.7-.3.7-.7ZM366.5,128c0-.4-.3-.7-.7-.7s-.7.3-.7.7.3.7.7.7.7-.3.7-.7ZM368.5,128c0-.4-.3-.7-.7-.7s-.7.3-.7.7.3.7.7.7.7-.3.7-.7Z"/>
      <path class="st19" d="M375.5,67.3h-2.3c-.3,0-.6-.3-.6-.6s.3-.6.6-.6h2.3c.3,0,.6.3.6.6s-.3.6-.6.6ZM376.1,69.4c0-.3-.3-.6-.6-.6h-2.3c-.3,0-.6.3-.6.6s.3.6.6.6h2.3c.3,0,.6-.3.6-.6ZM376.1,72c0-.3-.3-.6-.6-.6h-2.3c-.3,0-.6.3-.6.6s.3.6.6.6h2.3c.3,0,.6-.3.6-.6ZM376.1,74.7c0-.3-.3-.6-.6-.6h-2.3c-.3,0-.6.3-.6.6s.3.6.6.6h2.3c.3,0,.6-.3.6-.6ZM376.1,77.3c0-.3-.3-.6-.6-.6h-2.3c-.3,0-.6.3-.6.6s.3.6.6.6h2.3c.3,0,.6-.3.6-.6ZM376.1,80c0-.3-.3-.6-.6-.6h-2.3c-.3,0-.6.3-.6.6s.3.6.6.6h2.3c.3,0,.6-.3.6-.6ZM376.1,82.6c0-.3-.3-.6-.6-.6h-2.3c-.3,0-.6.3-.6.6s.3.6.6.6h2.3c.3,0,.6-.3.6-.6ZM376.1,85.3c0-.3-.3-.6-.6-.6h-2.3c-.3,0-.6.3-.6.6s.3.6.6.6h2.3c.3,0,.6-.3.6-.6ZM384.8,66.7c0-.3-.3-.6-.6-.6h-6.1c-.3,0-.6.3-.6.6s.3.6.6.6h6.1c.3,0,.6-.3.6-.6ZM384.8,69.4c0-.3-.3-.6-.6-.6h-6.1c-.3,0-.6.3-.6.6s.3.6.6.6h6.1c.3,0,.6-.3.6-.6ZM384.8,72c0-.3-.3-.6-.6-.6h-6.1c-.3,0-.6.3-.6.6s.3.6.6.6h6.1c.3,0,.6-.3.6-.6ZM384.8,74.7c0-.3-.3-.6-.6-.6h-6.1c-.3,0-.6.3-.6.6s.3.6.6.6h6.1c.3,0,.6-.3.6-.6ZM384.8,77.3c0-.3-.3-.6-.6-.6h-6.1c-.3,0-.6.3-.6.6s.3.6.6.6h6.1c.3,0,.6-.3.6-.6ZM392.1,80c0-.3-.3-.6-.6-.6h-6.1c-.3,0-.6.3-.6.6s.3.6.6.6h6.1c.3,0,.6-.3.6-.6ZM392.1,82.6c0-.3-.3-.6-.6-.6h-6.1c-.3,0-.6.3-.6.6s.3.6.6.6h6.1c.3,0,.6-.3.6-.6ZM392.1,85.3c0-.3-.3-.6-.6-.6h-6.1c-.3,0-.6.3-.6.6s.3.6.6.6h6.1c.3,0,.6-.3.6-.6ZM387.5,66.7c0-.4-.3-.7-.7-.7s-.7.3-.7.7.3.7.7.7.7-.3.7-.7ZM389.5,66.7c0-.4-.3-.7-.7-.7s-.7.3-.7.7.3.7.7.7.7-.3.7-.7ZM391.5,66.7c0-.4-.3-.7-.7-.7s-.7.3-.7.7.3.7.7.7.7-.3.7-.7ZM393.5,66.7c0-.4-.3-.7-.7-.7s-.7.3-.7.7.3.7.7.7.7-.3.7-.7ZM395.5,66.7c0-.4-.3-.7-.7-.7s-.7.3-.7.7.3.7.7.7.7-.3.7-.7ZM397.5,66.7c0-.4-.3-.7-.7-.7s-.7.3-.7.7.3.7.7.7.7-.3.7-.7ZM387.5,72c0-.4-.3-.7-.7-.7s-.7.3-.7.7.3.7.7.7.7-.3.7-.7ZM389.5,72c0-.4-.3-.7-.7-.7s-.7.3-.7.7.3.7.7.7.7-.3.7-.7ZM391.5,72c0-.4-.3-.7-.7-.7s-.7.3-.7.7.3.7.7.7.7-.3.7-.7ZM393.5,72c0-.4-.3-.7-.7-.7s-.7.3-.7.7.3.7.7.7.7-.3.7-.7ZM395.5,72c0-.4-.3-.7-.7-.7s-.7.3-.7.7.3.7.7.7.7-.3.7-.7ZM397.5,72c0-.4-.3-.7-.7-.7s-.7.3-.7.7.3.7.7.7.7-.3.7-.7ZM394.3,79.6c0-.4-.3-.7-.7-.7s-.7.3-.7.7.3.7.7.7.7-.3.7-.7ZM396.3,79.6c0-.4-.3-.7-.7-.7s-.7.3-.7.7.3.7.7.7.7-.3.7-.7ZM398.3,79.6c0-.4-.3-.7-.7-.7s-.7.3-.7.7.3.7.7.7.7-.3.7-.7ZM400.3,79.6c0-.4-.3-.7-.7-.7s-.7.3-.7.7.3.7.7.7.7-.3.7-.7ZM402.3,79.6c0-.4-.3-.7-.7-.7s-.7.3-.7.7.3.7.7.7.7-.3.7-.7ZM404.3,79.6c0-.4-.3-.7-.7-.7s-.7.3-.7.7.3.7.7.7.7-.3.7-.7ZM394.3,85.1c0-.4-.3-.7-.7-.7s-.7.3-.7.7.3.7.7.7.7-.3.7-.7ZM396.3,85.1c0-.4-.3-.7-.7-.7s-.7.3-.7.7.3.7.7.7.7-.3.7-.7ZM398.3,85.1c0-.4-.3-.7-.7-.7s-.7.3-.7.7.3.7.7.7.7-.3.7-.7ZM400.3,85.1c0-.4-.3-.7-.7-.7s-.7.3-.7.7.3.7.7.7.7-.3.7-.7ZM402.3,85.1c0-.4-.3-.7-.7-.7s-.7.3-.7.7.3.7.7.7.7-.3.7-.7ZM404.3,85.1c0-.4-.3-.7-.7-.7s-.7.3-.7.7.3.7.7.7.7-.3.7-.7Z"/>
      <path class="st19" d="M375.5,89h-2.3c-.3,0-.6-.3-.6-.6s.3-.6.6-.6h2.3c.3,0,.6.3.6.6s-.3.6-.6.6ZM376.1,91.1c0-.3-.3-.6-.6-.6h-2.3c-.3,0-.6.3-.6.6s.3.6.6.6h2.3c.3,0,.6-.3.6-.6ZM376.1,93.7c0-.3-.3-.6-.6-.6h-2.3c-.3,0-.6.3-.6.6s.3.6.6.6h2.3c.3,0,.6-.3.6-.6ZM376.1,96.4c0-.3-.3-.6-.6-.6h-2.3c-.3,0-.6.3-.6.6s.3.6.6.6h2.3c.3,0,.6-.3.6-.6ZM376.1,99c0-.3-.3-.6-.6-.6h-2.3c-.3,0-.6.3-.6.6s.3.6.6.6h2.3c.3,0,.6-.3.6-.6ZM376.1,101.7c0-.3-.3-.6-.6-.6h-2.3c-.3,0-.6.3-.6.6s.3.6.6.6h2.3c.3,0,.6-.3.6-.6ZM376.1,104.3c0-.3-.3-.6-.6-.6h-2.3c-.3,0-.6.3-.6.6s.3.6.6.6h2.3c.3,0,.6-.3.6-.6ZM376.1,107c0-.3-.3-.6-.6-.6h-2.3c-.3,0-.6.3-.6.6s.3.6.6.6h2.3c.3,0,.6-.3.6-.6ZM384.8,88.4c0-.3-.3-.6-.6-.6h-6.1c-.3,0-.6.3-.6.6s.3.6.6.6h6.1c.3,0,.6-.3.6-.6ZM384.8,91.1c0-.3-.3-.6-.6-.6h-6.1c-.3,0-.6.3-.6.6s.3.6.6.6h6.1c.3,0,.6-.3.6-.6ZM384.8,93.7c0-.3-.3-.6-.6-.6h-6.1c-.3,0-.6.3-.6.6s.3.6.6.6h6.1c.3,0,.6-.3.6-.6ZM384.8,96.4c0-.3-.3-.6-.6-.6h-6.1c-.3,0-.6.3-.6.6s.3.6.6.6h6.1c.3,0,.6-.3.6-.6ZM384.8,99c0-.3-.3-.6-.6-.6h-6.1c-.3,0-.6.3-.6.6s.3.6.6.6h6.1c.3,0,.6-.3.6-.6ZM392.1,101.7c0-.3-.3-.6-.6-.6h-6.1c-.3,0-.6.3-.6.6s.3.6.6.6h6.1c.3,0,.6-.3.6-.6ZM392.1,104.3c0-.3-.3-.6-.6-.6h-6.1c-.3,0-.6.3-.6.6s.3.6.6.6h6.1c.3,0,.6-.3.6-.6ZM392.1,107c0-.3-.3-.6-.6-.6h-6.1c-.3,0-.6.3-.6.6s.3.6.6.6h6.1c.3,0,.6-.3.6-.6ZM387.5,88.4c0-.4-.3-.7-.7-.7s-.7.3-.7.7.3.7.7.7.7-.3.7-.7ZM389.5,88.4c0-.4-.3-.7-.7-.7s-.7.3-.7.7.3.7.7.7.7-.3.7-.7ZM391.5,88.4c0-.4-.3-.7-.7-.7s-.7.3-.7.7.3.7.7.7.7-.3.7-.7ZM393.5,88.4c0-.4-.3-.7-.7-.7s-.7.3-.7.7.3.7.7.7.7-.3.7-.7ZM395.5,88.4c0-.4-.3-.7-.7-.7s-.7.3-.7.7.3.7.7.7.7-.3.7-.7ZM397.5,88.4c0-.4-.3-.7-.7-.7s-.7.3-.7.7.3.7.7.7.7-.3.7-.7ZM387.5,93.7c0-.4-.3-.7-.7-.7s-.7.3-.7.7.3.7.7.7.7-.3.7-.7ZM389.5,93.7c0-.4-.3-.7-.7-.7s-.7.3-.7.7.3.7.7.7.7-.3.7-.7ZM391.5,93.7c0-.4-.3-.7-.7-.7s-.7.3-.7.7.3.7.7.7.7-.3.7-.7ZM393.5,93.7c0-.4-.3-.7-.7-.7s-.7.3-.7.7.3.7.7.7.7-.3.7-.7ZM395.5,93.7c0-.4-.3-.7-.7-.7s-.7.3-.7.7.3.7.7.7.7-.3.7-.7ZM397.5,93.7c0-.4-.3-.7-.7-.7s-.7.3-.7.7.3.7.7.7.7-.3.7-.7ZM394.3,101.3c0-.4-.3-.7-.7-.7s-.7.3-.7.7.3.7.7.7.7-.3.7-.7ZM396.3,101.3c0-.4-.3-.7-.7-.7s-.7.3-.7.7.3.7.7.7.7-.3.7-.7ZM398.3,101.3c0-.4-.3-.7-.7-.7s-.7.3-.7.7.3.7.7.7.7-.3.7-.7ZM400.3,101.3c0-.4-.3-.7-.7-.7s-.7.3-.7.7.3.7.7.7.7-.3.7-.7ZM402.3,101.3c0-.4-.3-.7-.7-.7s-.7.3-.7.7.3.7.7.7.7-.3.7-.7ZM404.3,101.3c0-.4-.3-.7-.7-.7s-.7.3-.7.7.3.7.7.7.7-.3.7-.7ZM394.3,106.8c0-.4-.3-.7-.7-.7s-.7.3-.7.7.3.7.7.7.7-.3.7-.7ZM396.3,106.8c0-.4-.3-.7-.7-.7s-.7.3-.7.7.3.7.7.7.7-.3.7-.7ZM398.3,106.8c0-.4-.3-.7-.7-.7s-.7.3-.7.7.3.7.7.7.7-.3.7-.7ZM400.3,106.8c0-.4-.3-.7-.7-.7s-.7.3-.7.7.3.7.7.7.7-.3.7-.7ZM402.3,106.8c0-.4-.3-.7-.7-.7s-.7.3-.7.7.3.7.7.7.7-.3.7-.7ZM404.3,106.8c0-.4-.3-.7-.7-.7s-.7.3-.7.7.3.7.7.7.7-.3.7-.7Z"/>
    </g>
  </g>
  <g id="Character">
    <g>
      <g>
        <path class="st1" d="M247.4,53.2c.7,3.8-.4,7-2.2,7.4-1.9.4-3.9-2.4-4.6-6.2-.7-3.8.4-7,2.2-7.4,1.9-.4,3.9,2.4,4.6,6.2Z"/>
        <g>
          <path class="st4" d="M239.7,35s2.1,6.7,1.8,10.2-1.3,5.9-.9,7.5,3.3,2.8,4.1,5.8-.9,18.8-1.8,22c-.7,3.2,0,4-1.8,4.7s-7.1-.3-7.1-.3c0,0-2.7,1.1-2.8,2.3v5.4l-30.5-5.2s2.9-5.2,3.1-11-4.5-13.6-4.5-13.6c0,0-7.7-19,2.9-27.7s28.9-9.6,32.4-7.5,5,7.7,5,7.7h0v-.3Z"/>
          <g class="st21">
            <path class="st3" d="M230.2,70.6c-2-8.8-7.1-19.3-7.1-19.3,0,0-.4-2.8-7.6-9.9-2.6-2.6-5.8-6.1-9.6-9.1-1.3.7-2.5,1.6-3.6,2.5-10.6,8.7-2.9,27.7-2.9,27.7,0,0,4.8,7.8,4.5,13.6-.2,5.8-3.1,11-3.1,11l17.7,3,12.2-5s.8,0,1.8.3c.8-.5,1.5-.8,1.5-.8,0,0,5.2,1,7.1.3.9-1.9-9.1-5.5-10.9-14.3h0Z"/>
          </g>
          <path class="st10" d="M239.7,35s2.1,6.7,1.8,10.2-1.3,5.9-.9,7.5,3.3,2.8,4.1,5.8-.9,18.8-1.8,22c-.7,3.2,0,4-1.8,4.7s-7.1-.3-7.1-.3c0,0-2.7,1.1-2.8,2.3v5.4l-30.5-5.2s2.9-5.2,3.1-11-4.5-13.6-4.5-13.6c0,0-7.7-19,2.9-27.7s28.9-9.6,32.4-7.5,5,7.7,5,7.7h0v-.3Z"/>
        </g>
        <path class="st11" d="M221.5,58.3s4.8.2,5-1.3-1.6-1.3.3-2.7c1.8-1.3,6-5.6,5.2-8.6s-7.7-6.6-5.1-8.1c2.6-1.5,11.3-3.3,11.3-3.3,0,0-5.3,4.4-1.9,4.9,3.4.6,10.2-3,11.9-7.8,1.7-4.9-3.9-10.4-10.3-12.5-6.3-2.2-18-2.4-28.6.8-10.6,3.1-17.5,9-18.2,15.6-.7,6.7,8.5,27.5,10.1,33.3,1.7,5.8,5.7,6.5,9.8,5.4s6.7-5.6,6.9-9-.3-6.7,0-7.6c.4-.9,3.2.7,3.2.7h.2l.2.2Z"/>
        <line class="st1" x1="219" y1="55.5" x2="246.5" y2="51.4"/>
        <path class="st5" d="M224.3,60.6s-1.3-6.7-4.6-9.3-4.7.2-4.2,6.9,1.4,10.1,4.1,10.3c2.7.3,4.8-1.4,4.8-1.4"/>
      </g>
      <path class="st2" d="M333.2,229.6c-2.3-2.3-8.5-7.7-16.2-9.6-9.9-2.4-53.3-7.3-53.3-7.3l-2.1-8.7s-6.1-1.9-7.5-1.9-7.8,2.1-21.9,5.2c-14.1,3.1-39.5-4.4-39.5-4.4,0,0-6.9,5.1-6.9,14.7s.6,11,1.3,12h146.2-.1Z"/>
      <g>
        <path class="st17" d="M196.1,92.4s-.2.3-.6.7c-2.1,2.5-10.2,11.7-16.1,19.4-6.9,9-4.2,21.6-2.1,31.5,2.1,9.9,11.5,72.1,11.9,80s14.3,6.3,27.7,4.9c13.5-1.5,29.6-7.8,36.6-13.7,7.1-5.8,9.1-6.2,8-10.2s-3.3-13.5-3.5-14.3-6.2-48.2-10.1-61.5-4.6-21-9.5-26.9c-4.9-6-14.3-9.1-25.9-10-11.6-.8-16.6,0-16.6,0h.2Z"/>
        <g class="st15">
          <g>
            <path class="st0" d="M234.5,111.5c-4.8-5.6-18-14.6-18-14.6,0,0,7.1-4.3-20.9-3.9h0c-2.1,2.5-10.2,11.7-16.1,19.4-6.9,9-4.2,21.6-2.1,31.5,2.1,9.9,11.5,72.1,11.9,80s14.3,6.3,27.7,4.9c3.4-.4,7-1.1,10.4-2l29.7-40.6.4.2c-1.3-8.9-4-30.1-6.8-45-6-12-13-26.1-16.3-30h.1Z"/>
            <path class="st1" d="M193.4,134.6s6,16.2,16.8,24.7"/>
            <path class="st1" d="M224.7,156.2s2.8,3.5,13.1,8"/>
            <path class="st1" d="M220.9,170s10,.8,18.5-3.2"/>
            <path class="st1" d="M232.1,225.5s16.4-14.6,21.4-26"/>
          </g>
        </g>
        <path class="st1" d="M196.1,92.4s-.2.3-.6.7c-2.1,2.5-10.2,11.7-16.1,19.4-6.9,9-4.2,21.6-2.1,31.5,2.1,9.9,11.5,72.1,11.9,80s14.3,6.3,27.7,4.9c13.5-1.5,29.6-7.8,36.6-13.7,7.1-5.8,9.1-6.2,8-10.2s-3.3-13.5-3.5-14.3-6.2-48.2-10.1-61.5-4.6-21-9.5-26.9c-4.9-6-14.3-9.1-25.9-10-11.6-.8-16.6,0-16.6,0h.2Z"/>
      </g>
      <g>
        <path class="st17" d="M196.3,85.5l-2.9,9.7s16.1-.3,24.8.8,21.4,6.9,21.4,6.9c0,0-4.1-9.2-6.3-11.2-2.1-2-19.8-6.3-26.8-7s-10.2.9-10.2.9h0Z"/>
        <g class="st20">
          <path class="st0" d="M224.4,97.4c.7-.6,1.1-1.2,1-1.9-.6-4.6-9.8-9-10.2-9.2-3.4-.7-6.4-1.2-8.5-1.5-7-.8-10.2.9-10.2.9l-2.9,9.7s16.1-.3,24.8.8c1.9.2,4,.7,6.1,1.3h-.1Z"/>
        </g>
        <path class="st1" d="M196.3,85.5l-2.9,9.7s16.1-.3,24.8.8,21.4,6.9,21.4,6.9c0,0-4.1-9.2-6.3-11.2-2.1-2-19.8-6.3-26.8-7s-10.2.9-10.2.9h0Z"/>
      </g>
      <g>
        <path class="st5" d="M317.7,174.4s5.6-2.6,8.7-5.7c3.1-3.2,4.8-3.8,6.3-3.1s2.8,1,2.8,1c0,0,6.6-1.8,8.4-1.7s4.4,4.9,4.4,4.9c0,0,5,5.7,4,6.6-1,.9-1.9.1-2.6,0s-2-1.7-3-1.6-5.5,1.5-5.5,1.5c0,0,4.6,1.1,5.8,1.9s4.8,5.7,3.8,6-1.1.5-2.1,0c-1.1-.4-3.2-2.5-3.2-2.5l-5-.3s2.1,3.5,2.9,4.4,3.8,2.6,2.2,3.2-2.6,0-4.1-1.7c-1.5-1.6-5-4.3-5.7-4.5s-3.3,1.7-6.8,1.9-8.3-.9-8.3-.9l-1.1.6-3.8-7.2-.9-1.1,2.9-1.6v-.2h0Z"/>
        <path class="st10" d="M348.4,169.8s-1.4-1.2-2.6-1c-1.2.3-8.9,2.3-8.9,2.3"/>
        <line class="st10" x1="335.5" y1="166.7" x2="331.8" y2="167.9"/>
      </g>
      <g>
        <path class="st5" d="M281.7,183.5s12.7,1.2,14.8.2c2-1,7.1-3.7,7.4-5s-.8-2.2-2.7-1.7c-2,.6-7.3,1.9-8,1.8s-3.9-1.6-3.9-1.6c0,0,6.1-4.3,8.6-5.5s4.9-.3,6.2.7c1.3,1,3.7-1.3,2-2.9-1.5-1.6-4-2.8-5.9-2.8s-2.7.3-2.7.3c0,0-1.7-3.7-3.3-3.5-1.5.2-2.8,1.2-2.8,1.2,0,0-1.6-1.2-3.5-.2-1.8,1-3.6,1.1-5.7,2.5-2.1,1.3-8,4.3-9,5.6s8.8,10.7,8.8,10.7h0l-.3.2Z"/>
        <line class="st10" x1="297.4" y1="167.1" x2="291.6" y2="169.6"/>
        <line class="st10" x1="291.2" y1="164.9" x2="287" y2="167.2"/>
      </g>
      <g>
        <path class="st17" d="M228.5,125.1s-3.4,8.5-3.7,14.6c-.2,6,3.9,13.6,5,15.3s46.2,53.1,50.9,58,8.4,4.5,10.7,2.8,33.9-27.9,34.7-29.3.9-4.4.9-4.4c0,0-1.2-4.2-6.1-6.3s-6.5-.9-6.5-.9l-26.8,7.3s-27.9-47.1-32.1-56.5c-4.2-9.4-1.4-9.4-8.1-13.3-6.6-3.9-14-6.2-14-6.2"/>
        <g class="st16">
          <path class="st0" d="M326.7,182.9c0-.7-.3-2.8-2-4.4-.5-.4-1-.7-1.4-.9-14.2,7.3-24.4,13-26.3,14.2-2.4,1.5-3.6,2.3-4,3.1,0,.1-.3.6-.7.7-.6.2-1.4-.5-1.9-1.2-.6-1-.3-2.1-.5-2.1-.3,0-2.2,4.4-2.8,7.7,0,.1,0,.4-.2.4-.9.4-4.2-6-5.5-8.8-1.4-3.1-17.8-25.7-23.7-36.6-5.9-11-18.4-37.9-23.3-43.5-.7-.8-1.7-1.7-2.7-2.7l-4.3,16.2s-2.4,8.8-2.6,14.8c-.2,6,3.9,13.6,5,15.3.6,1,14.2,16.6,27.3,31.5v-.2c.1,0,26.4,36.1,33.2,30.2,11.8-10,23.6-20,35.4-30,.3-1.2.6-2.5.9-3.8h.1Z"/>
        </g>
        <path class="st1" d="M228.5,125.1s-3.4,8.5-3.7,14.6c-.2,6,3.9,13.6,5,15.3s46.2,53.1,50.9,58,8.4,4.5,10.7,2.8,33.9-27.9,34.7-29.3.9-3.8.9-3.8c0,0-.5-4.3-5.5-6.4s-7.2-1.4-7.2-1.4l-26.8,7.3s-27.9-47.1-32.1-56.5c-4.2-9.4-1.4-9.4-8.1-13.3-6.6-3.9-14-6.2-14-6.2"/>
      </g>
      <path class="st1" d="M307.6,176.8s12.2-3.2,18.2,10.2"/>
    </g>
  </g>
  <g id="Chair">
    <g>
      <path class="st5" d="M211.9,229.6h4.5c-6.9-12.8-44.7-83.7-46-86.9-1.4-3.5-3.5-3.5-4.2-5-.7-1.4.2-7.5,0-11.6s-13.2-41.3-16.7-47.4c-3.5-6.1-8.9-5.4-8.9-5.4l-1.4,3.8,22.4,61.1,50.5,91.4h-.2Z"/>
      <path class="st12" d="M124.3,142c9.3,21.5,35.7,81.7,37.9,87.6h49.8c-5.8-10.5-40.6-73.4-47.9-93.3-8-21.7-20.5-60.4-23.5-63-3.1-2.6-18.4-2.6-24.5-.7s-6.4,2.6-6.1,6.6,5.1,41.3,14.4,62.7h-.1Z"/>
      <line class="st10" x1="162.2" y1="229.6" x2="478.2" y2="229.6"/>
    </g>
  </g>
</svg>