<?xml version="1.0" encoding="UTF-8"?><svg id="Layer_2" xmlns="http://www.w3.org/2000/svg" xmlns:xlink="http://www.w3.org/1999/xlink" viewBox="0 0 387.7 229"><defs><style>.cls-1,.cls-2{fill:#333a4c;}.cls-3,.cls-4{fill:#fff;}.cls-3,.cls-5,.cls-6,.cls-7,.cls-2,.cls-8{stroke:#333a4c;}.cls-3,.cls-5,.cls-9,.cls-10,.cls-7,.cls-11,.cls-2,.cls-12,.cls-8{stroke-linecap:round;stroke-linejoin:round;}.cls-13{fill:#00ff41;}.cls-14{fill:#b7c6fd;}.cls-5{fill:#b28e59;}.cls-6,.cls-15{opacity:.4;stroke-miterlimit:10;}.cls-16{clip-path:url(#clippath-1);}.cls-9,.cls-10,.cls-8{fill:none;}.cls-9,.cls-11,.cls-15,.cls-12{stroke:#000;}.cls-10{stroke:#fff;stroke-width:.5px;}.cls-7{fill:#252a37;}.cls-17{clip-path:url(#clippath-3);}.cls-18,.cls-12{fill:#0045ff;}.cls-19{clip-path:url(#clippath-2);}.cls-20{clip-path:url(#clippath);}</style><clipPath id="clippath"><path class="cls-3" d="M163,31s.4,7-.8,10.3c-1.2,3.3-2.7,5.4-2.7,7s2.5,3.5,2.5,6.6-5.6,18-7.2,20.9c-1.5,2.9-1,3.9-2.9,4.1s-6.8-2.1-6.8-2.1c0,0-2.9.4-3.3,1.5-.4,1.2-1.4,5.2-1.4,5.2l-28.2-12.6s4.1-4.3,5.8-9.9c1.7-5.6-1-14.3-1-14.3,0,0-2.7-20.3,9.7-26.1,12.4-5.8,30.4-2.1,33.3.8,2.9,2.9,2.9,8.7,2.9,8.7Z"/></clipPath><clipPath id="clippath-1"><path class="cls-12" d="M106.5,75.7s-.3.2-.7.5c-2.7,1.9-12.8,8.8-20.4,14.8-8.9,7-9.5,19.9-9.9,30-.4,10.1-6.9,72.7-8.4,80.4-1.5,7.7,12.3,9.7,25.6,11.7,13.4,1.9,30.6-.2,38.9-4.1,8.3-3.9,10.3-3.7,10.3-7.9s.2-13.9.2-14.7,6-48.2,5.6-62.1c-.4-13.9.8-21.5-2.5-28.4-3.3-7-11.6-12.4-22.6-16.1s-16.1-4.1-16.1-4.1Z"/></clipPath><clipPath id="clippath-2"><path class="cls-12" d="M108.5,69.1l-5.2,8.7s15.7,3.7,23.8,7c8.1,3.3,19,12,19,12,0,0-1.7-9.9-3.3-12.4-1.5-2.5-17.6-11-24.2-13.5s-10.1-1.7-10.1-1.7Z"/></clipPath><clipPath id="clippath-3"><path class="cls-12" d="M129.8,115.5s-5.4,7.4-7.2,13.2c-1.7,5.8.4,14.1,1,16.1.6,1.9,31.5,62.9,34.8,68.9,3.3,6,7,6.4,9.7,5.4,2.7-1,33.9-23.2,35-24.4s6.4-5.6,6.4-5.6c0,0,1-6.2-3.3-9.5-4.3-3.3-6.4-1.5-6.4-1.5l-27.1,7.4s-15.3-52.6-17-62.7c-1.7-10.1,1-9.5-4.5-14.9-5.4-5.4-12-9.5-12-9.5"/></clipPath></defs><g id="Background_Simple"><path class="cls-14" d="M19.3,77.9c16.8-152,321.7-52.3,338.7,52.6,2.5,15.6-.9,27.6-.9,27.6-3.6,10-10,15.9-19.9,24.8-6.7,6.1-17.5,15.6-33.9,23-14.7,6.7-26.7,8.4-46.9,10.7-83.1,9.8-129.6,10.5-139.3,11.3-1,0-5.1.5-10.8.4-1.2,0-2.5,0-3.8-.1-7.3-.4-15-1.4-22.4-2.1-5.2-.6-8.9-.8-12.6-1.5-3.8-.6-4-2.7-5-5.8-2.6-7.8-32.5-59.8-42.5-133.4-.3-1.9-.6-4.4-.9-7.4Z"/></g><g id="Plants"><path class="cls-1" d="M364.1,176c-3.6,4.5-5.4,7-6.2,8.2.7-3.9,2-8.8,4.1-14.6,1.4-3.8,2.2-7.6,2.5-11.4-.2,0-.3.2-.3.2l-.3-.6c.1,0,12.5-6.6,15.9-12.8l.6.3c-3.2,5.6-12.9,11.2-15.6,12.7,2.5-.2,10.4-1.4,15.1-7.2,5.6-7,4.7-15.6,4.7-15.6,0,0-10.6,7.3-15,13-2.7,3.6-4.3,6.6-5,8.4.2-4.6-.2-9.2-1-13.7,3.5-2.8,16.6-13.5,18-21.6,1.7-9.3-.7-25.2-.7-25.2,0,0-1.7,4.3-4.7,9.6-3,5.3-12.3,13.6-14,22.6-.5,2.5-.6,4.8-.7,6.8-1.5-5.2-3.4-10.2-5.4-14.7-.5-1.2-1-2.6-1.3-4h0s-.3-.2-.3-.2c0-.1,6-10.2,6-13.1h.7c0,2.7-4.6,10.8-5.8,12.9,2.1-1.3,5.5-3.8,6.8-7.8,1.9-5.9-.9-11.3-.9-11.3,0,0-5.1,7.4-6.4,12.2-.9,3-1.1,5.3-1.2,6.7-1-2.5-2.5-5.8-4.2-8.1-3-4-5-10-5-10,0,0-3.7,6.3-1,13,2.2,5.5,8.4,7.6,10.5,8.1.2.7.5,1.4.8,2.1,2.6,6.2,5.2,13.1,6.8,20.4-1.6-2.1-4.5-5.7-7.2-7.7-4-2.9-7.7-8.1-7.7-8.1,0,0-1.7,7.1,2.8,12.7,3.7,4.6,10.2,4.8,12.4,4.7,1.5,8,1.7,16.4-.9,24.6-.2-1.6-1.1-5.9-6.3-10.7-6.6-6.1-19.8-25.4-19.8-25.4,0,0,1.1,22.9,7.4,30.4,5.8,6.9,16.7,6.5,18.5,6.4-.1.4-.2.7-.4,1.1-4.2,11.2-5,19-5.1,23.2h-7.8v36.2h21.6v-36.2h-12.4c0-1.7.2-4.1.7-7-.1,0-.2,0-.2,0l-.2-.7c.1,0,13.7-3.9,23.1-13.6l.5.5c-7.6,7.9-17.9,11.9-21.8,13.2,3.9-.5,13.4-1.9,17.9-4.8,5.6-3.7,10.6-14.6,10.6-14.6,0,0-18.3,4-23.6,10.6ZM353.8,117.1c0,0-7-3.3-8.7-11.6h.7c1.6,7.9,8.2,11,8.3,11l-.3.6ZM363.4,142.9l-.2.2h-.3c-.4-.3-9.2-3.9-12.8-9.1l.6-.4c3.1,4.6,10.8,8,12.3,8.7,1.1-1.8,8.3-12.9,10.8-19.9l.6.2c-2.7,7.7-11,20.2-11.1,20.3ZM360.2,167.7c-.1,0-10.6-4-15.3-13.1l.6-.3c4.6,8.9,14.9,12.7,15,12.8l-.2.6Z"/></g><g id="Table"><rect class="cls-3" x="298.6" y="195.9" width="6.4" height="32.5"/><polygon class="cls-2" points="333.1 228.5 333.1 173.4 305.1 195.9 305.1 228.5 333.1 228.5"/><rect class="cls-3" x="79.7" y="195.9" width="6.4" height="32.5"/><polygon class="cls-2" points="114.1 228.5 114.1 173.4 86.1 195.9 86.1 228.5 114.1 228.5"/><polygon class="cls-3" points="312.8 201.7 54.9 201.7 54.8 199.6 353.6 168.2 353.6 170.3 312.8 201.7"/><polygon class="cls-3" points="312.8 199.6 54.9 199.6 120 168.2 353.6 168.2 312.8 199.6"/><polygon class="cls-2" points="312.8 201.7 312.8 199.6 353.6 168.2 353.6 170.3 312.8 201.7"/><path class="cls-1" d="M297.3,182.6s-4.4-.8-7.6.8c-2,1-3.7,4.5-4.8,6.9-.5,1.2.4,2.5,1.7,2.5h6c.5,0,1-.2,1.4-.6l6-6.7s-.3-2.6-2.6-2.9Z"/><path class="cls-10" d="M293.6,190.9s-.6-4.1,3.7-6.5"/><polygon class="cls-3" points="261.9 196 165.9 196 189.3 177.4 285.3 177.4 261.9 196"/><polygon class="cls-8" points="285.3 178.6 285.3 177.4 261.9 196 261.9 197.2 285.3 178.6"/><rect class="cls-3" x="165.9" y="196" width="96" height="1.2"/><polygon class="cls-8" points="197.2 188 194.2 190.5 200.5 190.5 203.6 188 197.2 188"/><polygon class="cls-8" points="203.6 188 200.5 190.5 206.8 190.5 209.9 188 203.6 188"/><polygon class="cls-8" points="190.9 188 187.8 190.5 194.2 190.5 197.2 188 190.9 188"/><polygon class="cls-8" points="200.3 185.5 194 185.5 190.9 188 197.2 188 200.3 185.5"/><polygon class="cls-8" points="206.7 185.5 209.7 183 203.4 183 200.3 185.5 206.7 185.5"/><polygon class="cls-8" points="203.4 183 197.1 183 194 185.5 200.3 185.5 203.4 183"/><polygon class="cls-8" points="209.9 188 206.8 190.5 213.2 190.5 216.3 188 209.9 188"/><polygon class="cls-8" points="241.6 188 238.5 190.5 244.9 190.5 247.9 188 241.6 188"/><polygon class="cls-8" points="213 185.5 216.1 183 209.7 183 206.7 185.5 213 185.5"/><polygon class="cls-8" points="216.3 188 213.2 190.5 219.5 190.5 222.6 188 216.3 188"/><polygon class="cls-8" points="251.2 190.5 257.5 190.5 260.6 188 254.3 188 251.2 190.5"/><polygon class="cls-8" points="254.3 188 260.6 188 263.7 185.5 257.4 185.5 254.3 188"/><polygon class="cls-8" points="247.9 188 244.9 190.5 251.2 190.5 254.3 188 247.9 188"/><polygon class="cls-8" points="235.3 188 232.2 190.5 238.5 190.5 241.6 188 235.3 188"/><polygon class="cls-8" points="222.6 188 219.5 190.5 225.8 190.5 228.9 188 222.6 188"/><polygon class="cls-8" points="228.9 188 225.8 190.5 232.2 190.5 235.3 188 228.9 188"/><polygon class="cls-8" points="238.3 185.5 241.4 183 235.1 183 232 185.5 238.3 185.5"/><polygon class="cls-8" points="244.7 185.5 241.6 188 247.9 188 251 185.5 244.7 185.5"/><polygon class="cls-8" points="232 185.5 228.9 188 235.3 188 238.3 185.5 232 185.5"/><polygon class="cls-8" points="219.3 185.5 216.3 188 222.6 188 225.7 185.5 219.3 185.5"/><polygon class="cls-8" points="238.3 185.5 235.3 188 241.6 188 244.7 185.5 238.3 185.5"/><polygon class="cls-8" points="219.3 185.5 222.4 183 216.1 183 213 185.5 219.3 185.5"/><polygon class="cls-8" points="200.3 185.5 197.2 188 203.6 188 206.7 185.5 200.3 185.5"/><polygon class="cls-8" points="213 185.5 209.9 188 216.3 188 219.3 185.5 213 185.5"/><polygon class="cls-8" points="206.7 185.5 203.6 188 209.9 188 213 185.5 206.7 185.5"/><polygon class="cls-8" points="225.7 185.5 222.6 188 228.9 188 232 185.5 225.7 185.5"/><polygon class="cls-8" points="232 185.5 235.1 183 228.8 183 225.7 185.5 232 185.5"/><polygon class="cls-8" points="257.4 185.5 263.7 185.5 266.8 183 260.4 183 257.4 185.5"/><polygon class="cls-8" points="225.7 185.5 228.8 183 222.4 183 219.3 185.5 225.7 185.5"/><polygon class="cls-8" points="251 185.5 254.1 183 247.8 183 244.7 185.5 251 185.5"/><polygon class="cls-8" points="257.4 185.5 260.4 183 254.1 183 251 185.5 257.4 185.5"/><polygon class="cls-8" points="247.9 188 254.3 188 257.4 185.5 251 185.5 247.9 188"/><polygon class="cls-8" points="244.7 185.5 247.8 183 241.4 183 238.3 185.5 244.7 185.5"/><polygon class="cls-8" points="225.8 190.5 222.8 193 229.1 193 232.2 190.5 225.8 190.5"/><polygon class="cls-8" points="232.2 190.5 229.1 193 235.4 193 238.5 190.5 232.2 190.5"/><polygon class="cls-8" points="219.5 190.5 216.4 193 222.8 193 225.8 190.5 219.5 190.5"/><polygon class="cls-8" points="238.5 190.5 235.4 193 241.8 193 244.9 190.5 238.5 190.5"/><polygon class="cls-8" points="213.2 190.5 210.1 193 216.4 193 219.5 190.5 213.2 190.5"/><polygon class="cls-8" points="206.8 190.5 203.7 193 210.1 193 213.2 190.5 206.8 190.5"/><polygon class="cls-8" points="244.9 190.5 241.8 193 248.1 193 251.2 190.5 244.9 190.5"/><polygon class="cls-8" points="194.2 190.5 191.1 193 197.4 193 200.5 190.5 194.2 190.5"/><polygon class="cls-8" points="200.5 190.5 197.4 193 203.7 193 206.8 190.5 200.5 190.5"/><polygon class="cls-8" points="260.6 188 266.9 188 270 185.5 263.7 185.5 260.6 188"/><polygon class="cls-8" points="269.9 180.5 266.8 183 273.1 183 276.2 180.5 269.9 180.5"/><polygon class="cls-8" points="263.7 185.5 270 185.5 273.1 183 266.8 183 263.7 185.5"/><polygon class="cls-8" points="187.8 190.5 184.7 193 191.1 193 194.2 190.5 187.8 190.5"/><polygon class="cls-8" points="251.2 190.5 248.1 193 254.4 193 257.5 190.5 251.2 190.5"/><polygon class="cls-8" points="254.4 193 260.8 193 263.9 190.5 257.5 190.5 254.4 193"/><polygon class="cls-8" points="257.5 190.5 263.9 190.5 266.9 188 260.6 188 257.5 190.5"/><polygon class="cls-8" points="194 185.5 187.7 185.5 184.6 188 190.9 188 194 185.5"/><polygon class="cls-8" points="235.1 183 238.2 180.5 231.8 180.5 228.8 183 235.1 183"/><polygon class="cls-8" points="241.4 183 244.5 180.5 238.2 180.5 235.1 183 241.4 183"/><polygon class="cls-8" points="228.8 183 231.8 180.5 225.5 180.5 222.4 183 228.8 183"/><polygon class="cls-8" points="247.8 183 250.9 180.5 244.5 180.5 241.4 183 247.8 183"/><polygon class="cls-8" points="260.4 183 263.5 180.5 257.2 180.5 254.1 183 260.4 183"/><polygon class="cls-8" points="254.1 183 257.2 180.5 250.9 180.5 247.8 183 254.1 183"/><polygon class="cls-8" points="222.4 183 225.5 180.5 219.2 180.5 216.1 183 222.4 183"/><polygon class="cls-8" points="190.9 188 184.6 188 181.5 190.5 187.8 190.5 190.9 188"/><polygon class="cls-8" points="197.1 183 190.7 183 187.7 185.5 194 185.5 197.1 183"/><polygon class="cls-8" points="266.8 183 269.9 180.5 263.5 180.5 260.4 183 266.8 183"/><polygon class="cls-8" points="181.5 190.5 178.4 193 184.7 193 187.8 190.5 181.5 190.5"/><polygon class="cls-8" points="200.2 180.5 193.8 180.5 190.7 183 197.1 183 200.2 180.5"/><polygon class="cls-8" points="209.7 183 212.8 180.5 206.5 180.5 203.4 183 209.7 183"/><polygon class="cls-8" points="203.4 183 206.5 180.5 200.2 180.5 197.1 183 203.4 183"/><polygon class="cls-8" points="216.1 183 219.2 180.5 212.8 180.5 209.7 183 216.1 183"/></g><g id="Device_3"><rect class="cls-3" x="270.3" y="150.2" width="6.1" height="17.8"/><rect class="cls-2" x="269.4" y="150.2" width="8" height="18"/><rect class="cls-3" x="219" y="72.9" width="109" height="78.8"/><rect class="cls-7" x="224.2" y="77.2" width="98.3" height="70.3"/><path class="cls-13" d="M230.8,82h-2.3c-.3,0-.6-.3-.6-.6s.3-.6.6-.6h2.3c.3,0,.6.3.6.6s-.3.6-.6.6ZM231.4,84.1c0-.3-.3-.6-.6-.6h-2.3c-.3,0-.6.3-.6.6s.3.6.6.6h2.3c.3,0,.6-.3.6-.6ZM231.4,86.7c0-.3-.3-.6-.6-.6h-2.3c-.3,0-.6.3-.6.6s.3.6.6.6h2.3c.3,0,.6-.3.6-.6ZM231.4,89.4c0-.3-.3-.6-.6-.6h-2.3c-.3,0-.6.3-.6.6s.3.6.6.6h2.3c.3,0,.6-.3.6-.6ZM231.4,92c0-.3-.3-.6-.6-.6h-2.3c-.3,0-.6.3-.6.6s.3.6.6.6h2.3c.3,0,.6-.3.6-.6ZM231.4,94.7c0-.3-.3-.6-.6-.6h-2.3c-.3,0-.6.3-.6.6s.3.6.6.6h2.3c.3,0,.6-.3.6-.6ZM231.4,97.3c0-.3-.3-.6-.6-.6h-2.3c-.3,0-.6.3-.6.6s.3.6.6.6h2.3c.3,0,.6-.3.6-.6ZM231.4,100c0-.3-.3-.6-.6-.6h-2.3c-.3,0-.6.3-.6.6s.3.6.6.6h2.3c.3,0,.6-.3.6-.6ZM240.1,81.4c0-.3-.3-.6-.6-.6h-6.1c-.3,0-.6.3-.6.6s.3.6.6.6h6.1c.3,0,.6-.3.6-.6ZM240.1,84.1c0-.3-.3-.6-.6-.6h-6.1c-.3,0-.6.3-.6.6s.3.6.6.6h6.1c.3,0,.6-.3.6-.6ZM240.1,86.7c0-.3-.3-.6-.6-.6h-6.1c-.3,0-.6.3-.6.6s.3.6.6.6h6.1c.3,0,.6-.3.6-.6ZM240.1,89.4c0-.3-.3-.6-.6-.6h-6.1c-.3,0-.6.3-.6.6s.3.6.6.6h6.1c.3,0,.6-.3.6-.6ZM240.1,92c0-.3-.3-.6-.6-.6h-6.1c-.3,0-.6.3-.6.6s.3.6.6.6h6.1c.3,0,.6-.3.6-.6ZM247.4,94.7c0-.3-.3-.6-.6-.6h-6.1c-.3,0-.6.3-.6.6s.3.6.6.6h6.1c.3,0,.6-.3.6-.6ZM247.4,97.3c0-.3-.3-.6-.6-.6h-6.1c-.3,0-.6.3-.6.6s.3.6.6.6h6.1c.3,0,.6-.3.6-.6ZM247.4,100c0-.3-.3-.6-.6-.6h-6.1c-.3,0-.6.3-.6.6s.3.6.6.6h6.1c.3,0,.6-.3.6-.6ZM242.8,81.4c0-.4-.3-.7-.7-.7s-.7.3-.7.7.3.7.7.7.7-.3.7-.7ZM244.8,81.4c0-.4-.3-.7-.7-.7s-.7.3-.7.7.3.7.7.7.7-.3.7-.7ZM246.8,81.4c0-.4-.3-.7-.7-.7s-.7.3-.7.7.3.7.7.7.7-.3.7-.7ZM248.8,81.4c0-.4-.3-.7-.7-.7s-.7.3-.7.7.3.7.7.7.7-.3.7-.7ZM250.8,81.4c0-.4-.3-.7-.7-.7s-.7.3-.7.7.3.7.7.7.7-.3.7-.7ZM252.8,81.4c0-.4-.3-.7-.7-.7s-.7.3-.7.7.3.7.7.7.7-.3.7-.7ZM242.8,86.7c0-.4-.3-.7-.7-.7s-.7.3-.7.7.3.7.7.7.7-.3.7-.7ZM244.8,86.7c0-.4-.3-.7-.7-.7s-.7.3-.7.7.3.7.7.7.7-.3.7-.7ZM246.8,86.7c0-.4-.3-.7-.7-.7s-.7.3-.7.7.3.7.7.7.7-.3.7-.7ZM248.8,86.7c0-.4-.3-.7-.7-.7s-.7.3-.7.7.3.7.7.7.7-.3.7-.7ZM250.8,86.7c0-.4-.3-.7-.7-.7s-.7.3-.7.7.3.7.7.7.7-.3.7-.7ZM252.8,86.7c0-.4-.3-.7-.7-.7s-.7.3-.7.7.3.7.7.7.7-.3.7-.7ZM249.6,94.3c0-.4-.3-.7-.7-.7s-.7.3-.7.7.3.7.7.7.7-.3.7-.7ZM251.6,94.3c0-.4-.3-.7-.7-.7s-.7.3-.7.7.3.7.7.7.7-.3.7-.7ZM253.6,94.3c0-.4-.3-.7-.7-.7s-.7.3-.7.7.3.7.7.7.7-.3.7-.7ZM255.6,94.3c0-.4-.3-.7-.7-.7s-.7.3-.7.7.3.7.7.7.7-.3.7-.7ZM257.6,94.3c0-.4-.3-.7-.7-.7s-.7.3-.7.7.3.7.7.7.7-.3.7-.7ZM259.6,94.3c0-.4-.3-.7-.7-.7s-.7.3-.7.7.3.7.7.7.7-.3.7-.7ZM249.6,99.8c0-.4-.3-.7-.7-.7s-.7.3-.7.7.3.7.7.7.7-.3.7-.7ZM251.6,99.8c0-.4-.3-.7-.7-.7s-.7.3-.7.7.3.7.7.7.7-.3.7-.7ZM253.6,99.8c0-.4-.3-.7-.7-.7s-.7.3-.7.7.3.7.7.7.7-.3.7-.7ZM255.6,99.8c0-.4-.3-.7-.7-.7s-.7.3-.7.7.3.7.7.7.7-.3.7-.7ZM257.6,99.8c0-.4-.3-.7-.7-.7s-.7.3-.7.7.3.7.7.7.7-.3.7-.7ZM259.6,99.8c0-.4-.3-.7-.7-.7s-.7.3-.7.7.3.7.7.7.7-.3.7-.7Z"/><path class="cls-13" d="M230.8,103.2h-2.3c-.3,0-.6-.3-.6-.6s.3-.6.6-.6h2.3c.3,0,.6.3.6.6s-.3.6-.6.6ZM231.4,105.3c0-.3-.3-.6-.6-.6h-2.3c-.3,0-.6.3-.6.6s.3.6.6.6h2.3c.3,0,.6-.3.6-.6ZM231.4,107.9c0-.3-.3-.6-.6-.6h-2.3c-.3,0-.6.3-.6.6s.3.6.6.6h2.3c.3,0,.6-.3.6-.6ZM231.4,110.6c0-.3-.3-.6-.6-.6h-2.3c-.3,0-.6.3-.6.6s.3.6.6.6h2.3c.3,0,.6-.3.6-.6ZM231.4,113.2c0-.3-.3-.6-.6-.6h-2.3c-.3,0-.6.3-.6.6s.3.6.6.6h2.3c.3,0,.6-.3.6-.6ZM231.4,115.9c0-.3-.3-.6-.6-.6h-2.3c-.3,0-.6.3-.6.6s.3.6.6.6h2.3c.3,0,.6-.3.6-.6ZM231.4,118.5c0-.3-.3-.6-.6-.6h-2.3c-.3,0-.6.3-.6.6s.3.6.6.6h2.3c.3,0,.6-.3.6-.6ZM231.4,121.2c0-.3-.3-.6-.6-.6h-2.3c-.3,0-.6.3-.6.6s.3.6.6.6h2.3c.3,0,.6-.3.6-.6ZM240.1,102.6c0-.3-.3-.6-.6-.6h-6.1c-.3,0-.6.3-.6.6s.3.6.6.6h6.1c.3,0,.6-.3.6-.6ZM240.1,105.3c0-.3-.3-.6-.6-.6h-6.1c-.3,0-.6.3-.6.6s.3.6.6.6h6.1c.3,0,.6-.3.6-.6ZM240.1,107.9c0-.3-.3-.6-.6-.6h-6.1c-.3,0-.6.3-.6.6s.3.6.6.6h6.1c.3,0,.6-.3.6-.6ZM240.1,110.6c0-.3-.3-.6-.6-.6h-6.1c-.3,0-.6.3-.6.6s.3.6.6.6h6.1c.3,0,.6-.3.6-.6ZM240.1,113.2c0-.3-.3-.6-.6-.6h-6.1c-.3,0-.6.3-.6.6s.3.6.6.6h6.1c.3,0,.6-.3.6-.6ZM247.4,115.9c0-.3-.3-.6-.6-.6h-6.1c-.3,0-.6.3-.6.6s.3.6.6.6h6.1c.3,0,.6-.3.6-.6ZM247.4,118.5c0-.3-.3-.6-.6-.6h-6.1c-.3,0-.6.3-.6.6s.3.6.6.6h6.1c.3,0,.6-.3.6-.6ZM247.4,121.2c0-.3-.3-.6-.6-.6h-6.1c-.3,0-.6.3-.6.6s.3.6.6.6h6.1c.3,0,.6-.3.6-.6ZM242.8,102.6c0-.4-.3-.7-.7-.7s-.7.3-.7.7.3.7.7.7.7-.3.7-.7ZM244.8,102.6c0-.4-.3-.7-.7-.7s-.7.3-.7.7.3.7.7.7.7-.3.7-.7ZM246.8,102.6c0-.4-.3-.7-.7-.7s-.7.3-.7.7.3.7.7.7.7-.3.7-.7ZM248.8,102.6c0-.4-.3-.7-.7-.7s-.7.3-.7.7.3.7.7.7.7-.3.7-.7ZM250.8,102.6c0-.4-.3-.7-.7-.7s-.7.3-.7.7.3.7.7.7.7-.3.7-.7ZM252.8,102.6c0-.4-.3-.7-.7-.7s-.7.3-.7.7.3.7.7.7.7-.3.7-.7ZM242.8,107.9c0-.4-.3-.7-.7-.7s-.7.3-.7.7.3.7.7.7.7-.3.7-.7ZM244.8,107.9c0-.4-.3-.7-.7-.7s-.7.3-.7.7.3.7.7.7.7-.3.7-.7ZM246.8,107.9c0-.4-.3-.7-.7-.7s-.7.3-.7.7.3.7.7.7.7-.3.7-.7ZM248.8,107.9c0-.4-.3-.7-.7-.7s-.7.3-.7.7.3.7.7.7.7-.3.7-.7ZM250.8,107.9c0-.4-.3-.7-.7-.7s-.7.3-.7.7.3.7.7.7.7-.3.7-.7ZM252.8,107.9c0-.4-.3-.7-.7-.7s-.7.3-.7.7.3.7.7.7.7-.3.7-.7ZM249.6,115.5c0-.4-.3-.7-.7-.7s-.7.3-.7.7.3.7.7.7.7-.3.7-.7ZM251.6,115.5c0-.4-.3-.7-.7-.7s-.7.3-.7.7.3.7.7.7.7-.3.7-.7ZM253.6,115.5c0-.4-.3-.7-.7-.7s-.7.3-.7.7.3.7.7.7.7-.3.7-.7ZM255.6,115.5c0-.4-.3-.7-.7-.7s-.7.3-.7.7.3.7.7.7.7-.3.7-.7ZM257.6,115.5c0-.4-.3-.7-.7-.7s-.7.3-.7.7.3.7.7.7.7-.3.7-.7ZM259.6,115.5c0-.4-.3-.7-.7-.7s-.7.3-.7.7.3.7.7.7.7-.3.7-.7ZM249.6,121c0-.4-.3-.7-.7-.7s-.7.3-.7.7.3.7.7.7.7-.3.7-.7ZM251.6,121c0-.4-.3-.7-.7-.7s-.7.3-.7.7.3.7.7.7.7-.3.7-.7ZM253.6,121c0-.4-.3-.7-.7-.7s-.7.3-.7.7.3.7.7.7.7-.3.7-.7ZM255.6,121c0-.4-.3-.7-.7-.7s-.7.3-.7.7.3.7.7.7.7-.3.7-.7ZM257.6,121c0-.4-.3-.7-.7-.7s-.7.3-.7.7.3.7.7.7.7-.3.7-.7ZM259.6,121c0-.4-.3-.7-.7-.7s-.7.3-.7.7.3.7.7.7.7-.3.7-.7Z"/><path class="cls-13" d="M230.8,124.9h-2.3c-.3,0-.6-.3-.6-.6s.3-.6.6-.6h2.3c.3,0,.6.3.6.6s-.3.6-.6.6ZM231.4,127c0-.3-.3-.6-.6-.6h-2.3c-.3,0-.6.3-.6.6s.3.6.6.6h2.3c.3,0,.6-.3.6-.6ZM231.4,129.6c0-.3-.3-.6-.6-.6h-2.3c-.3,0-.6.3-.6.6s.3.6.6.6h2.3c.3,0,.6-.3.6-.6ZM231.4,132.3c0-.3-.3-.6-.6-.6h-2.3c-.3,0-.6.3-.6.6s.3.6.6.6h2.3c.3,0,.6-.3.6-.6ZM231.4,134.9c0-.3-.3-.6-.6-.6h-2.3c-.3,0-.6.3-.6.6s.3.6.6.6h2.3c.3,0,.6-.3.6-.6ZM231.4,137.6c0-.3-.3-.6-.6-.6h-2.3c-.3,0-.6.3-.6.6s.3.6.6.6h2.3c.3,0,.6-.3.6-.6ZM231.4,140.2c0-.3-.3-.6-.6-.6h-2.3c-.3,0-.6.3-.6.6s.3.6.6.6h2.3c.3,0,.6-.3.6-.6ZM231.4,142.9c0-.3-.3-.6-.6-.6h-2.3c-.3,0-.6.3-.6.6s.3.6.6.6h2.3c.3,0,.6-.3.6-.6ZM240.1,124.3c0-.3-.3-.6-.6-.6h-6.1c-.3,0-.6.3-.6.6s.3.6.6.6h6.1c.3,0,.6-.3.6-.6ZM240.1,127c0-.3-.3-.6-.6-.6h-6.1c-.3,0-.6.3-.6.6s.3.6.6.6h6.1c.3,0,.6-.3.6-.6ZM240.1,129.6c0-.3-.3-.6-.6-.6h-6.1c-.3,0-.6.3-.6.6s.3.6.6.6h6.1c.3,0,.6-.3.6-.6ZM240.1,132.3c0-.3-.3-.6-.6-.6h-6.1c-.3,0-.6.3-.6.6s.3.6.6.6h6.1c.3,0,.6-.3.6-.6ZM240.1,134.9c0-.3-.3-.6-.6-.6h-6.1c-.3,0-.6.3-.6.6s.3.6.6.6h6.1c.3,0,.6-.3.6-.6ZM247.4,137.6c0-.3-.3-.6-.6-.6h-6.1c-.3,0-.6.3-.6.6s.3.6.6.6h6.1c.3,0,.6-.3.6-.6ZM247.4,140.2c0-.3-.3-.6-.6-.6h-6.1c-.3,0-.6.3-.6.6s.3.6.6.6h6.1c.3,0,.6-.3.6-.6ZM247.4,142.9c0-.3-.3-.6-.6-.6h-6.1c-.3,0-.6.3-.6.6s.3.6.6.6h6.1c.3,0,.6-.3.6-.6ZM242.8,124.3c0-.4-.3-.7-.7-.7s-.7.3-.7.7.3.7.7.7.7-.3.7-.7ZM244.8,124.3c0-.4-.3-.7-.7-.7s-.7.3-.7.7.3.7.7.7.7-.3.7-.7ZM246.8,124.3c0-.4-.3-.7-.7-.7s-.7.3-.7.7.3.7.7.7.7-.3.7-.7ZM248.8,124.3c0-.4-.3-.7-.7-.7s-.7.3-.7.7.3.7.7.7.7-.3.7-.7ZM250.8,124.3c0-.4-.3-.7-.7-.7s-.7.3-.7.7.3.7.7.7.7-.3.7-.7ZM252.8,124.3c0-.4-.3-.7-.7-.7s-.7.3-.7.7.3.7.7.7.7-.3.7-.7ZM242.8,129.6c0-.4-.3-.7-.7-.7s-.7.3-.7.7.3.7.7.7.7-.3.7-.7ZM244.8,129.6c0-.4-.3-.7-.7-.7s-.7.3-.7.7.3.7.7.7.7-.3.7-.7ZM246.8,129.6c0-.4-.3-.7-.7-.7s-.7.3-.7.7.3.7.7.7.7-.3.7-.7ZM248.8,129.6c0-.4-.3-.7-.7-.7s-.7.3-.7.7.3.7.7.7.7-.3.7-.7ZM250.8,129.6c0-.4-.3-.7-.7-.7s-.7.3-.7.7.3.7.7.7.7-.3.7-.7ZM252.8,129.6c0-.4-.3-.7-.7-.7s-.7.3-.7.7.3.7.7.7.7-.3.7-.7ZM249.6,137.2c0-.4-.3-.7-.7-.7s-.7.3-.7.7.3.7.7.7.7-.3.7-.7ZM251.6,137.2c0-.4-.3-.7-.7-.7s-.7.3-.7.7.3.7.7.7.7-.3.7-.7ZM253.6,137.2c0-.4-.3-.7-.7-.7s-.7.3-.7.7.3.7.7.7.7-.3.7-.7ZM255.6,137.2c0-.4-.3-.7-.7-.7s-.7.3-.7.7.3.7.7.7.7-.3.7-.7ZM257.6,137.2c0-.4-.3-.7-.7-.7s-.7.3-.7.7.3.7.7.7.7-.3.7-.7ZM259.6,137.2c0-.4-.3-.7-.7-.7s-.7.3-.7.7.3.7.7.7.7-.3.7-.7ZM249.6,142.7c0-.4-.3-.7-.7-.7s-.7.3-.7.7.3.7.7.7.7-.3.7-.7ZM251.6,142.7c0-.4-.3-.7-.7-.7s-.7.3-.7.7.3.7.7.7.7-.3.7-.7ZM253.6,142.7c0-.4-.3-.7-.7-.7s-.7.3-.7.7.3.7.7.7.7-.3.7-.7ZM255.6,142.7c0-.4-.3-.7-.7-.7s-.7.3-.7.7.3.7.7.7.7-.3.7-.7ZM257.6,142.7c0-.4-.3-.7-.7-.7s-.7.3-.7.7.3.7.7.7.7-.3.7-.7ZM259.6,142.7c0-.4-.3-.7-.7-.7s-.7.3-.7.7.3.7.7.7.7-.3.7-.7Z"/><path class="cls-13" d="M266.6,82h-2.3c-.3,0-.6-.3-.6-.6s.3-.6.6-.6h2.3c.3,0,.6.3.6.6s-.3.6-.6.6ZM267.1,84.1c0-.3-.3-.6-.6-.6h-2.3c-.3,0-.6.3-.6.6s.3.6.6.6h2.3c.3,0,.6-.3.6-.6ZM267.1,86.7c0-.3-.3-.6-.6-.6h-2.3c-.3,0-.6.3-.6.6s.3.6.6.6h2.3c.3,0,.6-.3.6-.6ZM267.1,89.4c0-.3-.3-.6-.6-.6h-2.3c-.3,0-.6.3-.6.6s.3.6.6.6h2.3c.3,0,.6-.3.6-.6ZM267.1,92c0-.3-.3-.6-.6-.6h-2.3c-.3,0-.6.3-.6.6s.3.6.6.6h2.3c.3,0,.6-.3.6-.6ZM267.1,94.7c0-.3-.3-.6-.6-.6h-2.3c-.3,0-.6.3-.6.6s.3.6.6.6h2.3c.3,0,.6-.3.6-.6ZM267.1,97.3c0-.3-.3-.6-.6-.6h-2.3c-.3,0-.6.3-.6.6s.3.6.6.6h2.3c.3,0,.6-.3.6-.6ZM267.1,100c0-.3-.3-.6-.6-.6h-2.3c-.3,0-.6.3-.6.6s.3.6.6.6h2.3c.3,0,.6-.3.6-.6ZM275.8,81.4c0-.3-.3-.6-.6-.6h-6.1c-.3,0-.6.3-.6.6s.3.6.6.6h6.1c.3,0,.6-.3.6-.6ZM275.8,84.1c0-.3-.3-.6-.6-.6h-6.1c-.3,0-.6.3-.6.6s.3.6.6.6h6.1c.3,0,.6-.3.6-.6ZM275.8,86.7c0-.3-.3-.6-.6-.6h-6.1c-.3,0-.6.3-.6.6s.3.6.6.6h6.1c.3,0,.6-.3.6-.6ZM275.8,89.4c0-.3-.3-.6-.6-.6h-6.1c-.3,0-.6.3-.6.6s.3.6.6.6h6.1c.3,0,.6-.3.6-.6ZM275.8,92c0-.3-.3-.6-.6-.6h-6.1c-.3,0-.6.3-.6.6s.3.6.6.6h6.1c.3,0,.6-.3.6-.6ZM283.2,94.7c0-.3-.3-.6-.6-.6h-6.1c-.3,0-.6.3-.6.6s.3.6.6.6h6.1c.3,0,.6-.3.6-.6ZM283.2,97.3c0-.3-.3-.6-.6-.6h-6.1c-.3,0-.6.3-.6.6s.3.6.6.6h6.1c.3,0,.6-.3.6-.6ZM283.2,100c0-.3-.3-.6-.6-.6h-6.1c-.3,0-.6.3-.6.6s.3.6.6.6h6.1c.3,0,.6-.3.6-.6ZM278.5,81.4c0-.4-.3-.7-.7-.7s-.7.3-.7.7.3.7.7.7.7-.3.7-.7ZM280.5,81.4c0-.4-.3-.7-.7-.7s-.7.3-.7.7.3.7.7.7.7-.3.7-.7ZM282.5,81.4c0-.4-.3-.7-.7-.7s-.7.3-.7.7.3.7.7.7.7-.3.7-.7ZM284.5,81.4c0-.4-.3-.7-.7-.7s-.7.3-.7.7.3.7.7.7.7-.3.7-.7ZM286.5,81.4c0-.4-.3-.7-.7-.7s-.7.3-.7.7.3.7.7.7.7-.3.7-.7ZM288.5,81.4c0-.4-.3-.7-.7-.7s-.7.3-.7.7.3.7.7.7.7-.3.7-.7ZM278.5,86.7c0-.4-.3-.7-.7-.7s-.7.3-.7.7.3.7.7.7.7-.3.7-.7ZM280.5,86.7c0-.4-.3-.7-.7-.7s-.7.3-.7.7.3.7.7.7.7-.3.7-.7ZM282.5,86.7c0-.4-.3-.7-.7-.7s-.7.3-.7.7.3.7.7.7.7-.3.7-.7ZM284.5,86.7c0-.4-.3-.7-.7-.7s-.7.3-.7.7.3.7.7.7.7-.3.7-.7ZM286.5,86.7c0-.4-.3-.7-.7-.7s-.7.3-.7.7.3.7.7.7.7-.3.7-.7ZM288.5,86.7c0-.4-.3-.7-.7-.7s-.7.3-.7.7.3.7.7.7.7-.3.7-.7ZM285.4,94.3c0-.4-.3-.7-.7-.7s-.7.3-.7.7.3.7.7.7.7-.3.7-.7ZM287.3,94.3c0-.4-.3-.7-.7-.7s-.7.3-.7.7.3.7.7.7.7-.3.7-.7ZM289.3,94.3c0-.4-.3-.7-.7-.7s-.7.3-.7.7.3.7.7.7.7-.3.7-.7ZM291.3,94.3c0-.4-.3-.7-.7-.7s-.7.3-.7.7.3.7.7.7.7-.3.7-.7ZM293.3,94.3c0-.4-.3-.7-.7-.7s-.7.3-.7.7.3.7.7.7.7-.3.7-.7ZM295.3,94.3c0-.4-.3-.7-.7-.7s-.7.3-.7.7.3.7.7.7.7-.3.7-.7ZM285.4,99.8c0-.4-.3-.7-.7-.7s-.7.3-.7.7.3.7.7.7.7-.3.7-.7ZM287.3,99.8c0-.4-.3-.7-.7-.7s-.7.3-.7.7.3.7.7.7.7-.3.7-.7ZM289.3,99.8c0-.4-.3-.7-.7-.7s-.7.3-.7.7.3.7.7.7.7-.3.7-.7ZM291.3,99.8c0-.4-.3-.7-.7-.7s-.7.3-.7.7.3.7.7.7.7-.3.7-.7ZM293.3,99.8c0-.4-.3-.7-.7-.7s-.7.3-.7.7.3.7.7.7.7-.3.7-.7ZM295.3,99.8c0-.4-.3-.7-.7-.7s-.7.3-.7.7.3.7.7.7.7-.3.7-.7Z"/><path class="cls-13" d="M266.6,103.7h-2.3c-.3,0-.6-.3-.6-.6s.3-.6.6-.6h2.3c.3,0,.6.3.6.6s-.3.6-.6.6ZM267.1,105.8c0-.3-.3-.6-.6-.6h-2.3c-.3,0-.6.3-.6.6s.3.6.6.6h2.3c.3,0,.6-.3.6-.6ZM267.1,108.4c0-.3-.3-.6-.6-.6h-2.3c-.3,0-.6.3-.6.6s.3.6.6.6h2.3c.3,0,.6-.3.6-.6ZM267.1,111.1c0-.3-.3-.6-.6-.6h-2.3c-.3,0-.6.3-.6.6s.3.6.6.6h2.3c.3,0,.6-.3.6-.6ZM267.1,113.7c0-.3-.3-.6-.6-.6h-2.3c-.3,0-.6.3-.6.6s.3.6.6.6h2.3c.3,0,.6-.3.6-.6ZM267.1,116.4c0-.3-.3-.6-.6-.6h-2.3c-.3,0-.6.3-.6.6s.3.6.6.6h2.3c.3,0,.6-.3.6-.6ZM267.1,119c0-.3-.3-.6-.6-.6h-2.3c-.3,0-.6.3-.6.6s.3.6.6.6h2.3c.3,0,.6-.3.6-.6ZM267.1,121.7c0-.3-.3-.6-.6-.6h-2.3c-.3,0-.6.3-.6.6s.3.6.6.6h2.3c.3,0,.6-.3.6-.6ZM275.8,103.1c0-.3-.3-.6-.6-.6h-6.1c-.3,0-.6.3-.6.6s.3.6.6.6h6.1c.3,0,.6-.3.6-.6ZM275.8,105.8c0-.3-.3-.6-.6-.6h-6.1c-.3,0-.6.3-.6.6s.3.6.6.6h6.1c.3,0,.6-.3.6-.6ZM275.8,108.4c0-.3-.3-.6-.6-.6h-6.1c-.3,0-.6.3-.6.6s.3.6.6.6h6.1c.3,0,.6-.3.6-.6ZM275.8,111.1c0-.3-.3-.6-.6-.6h-6.1c-.3,0-.6.3-.6.6s.3.6.6.6h6.1c.3,0,.6-.3.6-.6ZM275.8,113.7c0-.3-.3-.6-.6-.6h-6.1c-.3,0-.6.3-.6.6s.3.6.6.6h6.1c.3,0,.6-.3.6-.6ZM283.2,116.4c0-.3-.3-.6-.6-.6h-6.1c-.3,0-.6.3-.6.6s.3.6.6.6h6.1c.3,0,.6-.3.6-.6ZM283.2,119c0-.3-.3-.6-.6-.6h-6.1c-.3,0-.6.3-.6.6s.3.6.6.6h6.1c.3,0,.6-.3.6-.6ZM283.2,121.7c0-.3-.3-.6-.6-.6h-6.1c-.3,0-.6.3-.6.6s.3.6.6.6h6.1c.3,0,.6-.3.6-.6ZM278.5,103.1c0-.4-.3-.7-.7-.7s-.7.3-.7.7.3.7.7.7.7-.3.7-.7ZM280.5,103.1c0-.4-.3-.7-.7-.7s-.7.3-.7.7.3.7.7.7.7-.3.7-.7ZM282.5,103.1c0-.4-.3-.7-.7-.7s-.7.3-.7.7.3.7.7.7.7-.3.7-.7ZM284.5,103.1c0-.4-.3-.7-.7-.7s-.7.3-.7.7.3.7.7.7.7-.3.7-.7ZM286.5,103.1c0-.4-.3-.7-.7-.7s-.7.3-.7.7.3.7.7.7.7-.3.7-.7ZM288.5,103.1c0-.4-.3-.7-.7-.7s-.7.3-.7.7.3.7.7.7.7-.3.7-.7ZM278.5,108.4c0-.4-.3-.7-.7-.7s-.7.3-.7.7.3.7.7.7.7-.3.7-.7ZM280.5,108.4c0-.4-.3-.7-.7-.7s-.7.3-.7.7.3.7.7.7.7-.3.7-.7ZM282.5,108.4c0-.4-.3-.7-.7-.7s-.7.3-.7.7.3.7.7.7.7-.3.7-.7ZM284.5,108.4c0-.4-.3-.7-.7-.7s-.7.3-.7.7.3.7.7.7.7-.3.7-.7ZM286.5,108.4c0-.4-.3-.7-.7-.7s-.7.3-.7.7.3.7.7.7.7-.3.7-.7ZM288.5,108.4c0-.4-.3-.7-.7-.7s-.7.3-.7.7.3.7.7.7.7-.3.7-.7ZM285.4,116c0-.4-.3-.7-.7-.7s-.7.3-.7.7.3.7.7.7.7-.3.7-.7ZM287.3,116c0-.4-.3-.7-.7-.7s-.7.3-.7.7.3.7.7.7.7-.3.7-.7ZM289.3,116c0-.4-.3-.7-.7-.7s-.7.3-.7.7.3.7.7.7.7-.3.7-.7ZM291.3,116c0-.4-.3-.7-.7-.7s-.7.3-.7.7.3.7.7.7.7-.3.7-.7ZM293.3,116c0-.4-.3-.7-.7-.7s-.7.3-.7.7.3.7.7.7.7-.3.7-.7ZM295.3,116c0-.4-.3-.7-.7-.7s-.7.3-.7.7.3.7.7.7.7-.3.7-.7ZM285.4,121.5c0-.4-.3-.7-.7-.7s-.7.3-.7.7.3.7.7.7.7-.3.7-.7ZM287.3,121.5c0-.4-.3-.7-.7-.7s-.7.3-.7.7.3.7.7.7.7-.3.7-.7ZM289.3,121.5c0-.4-.3-.7-.7-.7s-.7.3-.7.7.3.7.7.7.7-.3.7-.7ZM291.3,121.5c0-.4-.3-.7-.7-.7s-.7.3-.7.7.3.7.7.7.7-.3.7-.7ZM293.3,121.5c0-.4-.3-.7-.7-.7s-.7.3-.7.7.3.7.7.7.7-.3.7-.7ZM295.3,121.5c0-.4-.3-.7-.7-.7s-.7.3-.7.7.3.7.7.7.7-.3.7-.7Z"/></g><g id="Device_1"><rect class="cls-2" x="157.3" y="150" width="8.6" height="16.8"/><rect class="cls-3" x="109.7" y="72.9" width="109" height="78.8"/><rect class="cls-7" x="115.5" y="77.2" width="97.3" height="70.3"/><path class="cls-13" d="M137.1,82h-2.5c-.3,0-.6-.3-.6-.6s.3-.6.6-.6h2.5c.3,0,.6.3.6.6s-.3.6-.6.6ZM137.7,84.1c0-.3-.3-.6-.6-.6h-2.5c-.3,0-.6.3-.6.6s.3.6.6.6h2.5c.3,0,.6-.3.6-.6ZM137.7,86.7c0-.3-.3-.6-.6-.6h-2.5c-.3,0-.6.3-.6.6s.3.6.6.6h2.5c.3,0,.6-.3.6-.6ZM137.7,89.4c0-.3-.3-.6-.6-.6h-2.5c-.3,0-.6.3-.6.6s.3.6.6.6h2.5c.3,0,.6-.3.6-.6ZM137.7,92c0-.3-.3-.6-.6-.6h-2.5c-.3,0-.6.3-.6.6s.3.6.6.6h2.5c.3,0,.6-.3.6-.6ZM137.7,94.7c0-.3-.3-.6-.6-.6h-2.5c-.3,0-.6.3-.6.6s.3.6.6.6h2.5c.3,0,.6-.3.6-.6ZM137.7,97.3c0-.3-.3-.6-.6-.6h-2.5c-.3,0-.6.3-.6.6s.3.6.6.6h2.5c.3,0,.6-.3.6-.6ZM137.7,100c0-.3-.3-.6-.6-.6h-2.5c-.3,0-.6.3-.6.6s.3.6.6.6h2.5c.3,0,.6-.3.6-.6ZM147.1,81.4c0-.3-.3-.6-.6-.6h-6.6c-.3,0-.6.3-.6.6s.3.6.6.6h6.6c.3,0,.6-.3.6-.6ZM147.1,84.1c0-.3-.3-.6-.6-.6h-6.6c-.3,0-.6.3-.6.6s.3.6.6.6h6.6c.3,0,.6-.3.6-.6ZM147.1,86.7c0-.3-.3-.6-.6-.6h-6.6c-.3,0-.6.3-.6.6s.3.6.6.6h6.6c.3,0,.6-.3.6-.6ZM147.1,89.4c0-.3-.3-.6-.6-.6h-6.6c-.3,0-.6.3-.6.6s.3.6.6.6h6.6c.3,0,.6-.3.6-.6ZM147.1,92c0-.3-.3-.6-.6-.6h-6.6c-.3,0-.6.3-.6.6s.3.6.6.6h6.6c.3,0,.6-.3.6-.6ZM155,94.7c0-.3-.3-.6-.6-.6h-6.6c-.3,0-.6.3-.6.6s.3.6.6.6h6.6c.3,0,.6-.3.6-.6ZM155,97.3c0-.3-.3-.6-.6-.6h-6.6c-.3,0-.6.3-.6.6s.3.6.6.6h6.6c.3,0,.6-.3.6-.6ZM155,100c0-.3-.3-.6-.6-.6h-6.6c-.3,0-.6.3-.6.6s.3.6.6.6h6.6c.3,0,.6-.3.6-.6ZM150,81.4c0-.4-.3-.7-.7-.7s-.7.3-.7.7.3.7.7.7.7-.3.7-.7ZM152.2,81.4c0-.4-.3-.7-.7-.7s-.7.3-.7.7.3.7.7.7.7-.3.7-.7ZM154.3,81.4c0-.4-.3-.7-.7-.7s-.7.3-.7.7.3.7.7.7.7-.3.7-.7ZM156.5,81.4c0-.4-.3-.7-.7-.7s-.7.3-.7.7.3.7.7.7.7-.3.7-.7ZM158.6,81.4c0-.4-.3-.7-.7-.7s-.7.3-.7.7.3.7.7.7.7-.3.7-.7ZM160.8,81.4c0-.4-.3-.7-.7-.7s-.7.3-.7.7.3.7.7.7.7-.3.7-.7ZM150,86.7c0-.4-.3-.7-.7-.7s-.7.3-.7.7.3.7.7.7.7-.3.7-.7ZM152.2,86.7c0-.4-.3-.7-.7-.7s-.7.3-.7.7.3.7.7.7.7-.3.7-.7ZM154.3,86.7c0-.4-.3-.7-.7-.7s-.7.3-.7.7.3.7.7.7.7-.3.7-.7ZM156.5,86.7c0-.4-.3-.7-.7-.7s-.7.3-.7.7.3.7.7.7.7-.3.7-.7ZM158.6,86.7c0-.4-.3-.7-.7-.7s-.7.3-.7.7.3.7.7.7.7-.3.7-.7ZM160.8,86.7c0-.4-.3-.7-.7-.7s-.7.3-.7.7.3.7.7.7.7-.3.7-.7ZM157.4,94.3c0-.4-.3-.7-.7-.7s-.7.3-.7.7.3.7.7.7.7-.3.7-.7ZM159.5,94.3c0-.4-.3-.7-.7-.7s-.7.3-.7.7.3.7.7.7.7-.3.7-.7ZM161.7,94.3c0-.4-.3-.7-.7-.7s-.7.3-.7.7.3.7.7.7.7-.3.7-.7ZM163.8,94.3c0-.4-.3-.7-.7-.7s-.7.3-.7.7.3.7.7.7.7-.3.7-.7ZM166,94.3c0-.4-.3-.7-.7-.7s-.7.3-.7.7.3.7.7.7.7-.3.7-.7ZM168.1,94.3c0-.4-.3-.7-.7-.7s-.7.3-.7.7.3.7.7.7.7-.3.7-.7ZM157.4,99.8c0-.4-.3-.7-.7-.7s-.7.3-.7.7.3.7.7.7.7-.3.7-.7ZM159.5,99.8c0-.4-.3-.7-.7-.7s-.7.3-.7.7.3.7.7.7.7-.3.7-.7ZM161.7,99.8c0-.4-.3-.7-.7-.7s-.7.3-.7.7.3.7.7.7.7-.3.7-.7ZM163.8,99.8c0-.4-.3-.7-.7-.7s-.7.3-.7.7.3.7.7.7.7-.3.7-.7ZM166,99.8c0-.4-.3-.7-.7-.7s-.7.3-.7.7.3.7.7.7.7-.3.7-.7ZM168.1,99.8c0-.4-.3-.7-.7-.7s-.7.3-.7.7.3.7.7.7.7-.3.7-.7Z"/><path class="cls-13" d="M137.1,103.2h-2.5c-.3,0-.6-.3-.6-.6s.3-.6.6-.6h2.5c.3,0,.6.3.6.6s-.3.6-.6.6ZM137.7,105.3c0-.3-.3-.6-.6-.6h-2.5c-.3,0-.6.3-.6.6s.3.6.6.6h2.5c.3,0,.6-.3.6-.6ZM137.7,107.9c0-.3-.3-.6-.6-.6h-2.5c-.3,0-.6.3-.6.6s.3.6.6.6h2.5c.3,0,.6-.3.6-.6ZM137.7,110.6c0-.3-.3-.6-.6-.6h-2.5c-.3,0-.6.3-.6.6s.3.6.6.6h2.5c.3,0,.6-.3.6-.6ZM137.7,113.2c0-.3-.3-.6-.6-.6h-2.5c-.3,0-.6.3-.6.6s.3.6.6.6h2.5c.3,0,.6-.3.6-.6ZM137.7,115.9c0-.3-.3-.6-.6-.6h-2.5c-.3,0-.6.3-.6.6s.3.6.6.6h2.5c.3,0,.6-.3.6-.6ZM137.7,118.5c0-.3-.3-.6-.6-.6h-2.5c-.3,0-.6.3-.6.6s.3.6.6.6h2.5c.3,0,.6-.3.6-.6ZM137.7,121.2c0-.3-.3-.6-.6-.6h-2.5c-.3,0-.6.3-.6.6s.3.6.6.6h2.5c.3,0,.6-.3.6-.6ZM147.1,102.6c0-.3-.3-.6-.6-.6h-6.6c-.3,0-.6.3-.6.6s.3.6.6.6h6.6c.3,0,.6-.3.6-.6ZM147.1,105.3c0-.3-.3-.6-.6-.6h-6.6c-.3,0-.6.3-.6.6s.3.6.6.6h6.6c.3,0,.6-.3.6-.6ZM147.1,107.9c0-.3-.3-.6-.6-.6h-6.6c-.3,0-.6.3-.6.6s.3.6.6.6h6.6c.3,0,.6-.3.6-.6ZM147.1,110.6c0-.3-.3-.6-.6-.6h-6.6c-.3,0-.6.3-.6.6s.3.6.6.6h6.6c.3,0,.6-.3.6-.6ZM147.1,113.2c0-.3-.3-.6-.6-.6h-6.6c-.3,0-.6.3-.6.6s.3.6.6.6h6.6c.3,0,.6-.3.6-.6ZM155,115.9c0-.3-.3-.6-.6-.6h-6.6c-.3,0-.6.3-.6.6s.3.6.6.6h6.6c.3,0,.6-.3.6-.6ZM155,118.5c0-.3-.3-.6-.6-.6h-6.6c-.3,0-.6.3-.6.6s.3.6.6.6h6.6c.3,0,.6-.3.6-.6ZM155,121.2c0-.3-.3-.6-.6-.6h-6.6c-.3,0-.6.3-.6.6s.3.6.6.6h6.6c.3,0,.6-.3.6-.6ZM150,102.6c0-.4-.3-.7-.7-.7s-.7.3-.7.7.3.7.7.7.7-.3.7-.7ZM152.2,102.6c0-.4-.3-.7-.7-.7s-.7.3-.7.7.3.7.7.7.7-.3.7-.7ZM154.3,102.6c0-.4-.3-.7-.7-.7s-.7.3-.7.7.3.7.7.7.7-.3.7-.7ZM156.5,102.6c0-.4-.3-.7-.7-.7s-.7.3-.7.7.3.7.7.7.7-.3.7-.7ZM158.6,102.6c0-.4-.3-.7-.7-.7s-.7.3-.7.7.3.7.7.7.7-.3.7-.7ZM160.8,102.6c0-.4-.3-.7-.7-.7s-.7.3-.7.7.3.7.7.7.7-.3.7-.7ZM150,107.9c0-.4-.3-.7-.7-.7s-.7.3-.7.7.3.7.7.7.7-.3.7-.7ZM152.2,107.9c0-.4-.3-.7-.7-.7s-.7.3-.7.7.3.7.7.7.7-.3.7-.7ZM154.3,107.9c0-.4-.3-.7-.7-.7s-.7.3-.7.7.3.7.7.7.7-.3.7-.7ZM156.5,107.9c0-.4-.3-.7-.7-.7s-.7.3-.7.7.3.7.7.7.7-.3.7-.7ZM158.6,107.9c0-.4-.3-.7-.7-.7s-.7.3-.7.7.3.7.7.7.7-.3.7-.7ZM160.8,107.9c0-.4-.3-.7-.7-.7s-.7.3-.7.7.3.7.7.7.7-.3.7-.7ZM157.4,115.5c0-.4-.3-.7-.7-.7s-.7.3-.7.7.3.7.7.7.7-.3.7-.7ZM159.5,115.5c0-.4-.3-.7-.7-.7s-.7.3-.7.7.3.7.7.7.7-.3.7-.7ZM161.7,115.5c0-.4-.3-.7-.7-.7s-.7.3-.7.7.3.7.7.7.7-.3.7-.7ZM163.8,115.5c0-.4-.3-.7-.7-.7s-.7.3-.7.7.3.7.7.7.7-.3.7-.7ZM166,115.5c0-.4-.3-.7-.7-.7s-.7.3-.7.7.3.7.7.7.7-.3.7-.7ZM168.1,115.5c0-.4-.3-.7-.7-.7s-.7.3-.7.7.3.7.7.7.7-.3.7-.7ZM157.4,121c0-.4-.3-.7-.7-.7s-.7.3-.7.7.3.7.7.7.7-.3.7-.7ZM159.5,121c0-.4-.3-.7-.7-.7s-.7.3-.7.7.3.7.7.7.7-.3.7-.7ZM161.7,121c0-.4-.3-.7-.7-.7s-.7.3-.7.7.3.7.7.7.7-.3.7-.7ZM163.8,121c0-.4-.3-.7-.7-.7s-.7.3-.7.7.3.7.7.7.7-.3.7-.7ZM166,121c0-.4-.3-.7-.7-.7s-.7.3-.7.7.3.7.7.7.7-.3.7-.7ZM168.1,121c0-.4-.3-.7-.7-.7s-.7.3-.7.7.3.7.7.7.7-.3.7-.7Z"/><path class="cls-13" d="M137.1,124.9h-2.5c-.3,0-.6-.3-.6-.6s.3-.6.6-.6h2.5c.3,0,.6.3.6.6s-.3.6-.6.6ZM137.7,127c0-.3-.3-.6-.6-.6h-2.5c-.3,0-.6.3-.6.6s.3.6.6.6h2.5c.3,0,.6-.3.6-.6ZM137.7,129.6c0-.3-.3-.6-.6-.6h-2.5c-.3,0-.6.3-.6.6s.3.6.6.6h2.5c.3,0,.6-.3.6-.6ZM137.7,132.3c0-.3-.3-.6-.6-.6h-2.5c-.3,0-.6.3-.6.6s.3.6.6.6h2.5c.3,0,.6-.3.6-.6ZM137.7,134.9c0-.3-.3-.6-.6-.6h-2.5c-.3,0-.6.3-.6.6s.3.6.6.6h2.5c.3,0,.6-.3.6-.6ZM137.7,137.6c0-.3-.3-.6-.6-.6h-2.5c-.3,0-.6.3-.6.6s.3.6.6.6h2.5c.3,0,.6-.3.6-.6ZM137.7,140.2c0-.3-.3-.6-.6-.6h-2.5c-.3,0-.6.3-.6.6s.3.6.6.6h2.5c.3,0,.6-.3.6-.6ZM137.7,142.9c0-.3-.3-.6-.6-.6h-2.5c-.3,0-.6.3-.6.6s.3.6.6.6h2.5c.3,0,.6-.3.6-.6ZM147.1,124.3c0-.3-.3-.6-.6-.6h-6.6c-.3,0-.6.3-.6.6s.3.6.6.6h6.6c.3,0,.6-.3.6-.6ZM147.1,127c0-.3-.3-.6-.6-.6h-6.6c-.3,0-.6.3-.6.6s.3.6.6.6h6.6c.3,0,.6-.3.6-.6ZM147.1,129.6c0-.3-.3-.6-.6-.6h-6.6c-.3,0-.6.3-.6.6s.3.6.6.6h6.6c.3,0,.6-.3.6-.6ZM147.1,132.3c0-.3-.3-.6-.6-.6h-6.6c-.3,0-.6.3-.6.6s.3.6.6.6h6.6c.3,0,.6-.3.6-.6ZM147.1,134.9c0-.3-.3-.6-.6-.6h-6.6c-.3,0-.6.3-.6.6s.3.6.6.6h6.6c.3,0,.6-.3.6-.6ZM155,137.6c0-.3-.3-.6-.6-.6h-6.6c-.3,0-.6.3-.6.6s.3.6.6.6h6.6c.3,0,.6-.3.6-.6ZM155,140.2c0-.3-.3-.6-.6-.6h-6.6c-.3,0-.6.3-.6.6s.3.6.6.6h6.6c.3,0,.6-.3.6-.6ZM155,142.9c0-.3-.3-.6-.6-.6h-6.6c-.3,0-.6.3-.6.6s.3.6.6.6h6.6c.3,0,.6-.3.6-.6ZM150,124.3c0-.4-.3-.7-.7-.7s-.7.3-.7.7.3.7.7.7.7-.3.7-.7ZM152.2,124.3c0-.4-.3-.7-.7-.7s-.7.3-.7.7.3.7.7.7.7-.3.7-.7ZM154.3,124.3c0-.4-.3-.7-.7-.7s-.7.3-.7.7.3.7.7.7.7-.3.7-.7ZM156.5,124.3c0-.4-.3-.7-.7-.7s-.7.3-.7.7.3.7.7.7.7-.3.7-.7ZM158.6,124.3c0-.4-.3-.7-.7-.7s-.7.3-.7.7.3.7.7.7.7-.3.7-.7ZM160.8,124.3c0-.4-.3-.7-.7-.7s-.7.3-.7.7.3.7.7.7.7-.3.7-.7ZM150,129.6c0-.4-.3-.7-.7-.7s-.7.3-.7.7.3.7.7.7.7-.3.7-.7ZM152.2,129.6c0-.4-.3-.7-.7-.7s-.7.3-.7.7.3.7.7.7.7-.3.7-.7ZM154.3,129.6c0-.4-.3-.7-.7-.7s-.7.3-.7.7.3.7.7.7.7-.3.7-.7ZM156.5,129.6c0-.4-.3-.7-.7-.7s-.7.3-.7.7.3.7.7.7.7-.3.7-.7ZM158.6,129.6c0-.4-.3-.7-.7-.7s-.7.3-.7.7.3.7.7.7.7-.3.7-.7ZM160.8,129.6c0-.4-.3-.7-.7-.7s-.7.3-.7.7.3.7.7.7.7-.3.7-.7ZM157.4,137.2c0-.4-.3-.7-.7-.7s-.7.3-.7.7.3.7.7.7.7-.3.7-.7ZM159.5,137.2c0-.4-.3-.7-.7-.7s-.7.3-.7.7.3.7.7.7.7-.3.7-.7ZM161.7,137.2c0-.4-.3-.7-.7-.7s-.7.3-.7.7.3.7.7.7.7-.3.7-.7ZM163.8,137.2c0-.4-.3-.7-.7-.7s-.7.3-.7.7.3.7.7.7.7-.3.7-.7ZM166,137.2c0-.4-.3-.7-.7-.7s-.7.3-.7.7.3.7.7.7.7-.3.7-.7ZM168.1,137.2c0-.4-.3-.7-.7-.7s-.7.3-.7.7.3.7.7.7.7-.3.7-.7ZM157.4,142.7c0-.4-.3-.7-.7-.7s-.7.3-.7.7.3.7.7.7.7-.3.7-.7ZM159.5,142.7c0-.4-.3-.7-.7-.7s-.7.3-.7.7.3.7.7.7.7-.3.7-.7ZM161.7,142.7c0-.4-.3-.7-.7-.7s-.7.3-.7.7.3.7.7.7.7-.3.7-.7ZM163.8,142.7c0-.4-.3-.7-.7-.7s-.7.3-.7.7.3.7.7.7.7-.3.7-.7ZM166,142.7c0-.4-.3-.7-.7-.7s-.7.3-.7.7.3.7.7.7.7-.3.7-.7ZM168.1,142.7c0-.4-.3-.7-.7-.7s-.7.3-.7.7.3.7.7.7.7-.3.7-.7Z"/><path class="cls-13" d="M175.6,82h-2.5c-.3,0-.6-.3-.6-.6s.3-.6.6-.6h2.5c.3,0,.6.3.6.6s-.3.6-.6.6ZM176.2,84.1c0-.3-.3-.6-.6-.6h-2.5c-.3,0-.6.3-.6.6s.3.6.6.6h2.5c.3,0,.6-.3.6-.6ZM176.2,86.7c0-.3-.3-.6-.6-.6h-2.5c-.3,0-.6.3-.6.6s.3.6.6.6h2.5c.3,0,.6-.3.6-.6ZM176.2,89.4c0-.3-.3-.6-.6-.6h-2.5c-.3,0-.6.3-.6.6s.3.6.6.6h2.5c.3,0,.6-.3.6-.6ZM176.2,92c0-.3-.3-.6-.6-.6h-2.5c-.3,0-.6.3-.6.6s.3.6.6.6h2.5c.3,0,.6-.3.6-.6ZM176.2,94.7c0-.3-.3-.6-.6-.6h-2.5c-.3,0-.6.3-.6.6s.3.6.6.6h2.5c.3,0,.6-.3.6-.6ZM176.2,97.3c0-.3-.3-.6-.6-.6h-2.5c-.3,0-.6.3-.6.6s.3.6.6.6h2.5c.3,0,.6-.3.6-.6ZM176.2,100c0-.3-.3-.6-.6-.6h-2.5c-.3,0-.6.3-.6.6s.3.6.6.6h2.5c.3,0,.6-.3.6-.6ZM185.6,81.4c0-.3-.3-.6-.6-.6h-6.6c-.3,0-.6.3-.6.6s.3.6.6.6h6.6c.3,0,.6-.3.6-.6ZM185.6,84.1c0-.3-.3-.6-.6-.6h-6.6c-.3,0-.6.3-.6.6s.3.6.6.6h6.6c.3,0,.6-.3.6-.6ZM185.6,86.7c0-.3-.3-.6-.6-.6h-6.6c-.3,0-.6.3-.6.6s.3.6.6.6h6.6c.3,0,.6-.3.6-.6ZM185.6,89.4c0-.3-.3-.6-.6-.6h-6.6c-.3,0-.6.3-.6.6s.3.6.6.6h6.6c.3,0,.6-.3.6-.6ZM185.6,92c0-.3-.3-.6-.6-.6h-6.6c-.3,0-.6.3-.6.6s.3.6.6.6h6.6c.3,0,.6-.3.6-.6ZM193.5,94.7c0-.3-.3-.6-.6-.6h-6.6c-.3,0-.6.3-.6.6s.3.6.6.6h6.6c.3,0,.6-.3.6-.6ZM193.5,97.3c0-.3-.3-.6-.6-.6h-6.6c-.3,0-.6.3-.6.6s.3.6.6.6h6.6c.3,0,.6-.3.6-.6ZM193.5,100c0-.3-.3-.6-.6-.6h-6.6c-.3,0-.6.3-.6.6s.3.6.6.6h6.6c.3,0,.6-.3.6-.6ZM188.5,81.4c0-.4-.3-.7-.7-.7s-.7.3-.7.7.3.7.7.7.7-.3.7-.7ZM190.7,81.4c0-.4-.3-.7-.7-.7s-.7.3-.7.7.3.7.7.7.7-.3.7-.7ZM192.8,81.4c0-.4-.3-.7-.7-.7s-.7.3-.7.7.3.7.7.7.7-.3.7-.7ZM195,81.4c0-.4-.3-.7-.7-.7s-.7.3-.7.7.3.7.7.7.7-.3.7-.7ZM197.1,81.4c0-.4-.3-.7-.7-.7s-.7.3-.7.7.3.7.7.7.7-.3.7-.7ZM199.3,81.4c0-.4-.3-.7-.7-.7s-.7.3-.7.7.3.7.7.7.7-.3.7-.7ZM188.5,86.7c0-.4-.3-.7-.7-.7s-.7.3-.7.7.3.7.7.7.7-.3.7-.7ZM190.7,86.7c0-.4-.3-.7-.7-.7s-.7.3-.7.7.3.7.7.7.7-.3.7-.7ZM192.8,86.7c0-.4-.3-.7-.7-.7s-.7.3-.7.7.3.7.7.7.7-.3.7-.7ZM195,86.7c0-.4-.3-.7-.7-.7s-.7.3-.7.7.3.7.7.7.7-.3.7-.7ZM197.1,86.7c0-.4-.3-.7-.7-.7s-.7.3-.7.7.3.7.7.7.7-.3.7-.7ZM199.3,86.7c0-.4-.3-.7-.7-.7s-.7.3-.7.7.3.7.7.7.7-.3.7-.7ZM195.9,94.3c0-.4-.3-.7-.7-.7s-.7.3-.7.7.3.7.7.7.7-.3.7-.7ZM198,94.3c0-.4-.3-.7-.7-.7s-.7.3-.7.7.3.7.7.7.7-.3.7-.7ZM200.2,94.3c0-.4-.3-.7-.7-.7s-.7.3-.7.7.3.7.7.7.7-.3.7-.7ZM202.3,94.3c0-.4-.3-.7-.7-.7s-.7.3-.7.7.3.7.7.7.7-.3.7-.7ZM204.5,94.3c0-.4-.3-.7-.7-.7s-.7.3-.7.7.3.7.7.7.7-.3.7-.7ZM206.6,94.3c0-.4-.3-.7-.7-.7s-.7.3-.7.7.3.7.7.7.7-.3.7-.7ZM195.9,99.8c0-.4-.3-.7-.7-.7s-.7.3-.7.7.3.7.7.7.7-.3.7-.7ZM198,99.8c0-.4-.3-.7-.7-.7s-.7.3-.7.7.3.7.7.7.7-.3.7-.7ZM200.2,99.8c0-.4-.3-.7-.7-.7s-.7.3-.7.7.3.7.7.7.7-.3.7-.7ZM202.3,99.8c0-.4-.3-.7-.7-.7s-.7.3-.7.7.3.7.7.7.7-.3.7-.7ZM204.5,99.8c0-.4-.3-.7-.7-.7s-.7.3-.7.7.3.7.7.7.7-.3.7-.7ZM206.6,99.8c0-.4-.3-.7-.7-.7s-.7.3-.7.7.3.7.7.7.7-.3.7-.7Z"/><path class="cls-13" d="M175.6,103.7h-2.5c-.3,0-.6-.3-.6-.6s.3-.6.6-.6h2.5c.3,0,.6.3.6.6s-.3.6-.6.6ZM176.2,105.8c0-.3-.3-.6-.6-.6h-2.5c-.3,0-.6.3-.6.6s.3.6.6.6h2.5c.3,0,.6-.3.6-.6ZM176.2,108.4c0-.3-.3-.6-.6-.6h-2.5c-.3,0-.6.3-.6.6s.3.6.6.6h2.5c.3,0,.6-.3.6-.6ZM176.2,111.1c0-.3-.3-.6-.6-.6h-2.5c-.3,0-.6.3-.6.6s.3.6.6.6h2.5c.3,0,.6-.3.6-.6ZM176.2,113.7c0-.3-.3-.6-.6-.6h-2.5c-.3,0-.6.3-.6.6s.3.6.6.6h2.5c.3,0,.6-.3.6-.6ZM176.2,116.4c0-.3-.3-.6-.6-.6h-2.5c-.3,0-.6.3-.6.6s.3.6.6.6h2.5c.3,0,.6-.3.6-.6ZM176.2,119c0-.3-.3-.6-.6-.6h-2.5c-.3,0-.6.3-.6.6s.3.6.6.6h2.5c.3,0,.6-.3.6-.6ZM176.2,121.7c0-.3-.3-.6-.6-.6h-2.5c-.3,0-.6.3-.6.6s.3.6.6.6h2.5c.3,0,.6-.3.6-.6ZM185.6,103.1c0-.3-.3-.6-.6-.6h-6.6c-.3,0-.6.3-.6.6s.3.6.6.6h6.6c.3,0,.6-.3.6-.6ZM185.6,105.8c0-.3-.3-.6-.6-.6h-6.6c-.3,0-.6.3-.6.6s.3.6.6.6h6.6c.3,0,.6-.3.6-.6ZM185.6,108.4c0-.3-.3-.6-.6-.6h-6.6c-.3,0-.6.3-.6.6s.3.6.6.6h6.6c.3,0,.6-.3.6-.6ZM185.6,111.1c0-.3-.3-.6-.6-.6h-6.6c-.3,0-.6.3-.6.6s.3.6.6.6h6.6c.3,0,.6-.3.6-.6ZM185.6,113.7c0-.3-.3-.6-.6-.6h-6.6c-.3,0-.6.3-.6.6s.3.6.6.6h6.6c.3,0,.6-.3.6-.6ZM193.5,116.4c0-.3-.3-.6-.6-.6h-6.6c-.3,0-.6.3-.6.6s.3.6.6.6h6.6c.3,0,.6-.3.6-.6ZM193.5,119c0-.3-.3-.6-.6-.6h-6.6c-.3,0-.6.3-.6.6s.3.6.6.6h6.6c.3,0,.6-.3.6-.6ZM193.5,121.7c0-.3-.3-.6-.6-.6h-6.6c-.3,0-.6.3-.6.6s.3.6.6.6h6.6c.3,0,.6-.3.6-.6ZM188.5,103.1c0-.4-.3-.7-.7-.7s-.7.3-.7.7.3.7.7.7.7-.3.7-.7ZM190.7,103.1c0-.4-.3-.7-.7-.7s-.7.3-.7.7.3.7.7.7.7-.3.7-.7ZM192.8,103.1c0-.4-.3-.7-.7-.7s-.7.3-.7.7.3.7.7.7.7-.3.7-.7ZM195,103.1c0-.4-.3-.7-.7-.7s-.7.3-.7.7.3.7.7.7.7-.3.7-.7ZM197.1,103.1c0-.4-.3-.7-.7-.7s-.7.3-.7.7.3.7.7.7.7-.3.7-.7ZM199.3,103.1c0-.4-.3-.7-.7-.7s-.7.3-.7.7.3.7.7.7.7-.3.7-.7ZM188.5,108.4c0-.4-.3-.7-.7-.7s-.7.3-.7.7.3.7.7.7.7-.3.7-.7ZM190.7,108.4c0-.4-.3-.7-.7-.7s-.7.3-.7.7.3.7.7.7.7-.3.7-.7ZM192.8,108.4c0-.4-.3-.7-.7-.7s-.7.3-.7.7.3.7.7.7.7-.3.7-.7ZM195,108.4c0-.4-.3-.7-.7-.7s-.7.3-.7.7.3.7.7.7.7-.3.7-.7ZM197.1,108.4c0-.4-.3-.7-.7-.7s-.7.3-.7.7.3.7.7.7.7-.3.7-.7ZM199.3,108.4c0-.4-.3-.7-.7-.7s-.7.3-.7.7.3.7.7.7.7-.3.7-.7ZM195.9,116c0-.4-.3-.7-.7-.7s-.7.3-.7.7.3.7.7.7.7-.3.7-.7ZM198,116c0-.4-.3-.7-.7-.7s-.7.3-.7.7.3.7.7.7.7-.3.7-.7ZM200.2,116c0-.4-.3-.7-.7-.7s-.7.3-.7.7.3.7.7.7.7-.3.7-.7ZM202.3,116c0-.4-.3-.7-.7-.7s-.7.3-.7.7.3.7.7.7.7-.3.7-.7ZM204.5,116c0-.4-.3-.7-.7-.7s-.7.3-.7.7.3.7.7.7.7-.3.7-.7ZM206.6,116c0-.4-.3-.7-.7-.7s-.7.3-.7.7.3.7.7.7.7-.3.7-.7ZM195.9,121.5c0-.4-.3-.7-.7-.7s-.7.3-.7.7.3.7.7.7.7-.3.7-.7ZM198,121.5c0-.4-.3-.7-.7-.7s-.7.3-.7.7.3.7.7.7.7-.3.7-.7ZM200.2,121.5c0-.4-.3-.7-.7-.7s-.7.3-.7.7.3.7.7.7.7-.3.7-.7ZM202.3,121.5c0-.4-.3-.7-.7-.7s-.7.3-.7.7.3.7.7.7.7-.3.7-.7ZM204.5,121.5c0-.4-.3-.7-.7-.7s-.7.3-.7.7.3.7.7.7.7-.3.7-.7ZM206.6,121.5c0-.4-.3-.7-.7-.7s-.7.3-.7.7.3.7.7.7.7-.3.7-.7Z"/></g><g id="Character"><path class="cls-8" d="M165.9,50.5c-.3,3.8-2.1,6.7-4,6.6-1.9-.1-3.2-3.3-2.9-7.1.3-3.8,2.1-6.7,4-6.6,1.9.1,3.2,3.3,2.9,7.1Z"/><path class="cls-4" d="M163,31s.4,7-.8,10.3c-1.2,3.3-2.7,5.4-2.7,7s2.5,3.5,2.5,6.6-5.6,18-7.2,20.9c-1.5,2.9-1,3.9-2.9,4.1s-6.8-2.1-6.8-2.1c0,0-2.9.4-3.3,1.5-.4,1.2-1.4,5.2-1.4,5.2l-28.2-12.6s4.1-4.3,5.8-9.9c1.7-5.6-1-14.3-1-14.3,0,0-2.7-20.3,9.7-26.1,12.4-5.8,30.4-2.1,33.3.8,2.9,2.9,2.9,8.7,2.9,8.7Z"/><g class="cls-20"><path class="cls-6" d="M145,63.1c.3-9-2.1-20.5-2.1-20.5,0,0,.3-2.8-4.9-11.5-1.9-3.2-4.1-7.4-7-11.2-1.4.4-2.8.9-4.1,1.5-12.4,5.8-9.7,26.1-9.7,26.1,0,0,2.7,8.7,1,14.3s-5.8,9.9-5.8,9.9l16.4,7.3,13.1-1.8s.7.3,1.7.7c.9-.3,1.7-.4,1.7-.4,0,0,4.8,2.3,6.8,2.1,1.3-1.6-7.4-7.6-7-16.6Z"/></g><path class="cls-8" d="M163,31s.4,7-.8,10.3c-1.2,3.3-2.7,5.4-2.7,7s2.5,3.5,2.5,6.6-5.6,18-7.2,20.9c-1.5,2.9-1,3.9-2.9,4.1s-6.8-2.1-6.8-2.1c0,0-2.9.4-3.3,1.5-.4,1.2-1.4,5.2-1.4,5.2l-28.2-12.6s4.1-4.3,5.8-9.9c1.7-5.6-1-14.3-1-14.3,0,0-2.7-20.3,9.7-26.1,12.4-5.8,30.4-2.1,33.3.8,2.9,2.9,2.9,8.7,2.9,8.7Z"/><path class="cls-5" d="M139.6,49s4.6,1.4,5.2,0c.6-1.4-1.2-1.7,1-2.5,2.1-.8,7.2-3.9,7.2-7s-5.8-8.3-2.9-9.1c2.9-.8,11.8-.4,11.8-.4,0,0-6.2,2.9-3.1,4.3,3.1,1.4,10.6-.4,13.5-4.6,2.9-4.3-1.2-11-6.8-14.7-5.6-3.7-16.8-6.8-27.9-6.4-11,.4-19.2,4.3-21.5,10.6s1.4,28.8,1.5,34.8c.2,6,3.9,7.7,8.1,7.7s7.9-3.7,8.9-7c1-3.3,1.4-6.6,1.9-7.4.6-.8,2.9,1.5,2.9,1.5Z"/><line class="cls-8" x1="137.9" y1="45.7" x2="165.6" y2="48.6"/><path class="cls-3" d="M141.8,51.9s.4-6.8-2.1-10.1c-2.5-3.3-4.6-1-5.8,5.6-1.2,6.6-1.2,10.1,1.4,11,2.5,1,5-.2,5-.2"/><path class="cls-11" d="M212.3,227.7c-2.3-2.3-8.5-7.7-16.2-9.6-9.9-2.4-53.3-7.3-53.3-7.3l-2.1-8.7s-6.1-1.9-7.5-1.9-7.8,2.1-21.9,5.2c-14.1,3.1-39.5-4.4-39.5-4.4,0,0-6.9,5.1-6.9,14.7s.6,11,1.3,12h146.2Z"/><path class="cls-18" d="M106.5,75.7s-.3.2-.7.5c-2.7,1.9-12.8,8.8-20.4,14.8-8.9,7-9.5,19.9-9.9,30-.4,10.1-6.9,72.7-8.4,80.4-1.5,7.7,12.3,9.7,25.6,11.7,13.4,1.9,30.6-.2,38.9-4.1,8.3-3.9,10.3-3.7,10.3-7.9s.2-13.9.2-14.7,6-48.2,5.6-62.1c-.4-13.9.8-21.5-2.5-28.4-3.3-7-11.6-12.4-22.6-16.1s-16.1-4.1-16.1-4.1Z"/><g class="cls-16"><path class="cls-15" d="M138.9,103.8c-3.3-6.6-13.8-18.6-13.8-18.6,0,0,8-2.4-19.3-9,0,0,0,0,0,0-2.7,1.9-12.8,8.8-20.4,14.8-8.9,7-9.5,19.9-9.9,30-.4,10.1-6.9,72.7-8.4,80.4-1.5,7.7,12.3,9.7,25.6,11.7,3.4.5,7,.7,10.6.7l38.9-31.9s0,.1.3.3c1-8.9,3.6-30.2,4.6-45.3-2.8-13.1-6.1-28.5-8.3-33.1Z"/><path class="cls-9" d="M93.4,115.9s1.8,17.2,10.1,28.1"/><path class="cls-9" d="M118.3,144.6s1.8,4.1,10.7,11"/><path class="cls-9" d="M111.2,157s9.5,3.3,18.7,1.5"/><path class="cls-9" d="M108.2,213.6s19.5-10.1,27.2-19.8"/></g><path class="cls-9" d="M106.5,75.7s-.3.2-.7.5c-2.7,1.9-12.8,8.8-20.4,14.8-8.9,7-9.5,19.9-9.9,30-.4,10.1-6.9,72.7-8.4,80.4-1.5,7.7,12.3,9.7,25.6,11.7,13.4,1.9,30.6-.2,38.9-4.1,8.3-3.9,10.3-3.7,10.3-7.9s.2-13.9.2-14.7,6-48.2,5.6-62.1c-.4-13.9.8-21.5-2.5-28.4-3.3-7-11.6-12.4-22.6-16.1s-16.1-4.1-16.1-4.1Z"/><path class="cls-18" d="M108.5,69.1l-5.2,8.7s15.7,3.7,23.8,7c8.1,3.3,19,12,19,12,0,0-1.7-9.9-3.3-12.4-1.5-2.5-17.6-11-24.2-13.5s-10.1-1.7-10.1-1.7Z"/><g class="cls-19"><path class="cls-15" d="M132.6,87.6c.8-.4,1.4-.9,1.4-1.6.6-4.6-7.2-11.2-7.6-11.5-3.1-1.5-5.9-2.8-7.9-3.6-6.6-2.5-10.1-1.7-10.1-1.7l-5.2,8.7s15.7,3.7,23.8,7c1.8.7,3.7,1.7,5.6,2.8Z"/></g><path class="cls-9" d="M108.5,69.1l-5.2,8.7s15.7,3.7,23.8,7c8.1,3.3,19,12,19,12,0,0-1.7-9.9-3.3-12.4-1.5-2.5-17.6-11-24.2-13.5s-10.1-1.7-10.1-1.7Z"/><path class="cls-3" d="M201.6,178.6s5-4.3,7.4-8.5c2.3-4.3,3.9-5.4,5.6-5s3.1.4,3.1.4c0,0,6.2-3.7,8.1-4.1s5.8,4.3,5.8,4.3c0,0,6.6,5,5.8,6.2-.8,1.2-1.9.6-2.7.6s-2.5-1.4-3.5-1c-1,.4-5.2,3.1-5.2,3.1,0,0,5,0,6.4.6,1.4.6,6.4,5,5.4,5.6-1,.6-1,.8-2.1.6-1.2-.2-3.9-1.9-3.9-1.9l-5.2,1s3.1,3.3,4.1,4.1c1,.8,4.6,1.9,3.1,2.9-1.5,1-2.7.6-4.6-.8-1.9-1.4-6.2-3.5-7-3.5s-2.9,2.7-6.4,3.9c-3.5,1.2-8.7,1.2-8.7,1.2l-1,1-5.8-7-1.2-1,2.5-2.5Z"/><path class="cls-8" d="M231.5,165.7s-1.7-1-2.9-.4c-1.2.6-8.5,4.8-8.5,4.8"/><line class="cls-8" x1="217.6" y1="165.5" x2="214.1" y2="167.8"/><path class="cls-3" d="M166.7,181.7s12.8-.2,14.7-1.4c1.9-1.2,6.6-4.5,6.8-5.8s-1-2.1-2.9-1.4c-1.9.8-7,2.7-7.7,2.7s-4.1-1.2-4.1-1.2c0,0,5.6-5,7.9-6.4,2.3-1.4,4.8-.8,6.2,0,1.4.8,3.5-1.7,1.7-3.1-1.7-1.4-4.3-2.3-6.2-2.1-1.9.2-2.7.6-2.7.6,0,0-2.1-3.5-3.7-3.1-1.5.4-2.7,1.5-2.7,1.5,0,0-1.7-1-3.5.2-1.7,1.2-3.5,1.5-5.4,3.1-1.9,1.5-7.5,5.2-8.3,6.6-.8,1.4,9.9,9.7,9.9,9.7Z"/><line class="cls-8" x1="180.5" y1="163.7" x2="175" y2="166.8"/><line class="cls-8" x1="174.1" y1="162.2" x2="170.2" y2="164.9"/><path class="cls-18" d="M129.8,115.5s-5.4,7.4-7.2,13.2c-1.7,5.8.4,14.1,1,16.1.6,1.9,31.5,62.9,34.8,68.9,3.3,6,7,6.4,9.7,5.4,2.7-1,33.9-23.2,35-24.4s6.4-5.6,6.4-5.6c0,0,1-6.2-3.3-9.5-4.3-3.3-6.4-1.5-6.4-1.5l-27.1,7.4s-15.3-52.6-17-62.7c-1.7-10.1,1-9.5-4.5-14.9-5.4-5.4-12-9.5-12-9.5"/><g class="cls-17"><path class="cls-15" d="M203.1,194.7c1.2-1.2,6.4-5.6,6.4-5.6,0,0,.3-2.1-.2-4.5-10.9,4.3-33.2,13.2-34.5,14.5-1.7,1.7-.9-1.3-.9-4.7s-5.2,6-6,8.2c-.9,2.2-2.8-6.1-3.5-9.5-.6-3.4-10.8-29.3-13.8-41.4s-8.4-41.3-11.7-47.9c-.5-1-1.2-2.1-1.9-3.3l-8.2,14.6s-4.5,7.9-6.2,13.7c-1.7,5.8.4,14.1,1,16.1.3,1.1,9.6,19.6,18.6,37.3l.2-.2s16.4,41.5,24.5,37.5c7.9-5,35.3-23.7,36.3-24.7Z"/></g><path class="cls-9" d="M129.8,115.5s-5.4,7.4-7.2,13.2c-1.7,5.8.4,14.1,1,16.1.6,1.9,31.5,62.9,34.8,68.9,3.3,6,7,6.4,9.7,5.4,2.7-1,33.9-23.2,35-24.4s6.4-5.6,6.4-5.6c0,0,1-6.2-3.3-9.5-4.3-3.3-6.4-1.5-6.4-1.5l-27.1,7.4s-15.3-52.6-17-62.7c-1.7-10.1,1-9.5-4.5-14.9-5.4-5.4-12-9.5-12-9.5"/><path class="cls-9" d="M196.1,179.8s8.8,1.1,9.3,12.8"/></g><g id="Chair"><path class="cls-3" d="M102.6,228.5h4.5c-6.9-12.8-44.7-83.7-46-86.9-1.4-3.5-3.5-3.5-4.2-5-.7-1.4.2-7.5,0-11.6s-13.2-41.3-16.7-47.4c-3.5-6.1-8.9-5.4-8.9-5.4l-1.4,3.8,22.4,61.1,50.5,91.4Z"/><path class="cls-2" d="M14.9,140.9c9.3,21.5,35.7,81.7,37.9,87.6h49.8c-5.8-10.5-40.6-73.4-47.9-93.3-8-21.7-20.5-60.4-23.5-63-3.1-2.6-18.4-2.6-24.5-.7-6.1,1.9-6.4,2.6-6.1,6.6s5.1,41.3,14.4,62.7Z"/><line class="cls-2" x1="52.8" y1="228.5" x2="368.8" y2="228.5"/></g></svg>