<?xml version="1.0" encoding="UTF-8"?><svg id="Layer_2" xmlns="http://www.w3.org/2000/svg" xmlns:xlink="http://www.w3.org/1999/xlink" viewBox="0 0 387.7 236.2"><defs><style>.cls-1,.cls-2{fill:#333a4c;}.cls-3,.cls-4,.cls-5{fill:#fff;}.cls-3,.cls-6,.cls-7,.cls-8,.cls-2,.cls-9{stroke:#333a4c;}.cls-3,.cls-6,.cls-10,.cls-11,.cls-8,.cls-12,.cls-2,.cls-13,.cls-9{stroke-linecap:round;stroke-linejoin:round;}.cls-14{fill:#00ff41;}.cls-6{fill:#b28e59;}.cls-7,.cls-15{opacity:.4;stroke-miterlimit:10;}.cls-16{clip-path:url(#clippath-1);}.cls-10,.cls-11,.cls-9{fill:none;}.cls-10,.cls-12,.cls-15,.cls-13{stroke:#000;}.cls-11{stroke:#fff;stroke-width:.5px;}.cls-8{fill:#252a37;}.cls-17{clip-path:url(#clippath-3);}.cls-18,.cls-13{fill:#0045ff;}.cls-19{clip-path:url(#clippath-2);}.cls-5{opacity:.7;}.cls-20{clip-path:url(#clippath);}</style><clipPath id="clippath"><path class="cls-3" d="M163,38.2s.4,7-.8,10.3c-1.2,3.3-2.7,5.4-2.7,7s2.5,3.5,2.5,6.6-5.6,18-7.2,20.9c-1.5,2.9-1,3.9-2.9,4.1s-6.8-2.1-6.8-2.1c0,0-2.9.4-3.3,1.5-.4,1.2-1.4,5.2-1.4,5.2l-28.2-12.6s4.1-4.3,5.8-9.9c1.7-5.6-1-14.3-1-14.3,0,0-2.7-20.3,9.7-26.1,12.4-5.8,30.4-2.1,33.3.8,2.9,2.9,2.9,8.7,2.9,8.7Z"/></clipPath><clipPath id="clippath-1"><path class="cls-13" d="M106.5,82.9s-.3.2-.7.5c-2.7,1.9-12.8,8.8-20.4,14.8-8.9,7-9.5,19.9-9.9,30-.4,10.1-6.9,72.7-8.4,80.4-1.5,7.7,12.3,9.7,25.6,11.7,13.4,1.9,30.6-.2,38.9-4.1,8.3-3.9,10.3-3.7,10.3-7.9s.2-13.9.2-14.7,6-48.2,5.6-62.1c-.4-13.9.8-21.5-2.5-28.4-3.3-7-11.6-12.4-22.6-16.1s-16.1-4.1-16.1-4.1Z"/></clipPath><clipPath id="clippath-2"><path class="cls-13" d="M108.5,76.3l-5.2,8.7s15.7,3.7,23.8,7c8.1,3.3,19,12,19,12,0,0-1.7-9.9-3.3-12.4-1.5-2.5-17.6-11-24.2-13.5s-10.1-1.7-10.1-1.7Z"/></clipPath><clipPath id="clippath-3"><path class="cls-13" d="M129.8,122.8s-5.4,7.4-7.2,13.2c-1.7,5.8.4,14.1,1,16.1.6,1.9,31.5,62.9,34.8,68.9,3.3,6,7,6.4,9.7,5.4,2.7-1,33.9-23.2,35-24.4s6.4-5.6,6.4-5.6c0,0,1-6.2-3.3-9.5-4.3-3.3-6.4-1.5-6.4-1.5l-27.1,7.4s-15.3-52.6-17-62.7c-1.7-10.1,1-9.5-4.5-14.9-5.4-5.4-12-9.5-12-9.5"/></clipPath></defs><g id="Background_Simple"><path class="cls-18" d="M46.2,161s27.5,42.8,86.9,59.9c59.5,17,119.2,2.7,168.2-7.9,49-10.5,71.7-43.7,56.5-79.9-15.2-36.2-57.5-36.3-100.7-70.3C213.9,28.8,207.9,15.3,151.9,2.7,95.8-9.9,39.7,23.2,30.5,74.4c-9.3,51.2,15.8,86.6,15.8,86.6Z"/><path class="cls-5" d="M46.2,161s27.5,42.8,86.9,59.9c59.5,17,119.2,2.7,168.2-7.9,49-10.5,71.7-43.7,56.5-79.9-15.2-36.2-57.5-36.3-100.7-70.3C213.9,28.8,207.9,15.3,151.9,2.7,95.8-9.9,39.7,23.2,30.5,74.4c-9.3,51.2,15.8,86.6,15.8,86.6Z"/></g><g id="Plants"><path class="cls-1" d="M364.1,183.2c-3.6,4.5-5.4,7-6.2,8.2.7-3.9,2-8.8,4.1-14.6,1.4-3.8,2.2-7.6,2.5-11.4-.2,0-.3.2-.3.2l-.3-.6c.1,0,12.5-6.6,15.9-12.8l.6.3c-3.2,5.6-12.9,11.2-15.6,12.7,2.5-.2,10.4-1.4,15.1-7.2,5.6-7,4.7-15.6,4.7-15.6,0,0-10.6,7.3-15,13-2.7,3.6-4.3,6.6-5,8.4.2-4.6-.2-9.2-1-13.7,3.5-2.8,16.6-13.5,18-21.6,1.7-9.3-.7-25.2-.7-25.2,0,0-1.7,4.3-4.7,9.6-3,5.3-12.3,13.6-14,22.6-.5,2.5-.6,4.8-.7,6.8-1.5-5.2-3.4-10.2-5.4-14.7-.5-1.2-1-2.6-1.3-4h0s-.3-.2-.3-.2c0-.1,6-10.2,6-13.1h.7c0,2.7-4.6,10.8-5.8,12.9,2.1-1.3,5.5-3.8,6.8-7.8,1.9-5.9-.9-11.3-.9-11.3,0,0-5.1,7.4-6.4,12.2-.9,3-1.1,5.3-1.2,6.7-1-2.5-2.5-5.8-4.2-8.1-3-4-5-10-5-10,0,0-3.7,6.3-1,13,2.2,5.5,8.4,7.6,10.5,8.1.2.7.5,1.4.8,2.1,2.6,6.2,5.2,13.1,6.8,20.4-1.6-2.1-4.5-5.7-7.2-7.7-4-2.9-7.7-8.1-7.7-8.1,0,0-1.7,7.1,2.8,12.7,3.7,4.6,10.2,4.8,12.4,4.7,1.5,8,1.7,16.4-.9,24.6-.2-1.6-1.1-5.9-6.3-10.7-6.6-6.1-19.8-25.4-19.8-25.4,0,0,1.1,22.9,7.4,30.4,5.8,6.9,16.7,6.5,18.5,6.4-.1.4-.2.7-.4,1.1-4.2,11.2-5,19-5.1,23.2h-7.8v36.2h21.6v-36.2h-12.4c0-1.7.2-4.1.7-7-.1,0-.2,0-.2,0l-.2-.7c.1,0,13.7-3.9,23.1-13.6l.5.5c-7.6,7.9-17.9,11.9-21.8,13.2,3.9-.5,13.4-1.9,17.9-4.8,5.6-3.7,10.6-14.6,10.6-14.6,0,0-18.3,4-23.6,10.6ZM353.8,124.4c0,0-7-3.3-8.7-11.6h.7c1.6,7.9,8.2,11,8.3,11l-.3.6ZM363.4,150.2l-.2.2h-.3c-.4-.3-9.2-3.9-12.8-9.1l.6-.4c3.1,4.6,10.8,8,12.3,8.7,1.1-1.8,8.3-12.9,10.8-19.9l.6.2c-2.7,7.7-11,20.2-11.1,20.3ZM360.2,175c-.1,0-10.6-4-15.3-13.1l.6-.3c4.6,8.9,14.9,12.7,15,12.8l-.2.6Z"/></g><g id="Table"><rect class="cls-3" x="298.6" y="203.2" width="6.4" height="32.5"/><polygon class="cls-2" points="333.1 235.7 333.1 180.6 305.1 203.2 305.1 235.7 333.1 235.7"/><rect class="cls-3" x="79.7" y="203.2" width="6.4" height="32.5"/><polygon class="cls-2" points="114.1 235.7 114.1 180.6 86.1 203.2 86.1 235.7 114.1 235.7"/><polygon class="cls-3" points="312.8 208.9 54.9 208.9 54.8 206.8 353.6 175.4 353.6 177.6 312.8 208.9"/><polygon class="cls-3" points="312.8 206.8 54.9 206.8 120 175.4 353.6 175.4 312.8 206.8"/><polygon class="cls-2" points="312.8 208.9 312.8 206.8 353.6 175.4 353.6 177.6 312.8 208.9"/><path class="cls-1" d="M297.3,189.8s-4.4-.8-7.6.8c-2,1-3.7,4.5-4.8,6.9-.5,1.2.4,2.5,1.7,2.5h6c.5,0,1-.2,1.4-.6l6-6.7s-.3-2.6-2.6-2.9Z"/><path class="cls-11" d="M293.6,198.2s-.6-4.1,3.7-6.5"/><polygon class="cls-3" points="261.9 203.3 165.9 203.3 189.3 184.6 285.3 184.6 261.9 203.3"/><polygon class="cls-9" points="285.3 185.8 285.3 184.6 261.9 203.3 261.9 204.4 285.3 185.8"/><rect class="cls-3" x="165.9" y="203.3" width="96" height="1.2"/><polygon class="cls-9" points="197.2 195.2 194.2 197.7 200.5 197.7 203.6 195.2 197.2 195.2"/><polygon class="cls-9" points="203.6 195.2 200.5 197.7 206.8 197.7 209.9 195.2 203.6 195.2"/><polygon class="cls-9" points="190.9 195.2 187.8 197.7 194.2 197.7 197.2 195.2 190.9 195.2"/><polygon class="cls-9" points="200.3 192.7 194 192.7 190.9 195.2 197.2 195.2 200.3 192.7"/><polygon class="cls-9" points="206.7 192.7 209.7 190.2 203.4 190.2 200.3 192.7 206.7 192.7"/><polygon class="cls-9" points="203.4 190.2 197.1 190.2 194 192.7 200.3 192.7 203.4 190.2"/><polygon class="cls-9" points="209.9 195.2 206.8 197.7 213.2 197.7 216.3 195.2 209.9 195.2"/><polygon class="cls-9" points="241.6 195.2 238.5 197.7 244.9 197.7 247.9 195.2 241.6 195.2"/><polygon class="cls-9" points="213 192.7 216.1 190.2 209.7 190.2 206.7 192.7 213 192.7"/><polygon class="cls-9" points="216.3 195.2 213.2 197.7 219.5 197.7 222.6 195.2 216.3 195.2"/><polygon class="cls-9" points="251.2 197.7 257.5 197.7 260.6 195.2 254.3 195.2 251.2 197.7"/><polygon class="cls-9" points="254.3 195.2 260.6 195.2 263.7 192.7 257.4 192.7 254.3 195.2"/><polygon class="cls-9" points="247.9 195.2 244.9 197.7 251.2 197.7 254.3 195.2 247.9 195.2"/><polygon class="cls-9" points="235.3 195.2 232.2 197.7 238.5 197.7 241.6 195.2 235.3 195.2"/><polygon class="cls-9" points="222.6 195.2 219.5 197.7 225.8 197.7 228.9 195.2 222.6 195.2"/><polygon class="cls-9" points="228.9 195.2 225.8 197.7 232.2 197.7 235.3 195.2 228.9 195.2"/><polygon class="cls-9" points="238.3 192.7 241.4 190.2 235.1 190.2 232 192.7 238.3 192.7"/><polygon class="cls-9" points="244.7 192.7 241.6 195.2 247.9 195.2 251 192.7 244.7 192.7"/><polygon class="cls-9" points="232 192.7 228.9 195.2 235.3 195.2 238.3 192.7 232 192.7"/><polygon class="cls-9" points="219.3 192.7 216.3 195.2 222.6 195.2 225.7 192.7 219.3 192.7"/><polygon class="cls-9" points="238.3 192.7 235.3 195.2 241.6 195.2 244.7 192.7 238.3 192.7"/><polygon class="cls-9" points="219.3 192.7 222.4 190.2 216.1 190.2 213 192.7 219.3 192.7"/><polygon class="cls-9" points="200.3 192.7 197.2 195.2 203.6 195.2 206.7 192.7 200.3 192.7"/><polygon class="cls-9" points="213 192.7 209.9 195.2 216.3 195.2 219.3 192.7 213 192.7"/><polygon class="cls-9" points="206.7 192.7 203.6 195.2 209.9 195.2 213 192.7 206.7 192.7"/><polygon class="cls-9" points="225.7 192.7 222.6 195.2 228.9 195.2 232 192.7 225.7 192.7"/><polygon class="cls-9" points="232 192.7 235.1 190.2 228.8 190.2 225.7 192.7 232 192.7"/><polygon class="cls-9" points="257.4 192.7 263.7 192.7 266.8 190.2 260.4 190.2 257.4 192.7"/><polygon class="cls-9" points="225.7 192.7 228.8 190.2 222.4 190.2 219.3 192.7 225.7 192.7"/><polygon class="cls-9" points="251 192.7 254.1 190.2 247.8 190.2 244.7 192.7 251 192.7"/><polygon class="cls-9" points="257.4 192.7 260.4 190.2 254.1 190.2 251 192.7 257.4 192.7"/><polygon class="cls-9" points="247.9 195.2 254.3 195.2 257.4 192.7 251 192.7 247.9 195.2"/><polygon class="cls-9" points="244.7 192.7 247.8 190.2 241.4 190.2 238.3 192.7 244.7 192.7"/><polygon class="cls-9" points="225.8 197.7 222.8 200.2 229.1 200.2 232.2 197.7 225.8 197.7"/><polygon class="cls-9" points="232.2 197.7 229.1 200.2 235.4 200.2 238.5 197.7 232.2 197.7"/><polygon class="cls-9" points="219.5 197.7 216.4 200.2 222.8 200.2 225.8 197.7 219.5 197.7"/><polygon class="cls-9" points="238.5 197.7 235.4 200.2 241.8 200.2 244.9 197.7 238.5 197.7"/><polygon class="cls-9" points="213.2 197.7 210.1 200.2 216.4 200.2 219.5 197.7 213.2 197.7"/><polygon class="cls-9" points="206.8 197.7 203.7 200.2 210.1 200.2 213.2 197.7 206.8 197.7"/><polygon class="cls-9" points="244.9 197.7 241.8 200.2 248.1 200.2 251.2 197.7 244.9 197.7"/><polygon class="cls-9" points="194.2 197.7 191.1 200.2 197.4 200.2 200.5 197.7 194.2 197.7"/><polygon class="cls-9" points="200.5 197.7 197.4 200.2 203.7 200.2 206.8 197.7 200.5 197.7"/><polygon class="cls-9" points="260.6 195.2 266.9 195.2 270 192.7 263.7 192.7 260.6 195.2"/><polygon class="cls-9" points="269.9 187.8 266.8 190.2 273.1 190.2 276.2 187.8 269.9 187.8"/><polygon class="cls-9" points="263.7 192.7 270 192.7 273.1 190.2 266.8 190.2 263.7 192.7"/><polygon class="cls-9" points="187.8 197.7 184.7 200.2 191.1 200.2 194.2 197.7 187.8 197.7"/><polygon class="cls-9" points="251.2 197.7 248.1 200.2 254.4 200.2 257.5 197.7 251.2 197.7"/><polygon class="cls-9" points="254.4 200.2 260.8 200.2 263.9 197.7 257.5 197.7 254.4 200.2"/><polygon class="cls-9" points="257.5 197.7 263.9 197.7 266.9 195.2 260.6 195.2 257.5 197.7"/><polygon class="cls-9" points="194 192.7 187.7 192.7 184.6 195.2 190.9 195.2 194 192.7"/><polygon class="cls-9" points="235.1 190.2 238.2 187.8 231.8 187.8 228.8 190.2 235.1 190.2"/><polygon class="cls-9" points="241.4 190.2 244.5 187.8 238.2 187.8 235.1 190.2 241.4 190.2"/><polygon class="cls-9" points="228.8 190.2 231.8 187.8 225.5 187.8 222.4 190.2 228.8 190.2"/><polygon class="cls-9" points="247.8 190.2 250.9 187.8 244.5 187.8 241.4 190.2 247.8 190.2"/><polygon class="cls-9" points="260.4 190.2 263.5 187.8 257.2 187.8 254.1 190.2 260.4 190.2"/><polygon class="cls-9" points="254.1 190.2 257.2 187.8 250.9 187.8 247.8 190.2 254.1 190.2"/><polygon class="cls-9" points="222.4 190.2 225.5 187.8 219.2 187.8 216.1 190.2 222.4 190.2"/><polygon class="cls-9" points="190.9 195.2 184.6 195.2 181.5 197.7 187.8 197.7 190.9 195.2"/><polygon class="cls-9" points="197.1 190.2 190.7 190.2 187.7 192.7 194 192.7 197.1 190.2"/><polygon class="cls-9" points="266.8 190.2 269.9 187.8 263.5 187.8 260.4 190.2 266.8 190.2"/><polygon class="cls-9" points="181.5 197.7 178.4 200.2 184.7 200.2 187.8 197.7 181.5 197.7"/><polygon class="cls-9" points="200.2 187.8 193.8 187.8 190.7 190.2 197.1 190.2 200.2 187.8"/><polygon class="cls-9" points="209.7 190.2 212.8 187.8 206.5 187.8 203.4 190.2 209.7 190.2"/><polygon class="cls-9" points="203.4 190.2 206.5 187.8 200.2 187.8 197.1 190.2 203.4 190.2"/><polygon class="cls-9" points="216.1 190.2 219.2 187.8 212.8 187.8 209.7 190.2 216.1 190.2"/></g><g id="Device_3"><rect class="cls-3" x="270.3" y="157.4" width="6.1" height="17.8"/><rect class="cls-2" x="269.4" y="157.4" width="8" height="18"/><rect class="cls-3" x="219" y="80.2" width="109" height="78.8"/><rect class="cls-8" x="224.2" y="84.4" width="98.3" height="70.3"/><path class="cls-14" d="M230.8,89.2h-2.3c-.3,0-.6-.3-.6-.6s.3-.6.6-.6h2.3c.3,0,.6.3.6.6s-.3.6-.6.6ZM231.4,91.3c0-.3-.3-.6-.6-.6h-2.3c-.3,0-.6.3-.6.6s.3.6.6.6h2.3c.3,0,.6-.3.6-.6ZM231.4,94c0-.3-.3-.6-.6-.6h-2.3c-.3,0-.6.3-.6.6s.3.6.6.6h2.3c.3,0,.6-.3.6-.6ZM231.4,96.6c0-.3-.3-.6-.6-.6h-2.3c-.3,0-.6.3-.6.6s.3.6.6.6h2.3c.3,0,.6-.3.6-.6ZM231.4,99.2c0-.3-.3-.6-.6-.6h-2.3c-.3,0-.6.3-.6.6s.3.6.6.6h2.3c.3,0,.6-.3.6-.6ZM231.4,101.9c0-.3-.3-.6-.6-.6h-2.3c-.3,0-.6.3-.6.6s.3.6.6.6h2.3c.3,0,.6-.3.6-.6ZM231.4,104.5c0-.3-.3-.6-.6-.6h-2.3c-.3,0-.6.3-.6.6s.3.6.6.6h2.3c.3,0,.6-.3.6-.6ZM231.4,107.2c0-.3-.3-.6-.6-.6h-2.3c-.3,0-.6.3-.6.6s.3.6.6.6h2.3c.3,0,.6-.3.6-.6ZM240.1,88.7c0-.3-.3-.6-.6-.6h-6.1c-.3,0-.6.3-.6.6s.3.6.6.6h6.1c.3,0,.6-.3.6-.6ZM240.1,91.3c0-.3-.3-.6-.6-.6h-6.1c-.3,0-.6.3-.6.6s.3.6.6.6h6.1c.3,0,.6-.3.6-.6ZM240.1,94c0-.3-.3-.6-.6-.6h-6.1c-.3,0-.6.3-.6.6s.3.6.6.6h6.1c.3,0,.6-.3.6-.6ZM240.1,96.6c0-.3-.3-.6-.6-.6h-6.1c-.3,0-.6.3-.6.6s.3.6.6.6h6.1c.3,0,.6-.3.6-.6ZM240.1,99.2c0-.3-.3-.6-.6-.6h-6.1c-.3,0-.6.3-.6.6s.3.6.6.6h6.1c.3,0,.6-.3.6-.6ZM247.4,101.9c0-.3-.3-.6-.6-.6h-6.1c-.3,0-.6.3-.6.6s.3.6.6.6h6.1c.3,0,.6-.3.6-.6ZM247.4,104.5c0-.3-.3-.6-.6-.6h-6.1c-.3,0-.6.3-.6.6s.3.6.6.6h6.1c.3,0,.6-.3.6-.6ZM247.4,107.2c0-.3-.3-.6-.6-.6h-6.1c-.3,0-.6.3-.6.6s.3.6.6.6h6.1c.3,0,.6-.3.6-.6ZM242.8,88.7c0-.4-.3-.7-.7-.7s-.7.3-.7.7.3.7.7.7.7-.3.7-.7ZM244.8,88.7c0-.4-.3-.7-.7-.7s-.7.3-.7.7.3.7.7.7.7-.3.7-.7ZM246.8,88.7c0-.4-.3-.7-.7-.7s-.7.3-.7.7.3.7.7.7.7-.3.7-.7ZM248.8,88.7c0-.4-.3-.7-.7-.7s-.7.3-.7.7.3.7.7.7.7-.3.7-.7ZM250.8,88.7c0-.4-.3-.7-.7-.7s-.7.3-.7.7.3.7.7.7.7-.3.7-.7ZM252.8,88.7c0-.4-.3-.7-.7-.7s-.7.3-.7.7.3.7.7.7.7-.3.7-.7ZM242.8,94c0-.4-.3-.7-.7-.7s-.7.3-.7.7.3.7.7.7.7-.3.7-.7ZM244.8,94c0-.4-.3-.7-.7-.7s-.7.3-.7.7.3.7.7.7.7-.3.7-.7ZM246.8,94c0-.4-.3-.7-.7-.7s-.7.3-.7.7.3.7.7.7.7-.3.7-.7ZM248.8,94c0-.4-.3-.7-.7-.7s-.7.3-.7.7.3.7.7.7.7-.3.7-.7ZM250.8,94c0-.4-.3-.7-.7-.7s-.7.3-.7.7.3.7.7.7.7-.3.7-.7ZM252.8,94c0-.4-.3-.7-.7-.7s-.7.3-.7.7.3.7.7.7.7-.3.7-.7ZM249.6,101.6c0-.4-.3-.7-.7-.7s-.7.3-.7.7.3.7.7.7.7-.3.7-.7ZM251.6,101.6c0-.4-.3-.7-.7-.7s-.7.3-.7.7.3.7.7.7.7-.3.7-.7ZM253.6,101.6c0-.4-.3-.7-.7-.7s-.7.3-.7.7.3.7.7.7.7-.3.7-.7ZM255.6,101.6c0-.4-.3-.7-.7-.7s-.7.3-.7.7.3.7.7.7.7-.3.7-.7ZM257.6,101.6c0-.4-.3-.7-.7-.7s-.7.3-.7.7.3.7.7.7.7-.3.7-.7ZM259.6,101.6c0-.4-.3-.7-.7-.7s-.7.3-.7.7.3.7.7.7.7-.3.7-.7ZM249.6,107c0-.4-.3-.7-.7-.7s-.7.3-.7.7.3.7.7.7.7-.3.7-.7ZM251.6,107c0-.4-.3-.7-.7-.7s-.7.3-.7.7.3.7.7.7.7-.3.7-.7ZM253.6,107c0-.4-.3-.7-.7-.7s-.7.3-.7.7.3.7.7.7.7-.3.7-.7ZM255.6,107c0-.4-.3-.7-.7-.7s-.7.3-.7.7.3.7.7.7.7-.3.7-.7ZM257.6,107c0-.4-.3-.7-.7-.7s-.7.3-.7.7.3.7.7.7.7-.3.7-.7ZM259.6,107c0-.4-.3-.7-.7-.7s-.7.3-.7.7.3.7.7.7.7-.3.7-.7Z"/><path class="cls-14" d="M230.8,110.4h-2.3c-.3,0-.6-.3-.6-.6s.3-.6.6-.6h2.3c.3,0,.6.3.6.6s-.3.6-.6.6ZM231.4,112.5c0-.3-.3-.6-.6-.6h-2.3c-.3,0-.6.3-.6.6s.3.6.6.6h2.3c.3,0,.6-.3.6-.6ZM231.4,115.1c0-.3-.3-.6-.6-.6h-2.3c-.3,0-.6.3-.6.6s.3.6.6.6h2.3c.3,0,.6-.3.6-.6ZM231.4,117.8c0-.3-.3-.6-.6-.6h-2.3c-.3,0-.6.3-.6.6s.3.6.6.6h2.3c.3,0,.6-.3.6-.6ZM231.4,120.4c0-.3-.3-.6-.6-.6h-2.3c-.3,0-.6.3-.6.6s.3.6.6.6h2.3c.3,0,.6-.3.6-.6ZM231.4,123.1c0-.3-.3-.6-.6-.6h-2.3c-.3,0-.6.3-.6.6s.3.6.6.6h2.3c.3,0,.6-.3.6-.6ZM231.4,125.7c0-.3-.3-.6-.6-.6h-2.3c-.3,0-.6.3-.6.6s.3.6.6.6h2.3c.3,0,.6-.3.6-.6ZM231.4,128.4c0-.3-.3-.6-.6-.6h-2.3c-.3,0-.6.3-.6.6s.3.6.6.6h2.3c.3,0,.6-.3.6-.6ZM240.1,109.8c0-.3-.3-.6-.6-.6h-6.1c-.3,0-.6.3-.6.6s.3.6.6.6h6.1c.3,0,.6-.3.6-.6ZM240.1,112.5c0-.3-.3-.6-.6-.6h-6.1c-.3,0-.6.3-.6.6s.3.6.6.6h6.1c.3,0,.6-.3.6-.6ZM240.1,115.1c0-.3-.3-.6-.6-.6h-6.1c-.3,0-.6.3-.6.6s.3.6.6.6h6.1c.3,0,.6-.3.6-.6ZM240.1,117.8c0-.3-.3-.6-.6-.6h-6.1c-.3,0-.6.3-.6.6s.3.6.6.6h6.1c.3,0,.6-.3.6-.6ZM240.1,120.4c0-.3-.3-.6-.6-.6h-6.1c-.3,0-.6.3-.6.6s.3.6.6.6h6.1c.3,0,.6-.3.6-.6ZM247.4,123.1c0-.3-.3-.6-.6-.6h-6.1c-.3,0-.6.3-.6.6s.3.6.6.6h6.1c.3,0,.6-.3.6-.6ZM247.4,125.7c0-.3-.3-.6-.6-.6h-6.1c-.3,0-.6.3-.6.6s.3.6.6.6h6.1c.3,0,.6-.3.6-.6ZM247.4,128.4c0-.3-.3-.6-.6-.6h-6.1c-.3,0-.6.3-.6.6s.3.6.6.6h6.1c.3,0,.6-.3.6-.6ZM242.8,109.8c0-.4-.3-.7-.7-.7s-.7.3-.7.7.3.7.7.7.7-.3.7-.7ZM244.8,109.8c0-.4-.3-.7-.7-.7s-.7.3-.7.7.3.7.7.7.7-.3.7-.7ZM246.8,109.8c0-.4-.3-.7-.7-.7s-.7.3-.7.7.3.7.7.7.7-.3.7-.7ZM248.8,109.8c0-.4-.3-.7-.7-.7s-.7.3-.7.7.3.7.7.7.7-.3.7-.7ZM250.8,109.8c0-.4-.3-.7-.7-.7s-.7.3-.7.7.3.7.7.7.7-.3.7-.7ZM252.8,109.8c0-.4-.3-.7-.7-.7s-.7.3-.7.7.3.7.7.7.7-.3.7-.7ZM242.8,115.1c0-.4-.3-.7-.7-.7s-.7.3-.7.7.3.7.7.7.7-.3.7-.7ZM244.8,115.1c0-.4-.3-.7-.7-.7s-.7.3-.7.7.3.7.7.7.7-.3.7-.7ZM246.8,115.1c0-.4-.3-.7-.7-.7s-.7.3-.7.7.3.7.7.7.7-.3.7-.7ZM248.8,115.1c0-.4-.3-.7-.7-.7s-.7.3-.7.7.3.7.7.7.7-.3.7-.7ZM250.8,115.1c0-.4-.3-.7-.7-.7s-.7.3-.7.7.3.7.7.7.7-.3.7-.7ZM252.8,115.1c0-.4-.3-.7-.7-.7s-.7.3-.7.7.3.7.7.7.7-.3.7-.7ZM249.6,122.8c0-.4-.3-.7-.7-.7s-.7.3-.7.7.3.7.7.7.7-.3.7-.7ZM251.6,122.8c0-.4-.3-.7-.7-.7s-.7.3-.7.7.3.7.7.7.7-.3.7-.7ZM253.6,122.8c0-.4-.3-.7-.7-.7s-.7.3-.7.7.3.7.7.7.7-.3.7-.7ZM255.6,122.8c0-.4-.3-.7-.7-.7s-.7.3-.7.7.3.7.7.7.7-.3.7-.7ZM257.6,122.8c0-.4-.3-.7-.7-.7s-.7.3-.7.7.3.7.7.7.7-.3.7-.7ZM259.6,122.8c0-.4-.3-.7-.7-.7s-.7.3-.7.7.3.7.7.7.7-.3.7-.7ZM249.6,128.2c0-.4-.3-.7-.7-.7s-.7.3-.7.7.3.7.7.7.7-.3.7-.7ZM251.6,128.2c0-.4-.3-.7-.7-.7s-.7.3-.7.7.3.7.7.7.7-.3.7-.7ZM253.6,128.2c0-.4-.3-.7-.7-.7s-.7.3-.7.7.3.7.7.7.7-.3.7-.7ZM255.6,128.2c0-.4-.3-.7-.7-.7s-.7.3-.7.7.3.7.7.7.7-.3.7-.7ZM257.6,128.2c0-.4-.3-.7-.7-.7s-.7.3-.7.7.3.7.7.7.7-.3.7-.7ZM259.6,128.2c0-.4-.3-.7-.7-.7s-.7.3-.7.7.3.7.7.7.7-.3.7-.7Z"/><path class="cls-14" d="M230.8,132.1h-2.3c-.3,0-.6-.3-.6-.6s.3-.6.6-.6h2.3c.3,0,.6.3.6.6s-.3.6-.6.6ZM231.4,134.2c0-.3-.3-.6-.6-.6h-2.3c-.3,0-.6.3-.6.6s.3.6.6.6h2.3c.3,0,.6-.3.6-.6ZM231.4,136.9c0-.3-.3-.6-.6-.6h-2.3c-.3,0-.6.3-.6.6s.3.6.6.6h2.3c.3,0,.6-.3.6-.6ZM231.4,139.5c0-.3-.3-.6-.6-.6h-2.3c-.3,0-.6.3-.6.6s.3.6.6.6h2.3c.3,0,.6-.3.6-.6ZM231.4,142.1c0-.3-.3-.6-.6-.6h-2.3c-.3,0-.6.3-.6.6s.3.6.6.6h2.3c.3,0,.6-.3.6-.6ZM231.4,144.8c0-.3-.3-.6-.6-.6h-2.3c-.3,0-.6.3-.6.6s.3.6.6.6h2.3c.3,0,.6-.3.6-.6ZM231.4,147.4c0-.3-.3-.6-.6-.6h-2.3c-.3,0-.6.3-.6.6s.3.6.6.6h2.3c.3,0,.6-.3.6-.6ZM231.4,150.1c0-.3-.3-.6-.6-.6h-2.3c-.3,0-.6.3-.6.6s.3.6.6.6h2.3c.3,0,.6-.3.6-.6ZM240.1,131.6c0-.3-.3-.6-.6-.6h-6.1c-.3,0-.6.3-.6.6s.3.6.6.6h6.1c.3,0,.6-.3.6-.6ZM240.1,134.2c0-.3-.3-.6-.6-.6h-6.1c-.3,0-.6.3-.6.6s.3.6.6.6h6.1c.3,0,.6-.3.6-.6ZM240.1,136.9c0-.3-.3-.6-.6-.6h-6.1c-.3,0-.6.3-.6.6s.3.6.6.6h6.1c.3,0,.6-.3.6-.6ZM240.1,139.5c0-.3-.3-.6-.6-.6h-6.1c-.3,0-.6.3-.6.6s.3.6.6.6h6.1c.3,0,.6-.3.6-.6ZM240.1,142.1c0-.3-.3-.6-.6-.6h-6.1c-.3,0-.6.3-.6.6s.3.6.6.6h6.1c.3,0,.6-.3.6-.6ZM247.4,144.8c0-.3-.3-.6-.6-.6h-6.1c-.3,0-.6.3-.6.6s.3.6.6.6h6.1c.3,0,.6-.3.6-.6ZM247.4,147.4c0-.3-.3-.6-.6-.6h-6.1c-.3,0-.6.3-.6.6s.3.6.6.6h6.1c.3,0,.6-.3.6-.6ZM247.4,150.1c0-.3-.3-.6-.6-.6h-6.1c-.3,0-.6.3-.6.6s.3.6.6.6h6.1c.3,0,.6-.3.6-.6ZM242.8,131.6c0-.4-.3-.7-.7-.7s-.7.3-.7.7.3.7.7.7.7-.3.7-.7ZM244.8,131.6c0-.4-.3-.7-.7-.7s-.7.3-.7.7.3.7.7.7.7-.3.7-.7ZM246.8,131.6c0-.4-.3-.7-.7-.7s-.7.3-.7.7.3.7.7.7.7-.3.7-.7ZM248.8,131.6c0-.4-.3-.7-.7-.7s-.7.3-.7.7.3.7.7.7.7-.3.7-.7ZM250.8,131.6c0-.4-.3-.7-.7-.7s-.7.3-.7.7.3.7.7.7.7-.3.7-.7ZM252.8,131.6c0-.4-.3-.7-.7-.7s-.7.3-.7.7.3.7.7.7.7-.3.7-.7ZM242.8,136.9c0-.4-.3-.7-.7-.7s-.7.3-.7.7.3.7.7.7.7-.3.7-.7ZM244.8,136.9c0-.4-.3-.7-.7-.7s-.7.3-.7.7.3.7.7.7.7-.3.7-.7ZM246.8,136.9c0-.4-.3-.7-.7-.7s-.7.3-.7.7.3.7.7.7.7-.3.7-.7ZM248.8,136.9c0-.4-.3-.7-.7-.7s-.7.3-.7.7.3.7.7.7.7-.3.7-.7ZM250.8,136.9c0-.4-.3-.7-.7-.7s-.7.3-.7.7.3.7.7.7.7-.3.7-.7ZM252.8,136.9c0-.4-.3-.7-.7-.7s-.7.3-.7.7.3.7.7.7.7-.3.7-.7ZM249.6,144.5c0-.4-.3-.7-.7-.7s-.7.3-.7.7.3.7.7.7.7-.3.7-.7ZM251.6,144.5c0-.4-.3-.7-.7-.7s-.7.3-.7.7.3.7.7.7.7-.3.7-.7ZM253.6,144.5c0-.4-.3-.7-.7-.7s-.7.3-.7.7.3.7.7.7.7-.3.7-.7ZM255.6,144.5c0-.4-.3-.7-.7-.7s-.7.3-.7.7.3.7.7.7.7-.3.7-.7ZM257.6,144.5c0-.4-.3-.7-.7-.7s-.7.3-.7.7.3.7.7.7.7-.3.7-.7ZM259.6,144.5c0-.4-.3-.7-.7-.7s-.7.3-.7.7.3.7.7.7.7-.3.7-.7ZM249.6,149.9c0-.4-.3-.7-.7-.7s-.7.3-.7.7.3.7.7.7.7-.3.7-.7ZM251.6,149.9c0-.4-.3-.7-.7-.7s-.7.3-.7.7.3.7.7.7.7-.3.7-.7ZM253.6,149.9c0-.4-.3-.7-.7-.7s-.7.3-.7.7.3.7.7.7.7-.3.7-.7ZM255.6,149.9c0-.4-.3-.7-.7-.7s-.7.3-.7.7.3.7.7.7.7-.3.7-.7ZM257.6,149.9c0-.4-.3-.7-.7-.7s-.7.3-.7.7.3.7.7.7.7-.3.7-.7ZM259.6,149.9c0-.4-.3-.7-.7-.7s-.7.3-.7.7.3.7.7.7.7-.3.7-.7Z"/><path class="cls-14" d="M266.6,89.2h-2.3c-.3,0-.6-.3-.6-.6s.3-.6.6-.6h2.3c.3,0,.6.3.6.6s-.3.6-.6.6ZM267.1,91.3c0-.3-.3-.6-.6-.6h-2.3c-.3,0-.6.3-.6.6s.3.6.6.6h2.3c.3,0,.6-.3.6-.6ZM267.1,94c0-.3-.3-.6-.6-.6h-2.3c-.3,0-.6.3-.6.6s.3.6.6.6h2.3c.3,0,.6-.3.6-.6ZM267.1,96.6c0-.3-.3-.6-.6-.6h-2.3c-.3,0-.6.3-.6.6s.3.6.6.6h2.3c.3,0,.6-.3.6-.6ZM267.1,99.2c0-.3-.3-.6-.6-.6h-2.3c-.3,0-.6.3-.6.6s.3.6.6.6h2.3c.3,0,.6-.3.6-.6ZM267.1,101.9c0-.3-.3-.6-.6-.6h-2.3c-.3,0-.6.3-.6.6s.3.6.6.6h2.3c.3,0,.6-.3.6-.6ZM267.1,104.5c0-.3-.3-.6-.6-.6h-2.3c-.3,0-.6.3-.6.6s.3.6.6.6h2.3c.3,0,.6-.3.6-.6ZM267.1,107.2c0-.3-.3-.6-.6-.6h-2.3c-.3,0-.6.3-.6.6s.3.6.6.6h2.3c.3,0,.6-.3.6-.6ZM275.8,88.7c0-.3-.3-.6-.6-.6h-6.1c-.3,0-.6.3-.6.6s.3.6.6.6h6.1c.3,0,.6-.3.6-.6ZM275.8,91.3c0-.3-.3-.6-.6-.6h-6.1c-.3,0-.6.3-.6.6s.3.6.6.6h6.1c.3,0,.6-.3.6-.6ZM275.8,94c0-.3-.3-.6-.6-.6h-6.1c-.3,0-.6.3-.6.6s.3.6.6.6h6.1c.3,0,.6-.3.6-.6ZM275.8,96.6c0-.3-.3-.6-.6-.6h-6.1c-.3,0-.6.3-.6.6s.3.6.6.6h6.1c.3,0,.6-.3.6-.6ZM275.8,99.2c0-.3-.3-.6-.6-.6h-6.1c-.3,0-.6.3-.6.6s.3.6.6.6h6.1c.3,0,.6-.3.6-.6ZM283.2,101.9c0-.3-.3-.6-.6-.6h-6.1c-.3,0-.6.3-.6.6s.3.6.6.6h6.1c.3,0,.6-.3.6-.6ZM283.2,104.5c0-.3-.3-.6-.6-.6h-6.1c-.3,0-.6.3-.6.6s.3.6.6.6h6.1c.3,0,.6-.3.6-.6ZM283.2,107.2c0-.3-.3-.6-.6-.6h-6.1c-.3,0-.6.3-.6.6s.3.6.6.6h6.1c.3,0,.6-.3.6-.6ZM278.5,88.7c0-.4-.3-.7-.7-.7s-.7.3-.7.7.3.7.7.7.7-.3.7-.7ZM280.5,88.7c0-.4-.3-.7-.7-.7s-.7.3-.7.7.3.7.7.7.7-.3.7-.7ZM282.5,88.7c0-.4-.3-.7-.7-.7s-.7.3-.7.7.3.7.7.7.7-.3.7-.7ZM284.5,88.7c0-.4-.3-.7-.7-.7s-.7.3-.7.7.3.7.7.7.7-.3.7-.7ZM286.5,88.7c0-.4-.3-.7-.7-.7s-.7.3-.7.7.3.7.7.7.7-.3.7-.7ZM288.5,88.7c0-.4-.3-.7-.7-.7s-.7.3-.7.7.3.7.7.7.7-.3.7-.7ZM278.5,94c0-.4-.3-.7-.7-.7s-.7.3-.7.7.3.7.7.7.7-.3.7-.7ZM280.5,94c0-.4-.3-.7-.7-.7s-.7.3-.7.7.3.7.7.7.7-.3.7-.7ZM282.5,94c0-.4-.3-.7-.7-.7s-.7.3-.7.7.3.7.7.7.7-.3.7-.7ZM284.5,94c0-.4-.3-.7-.7-.7s-.7.3-.7.7.3.7.7.7.7-.3.7-.7ZM286.5,94c0-.4-.3-.7-.7-.7s-.7.3-.7.7.3.7.7.7.7-.3.7-.7ZM288.5,94c0-.4-.3-.7-.7-.7s-.7.3-.7.7.3.7.7.7.7-.3.7-.7ZM285.4,101.6c0-.4-.3-.7-.7-.7s-.7.3-.7.7.3.7.7.7.7-.3.7-.7ZM287.3,101.6c0-.4-.3-.7-.7-.7s-.7.3-.7.7.3.7.7.7.7-.3.7-.7ZM289.3,101.6c0-.4-.3-.7-.7-.7s-.7.3-.7.7.3.7.7.7.7-.3.7-.7ZM291.3,101.6c0-.4-.3-.7-.7-.7s-.7.3-.7.7.3.7.7.7.7-.3.7-.7ZM293.3,101.6c0-.4-.3-.7-.7-.7s-.7.3-.7.7.3.7.7.7.7-.3.7-.7ZM295.3,101.6c0-.4-.3-.7-.7-.7s-.7.3-.7.7.3.7.7.7.7-.3.7-.7ZM285.4,107c0-.4-.3-.7-.7-.7s-.7.3-.7.7.3.7.7.7.7-.3.7-.7ZM287.3,107c0-.4-.3-.7-.7-.7s-.7.3-.7.7.3.7.7.7.7-.3.7-.7ZM289.3,107c0-.4-.3-.7-.7-.7s-.7.3-.7.7.3.7.7.7.7-.3.7-.7ZM291.3,107c0-.4-.3-.7-.7-.7s-.7.3-.7.7.3.7.7.7.7-.3.7-.7ZM293.3,107c0-.4-.3-.7-.7-.7s-.7.3-.7.7.3.7.7.7.7-.3.7-.7ZM295.3,107c0-.4-.3-.7-.7-.7s-.7.3-.7.7.3.7.7.7.7-.3.7-.7Z"/><path class="cls-14" d="M266.6,110.9h-2.3c-.3,0-.6-.3-.6-.6s.3-.6.6-.6h2.3c.3,0,.6.3.6.6s-.3.6-.6.6ZM267.1,113c0-.3-.3-.6-.6-.6h-2.3c-.3,0-.6.3-.6.6s.3.6.6.6h2.3c.3,0,.6-.3.6-.6ZM267.1,115.7c0-.3-.3-.6-.6-.6h-2.3c-.3,0-.6.3-.6.6s.3.6.6.6h2.3c.3,0,.6-.3.6-.6ZM267.1,118.3c0-.3-.3-.6-.6-.6h-2.3c-.3,0-.6.3-.6.6s.3.6.6.6h2.3c.3,0,.6-.3.6-.6ZM267.1,121c0-.3-.3-.6-.6-.6h-2.3c-.3,0-.6.3-.6.6s.3.6.6.6h2.3c.3,0,.6-.3.6-.6ZM267.1,123.6c0-.3-.3-.6-.6-.6h-2.3c-.3,0-.6.3-.6.6s.3.6.6.6h2.3c.3,0,.6-.3.6-.6ZM267.1,126.3c0-.3-.3-.6-.6-.6h-2.3c-.3,0-.6.3-.6.6s.3.6.6.6h2.3c.3,0,.6-.3.6-.6ZM267.1,128.9c0-.3-.3-.6-.6-.6h-2.3c-.3,0-.6.3-.6.6s.3.6.6.6h2.3c.3,0,.6-.3.6-.6ZM275.8,110.4c0-.3-.3-.6-.6-.6h-6.1c-.3,0-.6.3-.6.6s.3.6.6.6h6.1c.3,0,.6-.3.6-.6ZM275.8,113c0-.3-.3-.6-.6-.6h-6.1c-.3,0-.6.3-.6.6s.3.6.6.6h6.1c.3,0,.6-.3.6-.6ZM275.8,115.7c0-.3-.3-.6-.6-.6h-6.1c-.3,0-.6.3-.6.6s.3.6.6.6h6.1c.3,0,.6-.3.6-.6ZM275.8,118.3c0-.3-.3-.6-.6-.6h-6.1c-.3,0-.6.3-.6.6s.3.6.6.6h6.1c.3,0,.6-.3.6-.6ZM275.8,121c0-.3-.3-.6-.6-.6h-6.1c-.3,0-.6.3-.6.6s.3.6.6.6h6.1c.3,0,.6-.3.6-.6ZM283.2,123.6c0-.3-.3-.6-.6-.6h-6.1c-.3,0-.6.3-.6.6s.3.6.6.6h6.1c.3,0,.6-.3.6-.6ZM283.2,126.3c0-.3-.3-.6-.6-.6h-6.1c-.3,0-.6.3-.6.6s.3.6.6.6h6.1c.3,0,.6-.3.6-.6ZM283.2,128.9c0-.3-.3-.6-.6-.6h-6.1c-.3,0-.6.3-.6.6s.3.6.6.6h6.1c.3,0,.6-.3.6-.6ZM278.5,110.4c0-.4-.3-.7-.7-.7s-.7.3-.7.7.3.7.7.7.7-.3.7-.7ZM280.5,110.4c0-.4-.3-.7-.7-.7s-.7.3-.7.7.3.7.7.7.7-.3.7-.7ZM282.5,110.4c0-.4-.3-.7-.7-.7s-.7.3-.7.7.3.7.7.7.7-.3.7-.7ZM284.5,110.4c0-.4-.3-.7-.7-.7s-.7.3-.7.7.3.7.7.7.7-.3.7-.7ZM286.5,110.4c0-.4-.3-.7-.7-.7s-.7.3-.7.7.3.7.7.7.7-.3.7-.7ZM288.5,110.4c0-.4-.3-.7-.7-.7s-.7.3-.7.7.3.7.7.7.7-.3.7-.7ZM278.5,115.7c0-.4-.3-.7-.7-.7s-.7.3-.7.7.3.7.7.7.7-.3.7-.7ZM280.5,115.7c0-.4-.3-.7-.7-.7s-.7.3-.7.7.3.7.7.7.7-.3.7-.7ZM282.5,115.7c0-.4-.3-.7-.7-.7s-.7.3-.7.7.3.7.7.7.7-.3.7-.7ZM284.5,115.7c0-.4-.3-.7-.7-.7s-.7.3-.7.7.3.7.7.7.7-.3.7-.7ZM286.5,115.7c0-.4-.3-.7-.7-.7s-.7.3-.7.7.3.7.7.7.7-.3.7-.7ZM288.5,115.7c0-.4-.3-.7-.7-.7s-.7.3-.7.7.3.7.7.7.7-.3.7-.7ZM285.4,123.3c0-.4-.3-.7-.7-.7s-.7.3-.7.7.3.7.7.7.7-.3.7-.7ZM287.3,123.3c0-.4-.3-.7-.7-.7s-.7.3-.7.7.3.7.7.7.7-.3.7-.7ZM289.3,123.3c0-.4-.3-.7-.7-.7s-.7.3-.7.7.3.7.7.7.7-.3.7-.7ZM291.3,123.3c0-.4-.3-.7-.7-.7s-.7.3-.7.7.3.7.7.7.7-.3.7-.7ZM293.3,123.3c0-.4-.3-.7-.7-.7s-.7.3-.7.7.3.7.7.7.7-.3.7-.7ZM295.3,123.3c0-.4-.3-.7-.7-.7s-.7.3-.7.7.3.7.7.7.7-.3.7-.7ZM285.4,128.7c0-.4-.3-.7-.7-.7s-.7.3-.7.7.3.7.7.7.7-.3.7-.7ZM287.3,128.7c0-.4-.3-.7-.7-.7s-.7.3-.7.7.3.7.7.7.7-.3.7-.7ZM289.3,128.7c0-.4-.3-.7-.7-.7s-.7.3-.7.7.3.7.7.7.7-.3.7-.7ZM291.3,128.7c0-.4-.3-.7-.7-.7s-.7.3-.7.7.3.7.7.7.7-.3.7-.7ZM293.3,128.7c0-.4-.3-.7-.7-.7s-.7.3-.7.7.3.7.7.7.7-.3.7-.7ZM295.3,128.7c0-.4-.3-.7-.7-.7s-.7.3-.7.7.3.7.7.7.7-.3.7-.7Z"/></g><g id="Device_1"><rect class="cls-2" x="157.3" y="157.2" width="8.6" height="16.8"/><rect class="cls-3" x="109.7" y="80.2" width="109" height="78.8"/><rect class="cls-8" x="115.5" y="84.4" width="97.3" height="70.3"/><path class="cls-14" d="M137.1,89.2h-2.5c-.3,0-.6-.3-.6-.6s.3-.6.6-.6h2.5c.3,0,.6.3.6.6s-.3.6-.6.6ZM137.7,91.3c0-.3-.3-.6-.6-.6h-2.5c-.3,0-.6.3-.6.6s.3.6.6.6h2.5c.3,0,.6-.3.6-.6ZM137.7,94c0-.3-.3-.6-.6-.6h-2.5c-.3,0-.6.3-.6.6s.3.6.6.6h2.5c.3,0,.6-.3.6-.6ZM137.7,96.6c0-.3-.3-.6-.6-.6h-2.5c-.3,0-.6.3-.6.6s.3.6.6.6h2.5c.3,0,.6-.3.6-.6ZM137.7,99.2c0-.3-.3-.6-.6-.6h-2.5c-.3,0-.6.3-.6.6s.3.6.6.6h2.5c.3,0,.6-.3.6-.6ZM137.7,101.9c0-.3-.3-.6-.6-.6h-2.5c-.3,0-.6.3-.6.6s.3.6.6.6h2.5c.3,0,.6-.3.6-.6ZM137.7,104.5c0-.3-.3-.6-.6-.6h-2.5c-.3,0-.6.3-.6.6s.3.6.6.6h2.5c.3,0,.6-.3.6-.6ZM137.7,107.2c0-.3-.3-.6-.6-.6h-2.5c-.3,0-.6.3-.6.6s.3.6.6.6h2.5c.3,0,.6-.3.6-.6ZM147.1,88.7c0-.3-.3-.6-.6-.6h-6.6c-.3,0-.6.3-.6.6s.3.6.6.6h6.6c.3,0,.6-.3.6-.6ZM147.1,91.3c0-.3-.3-.6-.6-.6h-6.6c-.3,0-.6.3-.6.6s.3.6.6.6h6.6c.3,0,.6-.3.6-.6ZM147.1,94c0-.3-.3-.6-.6-.6h-6.6c-.3,0-.6.3-.6.6s.3.6.6.6h6.6c.3,0,.6-.3.6-.6ZM147.1,96.6c0-.3-.3-.6-.6-.6h-6.6c-.3,0-.6.3-.6.6s.3.6.6.6h6.6c.3,0,.6-.3.6-.6ZM147.1,99.2c0-.3-.3-.6-.6-.6h-6.6c-.3,0-.6.3-.6.6s.3.6.6.6h6.6c.3,0,.6-.3.6-.6ZM155,101.9c0-.3-.3-.6-.6-.6h-6.6c-.3,0-.6.3-.6.6s.3.6.6.6h6.6c.3,0,.6-.3.6-.6ZM155,104.5c0-.3-.3-.6-.6-.6h-6.6c-.3,0-.6.3-.6.6s.3.6.6.6h6.6c.3,0,.6-.3.6-.6ZM155,107.2c0-.3-.3-.6-.6-.6h-6.6c-.3,0-.6.3-.6.6s.3.6.6.6h6.6c.3,0,.6-.3.6-.6ZM150,88.7c0-.4-.3-.7-.7-.7s-.7.3-.7.7.3.7.7.7.7-.3.7-.7ZM152.2,88.7c0-.4-.3-.7-.7-.7s-.7.3-.7.7.3.7.7.7.7-.3.7-.7ZM154.3,88.7c0-.4-.3-.7-.7-.7s-.7.3-.7.7.3.7.7.7.7-.3.7-.7ZM156.5,88.7c0-.4-.3-.7-.7-.7s-.7.3-.7.7.3.7.7.7.7-.3.7-.7ZM158.6,88.7c0-.4-.3-.7-.7-.7s-.7.3-.7.7.3.7.7.7.7-.3.7-.7ZM160.8,88.7c0-.4-.3-.7-.7-.7s-.7.3-.7.7.3.7.7.7.7-.3.7-.7ZM150,94c0-.4-.3-.7-.7-.7s-.7.3-.7.7.3.7.7.7.7-.3.7-.7ZM152.2,94c0-.4-.3-.7-.7-.7s-.7.3-.7.7.3.7.7.7.7-.3.7-.7ZM154.3,94c0-.4-.3-.7-.7-.7s-.7.3-.7.7.3.7.7.7.7-.3.7-.7ZM156.5,94c0-.4-.3-.7-.7-.7s-.7.3-.7.7.3.7.7.7.7-.3.7-.7ZM158.6,94c0-.4-.3-.7-.7-.7s-.7.3-.7.7.3.7.7.7.7-.3.7-.7ZM160.8,94c0-.4-.3-.7-.7-.7s-.7.3-.7.7.3.7.7.7.7-.3.7-.7ZM157.4,101.6c0-.4-.3-.7-.7-.7s-.7.3-.7.7.3.7.7.7.7-.3.7-.7ZM159.5,101.6c0-.4-.3-.7-.7-.7s-.7.3-.7.7.3.7.7.7.7-.3.7-.7ZM161.7,101.6c0-.4-.3-.7-.7-.7s-.7.3-.7.7.3.7.7.7.7-.3.7-.7ZM163.8,101.6c0-.4-.3-.7-.7-.7s-.7.3-.7.7.3.7.7.7.7-.3.7-.7ZM166,101.6c0-.4-.3-.7-.7-.7s-.7.3-.7.7.3.7.7.7.7-.3.7-.7ZM168.1,101.6c0-.4-.3-.7-.7-.7s-.7.3-.7.7.3.7.7.7.7-.3.7-.7ZM157.4,107c0-.4-.3-.7-.7-.7s-.7.3-.7.7.3.7.7.7.7-.3.7-.7ZM159.5,107c0-.4-.3-.7-.7-.7s-.7.3-.7.7.3.7.7.7.7-.3.7-.7ZM161.7,107c0-.4-.3-.7-.7-.7s-.7.3-.7.7.3.7.7.7.7-.3.7-.7ZM163.8,107c0-.4-.3-.7-.7-.7s-.7.3-.7.7.3.7.7.7.7-.3.7-.7ZM166,107c0-.4-.3-.7-.7-.7s-.7.3-.7.7.3.7.7.7.7-.3.7-.7ZM168.1,107c0-.4-.3-.7-.7-.7s-.7.3-.7.7.3.7.7.7.7-.3.7-.7Z"/><path class="cls-14" d="M137.1,110.4h-2.5c-.3,0-.6-.3-.6-.6s.3-.6.6-.6h2.5c.3,0,.6.3.6.6s-.3.6-.6.6ZM137.7,112.5c0-.3-.3-.6-.6-.6h-2.5c-.3,0-.6.3-.6.6s.3.6.6.6h2.5c.3,0,.6-.3.6-.6ZM137.7,115.1c0-.3-.3-.6-.6-.6h-2.5c-.3,0-.6.3-.6.6s.3.6.6.6h2.5c.3,0,.6-.3.6-.6ZM137.7,117.8c0-.3-.3-.6-.6-.6h-2.5c-.3,0-.6.3-.6.6s.3.6.6.6h2.5c.3,0,.6-.3.6-.6ZM137.7,120.4c0-.3-.3-.6-.6-.6h-2.5c-.3,0-.6.3-.6.6s.3.6.6.6h2.5c.3,0,.6-.3.6-.6ZM137.7,123.1c0-.3-.3-.6-.6-.6h-2.5c-.3,0-.6.3-.6.6s.3.6.6.6h2.5c.3,0,.6-.3.6-.6ZM137.7,125.7c0-.3-.3-.6-.6-.6h-2.5c-.3,0-.6.3-.6.6s.3.6.6.6h2.5c.3,0,.6-.3.6-.6ZM137.7,128.4c0-.3-.3-.6-.6-.6h-2.5c-.3,0-.6.3-.6.6s.3.6.6.6h2.5c.3,0,.6-.3.6-.6ZM147.1,109.8c0-.3-.3-.6-.6-.6h-6.6c-.3,0-.6.3-.6.6s.3.6.6.6h6.6c.3,0,.6-.3.6-.6ZM147.1,112.5c0-.3-.3-.6-.6-.6h-6.6c-.3,0-.6.3-.6.6s.3.6.6.6h6.6c.3,0,.6-.3.6-.6ZM147.1,115.1c0-.3-.3-.6-.6-.6h-6.6c-.3,0-.6.3-.6.6s.3.6.6.6h6.6c.3,0,.6-.3.6-.6ZM147.1,117.8c0-.3-.3-.6-.6-.6h-6.6c-.3,0-.6.3-.6.6s.3.6.6.6h6.6c.3,0,.6-.3.6-.6ZM147.1,120.4c0-.3-.3-.6-.6-.6h-6.6c-.3,0-.6.3-.6.6s.3.6.6.6h6.6c.3,0,.6-.3.6-.6ZM155,123.1c0-.3-.3-.6-.6-.6h-6.6c-.3,0-.6.3-.6.6s.3.6.6.6h6.6c.3,0,.6-.3.6-.6ZM155,125.7c0-.3-.3-.6-.6-.6h-6.6c-.3,0-.6.3-.6.6s.3.6.6.6h6.6c.3,0,.6-.3.6-.6ZM155,128.4c0-.3-.3-.6-.6-.6h-6.6c-.3,0-.6.3-.6.6s.3.6.6.6h6.6c.3,0,.6-.3.6-.6ZM150,109.8c0-.4-.3-.7-.7-.7s-.7.3-.7.7.3.7.7.7.7-.3.7-.7ZM152.2,109.8c0-.4-.3-.7-.7-.7s-.7.3-.7.7.3.7.7.7.7-.3.7-.7ZM154.3,109.8c0-.4-.3-.7-.7-.7s-.7.3-.7.7.3.7.7.7.7-.3.7-.7ZM156.5,109.8c0-.4-.3-.7-.7-.7s-.7.3-.7.7.3.7.7.7.7-.3.7-.7ZM158.6,109.8c0-.4-.3-.7-.7-.7s-.7.3-.7.7.3.7.7.7.7-.3.7-.7ZM160.8,109.8c0-.4-.3-.7-.7-.7s-.7.3-.7.7.3.7.7.7.7-.3.7-.7ZM150,115.1c0-.4-.3-.7-.7-.7s-.7.3-.7.7.3.7.7.7.7-.3.7-.7ZM152.2,115.1c0-.4-.3-.7-.7-.7s-.7.3-.7.7.3.7.7.7.7-.3.7-.7ZM154.3,115.1c0-.4-.3-.7-.7-.7s-.7.3-.7.7.3.7.7.7.7-.3.7-.7ZM156.5,115.1c0-.4-.3-.7-.7-.7s-.7.3-.7.7.3.7.7.7.7-.3.7-.7ZM158.6,115.1c0-.4-.3-.7-.7-.7s-.7.3-.7.7.3.7.7.7.7-.3.7-.7ZM160.8,115.1c0-.4-.3-.7-.7-.7s-.7.3-.7.7.3.7.7.7.7-.3.7-.7ZM157.4,122.8c0-.4-.3-.7-.7-.7s-.7.3-.7.7.3.7.7.7.7-.3.7-.7ZM159.5,122.8c0-.4-.3-.7-.7-.7s-.7.3-.7.7.3.7.7.7.7-.3.7-.7ZM161.7,122.8c0-.4-.3-.7-.7-.7s-.7.3-.7.7.3.7.7.7.7-.3.7-.7ZM163.8,122.8c0-.4-.3-.7-.7-.7s-.7.3-.7.7.3.7.7.7.7-.3.7-.7ZM166,122.8c0-.4-.3-.7-.7-.7s-.7.3-.7.7.3.7.7.7.7-.3.7-.7ZM168.1,122.8c0-.4-.3-.7-.7-.7s-.7.3-.7.7.3.7.7.7.7-.3.7-.7ZM157.4,128.2c0-.4-.3-.7-.7-.7s-.7.3-.7.7.3.7.7.7.7-.3.7-.7ZM159.5,128.2c0-.4-.3-.7-.7-.7s-.7.3-.7.7.3.7.7.7.7-.3.7-.7ZM161.7,128.2c0-.4-.3-.7-.7-.7s-.7.3-.7.7.3.7.7.7.7-.3.7-.7ZM163.8,128.2c0-.4-.3-.7-.7-.7s-.7.3-.7.7.3.7.7.7.7-.3.7-.7ZM166,128.2c0-.4-.3-.7-.7-.7s-.7.3-.7.7.3.7.7.7.7-.3.7-.7ZM168.1,128.2c0-.4-.3-.7-.7-.7s-.7.3-.7.7.3.7.7.7.7-.3.7-.7Z"/><path class="cls-14" d="M137.1,132.1h-2.5c-.3,0-.6-.3-.6-.6s.3-.6.6-.6h2.5c.3,0,.6.3.6.6s-.3.6-.6.6ZM137.7,134.2c0-.3-.3-.6-.6-.6h-2.5c-.3,0-.6.3-.6.6s.3.6.6.6h2.5c.3,0,.6-.3.6-.6ZM137.7,136.9c0-.3-.3-.6-.6-.6h-2.5c-.3,0-.6.3-.6.6s.3.6.6.6h2.5c.3,0,.6-.3.6-.6ZM137.7,139.5c0-.3-.3-.6-.6-.6h-2.5c-.3,0-.6.3-.6.6s.3.6.6.6h2.5c.3,0,.6-.3.6-.6ZM137.7,142.1c0-.3-.3-.6-.6-.6h-2.5c-.3,0-.6.3-.6.6s.3.6.6.6h2.5c.3,0,.6-.3.6-.6ZM137.7,144.8c0-.3-.3-.6-.6-.6h-2.5c-.3,0-.6.3-.6.6s.3.6.6.6h2.5c.3,0,.6-.3.6-.6ZM137.7,147.4c0-.3-.3-.6-.6-.6h-2.5c-.3,0-.6.3-.6.6s.3.6.6.6h2.5c.3,0,.6-.3.6-.6ZM137.7,150.1c0-.3-.3-.6-.6-.6h-2.5c-.3,0-.6.3-.6.6s.3.6.6.6h2.5c.3,0,.6-.3.6-.6ZM147.1,131.6c0-.3-.3-.6-.6-.6h-6.6c-.3,0-.6.3-.6.6s.3.6.6.6h6.6c.3,0,.6-.3.6-.6ZM147.1,134.2c0-.3-.3-.6-.6-.6h-6.6c-.3,0-.6.3-.6.6s.3.6.6.6h6.6c.3,0,.6-.3.6-.6ZM147.1,136.9c0-.3-.3-.6-.6-.6h-6.6c-.3,0-.6.3-.6.6s.3.6.6.6h6.6c.3,0,.6-.3.6-.6ZM147.1,139.5c0-.3-.3-.6-.6-.6h-6.6c-.3,0-.6.3-.6.6s.3.6.6.6h6.6c.3,0,.6-.3.6-.6ZM147.1,142.1c0-.3-.3-.6-.6-.6h-6.6c-.3,0-.6.3-.6.6s.3.6.6.6h6.6c.3,0,.6-.3.6-.6ZM155,144.8c0-.3-.3-.6-.6-.6h-6.6c-.3,0-.6.3-.6.6s.3.6.6.6h6.6c.3,0,.6-.3.6-.6ZM155,147.4c0-.3-.3-.6-.6-.6h-6.6c-.3,0-.6.3-.6.6s.3.6.6.6h6.6c.3,0,.6-.3.6-.6ZM155,150.1c0-.3-.3-.6-.6-.6h-6.6c-.3,0-.6.3-.6.6s.3.6.6.6h6.6c.3,0,.6-.3.6-.6ZM150,131.6c0-.4-.3-.7-.7-.7s-.7.3-.7.7.3.7.7.7.7-.3.7-.7ZM152.2,131.6c0-.4-.3-.7-.7-.7s-.7.3-.7.7.3.7.7.7.7-.3.7-.7ZM154.3,131.6c0-.4-.3-.7-.7-.7s-.7.3-.7.7.3.7.7.7.7-.3.7-.7ZM156.5,131.6c0-.4-.3-.7-.7-.7s-.7.3-.7.7.3.7.7.7.7-.3.7-.7ZM158.6,131.6c0-.4-.3-.7-.7-.7s-.7.3-.7.7.3.7.7.7.7-.3.7-.7ZM160.8,131.6c0-.4-.3-.7-.7-.7s-.7.3-.7.7.3.7.7.7.7-.3.7-.7ZM150,136.9c0-.4-.3-.7-.7-.7s-.7.3-.7.7.3.7.7.7.7-.3.7-.7ZM152.2,136.9c0-.4-.3-.7-.7-.7s-.7.3-.7.7.3.7.7.7.7-.3.7-.7ZM154.3,136.9c0-.4-.3-.7-.7-.7s-.7.3-.7.7.3.7.7.7.7-.3.7-.7ZM156.5,136.9c0-.4-.3-.7-.7-.7s-.7.3-.7.7.3.7.7.7.7-.3.7-.7ZM158.6,136.9c0-.4-.3-.7-.7-.7s-.7.3-.7.7.3.7.7.7.7-.3.7-.7ZM160.8,136.9c0-.4-.3-.7-.7-.7s-.7.3-.7.7.3.7.7.7.7-.3.7-.7ZM157.4,144.5c0-.4-.3-.7-.7-.7s-.7.3-.7.7.3.7.7.7.7-.3.7-.7ZM159.5,144.5c0-.4-.3-.7-.7-.7s-.7.3-.7.7.3.7.7.7.7-.3.7-.7ZM161.7,144.5c0-.4-.3-.7-.7-.7s-.7.3-.7.7.3.7.7.7.7-.3.7-.7ZM163.8,144.5c0-.4-.3-.7-.7-.7s-.7.3-.7.7.3.7.7.7.7-.3.7-.7ZM166,144.5c0-.4-.3-.7-.7-.7s-.7.3-.7.7.3.7.7.7.7-.3.7-.7ZM168.1,144.5c0-.4-.3-.7-.7-.7s-.7.3-.7.7.3.7.7.7.7-.3.7-.7ZM157.4,149.9c0-.4-.3-.7-.7-.7s-.7.3-.7.7.3.7.7.7.7-.3.7-.7ZM159.5,149.9c0-.4-.3-.7-.7-.7s-.7.3-.7.7.3.7.7.7.7-.3.7-.7ZM161.7,149.9c0-.4-.3-.7-.7-.7s-.7.3-.7.7.3.7.7.7.7-.3.7-.7ZM163.8,149.9c0-.4-.3-.7-.7-.7s-.7.3-.7.7.3.7.7.7.7-.3.7-.7ZM166,149.9c0-.4-.3-.7-.7-.7s-.7.3-.7.7.3.7.7.7.7-.3.7-.7ZM168.1,149.9c0-.4-.3-.7-.7-.7s-.7.3-.7.7.3.7.7.7.7-.3.7-.7Z"/><path class="cls-14" d="M175.6,89.2h-2.5c-.3,0-.6-.3-.6-.6s.3-.6.6-.6h2.5c.3,0,.6.3.6.6s-.3.6-.6.6ZM176.2,91.3c0-.3-.3-.6-.6-.6h-2.5c-.3,0-.6.3-.6.6s.3.6.6.6h2.5c.3,0,.6-.3.6-.6ZM176.2,94c0-.3-.3-.6-.6-.6h-2.5c-.3,0-.6.3-.6.6s.3.6.6.6h2.5c.3,0,.6-.3.6-.6ZM176.2,96.6c0-.3-.3-.6-.6-.6h-2.5c-.3,0-.6.3-.6.6s.3.6.6.6h2.5c.3,0,.6-.3.6-.6ZM176.2,99.2c0-.3-.3-.6-.6-.6h-2.5c-.3,0-.6.3-.6.6s.3.6.6.6h2.5c.3,0,.6-.3.6-.6ZM176.2,101.9c0-.3-.3-.6-.6-.6h-2.5c-.3,0-.6.3-.6.6s.3.6.6.6h2.5c.3,0,.6-.3.6-.6ZM176.2,104.5c0-.3-.3-.6-.6-.6h-2.5c-.3,0-.6.3-.6.6s.3.6.6.6h2.5c.3,0,.6-.3.6-.6ZM176.2,107.2c0-.3-.3-.6-.6-.6h-2.5c-.3,0-.6.3-.6.6s.3.6.6.6h2.5c.3,0,.6-.3.6-.6ZM185.6,88.7c0-.3-.3-.6-.6-.6h-6.6c-.3,0-.6.3-.6.6s.3.6.6.6h6.6c.3,0,.6-.3.6-.6ZM185.6,91.3c0-.3-.3-.6-.6-.6h-6.6c-.3,0-.6.3-.6.6s.3.6.6.6h6.6c.3,0,.6-.3.6-.6ZM185.6,94c0-.3-.3-.6-.6-.6h-6.6c-.3,0-.6.3-.6.6s.3.6.6.6h6.6c.3,0,.6-.3.6-.6ZM185.6,96.6c0-.3-.3-.6-.6-.6h-6.6c-.3,0-.6.3-.6.6s.3.6.6.6h6.6c.3,0,.6-.3.6-.6ZM185.6,99.2c0-.3-.3-.6-.6-.6h-6.6c-.3,0-.6.3-.6.6s.3.6.6.6h6.6c.3,0,.6-.3.6-.6ZM193.5,101.9c0-.3-.3-.6-.6-.6h-6.6c-.3,0-.6.3-.6.6s.3.6.6.6h6.6c.3,0,.6-.3.6-.6ZM193.5,104.5c0-.3-.3-.6-.6-.6h-6.6c-.3,0-.6.3-.6.6s.3.6.6.6h6.6c.3,0,.6-.3.6-.6ZM193.5,107.2c0-.3-.3-.6-.6-.6h-6.6c-.3,0-.6.3-.6.6s.3.6.6.6h6.6c.3,0,.6-.3.6-.6ZM188.5,88.7c0-.4-.3-.7-.7-.7s-.7.3-.7.7.3.7.7.7.7-.3.7-.7ZM190.7,88.7c0-.4-.3-.7-.7-.7s-.7.3-.7.7.3.7.7.7.7-.3.7-.7ZM192.8,88.7c0-.4-.3-.7-.7-.7s-.7.3-.7.7.3.7.7.7.7-.3.7-.7ZM195,88.7c0-.4-.3-.7-.7-.7s-.7.3-.7.7.3.7.7.7.7-.3.7-.7ZM197.1,88.7c0-.4-.3-.7-.7-.7s-.7.3-.7.7.3.7.7.7.7-.3.7-.7ZM199.3,88.7c0-.4-.3-.7-.7-.7s-.7.3-.7.7.3.7.7.7.7-.3.7-.7ZM188.5,94c0-.4-.3-.7-.7-.7s-.7.3-.7.7.3.7.7.7.7-.3.7-.7ZM190.7,94c0-.4-.3-.7-.7-.7s-.7.3-.7.7.3.7.7.7.7-.3.7-.7ZM192.8,94c0-.4-.3-.7-.7-.7s-.7.3-.7.7.3.7.7.7.7-.3.7-.7ZM195,94c0-.4-.3-.7-.7-.7s-.7.3-.7.7.3.7.7.7.7-.3.7-.7ZM197.1,94c0-.4-.3-.7-.7-.7s-.7.3-.7.7.3.7.7.7.7-.3.7-.7ZM199.3,94c0-.4-.3-.7-.7-.7s-.7.3-.7.7.3.7.7.7.7-.3.7-.7ZM195.9,101.6c0-.4-.3-.7-.7-.7s-.7.3-.7.7.3.7.7.7.7-.3.7-.7ZM198,101.6c0-.4-.3-.7-.7-.7s-.7.3-.7.7.3.7.7.7.7-.3.7-.7ZM200.2,101.6c0-.4-.3-.7-.7-.7s-.7.3-.7.7.3.7.7.7.7-.3.7-.7ZM202.3,101.6c0-.4-.3-.7-.7-.7s-.7.3-.7.7.3.7.7.7.7-.3.7-.7ZM204.5,101.6c0-.4-.3-.7-.7-.7s-.7.3-.7.7.3.7.7.7.7-.3.7-.7ZM206.6,101.6c0-.4-.3-.7-.7-.7s-.7.3-.7.7.3.7.7.7.7-.3.7-.7ZM195.9,107c0-.4-.3-.7-.7-.7s-.7.3-.7.7.3.7.7.7.7-.3.7-.7ZM198,107c0-.4-.3-.7-.7-.7s-.7.3-.7.7.3.7.7.7.7-.3.7-.7ZM200.2,107c0-.4-.3-.7-.7-.7s-.7.3-.7.7.3.7.7.7.7-.3.7-.7ZM202.3,107c0-.4-.3-.7-.7-.7s-.7.3-.7.7.3.7.7.7.7-.3.7-.7ZM204.5,107c0-.4-.3-.7-.7-.7s-.7.3-.7.7.3.7.7.7.7-.3.7-.7ZM206.6,107c0-.4-.3-.7-.7-.7s-.7.3-.7.7.3.7.7.7.7-.3.7-.7Z"/><path class="cls-14" d="M175.6,110.9h-2.5c-.3,0-.6-.3-.6-.6s.3-.6.6-.6h2.5c.3,0,.6.3.6.6s-.3.6-.6.6ZM176.2,113c0-.3-.3-.6-.6-.6h-2.5c-.3,0-.6.3-.6.6s.3.6.6.6h2.5c.3,0,.6-.3.6-.6ZM176.2,115.7c0-.3-.3-.6-.6-.6h-2.5c-.3,0-.6.3-.6.6s.3.6.6.6h2.5c.3,0,.6-.3.6-.6ZM176.2,118.3c0-.3-.3-.6-.6-.6h-2.5c-.3,0-.6.3-.6.6s.3.6.6.6h2.5c.3,0,.6-.3.6-.6ZM176.2,121c0-.3-.3-.6-.6-.6h-2.5c-.3,0-.6.3-.6.6s.3.6.6.6h2.5c.3,0,.6-.3.6-.6ZM176.2,123.6c0-.3-.3-.6-.6-.6h-2.5c-.3,0-.6.3-.6.6s.3.6.6.6h2.5c.3,0,.6-.3.6-.6ZM176.2,126.3c0-.3-.3-.6-.6-.6h-2.5c-.3,0-.6.3-.6.6s.3.6.6.6h2.5c.3,0,.6-.3.6-.6ZM176.2,128.9c0-.3-.3-.6-.6-.6h-2.5c-.3,0-.6.3-.6.6s.3.6.6.6h2.5c.3,0,.6-.3.6-.6ZM185.6,110.4c0-.3-.3-.6-.6-.6h-6.6c-.3,0-.6.3-.6.6s.3.6.6.6h6.6c.3,0,.6-.3.6-.6ZM185.6,113c0-.3-.3-.6-.6-.6h-6.6c-.3,0-.6.3-.6.6s.3.6.6.6h6.6c.3,0,.6-.3.6-.6ZM185.6,115.7c0-.3-.3-.6-.6-.6h-6.6c-.3,0-.6.3-.6.6s.3.6.6.6h6.6c.3,0,.6-.3.6-.6ZM185.6,118.3c0-.3-.3-.6-.6-.6h-6.6c-.3,0-.6.3-.6.6s.3.6.6.6h6.6c.3,0,.6-.3.6-.6ZM185.6,121c0-.3-.3-.6-.6-.6h-6.6c-.3,0-.6.3-.6.6s.3.6.6.6h6.6c.3,0,.6-.3.6-.6ZM193.5,123.6c0-.3-.3-.6-.6-.6h-6.6c-.3,0-.6.3-.6.6s.3.6.6.6h6.6c.3,0,.6-.3.6-.6ZM193.5,126.3c0-.3-.3-.6-.6-.6h-6.6c-.3,0-.6.3-.6.6s.3.6.6.6h6.6c.3,0,.6-.3.6-.6ZM193.5,128.9c0-.3-.3-.6-.6-.6h-6.6c-.3,0-.6.3-.6.6s.3.6.6.6h6.6c.3,0,.6-.3.6-.6ZM188.5,110.4c0-.4-.3-.7-.7-.7s-.7.3-.7.7.3.7.7.7.7-.3.7-.7ZM190.7,110.4c0-.4-.3-.7-.7-.7s-.7.3-.7.7.3.7.7.7.7-.3.7-.7ZM192.8,110.4c0-.4-.3-.7-.7-.7s-.7.3-.7.7.3.7.7.7.7-.3.7-.7ZM195,110.4c0-.4-.3-.7-.7-.7s-.7.3-.7.7.3.7.7.7.7-.3.7-.7ZM197.1,110.4c0-.4-.3-.7-.7-.7s-.7.3-.7.7.3.7.7.7.7-.3.7-.7ZM199.3,110.4c0-.4-.3-.7-.7-.7s-.7.3-.7.7.3.7.7.7.7-.3.7-.7ZM188.5,115.7c0-.4-.3-.7-.7-.7s-.7.3-.7.7.3.7.7.7.7-.3.7-.7ZM190.7,115.7c0-.4-.3-.7-.7-.7s-.7.3-.7.7.3.7.7.7.7-.3.7-.7ZM192.8,115.7c0-.4-.3-.7-.7-.7s-.7.3-.7.7.3.7.7.7.7-.3.7-.7ZM195,115.7c0-.4-.3-.7-.7-.7s-.7.3-.7.7.3.7.7.7.7-.3.7-.7ZM197.1,115.7c0-.4-.3-.7-.7-.7s-.7.3-.7.7.3.7.7.7.7-.3.7-.7ZM199.3,115.7c0-.4-.3-.7-.7-.7s-.7.3-.7.7.3.7.7.7.7-.3.7-.7ZM195.9,123.3c0-.4-.3-.7-.7-.7s-.7.3-.7.7.3.7.7.7.7-.3.7-.7ZM198,123.3c0-.4-.3-.7-.7-.7s-.7.3-.7.7.3.7.7.7.7-.3.7-.7ZM200.2,123.3c0-.4-.3-.7-.7-.7s-.7.3-.7.7.3.7.7.7.7-.3.7-.7ZM202.3,123.3c0-.4-.3-.7-.7-.7s-.7.3-.7.7.3.7.7.7.7-.3.7-.7ZM204.5,123.3c0-.4-.3-.7-.7-.7s-.7.3-.7.7.3.7.7.7.7-.3.7-.7ZM206.6,123.3c0-.4-.3-.7-.7-.7s-.7.3-.7.7.3.7.7.7.7-.3.7-.7ZM195.9,128.7c0-.4-.3-.7-.7-.7s-.7.3-.7.7.3.7.7.7.7-.3.7-.7ZM198,128.7c0-.4-.3-.7-.7-.7s-.7.3-.7.7.3.7.7.7.7-.3.7-.7ZM200.2,128.7c0-.4-.3-.7-.7-.7s-.7.3-.7.7.3.7.7.7.7-.3.7-.7ZM202.3,128.7c0-.4-.3-.7-.7-.7s-.7.3-.7.7.3.7.7.7.7-.3.7-.7ZM204.5,128.7c0-.4-.3-.7-.7-.7s-.7.3-.7.7.3.7.7.7.7-.3.7-.7ZM206.6,128.7c0-.4-.3-.7-.7-.7s-.7.3-.7.7.3.7.7.7.7-.3.7-.7Z"/></g><g id="Character"><path class="cls-9" d="M165.9,57.7c-.3,3.8-2.1,6.7-4,6.6-1.9-.1-3.2-3.3-2.9-7.1.3-3.8,2.1-6.7,4-6.6,1.9.1,3.2,3.3,2.9,7.1Z"/><path class="cls-4" d="M163,38.2s.4,7-.8,10.3c-1.2,3.3-2.7,5.4-2.7,7s2.5,3.5,2.5,6.6-5.6,18-7.2,20.9c-1.5,2.9-1,3.9-2.9,4.1s-6.8-2.1-6.8-2.1c0,0-2.9.4-3.3,1.5-.4,1.2-1.4,5.2-1.4,5.2l-28.2-12.6s4.1-4.3,5.8-9.9c1.7-5.6-1-14.3-1-14.3,0,0-2.7-20.3,9.7-26.1,12.4-5.8,30.4-2.1,33.3.8,2.9,2.9,2.9,8.7,2.9,8.7Z"/><g class="cls-20"><path class="cls-7" d="M145,70.3c.3-9-2.1-20.5-2.1-20.5,0,0,.3-2.8-4.9-11.5-1.9-3.2-4.1-7.4-7-11.2-1.4.4-2.8.9-4.1,1.5-12.4,5.8-9.7,26.1-9.7,26.1,0,0,2.7,8.7,1,14.3s-5.8,9.9-5.8,9.9l16.4,7.3,13.1-1.8s.7.3,1.7.7c.9-.3,1.7-.4,1.7-.4,0,0,4.8,2.3,6.8,2.1,1.3-1.6-7.4-7.6-7-16.6Z"/></g><path class="cls-9" d="M163,38.2s.4,7-.8,10.3c-1.2,3.3-2.7,5.4-2.7,7s2.5,3.5,2.5,6.6-5.6,18-7.2,20.9c-1.5,2.9-1,3.9-2.9,4.1s-6.8-2.1-6.8-2.1c0,0-2.9.4-3.3,1.5-.4,1.2-1.4,5.2-1.4,5.2l-28.2-12.6s4.1-4.3,5.8-9.9c1.7-5.6-1-14.3-1-14.3,0,0-2.7-20.3,9.7-26.1,12.4-5.8,30.4-2.1,33.3.8,2.9,2.9,2.9,8.7,2.9,8.7Z"/><path class="cls-6" d="M139.6,56.2s4.6,1.4,5.2,0c.6-1.4-1.2-1.7,1-2.5,2.1-.8,7.2-3.9,7.2-7s-5.8-8.3-2.9-9.1c2.9-.8,11.8-.4,11.8-.4,0,0-6.2,2.9-3.1,4.3,3.1,1.4,10.6-.4,13.5-4.6,2.9-4.3-1.2-11-6.8-14.7-5.6-3.7-16.8-6.8-27.9-6.4-11,.4-19.2,4.3-21.5,10.6s1.4,28.8,1.5,34.8c.2,6,3.9,7.7,8.1,7.7s7.9-3.7,8.9-7c1-3.3,1.4-6.6,1.9-7.4.6-.8,2.9,1.5,2.9,1.5Z"/><line class="cls-9" x1="137.9" y1="52.9" x2="165.6" y2="55.8"/><path class="cls-3" d="M141.8,59.1s.4-6.8-2.1-10.1c-2.5-3.3-4.6-1-5.8,5.6-1.2,6.6-1.2,10.1,1.4,11,2.5,1,5-.2,5-.2"/><path class="cls-12" d="M212.3,234.9c-2.3-2.3-8.5-7.7-16.2-9.6-9.9-2.4-53.3-7.3-53.3-7.3l-2.1-8.7s-6.1-1.9-7.5-1.9-7.8,2.1-21.9,5.2c-14.1,3.1-39.5-4.4-39.5-4.4,0,0-6.9,5.1-6.9,14.7s.6,11,1.3,12h146.2Z"/><path class="cls-18" d="M106.5,82.9s-.3.2-.7.5c-2.7,1.9-12.8,8.8-20.4,14.8-8.9,7-9.5,19.9-9.9,30-.4,10.1-6.9,72.7-8.4,80.4-1.5,7.7,12.3,9.7,25.6,11.7,13.4,1.9,30.6-.2,38.9-4.1,8.3-3.9,10.3-3.7,10.3-7.9s.2-13.9.2-14.7,6-48.2,5.6-62.1c-.4-13.9.8-21.5-2.5-28.4-3.3-7-11.6-12.4-22.6-16.1s-16.1-4.1-16.1-4.1Z"/><g class="cls-16"><path class="cls-15" d="M138.9,111c-3.3-6.6-13.8-18.6-13.8-18.6,0,0,8-2.4-19.3-9,0,0,0,0,0,0-2.7,1.9-12.8,8.8-20.4,14.8-8.9,7-9.5,19.9-9.9,30-.4,10.1-6.9,72.7-8.4,80.4-1.5,7.7,12.3,9.7,25.6,11.7,3.4.5,7,.7,10.6.7l38.9-31.9s0,.1.3.3c1-8.9,3.6-30.2,4.6-45.3-2.8-13.1-6.1-28.5-8.3-33.1Z"/><path class="cls-10" d="M93.4,123.1s1.8,17.2,10.1,28.1"/><path class="cls-10" d="M118.3,151.8s1.8,4.1,10.7,11"/><path class="cls-10" d="M111.2,164.3s9.5,3.3,18.7,1.5"/><path class="cls-10" d="M108.2,220.8s19.5-10.1,27.2-19.8"/></g><path class="cls-10" d="M106.5,82.9s-.3.2-.7.5c-2.7,1.9-12.8,8.8-20.4,14.8-8.9,7-9.5,19.9-9.9,30-.4,10.1-6.9,72.7-8.4,80.4-1.5,7.7,12.3,9.7,25.6,11.7,13.4,1.9,30.6-.2,38.9-4.1,8.3-3.9,10.3-3.7,10.3-7.9s.2-13.9.2-14.7,6-48.2,5.6-62.1c-.4-13.9.8-21.5-2.5-28.4-3.3-7-11.6-12.4-22.6-16.1s-16.1-4.1-16.1-4.1Z"/><path class="cls-18" d="M108.5,76.3l-5.2,8.7s15.7,3.7,23.8,7c8.1,3.3,19,12,19,12,0,0-1.7-9.9-3.3-12.4-1.5-2.5-17.6-11-24.2-13.5s-10.1-1.7-10.1-1.7Z"/><g class="cls-19"><path class="cls-15" d="M132.6,94.8c.8-.4,1.4-.9,1.4-1.6.6-4.6-7.2-11.2-7.6-11.5-3.1-1.5-5.9-2.8-7.9-3.6-6.6-2.5-10.1-1.7-10.1-1.7l-5.2,8.7s15.7,3.7,23.8,7c1.8.7,3.7,1.7,5.6,2.8Z"/></g><path class="cls-10" d="M108.5,76.3l-5.2,8.7s15.7,3.7,23.8,7c8.1,3.3,19,12,19,12,0,0-1.7-9.9-3.3-12.4-1.5-2.5-17.6-11-24.2-13.5s-10.1-1.7-10.1-1.7Z"/><path class="cls-3" d="M201.6,185.9s5-4.3,7.4-8.5c2.3-4.3,3.9-5.4,5.6-5s3.1.4,3.1.4c0,0,6.2-3.7,8.1-4.1s5.8,4.3,5.8,4.3c0,0,6.6,5,5.8,6.2-.8,1.2-1.9.6-2.7.6s-2.5-1.4-3.5-1c-1,.4-5.2,3.1-5.2,3.1,0,0,5,0,6.4.6,1.4.6,6.4,5,5.4,5.6-1,.6-1,.8-2.1.6-1.2-.2-3.9-1.9-3.9-1.9l-5.2,1s3.1,3.3,4.1,4.1c1,.8,4.6,1.9,3.1,2.9-1.5,1-2.7.6-4.6-.8-1.9-1.4-6.2-3.5-7-3.5s-2.9,2.7-6.4,3.9c-3.5,1.2-8.7,1.2-8.7,1.2l-1,1-5.8-7-1.2-1,2.5-2.5Z"/><path class="cls-9" d="M231.5,172.9s-1.7-1-2.9-.4c-1.2.6-8.5,4.8-8.5,4.8"/><line class="cls-9" x1="217.6" y1="172.7" x2="214.1" y2="175"/><path class="cls-3" d="M166.7,189s12.8-.2,14.7-1.4c1.9-1.2,6.6-4.5,6.8-5.8s-1-2.1-2.9-1.4c-1.9.8-7,2.7-7.7,2.7s-4.1-1.2-4.1-1.2c0,0,5.6-5,7.9-6.4,2.3-1.4,4.8-.8,6.2,0,1.4.8,3.5-1.7,1.7-3.1-1.7-1.4-4.3-2.3-6.2-2.1-1.9.2-2.7.6-2.7.6,0,0-2.1-3.5-3.7-3.1-1.5.4-2.7,1.5-2.7,1.5,0,0-1.7-1-3.5.2-1.7,1.2-3.5,1.5-5.4,3.1-1.9,1.5-7.5,5.2-8.3,6.6-.8,1.4,9.9,9.7,9.9,9.7Z"/><line class="cls-9" x1="180.5" y1="171" x2="175" y2="174.1"/><line class="cls-9" x1="174.1" y1="169.4" x2="170.2" y2="172.1"/><path class="cls-18" d="M129.8,122.8s-5.4,7.4-7.2,13.2c-1.7,5.8.4,14.1,1,16.1.6,1.9,31.5,62.9,34.8,68.9,3.3,6,7,6.4,9.7,5.4,2.7-1,33.9-23.2,35-24.4s6.4-5.6,6.4-5.6c0,0,1-6.2-3.3-9.5-4.3-3.3-6.4-1.5-6.4-1.5l-27.1,7.4s-15.3-52.6-17-62.7c-1.7-10.1,1-9.5-4.5-14.9-5.4-5.4-12-9.5-12-9.5"/><g class="cls-17"><path class="cls-15" d="M203.1,201.9c1.2-1.2,6.4-5.6,6.4-5.6,0,0,.3-2.1-.2-4.5-10.9,4.3-33.2,13.2-34.5,14.5-1.7,1.7-.9-1.3-.9-4.7s-5.2,6-6,8.2c-.9,2.2-2.8-6.1-3.5-9.5-.6-3.4-10.8-29.3-13.8-41.4s-8.4-41.3-11.7-47.9c-.5-1-1.2-2.1-1.9-3.3l-8.2,14.6s-4.5,7.9-6.2,13.7c-1.7,5.8.4,14.1,1,16.1.3,1.1,9.6,19.6,18.6,37.3l.2-.2s16.4,41.5,24.5,37.5c7.9-5,35.3-23.7,36.3-24.7Z"/></g><path class="cls-10" d="M129.8,122.8s-5.4,7.4-7.2,13.2c-1.7,5.8.4,14.1,1,16.1.6,1.9,31.5,62.9,34.8,68.9,3.3,6,7,6.4,9.7,5.4,2.7-1,33.9-23.2,35-24.4s6.4-5.6,6.4-5.6c0,0,1-6.2-3.3-9.5-4.3-3.3-6.4-1.5-6.4-1.5l-27.1,7.4s-15.3-52.6-17-62.7c-1.7-10.1,1-9.5-4.5-14.9-5.4-5.4-12-9.5-12-9.5"/><path class="cls-10" d="M196.1,187s8.8,1.1,9.3,12.8"/></g><g id="Chair"><path class="cls-3" d="M102.6,235.7h4.5c-6.9-12.8-44.7-83.7-46-86.9-1.4-3.5-3.5-3.5-4.2-5-.7-1.4.2-7.5,0-11.6s-13.2-41.3-16.7-47.4c-3.5-6.1-8.9-5.4-8.9-5.4l-1.4,3.8,22.4,61.1,50.5,91.4Z"/><path class="cls-2" d="M14.9,148.1c9.3,21.5,35.7,81.7,37.9,87.6h49.8c-5.8-10.5-40.6-73.4-47.9-93.3-8-21.7-20.5-60.4-23.5-63-3.1-2.6-18.4-2.6-24.5-.7-6.1,1.9-6.4,2.6-6.1,6.6s5.1,41.3,14.4,62.7Z"/><line class="cls-2" x1="52.8" y1="235.7" x2="368.8" y2="235.7"/></g></svg>