<?xml version="1.0" encoding="UTF-8"?><svg xmlns="http://www.w3.org/2000/svg" xmlns:xlink="http://www.w3.org/1999/xlink" viewBox="0 0 409.4 231.3"><defs><style>.cls-1,.cls-2{fill:#333a4c;}.cls-3,.cls-4{fill:#fff;}.cls-3,.cls-5,.cls-6,.cls-7,.cls-2,.cls-8{stroke:#333a4c;}.cls-3,.cls-5,.cls-9,.cls-10,.cls-7,.cls-11,.cls-2,.cls-12,.cls-8{stroke-linecap:round;stroke-linejoin:round;}.cls-13{fill:#00ff41;}.cls-14{fill:#b7c6fd;}.cls-5{fill:#b28e59;}.cls-6,.cls-15{opacity:.4;stroke-miterlimit:10;}.cls-16{clip-path:url(#clippath-1);}.cls-9,.cls-10,.cls-8{fill:none;}.cls-9,.cls-11,.cls-15,.cls-12{stroke:#000;}.cls-10{stroke:#fff;stroke-width:.5px;}.cls-7{fill:#252a37;}.cls-17{clip-path:url(#clippath-3);}.cls-18,.cls-12{fill:#0045ff;}.cls-19{clip-path:url(#clippath-2);}.cls-20{clip-path:url(#clippath);}</style><clipPath id="clippath"><path class="cls-3" d="M163,33.3s.4,7-.8,10.3c-1.2,3.3-2.7,5.4-2.7,7s2.5,3.5,2.5,6.6-5.6,18-7.2,20.9c-1.5,2.9-1,3.9-2.9,4.1s-6.8-2.1-6.8-2.1c0,0-2.9.4-3.3,1.5-.4,1.2-1.4,5.2-1.4,5.2l-28.2-12.6s4.1-4.3,5.8-9.9c1.7-5.6-1-14.3-1-14.3,0,0-2.7-20.3,9.7-26.1,12.4-5.8,30.4-2.1,33.3.8,2.9,2.9,2.9,8.7,2.9,8.7Z"/></clipPath><clipPath id="clippath-1"><path class="cls-12" d="M106.5,78s-.3.2-.7.5c-2.7,1.9-12.8,8.8-20.4,14.8-8.9,7-9.5,19.9-9.9,30-.4,10.1-6.9,72.7-8.4,80.4-1.5,7.7,12.3,9.7,25.6,11.7,13.4,1.9,30.6-.2,38.9-4.1,8.3-3.9,10.3-3.7,10.3-7.9s.2-13.9.2-14.7,6-48.2,5.6-62.1c-.4-13.9.8-21.5-2.5-28.4-3.3-7-11.6-12.4-22.6-16.1s-16.1-4.1-16.1-4.1Z"/></clipPath><clipPath id="clippath-2"><path class="cls-12" d="M108.5,71.4l-5.2,8.7s15.7,3.7,23.8,7c8.1,3.3,19,12,19,12,0,0-1.7-9.9-3.3-12.4-1.5-2.5-17.6-11-24.2-13.5s-10.1-1.7-10.1-1.7Z"/></clipPath><clipPath id="clippath-3"><path class="cls-12" d="M129.8,117.9s-5.4,7.4-7.2,13.2c-1.7,5.8.4,14.1,1,16.1.6,1.9,31.5,62.9,34.8,68.9,3.3,6,7,6.4,9.7,5.4,2.7-1,33.9-23.2,35-24.4s6.4-5.6,6.4-5.6c0,0,1-6.2-3.3-9.5-4.3-3.3-6.4-1.5-6.4-1.5l-27.1,7.4s-15.3-52.6-17-62.7c-1.7-10.1,1-9.5-4.5-14.9-5.4-5.4-12-9.5-12-9.5"/></clipPath></defs><g id="Background_Simple"><path class="cls-14" d="M19.3,80.2c-3.9-29.4,16.3-50.3,32.5-60.7C79.4.1,109.8,0,131.9,0c30.4,0,50.7,6.8,91.2,19.6,0,0,45.3,14.4,106.2,44.7,15,7.7,47.2,24.8,56.5,34.5,50.8,50.9,10.7,121.1-38.2,131.9-17.6.9-82.7-.4-106.7.2,0,0-115.5,1.2-139-.6-8.4-.7-11.6-2.8-18.5-3.5-.7,0-2.6-.2-4.2-1.5-1.2-1-1.6-2.5-2.4-4.3-3.2-4.8-48.3-71.9-57.5-140.8Z"/></g><g id="Plants"><path class="cls-1" d="M364.1,178.3c-3.6,4.5-5.4,7-6.2,8.2.7-3.9,2-8.8,4.1-14.6,1.4-3.8,2.2-7.6,2.5-11.4-.2,0-.3.2-.3.2l-.3-.6c.1,0,12.5-6.6,15.9-12.8l.6.3c-3.2,5.6-12.9,11.2-15.6,12.7,2.5-.2,10.4-1.4,15.1-7.2,5.6-7,4.7-15.6,4.7-15.6,0,0-10.6,7.3-15,13-2.7,3.6-4.3,6.6-5,8.4.2-4.6-.2-9.2-1-13.7,3.5-2.8,16.6-13.5,18-21.6,1.7-9.3-.7-25.2-.7-25.2,0,0-1.7,4.3-4.7,9.6-3,5.3-12.3,13.6-14,22.6-.5,2.5-.6,4.8-.7,6.8-1.5-5.2-3.4-10.2-5.4-14.7-.5-1.2-1-2.6-1.3-4h0s-.3-.2-.3-.2c0-.1,6-10.2,6-13.1h.7c0,2.7-4.6,10.8-5.8,12.9,2.1-1.3,5.5-3.8,6.8-7.8,1.9-5.9-.9-11.3-.9-11.3,0,0-5.1,7.4-6.4,12.2-.9,3-1.1,5.3-1.2,6.7-1-2.5-2.5-5.8-4.2-8.1-3-4-5-10-5-10,0,0-3.7,6.3-1,13,2.2,5.5,8.4,7.6,10.5,8.1.2.7.5,1.4.8,2.1,2.6,6.2,5.2,13.1,6.8,20.4-1.6-2.1-4.5-5.7-7.2-7.7-4-2.9-7.7-8.1-7.7-8.1,0,0-1.7,7.1,2.8,12.7,3.7,4.6,10.2,4.8,12.4,4.7,1.5,8,1.7,16.4-.9,24.6-.2-1.6-1.1-5.9-6.3-10.7-6.6-6.1-19.8-25.4-19.8-25.4,0,0,1.1,22.9,7.4,30.4,5.8,6.9,16.7,6.5,18.5,6.4-.1.4-.2.7-.4,1.1-4.2,11.2-5,19-5.1,23.2h-7.8v36.2h21.6v-36.2h-12.4c0-1.7.2-4.1.7-7-.1,0-.2,0-.2,0l-.2-.7c.1,0,13.7-3.9,23.1-13.6l.5.5c-7.6,7.9-17.9,11.9-21.8,13.2,3.9-.5,13.4-1.9,17.9-4.8,5.6-3.7,10.6-14.6,10.6-14.6,0,0-18.3,4-23.6,10.6ZM353.8,119.5c0,0-7-3.3-8.7-11.6h.7c1.6,7.9,8.2,11,8.3,11l-.3.6ZM363.4,145.3l-.2.2h-.3c-.4-.3-9.2-3.9-12.8-9.1l.6-.4c3.1,4.6,10.8,8,12.3,8.7,1.1-1.8,8.3-12.9,10.8-19.9l.6.2c-2.7,7.7-11,20.2-11.1,20.3ZM360.2,170.1c-.1,0-10.6-4-15.3-13.1l.6-.3c4.6,8.9,14.9,12.7,15,12.8l-.2.6Z"/></g><g id="Table"><rect class="cls-3" x="298.6" y="198.3" width="6.4" height="32.5"/><polygon class="cls-2" points="333.1 230.8 333.1 175.7 305.1 198.3 305.1 230.8 333.1 230.8"/><rect class="cls-3" x="79.7" y="198.3" width="6.4" height="32.5"/><polygon class="cls-2" points="114.1 230.8 114.1 175.7 86.1 198.3 86.1 230.8 114.1 230.8"/><polygon class="cls-3" points="312.8 204 54.9 204 54.8 201.9 353.6 170.5 353.6 172.7 312.8 204"/><polygon class="cls-3" points="312.8 201.9 54.9 201.9 120 170.5 353.6 170.5 312.8 201.9"/><polygon class="cls-2" points="312.8 204 312.8 201.9 353.6 170.5 353.6 172.7 312.8 204"/><path class="cls-1" d="M297.3,184.9s-4.4-.8-7.6.8c-2,1-3.7,4.5-4.8,6.9-.5,1.2.4,2.5,1.7,2.5h6c.5,0,1-.2,1.4-.6l6-6.7s-.3-2.6-2.6-2.9Z"/><path class="cls-10" d="M293.6,193.3s-.6-4.1,3.7-6.5"/><polygon class="cls-3" points="261.9 198.4 165.9 198.4 189.3 179.7 285.3 179.7 261.9 198.4"/><polygon class="cls-8" points="285.3 180.9 285.3 179.7 261.9 198.4 261.9 199.5 285.3 180.9"/><rect class="cls-3" x="165.9" y="198.4" width="96" height="1.2"/><polygon class="cls-8" points="197.2 190.3 194.2 192.8 200.5 192.8 203.6 190.3 197.2 190.3"/><polygon class="cls-8" points="203.6 190.3 200.5 192.8 206.8 192.8 209.9 190.3 203.6 190.3"/><polygon class="cls-8" points="190.9 190.3 187.8 192.8 194.2 192.8 197.2 190.3 190.9 190.3"/><polygon class="cls-8" points="200.3 187.8 194 187.8 190.9 190.3 197.2 190.3 200.3 187.8"/><polygon class="cls-8" points="206.7 187.8 209.7 185.4 203.4 185.4 200.3 187.8 206.7 187.8"/><polygon class="cls-8" points="203.4 185.4 197.1 185.4 194 187.8 200.3 187.8 203.4 185.4"/><polygon class="cls-8" points="209.9 190.3 206.8 192.8 213.2 192.8 216.3 190.3 209.9 190.3"/><polygon class="cls-8" points="241.6 190.3 238.5 192.8 244.9 192.8 247.9 190.3 241.6 190.3"/><polygon class="cls-8" points="213 187.8 216.1 185.4 209.7 185.4 206.7 187.8 213 187.8"/><polygon class="cls-8" points="216.3 190.3 213.2 192.8 219.5 192.8 222.6 190.3 216.3 190.3"/><polygon class="cls-8" points="251.2 192.8 257.5 192.8 260.6 190.3 254.3 190.3 251.2 192.8"/><polygon class="cls-8" points="254.3 190.3 260.6 190.3 263.7 187.8 257.4 187.8 254.3 190.3"/><polygon class="cls-8" points="247.9 190.3 244.9 192.8 251.2 192.8 254.3 190.3 247.9 190.3"/><polygon class="cls-8" points="235.3 190.3 232.2 192.8 238.5 192.8 241.6 190.3 235.3 190.3"/><polygon class="cls-8" points="222.6 190.3 219.5 192.8 225.8 192.8 228.9 190.3 222.6 190.3"/><polygon class="cls-8" points="228.9 190.3 225.8 192.8 232.2 192.8 235.3 190.3 228.9 190.3"/><polygon class="cls-8" points="238.3 187.8 241.4 185.4 235.1 185.4 232 187.8 238.3 187.8"/><polygon class="cls-8" points="244.7 187.8 241.6 190.3 247.9 190.3 251 187.8 244.7 187.8"/><polygon class="cls-8" points="232 187.8 228.9 190.3 235.3 190.3 238.3 187.8 232 187.8"/><polygon class="cls-8" points="219.3 187.8 216.3 190.3 222.6 190.3 225.7 187.8 219.3 187.8"/><polygon class="cls-8" points="238.3 187.8 235.3 190.3 241.6 190.3 244.7 187.8 238.3 187.8"/><polygon class="cls-8" points="219.3 187.8 222.4 185.4 216.1 185.4 213 187.8 219.3 187.8"/><polygon class="cls-8" points="200.3 187.8 197.2 190.3 203.6 190.3 206.7 187.8 200.3 187.8"/><polygon class="cls-8" points="213 187.8 209.9 190.3 216.3 190.3 219.3 187.8 213 187.8"/><polygon class="cls-8" points="206.7 187.8 203.6 190.3 209.9 190.3 213 187.8 206.7 187.8"/><polygon class="cls-8" points="225.7 187.8 222.6 190.3 228.9 190.3 232 187.8 225.7 187.8"/><polygon class="cls-8" points="232 187.8 235.1 185.4 228.8 185.4 225.7 187.8 232 187.8"/><polygon class="cls-8" points="257.4 187.8 263.7 187.8 266.8 185.4 260.4 185.4 257.4 187.8"/><polygon class="cls-8" points="225.7 187.8 228.8 185.4 222.4 185.4 219.3 187.8 225.7 187.8"/><polygon class="cls-8" points="251 187.8 254.1 185.4 247.8 185.4 244.7 187.8 251 187.8"/><polygon class="cls-8" points="257.4 187.8 260.4 185.4 254.1 185.4 251 187.8 257.4 187.8"/><polygon class="cls-8" points="247.9 190.3 254.3 190.3 257.4 187.8 251 187.8 247.9 190.3"/><polygon class="cls-8" points="244.7 187.8 247.8 185.4 241.4 185.4 238.3 187.8 244.7 187.8"/><polygon class="cls-8" points="225.8 192.8 222.8 195.3 229.1 195.3 232.2 192.8 225.8 192.8"/><polygon class="cls-8" points="232.2 192.8 229.1 195.3 235.4 195.3 238.5 192.8 232.2 192.8"/><polygon class="cls-8" points="219.5 192.8 216.4 195.3 222.8 195.3 225.8 192.8 219.5 192.8"/><polygon class="cls-8" points="238.5 192.8 235.4 195.3 241.8 195.3 244.9 192.8 238.5 192.8"/><polygon class="cls-8" points="213.2 192.8 210.1 195.3 216.4 195.3 219.5 192.8 213.2 192.8"/><polygon class="cls-8" points="206.8 192.8 203.7 195.3 210.1 195.3 213.2 192.8 206.8 192.8"/><polygon class="cls-8" points="244.9 192.8 241.8 195.3 248.1 195.3 251.2 192.8 244.9 192.8"/><polygon class="cls-8" points="194.2 192.8 191.1 195.3 197.4 195.3 200.5 192.8 194.2 192.8"/><polygon class="cls-8" points="200.5 192.8 197.4 195.3 203.7 195.3 206.8 192.8 200.5 192.8"/><polygon class="cls-8" points="260.6 190.3 266.9 190.3 270 187.8 263.7 187.8 260.6 190.3"/><polygon class="cls-8" points="269.9 182.9 266.8 185.4 273.1 185.4 276.2 182.9 269.9 182.9"/><polygon class="cls-8" points="263.7 187.8 270 187.8 273.1 185.4 266.8 185.4 263.7 187.8"/><polygon class="cls-8" points="187.8 192.8 184.7 195.3 191.1 195.3 194.2 192.8 187.8 192.8"/><polygon class="cls-8" points="251.2 192.8 248.1 195.3 254.4 195.3 257.5 192.8 251.2 192.8"/><polygon class="cls-8" points="254.4 195.3 260.8 195.3 263.9 192.8 257.5 192.8 254.4 195.3"/><polygon class="cls-8" points="257.5 192.8 263.9 192.8 266.9 190.3 260.6 190.3 257.5 192.8"/><polygon class="cls-8" points="194 187.8 187.7 187.8 184.6 190.3 190.9 190.3 194 187.8"/><polygon class="cls-8" points="235.1 185.4 238.2 182.9 231.8 182.9 228.8 185.4 235.1 185.4"/><polygon class="cls-8" points="241.4 185.4 244.5 182.9 238.2 182.9 235.1 185.4 241.4 185.4"/><polygon class="cls-8" points="228.8 185.4 231.8 182.9 225.5 182.9 222.4 185.4 228.8 185.4"/><polygon class="cls-8" points="247.8 185.4 250.9 182.9 244.5 182.9 241.4 185.4 247.8 185.4"/><polygon class="cls-8" points="260.4 185.4 263.5 182.9 257.2 182.9 254.1 185.4 260.4 185.4"/><polygon class="cls-8" points="254.1 185.4 257.2 182.9 250.9 182.9 247.8 185.4 254.1 185.4"/><polygon class="cls-8" points="222.4 185.4 225.5 182.9 219.2 182.9 216.1 185.4 222.4 185.4"/><polygon class="cls-8" points="190.9 190.3 184.6 190.3 181.5 192.8 187.8 192.8 190.9 190.3"/><polygon class="cls-8" points="197.1 185.4 190.7 185.4 187.7 187.8 194 187.8 197.1 185.4"/><polygon class="cls-8" points="266.8 185.4 269.9 182.9 263.5 182.9 260.4 185.4 266.8 185.4"/><polygon class="cls-8" points="181.5 192.8 178.4 195.3 184.7 195.3 187.8 192.8 181.5 192.8"/><polygon class="cls-8" points="200.2 182.9 193.8 182.9 190.7 185.4 197.1 185.4 200.2 182.9"/><polygon class="cls-8" points="209.7 185.4 212.8 182.9 206.5 182.9 203.4 185.4 209.7 185.4"/><polygon class="cls-8" points="203.4 185.4 206.5 182.9 200.2 182.9 197.1 185.4 203.4 185.4"/><polygon class="cls-8" points="216.1 185.4 219.2 182.9 212.8 182.9 209.7 185.4 216.1 185.4"/></g><g id="Device_3"><rect class="cls-3" x="270.3" y="152.6" width="6.1" height="17.8"/><rect class="cls-2" x="269.4" y="152.6" width="8" height="18"/><rect class="cls-3" x="219" y="75.3" width="109" height="78.8"/><rect class="cls-7" x="224.2" y="79.5" width="98.3" height="70.3"/><path class="cls-13" d="M230.8,84.3h-2.3c-.3,0-.6-.3-.6-.6s.3-.6.6-.6h2.3c.3,0,.6.3.6.6s-.3.6-.6.6ZM231.4,86.4c0-.3-.3-.6-.6-.6h-2.3c-.3,0-.6.3-.6.6s.3.6.6.6h2.3c.3,0,.6-.3.6-.6ZM231.4,89.1c0-.3-.3-.6-.6-.6h-2.3c-.3,0-.6.3-.6.6s.3.6.6.6h2.3c.3,0,.6-.3.6-.6ZM231.4,91.7c0-.3-.3-.6-.6-.6h-2.3c-.3,0-.6.3-.6.6s.3.6.6.6h2.3c.3,0,.6-.3.6-.6ZM231.4,94.4c0-.3-.3-.6-.6-.6h-2.3c-.3,0-.6.3-.6.6s.3.6.6.6h2.3c.3,0,.6-.3.6-.6ZM231.4,97c0-.3-.3-.6-.6-.6h-2.3c-.3,0-.6.3-.6.6s.3.6.6.6h2.3c.3,0,.6-.3.6-.6ZM231.4,99.7c0-.3-.3-.6-.6-.6h-2.3c-.3,0-.6.3-.6.6s.3.6.6.6h2.3c.3,0,.6-.3.6-.6ZM231.4,102.3c0-.3-.3-.6-.6-.6h-2.3c-.3,0-.6.3-.6.6s.3.6.6.6h2.3c.3,0,.6-.3.6-.6ZM240.1,83.8c0-.3-.3-.6-.6-.6h-6.1c-.3,0-.6.3-.6.6s.3.6.6.6h6.1c.3,0,.6-.3.6-.6ZM240.1,86.4c0-.3-.3-.6-.6-.6h-6.1c-.3,0-.6.3-.6.6s.3.6.6.6h6.1c.3,0,.6-.3.6-.6ZM240.1,89.1c0-.3-.3-.6-.6-.6h-6.1c-.3,0-.6.3-.6.6s.3.6.6.6h6.1c.3,0,.6-.3.6-.6ZM240.1,91.7c0-.3-.3-.6-.6-.6h-6.1c-.3,0-.6.3-.6.6s.3.6.6.6h6.1c.3,0,.6-.3.6-.6ZM240.1,94.4c0-.3-.3-.6-.6-.6h-6.1c-.3,0-.6.3-.6.6s.3.6.6.6h6.1c.3,0,.6-.3.6-.6ZM247.4,97c0-.3-.3-.6-.6-.6h-6.1c-.3,0-.6.3-.6.6s.3.6.6.6h6.1c.3,0,.6-.3.6-.6ZM247.4,99.7c0-.3-.3-.6-.6-.6h-6.1c-.3,0-.6.3-.6.6s.3.6.6.6h6.1c.3,0,.6-.3.6-.6ZM247.4,102.3c0-.3-.3-.6-.6-.6h-6.1c-.3,0-.6.3-.6.6s.3.6.6.6h6.1c.3,0,.6-.3.6-.6ZM242.8,83.8c0-.4-.3-.7-.7-.7s-.7.3-.7.7.3.7.7.7.7-.3.7-.7ZM244.8,83.8c0-.4-.3-.7-.7-.7s-.7.3-.7.7.3.7.7.7.7-.3.7-.7ZM246.8,83.8c0-.4-.3-.7-.7-.7s-.7.3-.7.7.3.7.7.7.7-.3.7-.7ZM248.8,83.8c0-.4-.3-.7-.7-.7s-.7.3-.7.7.3.7.7.7.7-.3.7-.7ZM250.8,83.8c0-.4-.3-.7-.7-.7s-.7.3-.7.7.3.7.7.7.7-.3.7-.7ZM252.8,83.8c0-.4-.3-.7-.7-.7s-.7.3-.7.7.3.7.7.7.7-.3.7-.7ZM242.8,89.1c0-.4-.3-.7-.7-.7s-.7.3-.7.7.3.7.7.7.7-.3.7-.7ZM244.8,89.1c0-.4-.3-.7-.7-.7s-.7.3-.7.7.3.7.7.7.7-.3.7-.7ZM246.8,89.1c0-.4-.3-.7-.7-.7s-.7.3-.7.7.3.7.7.7.7-.3.7-.7ZM248.8,89.1c0-.4-.3-.7-.7-.7s-.7.3-.7.7.3.7.7.7.7-.3.7-.7ZM250.8,89.1c0-.4-.3-.7-.7-.7s-.7.3-.7.7.3.7.7.7.7-.3.7-.7ZM252.8,89.1c0-.4-.3-.7-.7-.7s-.7.3-.7.7.3.7.7.7.7-.3.7-.7ZM249.6,96.7c0-.4-.3-.7-.7-.7s-.7.3-.7.7.3.7.7.7.7-.3.7-.7ZM251.6,96.7c0-.4-.3-.7-.7-.7s-.7.3-.7.7.3.7.7.7.7-.3.7-.7ZM253.6,96.7c0-.4-.3-.7-.7-.7s-.7.3-.7.7.3.7.7.7.7-.3.7-.7ZM255.6,96.7c0-.4-.3-.7-.7-.7s-.7.3-.7.7.3.7.7.7.7-.3.7-.7ZM257.6,96.7c0-.4-.3-.7-.7-.7s-.7.3-.7.7.3.7.7.7.7-.3.7-.7ZM259.6,96.7c0-.4-.3-.7-.7-.7s-.7.3-.7.7.3.7.7.7.7-.3.7-.7ZM249.6,102.1c0-.4-.3-.7-.7-.7s-.7.3-.7.7.3.7.7.7.7-.3.7-.7ZM251.6,102.1c0-.4-.3-.7-.7-.7s-.7.3-.7.7.3.7.7.7.7-.3.7-.7ZM253.6,102.1c0-.4-.3-.7-.7-.7s-.7.3-.7.7.3.7.7.7.7-.3.7-.7ZM255.6,102.1c0-.4-.3-.7-.7-.7s-.7.3-.7.7.3.7.7.7.7-.3.7-.7ZM257.6,102.1c0-.4-.3-.7-.7-.7s-.7.3-.7.7.3.7.7.7.7-.3.7-.7ZM259.6,102.1c0-.4-.3-.7-.7-.7s-.7.3-.7.7.3.7.7.7.7-.3.7-.7Z"/><path class="cls-13" d="M230.8,105.5h-2.3c-.3,0-.6-.3-.6-.6s.3-.6.6-.6h2.3c.3,0,.6.3.6.6s-.3.6-.6.6ZM231.4,107.6c0-.3-.3-.6-.6-.6h-2.3c-.3,0-.6.3-.6.6s.3.6.6.6h2.3c.3,0,.6-.3.6-.6ZM231.4,110.2c0-.3-.3-.6-.6-.6h-2.3c-.3,0-.6.3-.6.6s.3.6.6.6h2.3c.3,0,.6-.3.6-.6ZM231.4,112.9c0-.3-.3-.6-.6-.6h-2.3c-.3,0-.6.3-.6.6s.3.6.6.6h2.3c.3,0,.6-.3.6-.6ZM231.4,115.5c0-.3-.3-.6-.6-.6h-2.3c-.3,0-.6.3-.6.6s.3.6.6.6h2.3c.3,0,.6-.3.6-.6ZM231.4,118.2c0-.3-.3-.6-.6-.6h-2.3c-.3,0-.6.3-.6.6s.3.6.6.6h2.3c.3,0,.6-.3.6-.6ZM231.4,120.8c0-.3-.3-.6-.6-.6h-2.3c-.3,0-.6.3-.6.6s.3.6.6.6h2.3c.3,0,.6-.3.6-.6ZM231.4,123.5c0-.3-.3-.6-.6-.6h-2.3c-.3,0-.6.3-.6.6s.3.6.6.6h2.3c.3,0,.6-.3.6-.6ZM240.1,105c0-.3-.3-.6-.6-.6h-6.1c-.3,0-.6.3-.6.6s.3.6.6.6h6.1c.3,0,.6-.3.6-.6ZM240.1,107.6c0-.3-.3-.6-.6-.6h-6.1c-.3,0-.6.3-.6.6s.3.6.6.6h6.1c.3,0,.6-.3.6-.6ZM240.1,110.2c0-.3-.3-.6-.6-.6h-6.1c-.3,0-.6.3-.6.6s.3.6.6.6h6.1c.3,0,.6-.3.6-.6ZM240.1,112.9c0-.3-.3-.6-.6-.6h-6.1c-.3,0-.6.3-.6.6s.3.6.6.6h6.1c.3,0,.6-.3.6-.6ZM240.1,115.5c0-.3-.3-.6-.6-.6h-6.1c-.3,0-.6.3-.6.6s.3.6.6.6h6.1c.3,0,.6-.3.6-.6ZM247.4,118.2c0-.3-.3-.6-.6-.6h-6.1c-.3,0-.6.3-.6.6s.3.6.6.6h6.1c.3,0,.6-.3.6-.6ZM247.4,120.8c0-.3-.3-.6-.6-.6h-6.1c-.3,0-.6.3-.6.6s.3.6.6.6h6.1c.3,0,.6-.3.6-.6ZM247.4,123.5c0-.3-.3-.6-.6-.6h-6.1c-.3,0-.6.3-.6.6s.3.6.6.6h6.1c.3,0,.6-.3.6-.6ZM242.8,105c0-.4-.3-.7-.7-.7s-.7.3-.7.7.3.7.7.7.7-.3.7-.7ZM244.8,105c0-.4-.3-.7-.7-.7s-.7.3-.7.7.3.7.7.7.7-.3.7-.7ZM246.8,105c0-.4-.3-.7-.7-.7s-.7.3-.7.7.3.7.7.7.7-.3.7-.7ZM248.8,105c0-.4-.3-.7-.7-.7s-.7.3-.7.7.3.7.7.7.7-.3.7-.7ZM250.8,105c0-.4-.3-.7-.7-.7s-.7.3-.7.7.3.7.7.7.7-.3.7-.7ZM252.8,105c0-.4-.3-.7-.7-.7s-.7.3-.7.7.3.7.7.7.7-.3.7-.7ZM242.8,110.2c0-.4-.3-.7-.7-.7s-.7.3-.7.7.3.7.7.7.7-.3.7-.7ZM244.8,110.2c0-.4-.3-.7-.7-.7s-.7.3-.7.7.3.7.7.7.7-.3.7-.7ZM246.8,110.2c0-.4-.3-.7-.7-.7s-.7.3-.7.7.3.7.7.7.7-.3.7-.7ZM248.8,110.2c0-.4-.3-.7-.7-.7s-.7.3-.7.7.3.7.7.7.7-.3.7-.7ZM250.8,110.2c0-.4-.3-.7-.7-.7s-.7.3-.7.7.3.7.7.7.7-.3.7-.7ZM252.8,110.2c0-.4-.3-.7-.7-.7s-.7.3-.7.7.3.7.7.7.7-.3.7-.7ZM249.6,117.9c0-.4-.3-.7-.7-.7s-.7.3-.7.7.3.7.7.7.7-.3.7-.7ZM251.6,117.9c0-.4-.3-.7-.7-.7s-.7.3-.7.7.3.7.7.7.7-.3.7-.7ZM253.6,117.9c0-.4-.3-.7-.7-.7s-.7.3-.7.7.3.7.7.7.7-.3.7-.7ZM255.6,117.9c0-.4-.3-.7-.7-.7s-.7.3-.7.7.3.7.7.7.7-.3.7-.7ZM257.6,117.9c0-.4-.3-.7-.7-.7s-.7.3-.7.7.3.7.7.7.7-.3.7-.7ZM259.6,117.9c0-.4-.3-.7-.7-.7s-.7.3-.7.7.3.7.7.7.7-.3.7-.7ZM249.6,123.3c0-.4-.3-.7-.7-.7s-.7.3-.7.7.3.7.7.7.7-.3.7-.7ZM251.6,123.3c0-.4-.3-.7-.7-.7s-.7.3-.7.7.3.7.7.7.7-.3.7-.7ZM253.6,123.3c0-.4-.3-.7-.7-.7s-.7.3-.7.7.3.7.7.7.7-.3.7-.7ZM255.6,123.3c0-.4-.3-.7-.7-.7s-.7.3-.7.7.3.7.7.7.7-.3.7-.7ZM257.6,123.3c0-.4-.3-.7-.7-.7s-.7.3-.7.7.3.7.7.7.7-.3.7-.7ZM259.6,123.3c0-.4-.3-.7-.7-.7s-.7.3-.7.7.3.7.7.7.7-.3.7-.7Z"/><path class="cls-13" d="M230.8,127.2h-2.3c-.3,0-.6-.3-.6-.6s.3-.6.6-.6h2.3c.3,0,.6.3.6.6s-.3.6-.6.6ZM231.4,129.3c0-.3-.3-.6-.6-.6h-2.3c-.3,0-.6.3-.6.6s.3.6.6.6h2.3c.3,0,.6-.3.6-.6ZM231.4,132c0-.3-.3-.6-.6-.6h-2.3c-.3,0-.6.3-.6.6s.3.6.6.6h2.3c.3,0,.6-.3.6-.6ZM231.4,134.6c0-.3-.3-.6-.6-.6h-2.3c-.3,0-.6.3-.6.6s.3.6.6.6h2.3c.3,0,.6-.3.6-.6ZM231.4,137.3c0-.3-.3-.6-.6-.6h-2.3c-.3,0-.6.3-.6.6s.3.6.6.6h2.3c.3,0,.6-.3.6-.6ZM231.4,139.9c0-.3-.3-.6-.6-.6h-2.3c-.3,0-.6.3-.6.6s.3.6.6.6h2.3c.3,0,.6-.3.6-.6ZM231.4,142.6c0-.3-.3-.6-.6-.6h-2.3c-.3,0-.6.3-.6.6s.3.6.6.6h2.3c.3,0,.6-.3.6-.6ZM231.4,145.2c0-.3-.3-.6-.6-.6h-2.3c-.3,0-.6.3-.6.6s.3.6.6.6h2.3c.3,0,.6-.3.6-.6ZM240.1,126.7c0-.3-.3-.6-.6-.6h-6.1c-.3,0-.6.3-.6.6s.3.6.6.6h6.1c.3,0,.6-.3.6-.6ZM240.1,129.3c0-.3-.3-.6-.6-.6h-6.1c-.3,0-.6.3-.6.6s.3.6.6.6h6.1c.3,0,.6-.3.6-.6ZM240.1,132c0-.3-.3-.6-.6-.6h-6.1c-.3,0-.6.3-.6.6s.3.6.6.6h6.1c.3,0,.6-.3.6-.6ZM240.1,134.6c0-.3-.3-.6-.6-.6h-6.1c-.3,0-.6.3-.6.6s.3.6.6.6h6.1c.3,0,.6-.3.6-.6ZM240.1,137.3c0-.3-.3-.6-.6-.6h-6.1c-.3,0-.6.3-.6.6s.3.6.6.6h6.1c.3,0,.6-.3.6-.6ZM247.4,139.9c0-.3-.3-.6-.6-.6h-6.1c-.3,0-.6.3-.6.6s.3.6.6.6h6.1c.3,0,.6-.3.6-.6ZM247.4,142.6c0-.3-.3-.6-.6-.6h-6.1c-.3,0-.6.3-.6.6s.3.6.6.6h6.1c.3,0,.6-.3.6-.6ZM247.4,145.2c0-.3-.3-.6-.6-.6h-6.1c-.3,0-.6.3-.6.6s.3.6.6.6h6.1c.3,0,.6-.3.6-.6ZM242.8,126.7c0-.4-.3-.7-.7-.7s-.7.3-.7.7.3.7.7.7.7-.3.7-.7ZM244.8,126.7c0-.4-.3-.7-.7-.7s-.7.3-.7.7.3.7.7.7.7-.3.7-.7ZM246.8,126.7c0-.4-.3-.7-.7-.7s-.7.3-.7.7.3.7.7.7.7-.3.7-.7ZM248.8,126.7c0-.4-.3-.7-.7-.7s-.7.3-.7.7.3.7.7.7.7-.3.7-.7ZM250.8,126.7c0-.4-.3-.7-.7-.7s-.7.3-.7.7.3.7.7.7.7-.3.7-.7ZM252.8,126.7c0-.4-.3-.7-.7-.7s-.7.3-.7.7.3.7.7.7.7-.3.7-.7ZM242.8,132c0-.4-.3-.7-.7-.7s-.7.3-.7.7.3.7.7.7.7-.3.7-.7ZM244.8,132c0-.4-.3-.7-.7-.7s-.7.3-.7.7.3.7.7.7.7-.3.7-.7ZM246.8,132c0-.4-.3-.7-.7-.7s-.7.3-.7.7.3.7.7.7.7-.3.7-.7ZM248.8,132c0-.4-.3-.7-.7-.7s-.7.3-.7.7.3.7.7.7.7-.3.7-.7ZM250.8,132c0-.4-.3-.7-.7-.7s-.7.3-.7.7.3.7.7.7.7-.3.7-.7ZM252.8,132c0-.4-.3-.7-.7-.7s-.7.3-.7.7.3.7.7.7.7-.3.7-.7ZM249.6,139.6c0-.4-.3-.7-.7-.7s-.7.3-.7.7.3.7.7.7.7-.3.7-.7ZM251.6,139.6c0-.4-.3-.7-.7-.7s-.7.3-.7.7.3.7.7.7.7-.3.7-.7ZM253.6,139.6c0-.4-.3-.7-.7-.7s-.7.3-.7.7.3.7.7.7.7-.3.7-.7ZM255.6,139.6c0-.4-.3-.7-.7-.7s-.7.3-.7.7.3.7.7.7.7-.3.7-.7ZM257.6,139.6c0-.4-.3-.7-.7-.7s-.7.3-.7.7.3.7.7.7.7-.3.7-.7ZM259.6,139.6c0-.4-.3-.7-.7-.7s-.7.3-.7.7.3.7.7.7.7-.3.7-.7ZM249.6,145c0-.4-.3-.7-.7-.7s-.7.3-.7.7.3.7.7.7.7-.3.7-.7ZM251.6,145c0-.4-.3-.7-.7-.7s-.7.3-.7.7.3.7.7.7.7-.3.7-.7ZM253.6,145c0-.4-.3-.7-.7-.7s-.7.3-.7.7.3.7.7.7.7-.3.7-.7ZM255.6,145c0-.4-.3-.7-.7-.7s-.7.3-.7.7.3.7.7.7.7-.3.7-.7ZM257.6,145c0-.4-.3-.7-.7-.7s-.7.3-.7.7.3.7.7.7.7-.3.7-.7ZM259.6,145c0-.4-.3-.7-.7-.7s-.7.3-.7.7.3.7.7.7.7-.3.7-.7Z"/><path class="cls-13" d="M266.6,84.3h-2.3c-.3,0-.6-.3-.6-.6s.3-.6.6-.6h2.3c.3,0,.6.3.6.6s-.3.6-.6.6ZM267.1,86.4c0-.3-.3-.6-.6-.6h-2.3c-.3,0-.6.3-.6.6s.3.6.6.6h2.3c.3,0,.6-.3.6-.6ZM267.1,89.1c0-.3-.3-.6-.6-.6h-2.3c-.3,0-.6.3-.6.6s.3.6.6.6h2.3c.3,0,.6-.3.6-.6ZM267.1,91.7c0-.3-.3-.6-.6-.6h-2.3c-.3,0-.6.3-.6.6s.3.6.6.6h2.3c.3,0,.6-.3.6-.6ZM267.1,94.4c0-.3-.3-.6-.6-.6h-2.3c-.3,0-.6.3-.6.6s.3.6.6.6h2.3c.3,0,.6-.3.6-.6ZM267.1,97c0-.3-.3-.6-.6-.6h-2.3c-.3,0-.6.3-.6.6s.3.6.6.6h2.3c.3,0,.6-.3.6-.6ZM267.1,99.7c0-.3-.3-.6-.6-.6h-2.3c-.3,0-.6.3-.6.6s.3.6.6.6h2.3c.3,0,.6-.3.6-.6ZM267.1,102.3c0-.3-.3-.6-.6-.6h-2.3c-.3,0-.6.3-.6.6s.3.6.6.6h2.3c.3,0,.6-.3.6-.6ZM275.8,83.8c0-.3-.3-.6-.6-.6h-6.1c-.3,0-.6.3-.6.6s.3.6.6.6h6.1c.3,0,.6-.3.6-.6ZM275.8,86.4c0-.3-.3-.6-.6-.6h-6.1c-.3,0-.6.3-.6.6s.3.6.6.6h6.1c.3,0,.6-.3.6-.6ZM275.8,89.1c0-.3-.3-.6-.6-.6h-6.1c-.3,0-.6.3-.6.6s.3.6.6.6h6.1c.3,0,.6-.3.6-.6ZM275.8,91.7c0-.3-.3-.6-.6-.6h-6.1c-.3,0-.6.3-.6.6s.3.6.6.6h6.1c.3,0,.6-.3.6-.6ZM275.8,94.4c0-.3-.3-.6-.6-.6h-6.1c-.3,0-.6.3-.6.6s.3.6.6.6h6.1c.3,0,.6-.3.6-.6ZM283.2,97c0-.3-.3-.6-.6-.6h-6.1c-.3,0-.6.3-.6.6s.3.6.6.6h6.1c.3,0,.6-.3.6-.6ZM283.2,99.7c0-.3-.3-.6-.6-.6h-6.1c-.3,0-.6.3-.6.6s.3.6.6.6h6.1c.3,0,.6-.3.6-.6ZM283.2,102.3c0-.3-.3-.6-.6-.6h-6.1c-.3,0-.6.3-.6.6s.3.6.6.6h6.1c.3,0,.6-.3.6-.6ZM278.5,83.8c0-.4-.3-.7-.7-.7s-.7.3-.7.7.3.7.7.7.7-.3.7-.7ZM280.5,83.8c0-.4-.3-.7-.7-.7s-.7.3-.7.7.3.7.7.7.7-.3.7-.7ZM282.5,83.8c0-.4-.3-.7-.7-.7s-.7.3-.7.7.3.7.7.7.7-.3.7-.7ZM284.5,83.8c0-.4-.3-.7-.7-.7s-.7.3-.7.7.3.7.7.7.7-.3.7-.7ZM286.5,83.8c0-.4-.3-.7-.7-.7s-.7.3-.7.7.3.7.7.7.7-.3.7-.7ZM288.5,83.8c0-.4-.3-.7-.7-.7s-.7.3-.7.7.3.7.7.7.7-.3.7-.7ZM278.5,89.1c0-.4-.3-.7-.7-.7s-.7.3-.7.7.3.7.7.7.7-.3.7-.7ZM280.5,89.1c0-.4-.3-.7-.7-.7s-.7.3-.7.7.3.7.7.7.7-.3.7-.7ZM282.5,89.1c0-.4-.3-.7-.7-.7s-.7.3-.7.7.3.7.7.7.7-.3.7-.7ZM284.5,89.1c0-.4-.3-.7-.7-.7s-.7.3-.7.7.3.7.7.7.7-.3.7-.7ZM286.5,89.1c0-.4-.3-.7-.7-.7s-.7.3-.7.7.3.7.7.7.7-.3.7-.7ZM288.5,89.1c0-.4-.3-.7-.7-.7s-.7.3-.7.7.3.7.7.7.7-.3.7-.7ZM285.4,96.7c0-.4-.3-.7-.7-.7s-.7.3-.7.7.3.7.7.7.7-.3.7-.7ZM287.3,96.7c0-.4-.3-.7-.7-.7s-.7.3-.7.7.3.7.7.7.7-.3.7-.7ZM289.3,96.7c0-.4-.3-.7-.7-.7s-.7.3-.7.7.3.7.7.7.7-.3.7-.7ZM291.3,96.7c0-.4-.3-.7-.7-.7s-.7.3-.7.7.3.7.7.7.7-.3.7-.7ZM293.3,96.7c0-.4-.3-.7-.7-.7s-.7.3-.7.7.3.7.7.7.7-.3.7-.7ZM295.3,96.7c0-.4-.3-.7-.7-.7s-.7.3-.7.7.3.7.7.7.7-.3.7-.7ZM285.4,102.1c0-.4-.3-.7-.7-.7s-.7.3-.7.7.3.7.7.7.7-.3.7-.7ZM287.3,102.1c0-.4-.3-.7-.7-.7s-.7.3-.7.7.3.7.7.7.7-.3.7-.7ZM289.3,102.1c0-.4-.3-.7-.7-.7s-.7.3-.7.7.3.7.7.7.7-.3.7-.7ZM291.3,102.1c0-.4-.3-.7-.7-.7s-.7.3-.7.7.3.7.7.7.7-.3.7-.7ZM293.3,102.1c0-.4-.3-.7-.7-.7s-.7.3-.7.7.3.7.7.7.7-.3.7-.7ZM295.3,102.1c0-.4-.3-.7-.7-.7s-.7.3-.7.7.3.7.7.7.7-.3.7-.7Z"/><path class="cls-13" d="M266.6,106h-2.3c-.3,0-.6-.3-.6-.6s.3-.6.6-.6h2.3c.3,0,.6.3.6.6s-.3.6-.6.6ZM267.1,108.1c0-.3-.3-.6-.6-.6h-2.3c-.3,0-.6.3-.6.6s.3.6.6.6h2.3c.3,0,.6-.3.6-.6ZM267.1,110.8c0-.3-.3-.6-.6-.6h-2.3c-.3,0-.6.3-.6.6s.3.6.6.6h2.3c.3,0,.6-.3.6-.6ZM267.1,113.4c0-.3-.3-.6-.6-.6h-2.3c-.3,0-.6.3-.6.6s.3.6.6.6h2.3c.3,0,.6-.3.6-.6ZM267.1,116.1c0-.3-.3-.6-.6-.6h-2.3c-.3,0-.6.3-.6.6s.3.6.6.6h2.3c.3,0,.6-.3.6-.6ZM267.1,118.7c0-.3-.3-.6-.6-.6h-2.3c-.3,0-.6.3-.6.6s.3.6.6.6h2.3c.3,0,.6-.3.6-.6ZM267.1,121.4c0-.3-.3-.6-.6-.6h-2.3c-.3,0-.6.3-.6.6s.3.6.6.6h2.3c.3,0,.6-.3.6-.6ZM267.1,124c0-.3-.3-.6-.6-.6h-2.3c-.3,0-.6.3-.6.6s.3.6.6.6h2.3c.3,0,.6-.3.6-.6ZM275.8,105.5c0-.3-.3-.6-.6-.6h-6.1c-.3,0-.6.3-.6.6s.3.6.6.6h6.1c.3,0,.6-.3.6-.6ZM275.8,108.1c0-.3-.3-.6-.6-.6h-6.1c-.3,0-.6.3-.6.6s.3.6.6.6h6.1c.3,0,.6-.3.6-.6ZM275.8,110.8c0-.3-.3-.6-.6-.6h-6.1c-.3,0-.6.3-.6.6s.3.6.6.6h6.1c.3,0,.6-.3.6-.6ZM275.8,113.4c0-.3-.3-.6-.6-.6h-6.1c-.3,0-.6.3-.6.6s.3.6.6.6h6.1c.3,0,.6-.3.6-.6ZM275.8,116.1c0-.3-.3-.6-.6-.6h-6.1c-.3,0-.6.3-.6.6s.3.6.6.6h6.1c.3,0,.6-.3.6-.6ZM283.2,118.7c0-.3-.3-.6-.6-.6h-6.1c-.3,0-.6.3-.6.6s.3.6.6.6h6.1c.3,0,.6-.3.6-.6ZM283.2,121.4c0-.3-.3-.6-.6-.6h-6.1c-.3,0-.6.3-.6.6s.3.6.6.6h6.1c.3,0,.6-.3.6-.6ZM283.2,124c0-.3-.3-.6-.6-.6h-6.1c-.3,0-.6.3-.6.6s.3.6.6.6h6.1c.3,0,.6-.3.6-.6ZM278.5,105.5c0-.4-.3-.7-.7-.7s-.7.3-.7.7.3.7.7.7.7-.3.7-.7ZM280.5,105.5c0-.4-.3-.7-.7-.7s-.7.3-.7.7.3.7.7.7.7-.3.7-.7ZM282.5,105.5c0-.4-.3-.7-.7-.7s-.7.3-.7.7.3.7.7.7.7-.3.7-.7ZM284.5,105.5c0-.4-.3-.7-.7-.7s-.7.3-.7.7.3.7.7.7.7-.3.7-.7ZM286.5,105.5c0-.4-.3-.7-.7-.7s-.7.3-.7.7.3.7.7.7.7-.3.7-.7ZM288.5,105.5c0-.4-.3-.7-.7-.7s-.7.3-.7.7.3.7.7.7.7-.3.7-.7ZM278.5,110.8c0-.4-.3-.7-.7-.7s-.7.3-.7.7.3.7.7.7.7-.3.7-.7ZM280.5,110.8c0-.4-.3-.7-.7-.7s-.7.3-.7.7.3.7.7.7.7-.3.7-.7ZM282.5,110.8c0-.4-.3-.7-.7-.7s-.7.3-.7.7.3.7.7.7.7-.3.7-.7ZM284.5,110.8c0-.4-.3-.7-.7-.7s-.7.3-.7.7.3.7.7.7.7-.3.7-.7ZM286.5,110.8c0-.4-.3-.7-.7-.7s-.7.3-.7.7.3.7.7.7.7-.3.7-.7ZM288.5,110.8c0-.4-.3-.7-.7-.7s-.7.3-.7.7.3.7.7.7.7-.3.7-.7ZM285.4,118.4c0-.4-.3-.7-.7-.7s-.7.3-.7.7.3.7.7.7.7-.3.7-.7ZM287.3,118.4c0-.4-.3-.7-.7-.7s-.7.3-.7.7.3.7.7.7.7-.3.7-.7ZM289.3,118.4c0-.4-.3-.7-.7-.7s-.7.3-.7.7.3.7.7.7.7-.3.7-.7ZM291.3,118.4c0-.4-.3-.7-.7-.7s-.7.3-.7.7.3.7.7.7.7-.3.7-.7ZM293.3,118.4c0-.4-.3-.7-.7-.7s-.7.3-.7.7.3.7.7.7.7-.3.7-.7ZM295.3,118.4c0-.4-.3-.7-.7-.7s-.7.3-.7.7.3.7.7.7.7-.3.7-.7ZM285.4,123.8c0-.4-.3-.7-.7-.7s-.7.3-.7.7.3.7.7.7.7-.3.7-.7ZM287.3,123.8c0-.4-.3-.7-.7-.7s-.7.3-.7.7.3.7.7.7.7-.3.7-.7ZM289.3,123.8c0-.4-.3-.7-.7-.7s-.7.3-.7.7.3.7.7.7.7-.3.7-.7ZM291.3,123.8c0-.4-.3-.7-.7-.7s-.7.3-.7.7.3.7.7.7.7-.3.7-.7ZM293.3,123.8c0-.4-.3-.7-.7-.7s-.7.3-.7.7.3.7.7.7.7-.3.7-.7ZM295.3,123.8c0-.4-.3-.7-.7-.7s-.7.3-.7.7.3.7.7.7.7-.3.7-.7Z"/></g><g id="Device_1"><rect class="cls-2" x="157.3" y="152.4" width="8.6" height="16.8"/><rect class="cls-3" x="109.7" y="75.3" width="109" height="78.8"/><rect class="cls-7" x="115.5" y="79.5" width="97.3" height="70.3"/><path class="cls-13" d="M137.1,84.3h-2.5c-.3,0-.6-.3-.6-.6s.3-.6.6-.6h2.5c.3,0,.6.3.6.6s-.3.6-.6.6ZM137.7,86.4c0-.3-.3-.6-.6-.6h-2.5c-.3,0-.6.3-.6.6s.3.6.6.6h2.5c.3,0,.6-.3.6-.6ZM137.7,89.1c0-.3-.3-.6-.6-.6h-2.5c-.3,0-.6.3-.6.6s.3.6.6.6h2.5c.3,0,.6-.3.6-.6ZM137.7,91.7c0-.3-.3-.6-.6-.6h-2.5c-.3,0-.6.3-.6.6s.3.6.6.6h2.5c.3,0,.6-.3.6-.6ZM137.7,94.4c0-.3-.3-.6-.6-.6h-2.5c-.3,0-.6.3-.6.6s.3.6.6.6h2.5c.3,0,.6-.3.6-.6ZM137.7,97c0-.3-.3-.6-.6-.6h-2.5c-.3,0-.6.3-.6.6s.3.6.6.6h2.5c.3,0,.6-.3.6-.6ZM137.7,99.7c0-.3-.3-.6-.6-.6h-2.5c-.3,0-.6.3-.6.6s.3.6.6.6h2.5c.3,0,.6-.3.6-.6ZM137.7,102.3c0-.3-.3-.6-.6-.6h-2.5c-.3,0-.6.3-.6.6s.3.6.6.6h2.5c.3,0,.6-.3.6-.6ZM147.1,83.8c0-.3-.3-.6-.6-.6h-6.6c-.3,0-.6.3-.6.6s.3.6.6.6h6.6c.3,0,.6-.3.6-.6ZM147.1,86.4c0-.3-.3-.6-.6-.6h-6.6c-.3,0-.6.3-.6.6s.3.6.6.6h6.6c.3,0,.6-.3.6-.6ZM147.1,89.1c0-.3-.3-.6-.6-.6h-6.6c-.3,0-.6.3-.6.6s.3.6.6.6h6.6c.3,0,.6-.3.6-.6ZM147.1,91.7c0-.3-.3-.6-.6-.6h-6.6c-.3,0-.6.3-.6.6s.3.6.6.6h6.6c.3,0,.6-.3.6-.6ZM147.1,94.4c0-.3-.3-.6-.6-.6h-6.6c-.3,0-.6.3-.6.6s.3.6.6.6h6.6c.3,0,.6-.3.6-.6ZM155,97c0-.3-.3-.6-.6-.6h-6.6c-.3,0-.6.3-.6.6s.3.6.6.6h6.6c.3,0,.6-.3.6-.6ZM155,99.7c0-.3-.3-.6-.6-.6h-6.6c-.3,0-.6.3-.6.6s.3.6.6.6h6.6c.3,0,.6-.3.6-.6ZM155,102.3c0-.3-.3-.6-.6-.6h-6.6c-.3,0-.6.3-.6.6s.3.6.6.6h6.6c.3,0,.6-.3.6-.6ZM150,83.8c0-.4-.3-.7-.7-.7s-.7.3-.7.7.3.7.7.7.7-.3.7-.7ZM152.2,83.8c0-.4-.3-.7-.7-.7s-.7.3-.7.7.3.7.7.7.7-.3.7-.7ZM154.3,83.8c0-.4-.3-.7-.7-.7s-.7.3-.7.7.3.7.7.7.7-.3.7-.7ZM156.5,83.8c0-.4-.3-.7-.7-.7s-.7.3-.7.7.3.7.7.7.7-.3.7-.7ZM158.6,83.8c0-.4-.3-.7-.7-.7s-.7.3-.7.7.3.7.7.7.7-.3.7-.7ZM160.8,83.8c0-.4-.3-.7-.7-.7s-.7.3-.7.7.3.7.7.7.7-.3.7-.7ZM150,89.1c0-.4-.3-.7-.7-.7s-.7.3-.7.7.3.7.7.7.7-.3.7-.7ZM152.2,89.1c0-.4-.3-.7-.7-.7s-.7.3-.7.7.3.7.7.7.7-.3.7-.7ZM154.3,89.1c0-.4-.3-.7-.7-.7s-.7.3-.7.7.3.7.7.7.7-.3.7-.7ZM156.5,89.1c0-.4-.3-.7-.7-.7s-.7.3-.7.7.3.7.7.7.7-.3.7-.7ZM158.6,89.1c0-.4-.3-.7-.7-.7s-.7.3-.7.7.3.7.7.7.7-.3.7-.7ZM160.8,89.1c0-.4-.3-.7-.7-.7s-.7.3-.7.7.3.7.7.7.7-.3.7-.7ZM157.4,96.7c0-.4-.3-.7-.7-.7s-.7.3-.7.7.3.7.7.7.7-.3.7-.7ZM159.5,96.7c0-.4-.3-.7-.7-.7s-.7.3-.7.7.3.7.7.7.7-.3.7-.7ZM161.7,96.7c0-.4-.3-.7-.7-.7s-.7.3-.7.7.3.7.7.7.7-.3.7-.7ZM163.8,96.7c0-.4-.3-.7-.7-.7s-.7.3-.7.7.3.7.7.7.7-.3.7-.7ZM166,96.7c0-.4-.3-.7-.7-.7s-.7.3-.7.7.3.7.7.7.7-.3.7-.7ZM168.1,96.7c0-.4-.3-.7-.7-.7s-.7.3-.7.7.3.7.7.7.7-.3.7-.7ZM157.4,102.1c0-.4-.3-.7-.7-.7s-.7.3-.7.7.3.7.7.7.7-.3.7-.7ZM159.5,102.1c0-.4-.3-.7-.7-.7s-.7.3-.7.7.3.7.7.7.7-.3.7-.7ZM161.7,102.1c0-.4-.3-.7-.7-.7s-.7.3-.7.7.3.7.7.7.7-.3.7-.7ZM163.8,102.1c0-.4-.3-.7-.7-.7s-.7.3-.7.7.3.7.7.7.7-.3.7-.7ZM166,102.1c0-.4-.3-.7-.7-.7s-.7.3-.7.7.3.7.7.7.7-.3.7-.7ZM168.1,102.1c0-.4-.3-.7-.7-.7s-.7.3-.7.7.3.7.7.7.7-.3.7-.7Z"/><path class="cls-13" d="M137.1,105.5h-2.5c-.3,0-.6-.3-.6-.6s.3-.6.6-.6h2.5c.3,0,.6.3.6.6s-.3.6-.6.6ZM137.7,107.6c0-.3-.3-.6-.6-.6h-2.5c-.3,0-.6.3-.6.6s.3.6.6.6h2.5c.3,0,.6-.3.6-.6ZM137.7,110.2c0-.3-.3-.6-.6-.6h-2.5c-.3,0-.6.3-.6.6s.3.6.6.6h2.5c.3,0,.6-.3.6-.6ZM137.7,112.9c0-.3-.3-.6-.6-.6h-2.5c-.3,0-.6.3-.6.6s.3.6.6.6h2.5c.3,0,.6-.3.6-.6ZM137.7,115.5c0-.3-.3-.6-.6-.6h-2.5c-.3,0-.6.3-.6.6s.3.6.6.6h2.5c.3,0,.6-.3.6-.6ZM137.7,118.2c0-.3-.3-.6-.6-.6h-2.5c-.3,0-.6.3-.6.6s.3.6.6.6h2.5c.3,0,.6-.3.6-.6ZM137.7,120.8c0-.3-.3-.6-.6-.6h-2.5c-.3,0-.6.3-.6.6s.3.6.6.6h2.5c.3,0,.6-.3.6-.6ZM137.7,123.5c0-.3-.3-.6-.6-.6h-2.5c-.3,0-.6.3-.6.6s.3.6.6.6h2.5c.3,0,.6-.3.6-.6ZM147.1,105c0-.3-.3-.6-.6-.6h-6.6c-.3,0-.6.3-.6.6s.3.6.6.6h6.6c.3,0,.6-.3.6-.6ZM147.1,107.6c0-.3-.3-.6-.6-.6h-6.6c-.3,0-.6.3-.6.6s.3.6.6.6h6.6c.3,0,.6-.3.6-.6ZM147.1,110.2c0-.3-.3-.6-.6-.6h-6.6c-.3,0-.6.3-.6.6s.3.6.6.6h6.6c.3,0,.6-.3.6-.6ZM147.1,112.9c0-.3-.3-.6-.6-.6h-6.6c-.3,0-.6.3-.6.6s.3.6.6.6h6.6c.3,0,.6-.3.6-.6ZM147.1,115.5c0-.3-.3-.6-.6-.6h-6.6c-.3,0-.6.3-.6.6s.3.6.6.6h6.6c.3,0,.6-.3.6-.6ZM155,118.2c0-.3-.3-.6-.6-.6h-6.6c-.3,0-.6.3-.6.6s.3.6.6.6h6.6c.3,0,.6-.3.6-.6ZM155,120.8c0-.3-.3-.6-.6-.6h-6.6c-.3,0-.6.3-.6.6s.3.6.6.6h6.6c.3,0,.6-.3.6-.6ZM155,123.5c0-.3-.3-.6-.6-.6h-6.6c-.3,0-.6.3-.6.6s.3.6.6.6h6.6c.3,0,.6-.3.6-.6ZM150,105c0-.4-.3-.7-.7-.7s-.7.3-.7.7.3.7.7.7.7-.3.7-.7ZM152.2,105c0-.4-.3-.7-.7-.7s-.7.3-.7.7.3.7.7.7.7-.3.7-.7ZM154.3,105c0-.4-.3-.7-.7-.7s-.7.3-.7.7.3.7.7.7.7-.3.7-.7ZM156.5,105c0-.4-.3-.7-.7-.7s-.7.3-.7.7.3.7.7.7.7-.3.7-.7ZM158.6,105c0-.4-.3-.7-.7-.7s-.7.3-.7.7.3.7.7.7.7-.3.7-.7ZM160.8,105c0-.4-.3-.7-.7-.7s-.7.3-.7.7.3.7.7.7.7-.3.7-.7ZM150,110.2c0-.4-.3-.7-.7-.7s-.7.3-.7.7.3.7.7.7.7-.3.7-.7ZM152.2,110.2c0-.4-.3-.7-.7-.7s-.7.3-.7.7.3.7.7.7.7-.3.7-.7ZM154.3,110.2c0-.4-.3-.7-.7-.7s-.7.3-.7.7.3.7.7.7.7-.3.7-.7ZM156.5,110.2c0-.4-.3-.7-.7-.7s-.7.3-.7.7.3.7.7.7.7-.3.7-.7ZM158.6,110.2c0-.4-.3-.7-.7-.7s-.7.3-.7.7.3.7.7.7.7-.3.7-.7ZM160.8,110.2c0-.4-.3-.7-.7-.7s-.7.3-.7.7.3.7.7.7.7-.3.7-.7ZM157.4,117.9c0-.4-.3-.7-.7-.7s-.7.3-.7.7.3.7.7.7.7-.3.7-.7ZM159.5,117.9c0-.4-.3-.7-.7-.7s-.7.3-.7.7.3.7.7.7.7-.3.7-.7ZM161.7,117.9c0-.4-.3-.7-.7-.7s-.7.3-.7.7.3.7.7.7.7-.3.7-.7ZM163.8,117.9c0-.4-.3-.7-.7-.7s-.7.3-.7.7.3.7.7.7.7-.3.7-.7ZM166,117.9c0-.4-.3-.7-.7-.7s-.7.3-.7.7.3.7.7.7.7-.3.7-.7ZM168.1,117.9c0-.4-.3-.7-.7-.7s-.7.3-.7.7.3.7.7.7.7-.3.7-.7ZM157.4,123.3c0-.4-.3-.7-.7-.7s-.7.3-.7.7.3.7.7.7.7-.3.7-.7ZM159.5,123.3c0-.4-.3-.7-.7-.7s-.7.3-.7.7.3.7.7.7.7-.3.7-.7ZM161.7,123.3c0-.4-.3-.7-.7-.7s-.7.3-.7.7.3.7.7.7.7-.3.7-.7ZM163.8,123.3c0-.4-.3-.7-.7-.7s-.7.3-.7.7.3.7.7.7.7-.3.7-.7ZM166,123.3c0-.4-.3-.7-.7-.7s-.7.3-.7.7.3.7.7.7.7-.3.7-.7ZM168.1,123.3c0-.4-.3-.7-.7-.7s-.7.3-.7.7.3.7.7.7.7-.3.7-.7Z"/><path class="cls-13" d="M137.1,127.2h-2.5c-.3,0-.6-.3-.6-.6s.3-.6.6-.6h2.5c.3,0,.6.3.6.6s-.3.6-.6.6ZM137.7,129.3c0-.3-.3-.6-.6-.6h-2.5c-.3,0-.6.3-.6.6s.3.6.6.6h2.5c.3,0,.6-.3.6-.6ZM137.7,132c0-.3-.3-.6-.6-.6h-2.5c-.3,0-.6.3-.6.6s.3.6.6.6h2.5c.3,0,.6-.3.6-.6ZM137.7,134.6c0-.3-.3-.6-.6-.6h-2.5c-.3,0-.6.3-.6.6s.3.6.6.6h2.5c.3,0,.6-.3.6-.6ZM137.7,137.3c0-.3-.3-.6-.6-.6h-2.5c-.3,0-.6.3-.6.6s.3.6.6.6h2.5c.3,0,.6-.3.6-.6ZM137.7,139.9c0-.3-.3-.6-.6-.6h-2.5c-.3,0-.6.3-.6.6s.3.6.6.6h2.5c.3,0,.6-.3.6-.6ZM137.7,142.6c0-.3-.3-.6-.6-.6h-2.5c-.3,0-.6.3-.6.6s.3.6.6.6h2.5c.3,0,.6-.3.6-.6ZM137.7,145.2c0-.3-.3-.6-.6-.6h-2.5c-.3,0-.6.3-.6.6s.3.6.6.6h2.5c.3,0,.6-.3.6-.6ZM147.1,126.7c0-.3-.3-.6-.6-.6h-6.6c-.3,0-.6.3-.6.6s.3.6.6.6h6.6c.3,0,.6-.3.6-.6ZM147.1,129.3c0-.3-.3-.6-.6-.6h-6.6c-.3,0-.6.3-.6.6s.3.6.6.6h6.6c.3,0,.6-.3.6-.6ZM147.1,132c0-.3-.3-.6-.6-.6h-6.6c-.3,0-.6.3-.6.6s.3.6.6.6h6.6c.3,0,.6-.3.6-.6ZM147.1,134.6c0-.3-.3-.6-.6-.6h-6.6c-.3,0-.6.3-.6.6s.3.6.6.6h6.6c.3,0,.6-.3.6-.6ZM147.1,137.3c0-.3-.3-.6-.6-.6h-6.6c-.3,0-.6.3-.6.6s.3.6.6.6h6.6c.3,0,.6-.3.6-.6ZM155,139.9c0-.3-.3-.6-.6-.6h-6.6c-.3,0-.6.3-.6.6s.3.6.6.6h6.6c.3,0,.6-.3.6-.6ZM155,142.6c0-.3-.3-.6-.6-.6h-6.6c-.3,0-.6.3-.6.6s.3.6.6.6h6.6c.3,0,.6-.3.6-.6ZM155,145.2c0-.3-.3-.6-.6-.6h-6.6c-.3,0-.6.3-.6.6s.3.6.6.6h6.6c.3,0,.6-.3.6-.6ZM150,126.7c0-.4-.3-.7-.7-.7s-.7.3-.7.7.3.7.7.7.7-.3.7-.7ZM152.2,126.7c0-.4-.3-.7-.7-.7s-.7.3-.7.7.3.7.7.7.7-.3.7-.7ZM154.3,126.7c0-.4-.3-.7-.7-.7s-.7.3-.7.7.3.7.7.7.7-.3.7-.7ZM156.5,126.7c0-.4-.3-.7-.7-.7s-.7.3-.7.7.3.7.7.7.7-.3.7-.7ZM158.6,126.7c0-.4-.3-.7-.7-.7s-.7.3-.7.7.3.7.7.7.7-.3.7-.7ZM160.8,126.7c0-.4-.3-.7-.7-.7s-.7.3-.7.7.3.7.7.7.7-.3.7-.7ZM150,132c0-.4-.3-.7-.7-.7s-.7.3-.7.7.3.7.7.7.7-.3.7-.7ZM152.2,132c0-.4-.3-.7-.7-.7s-.7.3-.7.7.3.7.7.7.7-.3.7-.7ZM154.3,132c0-.4-.3-.7-.7-.7s-.7.3-.7.7.3.7.7.7.7-.3.7-.7ZM156.5,132c0-.4-.3-.7-.7-.7s-.7.3-.7.7.3.7.7.7.7-.3.7-.7ZM158.6,132c0-.4-.3-.7-.7-.7s-.7.3-.7.7.3.7.7.7.7-.3.7-.7ZM160.8,132c0-.4-.3-.7-.7-.7s-.7.3-.7.7.3.7.7.7.7-.3.7-.7ZM157.4,139.6c0-.4-.3-.7-.7-.7s-.7.3-.7.7.3.7.7.7.7-.3.7-.7ZM159.5,139.6c0-.4-.3-.7-.7-.7s-.7.3-.7.7.3.7.7.7.7-.3.7-.7ZM161.7,139.6c0-.4-.3-.7-.7-.7s-.7.3-.7.7.3.7.7.7.7-.3.7-.7ZM163.8,139.6c0-.4-.3-.7-.7-.7s-.7.3-.7.7.3.7.7.7.7-.3.7-.7ZM166,139.6c0-.4-.3-.7-.7-.7s-.7.3-.7.7.3.7.7.7.7-.3.7-.7ZM168.1,139.6c0-.4-.3-.7-.7-.7s-.7.3-.7.7.3.7.7.7.7-.3.7-.7ZM157.4,145c0-.4-.3-.7-.7-.7s-.7.3-.7.7.3.7.7.7.7-.3.7-.7ZM159.5,145c0-.4-.3-.7-.7-.7s-.7.3-.7.7.3.7.7.7.7-.3.7-.7ZM161.7,145c0-.4-.3-.7-.7-.7s-.7.3-.7.7.3.7.7.7.7-.3.7-.7ZM163.8,145c0-.4-.3-.7-.7-.7s-.7.3-.7.7.3.7.7.7.7-.3.7-.7ZM166,145c0-.4-.3-.7-.7-.7s-.7.3-.7.7.3.7.7.7.7-.3.7-.7ZM168.1,145c0-.4-.3-.7-.7-.7s-.7.3-.7.7.3.7.7.7.7-.3.7-.7Z"/><path class="cls-13" d="M175.6,84.3h-2.5c-.3,0-.6-.3-.6-.6s.3-.6.6-.6h2.5c.3,0,.6.3.6.6s-.3.6-.6.6ZM176.2,86.4c0-.3-.3-.6-.6-.6h-2.5c-.3,0-.6.3-.6.6s.3.6.6.6h2.5c.3,0,.6-.3.6-.6ZM176.2,89.1c0-.3-.3-.6-.6-.6h-2.5c-.3,0-.6.3-.6.6s.3.6.6.6h2.5c.3,0,.6-.3.6-.6ZM176.2,91.7c0-.3-.3-.6-.6-.6h-2.5c-.3,0-.6.3-.6.6s.3.6.6.6h2.5c.3,0,.6-.3.6-.6ZM176.2,94.4c0-.3-.3-.6-.6-.6h-2.5c-.3,0-.6.3-.6.6s.3.6.6.6h2.5c.3,0,.6-.3.6-.6ZM176.2,97c0-.3-.3-.6-.6-.6h-2.5c-.3,0-.6.3-.6.6s.3.6.6.6h2.5c.3,0,.6-.3.6-.6ZM176.2,99.7c0-.3-.3-.6-.6-.6h-2.5c-.3,0-.6.3-.6.6s.3.6.6.6h2.5c.3,0,.6-.3.6-.6ZM176.2,102.3c0-.3-.3-.6-.6-.6h-2.5c-.3,0-.6.3-.6.6s.3.6.6.6h2.5c.3,0,.6-.3.6-.6ZM185.6,83.8c0-.3-.3-.6-.6-.6h-6.6c-.3,0-.6.3-.6.6s.3.6.6.6h6.6c.3,0,.6-.3.6-.6ZM185.6,86.4c0-.3-.3-.6-.6-.6h-6.6c-.3,0-.6.3-.6.6s.3.6.6.6h6.6c.3,0,.6-.3.6-.6ZM185.6,89.1c0-.3-.3-.6-.6-.6h-6.6c-.3,0-.6.3-.6.6s.3.6.6.6h6.6c.3,0,.6-.3.6-.6ZM185.6,91.7c0-.3-.3-.6-.6-.6h-6.6c-.3,0-.6.3-.6.6s.3.6.6.6h6.6c.3,0,.6-.3.6-.6ZM185.6,94.4c0-.3-.3-.6-.6-.6h-6.6c-.3,0-.6.3-.6.6s.3.6.6.6h6.6c.3,0,.6-.3.6-.6ZM318.7,83.2c0-.3-.3-.6-.6-.6h-6.6c-.3,0-.6.3-.6.6s.3.6.6.6h6.6c.3,0,.6-.3.6-.6ZM318.7,85.8c0-.3-.3-.6-.6-.6h-6.6c-.3,0-.6.3-.6.6s.3.6.6.6h6.6c.3,0,.6-.3.6-.6ZM318.7,88.5c0-.3-.3-.6-.6-.6h-6.6c-.3,0-.6.3-.6.6s.3.6.6.6h6.6c.3,0,.6-.3.6-.6ZM318.7,91.1c0-.3-.3-.6-.6-.6h-6.6c-.3,0-.6.3-.6.6s.3.6.6.6h6.6c.3,0,.6-.3.6-.6ZM318.7,93.8c0-.3-.3-.6-.6-.6h-6.6c-.3,0-.6.3-.6.6s.3.6.6.6h6.6c.3,0,.6-.3.6-.6ZM319.2,121.4c0-.3-.3-.6-.6-.6h-6.6c-.3,0-.6.3-.6.6s.3.6.6.6h6.6c.3,0,.6-.3.6-.6ZM319.2,124c0-.3-.3-.6-.6-.6h-6.6c-.3,0-.6.3-.6.6s.3.6.6.6h6.6c.3,0,.6-.3.6-.6ZM319.2,126.7c0-.3-.3-.6-.6-.6h-6.6c-.3,0-.6.3-.6.6s.3.6.6.6h6.6c.3,0,.6-.3.6-.6ZM319.2,129.3c0-.3-.3-.6-.6-.6h-6.6c-.3,0-.6.3-.6.6s.3.6.6.6h6.6c.3,0,.6-.3.6-.6ZM319.2,132c0-.3-.3-.6-.6-.6h-6.6c-.3,0-.6.3-.6.6s.3.6.6.6h6.6c.3,0,.6-.3.6-.6ZM193.5,97c0-.3-.3-.6-.6-.6h-6.6c-.3,0-.6.3-.6.6s.3.6.6.6h6.6c.3,0,.6-.3.6-.6ZM193.5,99.7c0-.3-.3-.6-.6-.6h-6.6c-.3,0-.6.3-.6.6s.3.6.6.6h6.6c.3,0,.6-.3.6-.6ZM193.5,102.3c0-.3-.3-.6-.6-.6h-6.6c-.3,0-.6.3-.6.6s.3.6.6.6h6.6c.3,0,.6-.3.6-.6ZM188.5,83.8c0-.4-.3-.7-.7-.7s-.7.3-.7.7.3.7.7.7.7-.3.7-.7ZM190.7,83.8c0-.4-.3-.7-.7-.7s-.7.3-.7.7.3.7.7.7.7-.3.7-.7ZM192.8,83.8c0-.4-.3-.7-.7-.7s-.7.3-.7.7.3.7.7.7.7-.3.7-.7ZM195,83.8c0-.4-.3-.7-.7-.7s-.7.3-.7.7.3.7.7.7.7-.3.7-.7ZM197.1,83.8c0-.4-.3-.7-.7-.7s-.7.3-.7.7.3.7.7.7.7-.3.7-.7ZM199.3,83.8c0-.4-.3-.7-.7-.7s-.7.3-.7.7.3.7.7.7.7-.3.7-.7ZM188.5,89.1c0-.4-.3-.7-.7-.7s-.7.3-.7.7.3.7.7.7.7-.3.7-.7ZM190.7,89.1c0-.4-.3-.7-.7-.7s-.7.3-.7.7.3.7.7.7.7-.3.7-.7ZM192.8,89.1c0-.4-.3-.7-.7-.7s-.7.3-.7.7.3.7.7.7.7-.3.7-.7ZM195,89.1c0-.4-.3-.7-.7-.7s-.7.3-.7.7.3.7.7.7.7-.3.7-.7ZM197.1,89.1c0-.4-.3-.7-.7-.7s-.7.3-.7.7.3.7.7.7.7-.3.7-.7ZM199.3,89.1c0-.4-.3-.7-.7-.7s-.7.3-.7.7.3.7.7.7.7-.3.7-.7ZM195.9,96.7c0-.4-.3-.7-.7-.7s-.7.3-.7.7.3.7.7.7.7-.3.7-.7ZM198,96.7c0-.4-.3-.7-.7-.7s-.7.3-.7.7.3.7.7.7.7-.3.7-.7ZM200.2,96.7c0-.4-.3-.7-.7-.7s-.7.3-.7.7.3.7.7.7.7-.3.7-.7ZM202.3,96.7c0-.4-.3-.7-.7-.7s-.7.3-.7.7.3.7.7.7.7-.3.7-.7ZM204.5,96.7c0-.4-.3-.7-.7-.7s-.7.3-.7.7.3.7.7.7.7-.3.7-.7ZM206.6,96.7c0-.4-.3-.7-.7-.7s-.7.3-.7.7.3.7.7.7.7-.3.7-.7ZM195.9,102.1c0-.4-.3-.7-.7-.7s-.7.3-.7.7.3.7.7.7.7-.3.7-.7ZM198,102.1c0-.4-.3-.7-.7-.7s-.7.3-.7.7.3.7.7.7.7-.3.7-.7ZM200.2,102.1c0-.4-.3-.7-.7-.7s-.7.3-.7.7.3.7.7.7.7-.3.7-.7ZM202.3,102.1c0-.4-.3-.7-.7-.7s-.7.3-.7.7.3.7.7.7.7-.3.7-.7ZM204.5,102.1c0-.4-.3-.7-.7-.7s-.7.3-.7.7.3.7.7.7.7-.3.7-.7ZM206.6,102.1c0-.4-.3-.7-.7-.7s-.7.3-.7.7.3.7.7.7.7-.3.7-.7Z"/><path class="cls-13" d="M175.6,106h-2.5c-.3,0-.6-.3-.6-.6s.3-.6.6-.6h2.5c.3,0,.6.3.6.6s-.3.6-.6.6ZM176.2,108.1c0-.3-.3-.6-.6-.6h-2.5c-.3,0-.6.3-.6.6s.3.6.6.6h2.5c.3,0,.6-.3.6-.6ZM176.2,110.8c0-.3-.3-.6-.6-.6h-2.5c-.3,0-.6.3-.6.6s.3.6.6.6h2.5c.3,0,.6-.3.6-.6ZM176.2,113.4c0-.3-.3-.6-.6-.6h-2.5c-.3,0-.6.3-.6.6s.3.6.6.6h2.5c.3,0,.6-.3.6-.6ZM176.2,116.1c0-.3-.3-.6-.6-.6h-2.5c-.3,0-.6.3-.6.6s.3.6.6.6h2.5c.3,0,.6-.3.6-.6ZM176.2,118.7c0-.3-.3-.6-.6-.6h-2.5c-.3,0-.6.3-.6.6s.3.6.6.6h2.5c.3,0,.6-.3.6-.6ZM176.2,121.4c0-.3-.3-.6-.6-.6h-2.5c-.3,0-.6.3-.6.6s.3.6.6.6h2.5c.3,0,.6-.3.6-.6ZM176.2,124c0-.3-.3-.6-.6-.6h-2.5c-.3,0-.6.3-.6.6s.3.6.6.6h2.5c.3,0,.6-.3.6-.6ZM185.6,105.5c0-.3-.3-.6-.6-.6h-6.6c-.3,0-.6.3-.6.6s.3.6.6.6h6.6c.3,0,.6-.3.6-.6ZM185.6,108.1c0-.3-.3-.6-.6-.6h-6.6c-.3,0-.6.3-.6.6s.3.6.6.6h6.6c.3,0,.6-.3.6-.6ZM185.6,110.8c0-.3-.3-.6-.6-.6h-6.6c-.3,0-.6.3-.6.6s.3.6.6.6h6.6c.3,0,.6-.3.6-.6ZM185.6,113.4c0-.3-.3-.6-.6-.6h-6.6c-.3,0-.6.3-.6.6s.3.6.6.6h6.6c.3,0,.6-.3.6-.6ZM185.6,116.1c0-.3-.3-.6-.6-.6h-6.6c-.3,0-.6.3-.6.6s.3.6.6.6h6.6c.3,0,.6-.3.6-.6ZM193.5,118.7c0-.3-.3-.6-.6-.6h-6.6c-.3,0-.6.3-.6.6s.3.6.6.6h6.6c.3,0,.6-.3.6-.6ZM193.5,121.4c0-.3-.3-.6-.6-.6h-6.6c-.3,0-.6.3-.6.6s.3.6.6.6h6.6c.3,0,.6-.3.6-.6ZM193.5,124c0-.3-.3-.6-.6-.6h-6.6c-.3,0-.6.3-.6.6s.3.6.6.6h6.6c.3,0,.6-.3.6-.6ZM188.5,105.5c0-.4-.3-.7-.7-.7s-.7.3-.7.7.3.7.7.7.7-.3.7-.7ZM190.7,105.5c0-.4-.3-.7-.7-.7s-.7.3-.7.7.3.7.7.7.7-.3.7-.7ZM192.8,105.5c0-.4-.3-.7-.7-.7s-.7.3-.7.7.3.7.7.7.7-.3.7-.7ZM195,105.5c0-.4-.3-.7-.7-.7s-.7.3-.7.7.3.7.7.7.7-.3.7-.7ZM197.1,105.5c0-.4-.3-.7-.7-.7s-.7.3-.7.7.3.7.7.7.7-.3.7-.7ZM199.3,105.5c0-.4-.3-.7-.7-.7s-.7.3-.7.7.3.7.7.7.7-.3.7-.7ZM188.5,110.8c0-.4-.3-.7-.7-.7s-.7.3-.7.7.3.7.7.7.7-.3.7-.7ZM190.7,110.8c0-.4-.3-.7-.7-.7s-.7.3-.7.7.3.7.7.7.7-.3.7-.7ZM192.8,110.8c0-.4-.3-.7-.7-.7s-.7.3-.7.7.3.7.7.7.7-.3.7-.7ZM195,110.8c0-.4-.3-.7-.7-.7s-.7.3-.7.7.3.7.7.7.7-.3.7-.7ZM197.1,110.8c0-.4-.3-.7-.7-.7s-.7.3-.7.7.3.7.7.7.7-.3.7-.7ZM199.3,110.8c0-.4-.3-.7-.7-.7s-.7.3-.7.7.3.7.7.7.7-.3.7-.7ZM195.9,118.4c0-.4-.3-.7-.7-.7s-.7.3-.7.7.3.7.7.7.7-.3.7-.7ZM198,118.4c0-.4-.3-.7-.7-.7s-.7.3-.7.7.3.7.7.7.7-.3.7-.7ZM200.2,118.4c0-.4-.3-.7-.7-.7s-.7.3-.7.7.3.7.7.7.7-.3.7-.7ZM202.3,118.4c0-.4-.3-.7-.7-.7s-.7.3-.7.7.3.7.7.7.7-.3.7-.7ZM204.5,118.4c0-.4-.3-.7-.7-.7s-.7.3-.7.7.3.7.7.7.7-.3.7-.7ZM206.6,118.4c0-.4-.3-.7-.7-.7s-.7.3-.7.7.3.7.7.7.7-.3.7-.7ZM195.9,123.8c0-.4-.3-.7-.7-.7s-.7.3-.7.7.3.7.7.7.7-.3.7-.7ZM198,123.8c0-.4-.3-.7-.7-.7s-.7.3-.7.7.3.7.7.7.7-.3.7-.7ZM200.2,123.8c0-.4-.3-.7-.7-.7s-.7.3-.7.7.3.7.7.7.7-.3.7-.7ZM202.3,123.8c0-.4-.3-.7-.7-.7s-.7.3-.7.7.3.7.7.7.7-.3.7-.7ZM204.5,123.8c0-.4-.3-.7-.7-.7s-.7.3-.7.7.3.7.7.7.7-.3.7-.7ZM206.6,123.8c0-.4-.3-.7-.7-.7s-.7.3-.7.7.3.7.7.7.7-.3.7-.7Z"/></g><g id="Character"><path class="cls-9" d="M165.9,52.9c-.3,3.8-2.1,6.7-4,6.6-1.9-.1-3.2-3.3-2.9-7.1.3-3.8,2.1-6.7,4-6.6,1.9.1,3.2,3.3,2.9,7.1Z"/><path class="cls-4" d="M163,33.3s.4,7-.8,10.3c-1.2,3.3-2.7,5.4-2.7,7s2.5,3.5,2.5,6.6-5.6,18-7.2,20.9c-1.5,2.9-1,3.9-2.9,4.1s-6.8-2.1-6.8-2.1c0,0-2.9.4-3.3,1.5-.4,1.2-1.4,5.2-1.4,5.2l-28.2-12.6s4.1-4.3,5.8-9.9c1.7-5.6-1-14.3-1-14.3,0,0-2.7-20.3,9.7-26.1,12.4-5.8,30.4-2.1,33.3.8,2.9,2.9,2.9,8.7,2.9,8.7Z"/><g class="cls-20"><path class="cls-6" d="M145,65.4c.3-9-2.1-20.5-2.1-20.5,0,0,.3-2.8-4.9-11.5-1.9-3.2-4.1-7.4-7-11.2-1.4.4-2.8.9-4.1,1.5-12.4,5.8-9.7,26.1-9.7,26.1,0,0,2.7,8.7,1,14.3s-5.8,9.9-5.8,9.9l16.4,7.3,13.1-1.8s.7.3,1.7.7c.9-.3,1.7-.4,1.7-.4,0,0,4.8,2.3,6.8,2.1,1.3-1.6-7.4-7.6-7-16.6Z"/></g><path class="cls-8" d="M163,33.3s.4,7-.8,10.3c-1.2,3.3-2.7,5.4-2.7,7s2.5,3.5,2.5,6.6-5.6,18-7.2,20.9c-1.5,2.9-1,3.9-2.9,4.1s-6.8-2.1-6.8-2.1c0,0-2.9.4-3.3,1.5-.4,1.2-1.4,5.2-1.4,5.2l-28.2-12.6s4.1-4.3,5.8-9.9c1.7-5.6-1-14.3-1-14.3,0,0-2.7-20.3,9.7-26.1,12.4-5.8,30.4-2.1,33.3.8,2.9,2.9,2.9,8.7,2.9,8.7Z"/><path class="cls-5" d="M139.6,51.3s4.6,1.4,5.2,0c.6-1.4-1.2-1.7,1-2.5,2.1-.8,7.2-3.9,7.2-7s-5.8-8.3-2.9-9.1c2.9-.8,11.8-.4,11.8-.4,0,0-6.2,2.9-3.1,4.3,3.1,1.4,10.6-.4,13.5-4.6,2.9-4.3-1.2-11-6.8-14.7-5.6-3.7-16.8-6.8-27.9-6.4-11,.4-19.2,4.3-21.5,10.6s1.4,28.8,1.5,34.8c.2,6,3.9,7.7,8.1,7.7s7.9-3.7,8.9-7c1-3.3,1.4-6.6,1.9-7.4.6-.8,2.9,1.5,2.9,1.5Z"/><line class="cls-9" x1="137.9" y1="48" x2="165.6" y2="50.9"/><path class="cls-3" d="M141.8,54.2s.4-6.8-2.1-10.1c-2.5-3.3-4.6-1-5.8,5.6-1.2,6.6-1.2,10.1,1.4,11,2.5,1,5-.2,5-.2"/><path class="cls-11" d="M212.3,230c-2.3-2.3-8.5-7.7-16.2-9.6-9.9-2.4-53.3-7.3-53.3-7.3l-2.1-8.7s-6.1-1.9-7.5-1.9-7.8,2.1-21.9,5.2c-14.1,3.1-39.5-4.4-39.5-4.4,0,0-6.9,5.1-6.9,14.7s.6,11,1.3,12h146.2Z"/><path class="cls-18" d="M106.5,78s-.3.2-.7.5c-2.7,1.9-12.8,8.8-20.4,14.8-8.9,7-9.5,19.9-9.9,30-.4,10.1-6.9,72.7-8.4,80.4-1.5,7.7,12.3,9.7,25.6,11.7,13.4,1.9,30.6-.2,38.9-4.1,8.3-3.9,10.3-3.7,10.3-7.9s.2-13.9.2-14.7,6-48.2,5.6-62.1c-.4-13.9.8-21.5-2.5-28.4-3.3-7-11.6-12.4-22.6-16.1s-16.1-4.1-16.1-4.1Z"/><g class="cls-16"><path class="cls-15" d="M138.9,106.1c-3.3-6.6-13.8-18.6-13.8-18.6,0,0,8-2.4-19.3-9,0,0,0,0,0,0-2.7,1.9-12.8,8.8-20.4,14.8-8.9,7-9.5,19.9-9.9,30-.4,10.1-6.9,72.7-8.4,80.4-1.5,7.7,12.3,9.7,25.6,11.7,3.4.5,7,.7,10.6.7l38.9-31.9s0,.1.3.3c1-8.9,3.6-30.2,4.6-45.3-2.8-13.1-6.1-28.5-8.3-33.1Z"/><path class="cls-9" d="M93.4,118.2s1.8,17.2,10.1,28.1"/><path class="cls-9" d="M118.3,146.9s1.8,4.1,10.7,11"/><path class="cls-9" d="M111.2,159.4s9.5,3.3,18.7,1.5"/><path class="cls-9" d="M108.2,215.9s19.5-10.1,27.2-19.8"/></g><path class="cls-9" d="M106.5,78s-.3.2-.7.5c-2.7,1.9-12.8,8.8-20.4,14.8-8.9,7-9.5,19.9-9.9,30-.4,10.1-6.9,72.7-8.4,80.4-1.5,7.7,12.3,9.7,25.6,11.7,13.4,1.9,30.6-.2,38.9-4.1,8.3-3.9,10.3-3.7,10.3-7.9s.2-13.9.2-14.7,6-48.2,5.6-62.1c-.4-13.9.8-21.5-2.5-28.4-3.3-7-11.6-12.4-22.6-16.1s-16.1-4.1-16.1-4.1Z"/><path class="cls-18" d="M108.5,71.4l-5.2,8.7s15.7,3.7,23.8,7c8.1,3.3,19,12,19,12,0,0-1.7-9.9-3.3-12.4-1.5-2.5-17.6-11-24.2-13.5s-10.1-1.7-10.1-1.7Z"/><g class="cls-19"><path class="cls-15" d="M132.6,89.9c.8-.4,1.4-.9,1.4-1.6.6-4.6-7.2-11.2-7.6-11.5-3.1-1.5-5.9-2.8-7.9-3.6-6.6-2.5-10.1-1.7-10.1-1.7l-5.2,8.7s15.7,3.7,23.8,7c1.8.7,3.7,1.7,5.6,2.8Z"/></g><path class="cls-9" d="M108.5,71.4l-5.2,8.7s15.7,3.7,23.8,7c8.1,3.3,19,12,19,12,0,0-1.7-9.9-3.3-12.4-1.5-2.5-17.6-11-24.2-13.5s-10.1-1.7-10.1-1.7Z"/><path class="cls-3" d="M201.6,181s5-4.3,7.4-8.5c2.3-4.3,3.9-5.4,5.6-5s3.1.4,3.1.4c0,0,6.2-3.7,8.1-4.1s5.8,4.3,5.8,4.3c0,0,6.6,5,5.8,6.2-.8,1.2-1.9.6-2.7.6s-2.5-1.4-3.5-1c-1,.4-5.2,3.1-5.2,3.1,0,0,5,0,6.4.6,1.4.6,6.4,5,5.4,5.6-1,.6-1,.8-2.1.6-1.2-.2-3.9-1.9-3.9-1.9l-5.2,1s3.1,3.3,4.1,4.1c1,.8,4.6,1.9,3.1,2.9-1.5,1-2.7.6-4.6-.8-1.9-1.4-6.2-3.5-7-3.5s-2.9,2.7-6.4,3.9c-3.5,1.2-8.7,1.2-8.7,1.2l-1,1-5.8-7-1.2-1,2.5-2.5Z"/><path class="cls-8" d="M231.5,168s-1.7-1-2.9-.4c-1.2.6-8.5,4.8-8.5,4.8"/><line class="cls-8" x1="217.6" y1="167.8" x2="214.1" y2="170.1"/><path class="cls-3" d="M166.7,184.1s12.8-.2,14.7-1.4c1.9-1.2,6.6-4.5,6.8-5.8s-1-2.1-2.9-1.4c-1.9.8-7,2.7-7.7,2.7s-4.1-1.2-4.1-1.2c0,0,5.6-5,7.9-6.4,2.3-1.4,4.8-.8,6.2,0,1.4.8,3.5-1.7,1.7-3.1-1.7-1.4-4.3-2.3-6.2-2.1-1.9.2-2.7.6-2.7.6,0,0-2.1-3.5-3.7-3.1-1.5.4-2.7,1.5-2.7,1.5,0,0-1.7-1-3.5.2-1.7,1.2-3.5,1.5-5.4,3.1-1.9,1.5-7.5,5.2-8.3,6.6-.8,1.4,9.9,9.7,9.9,9.7Z"/><line class="cls-8" x1="180.5" y1="166.1" x2="175" y2="169.2"/><line class="cls-8" x1="174.1" y1="164.5" x2="170.2" y2="167.2"/><path class="cls-18" d="M129.8,117.9s-5.4,7.4-7.2,13.2c-1.7,5.8.4,14.1,1,16.1.6,1.9,31.5,62.9,34.8,68.9,3.3,6,7,6.4,9.7,5.4,2.7-1,33.9-23.2,35-24.4s6.4-5.6,6.4-5.6c0,0,1-6.2-3.3-9.5-4.3-3.3-6.4-1.5-6.4-1.5l-27.1,7.4s-15.3-52.6-17-62.7c-1.7-10.1,1-9.5-4.5-14.9-5.4-5.4-12-9.5-12-9.5"/><g class="cls-17"><path class="cls-15" d="M203.1,197c1.2-1.2,6.4-5.6,6.4-5.6,0,0,.3-2.1-.2-4.5-10.9,4.3-33.2,13.2-34.5,14.5-1.7,1.7-.9-1.3-.9-4.7s-5.2,6-6,8.2c-.9,2.2-2.8-6.1-3.5-9.5-.6-3.4-10.8-29.3-13.8-41.4s-8.4-41.3-11.7-47.9c-.5-1-1.2-2.1-1.9-3.3l-8.2,14.6s-4.5,7.9-6.2,13.7c-1.7,5.8.4,14.1,1,16.1.3,1.1,9.6,19.6,18.6,37.3l.2-.2s16.4,41.5,24.5,37.5c7.9-5,35.3-23.7,36.3-24.7Z"/></g><path class="cls-9" d="M129.8,117.9s-5.4,7.4-7.2,13.2c-1.7,5.8.4,14.1,1,16.1.6,1.9,31.5,62.9,34.8,68.9,3.3,6,7,6.4,9.7,5.4,2.7-1,33.9-23.2,35-24.4s6.4-5.6,6.4-5.6c0,0,1-6.2-3.3-9.5-4.3-3.3-6.4-1.5-6.4-1.5l-27.1,7.4s-15.3-52.6-17-62.7c-1.7-10.1,1-9.5-4.5-14.9-5.4-5.4-12-9.5-12-9.5"/><path class="cls-9" d="M196.1,182.1s8.8,1.1,9.3,12.8"/></g><g id="Chair"><path class="cls-3" d="M102.6,230.8h4.5c-6.9-12.8-44.7-83.7-46-86.9-1.4-3.5-3.5-3.5-4.2-5-.7-1.4.2-7.5,0-11.6s-13.2-41.3-16.7-47.4c-3.5-6.1-8.9-5.4-8.9-5.4l-1.4,3.8,22.4,61.1,50.5,91.4Z"/><path class="cls-2" d="M14.9,143.2c9.3,21.5,35.7,81.7,37.9,87.6h49.8c-5.8-10.5-40.6-73.4-47.9-93.3-8-21.7-20.5-60.4-23.5-63-3.1-2.6-18.4-2.6-24.5-.7-6.1,1.9-6.4,2.6-6.1,6.6s5.1,41.3,14.4,62.7Z"/><line class="cls-2" x1="52.8" y1="230.8" x2="368.8" y2="230.8"/></g></svg>