<?xml version="1.0" encoding="UTF-8"?>
<svg xmlns="http://www.w3.org/2000/svg" version="1.1" xmlns:xlink="http://www.w3.org/1999/xlink" viewBox="0 0 664.9 230">
  <!-- Generator: Adobe Illustrator 29.2.1, SVG Export Plug-In . SVG Version: 2.1.0 Build 116)  -->
  <defs>
    <style>
      .st0, .st1 {
        fill: #333a4c;
      }

      .st2, .st3 {
        fill: #fff;
      }

      .st2, .st4, .st5, .st6, .st1, .st7 {
        stroke: #333a4c;
      }

      .st2, .st4, .st8, .st9, .st6, .st10, .st1, .st11, .st7 {
        stroke-linecap: round;
        stroke-linejoin: round;
      }

      .st12 {
        fill: #00ff41;
      }

      .st13 {
        fill: #b7c6fd;
      }

      .st4 {
        fill: #b28e59;
      }

      .st5, .st14 {
        opacity: .4;
        stroke-miterlimit: 10;
      }

      .st15 {
        clip-path: url(#clippath-1);
      }

      .st8, .st9, .st7 {
        fill: none;
      }

      .st8, .st10, .st14, .st11 {
        stroke: #000;
      }

      .st9 {
        stroke: #fff;
        stroke-width: .5px;
      }

      .st6 {
        fill: #252a37;
      }

      .st16 {
        clip-path: url(#clippath-3);
      }

      .st17, .st11 {
        fill: #0045ff;
      }

      .st18 {
        clip-path: url(#clippath-2);
      }

      .st19 {
        clip-path: url(#clippath);
      }
    </style>
    <clipPath id="clippath">
      <path class="st2" d="M272.4,32.1s.4,7-.8,10.3c-1.2,3.3-2.7,5.4-2.7,7s2.5,3.5,2.5,6.6-5.6,18-7.2,20.9c-1.5,2.9-1,3.9-2.9,4.1s-6.8-2.1-6.8-2.1c0,0-2.9.4-3.3,1.5-.4,1.2-1.4,5.2-1.4,5.2l-28.2-12.6s4.1-4.3,5.8-9.9c1.7-5.6-1-14.3-1-14.3,0,0-2.7-20.3,9.7-26.1,12.4-5.8,30.4-2.1,33.3.8,2.9,2.9,2.9,8.7,2.9,8.7Z"/>
    </clipPath>
    <clipPath id="clippath-1">
      <path class="st11" d="M215.9,76.8s-.3.2-.7.5c-2.7,1.9-12.8,8.8-20.4,14.8-8.9,7-9.5,19.9-9.9,30-.4,10.1-6.9,72.7-8.4,80.4-1.5,7.7,12.3,9.7,25.6,11.7,13.4,1.9,30.6-.2,38.9-4.1,8.3-3.9,10.3-3.7,10.3-7.9s.2-13.9.2-14.7,6-48.2,5.6-62.1c-.4-13.9.8-21.5-2.5-28.4-3.3-7-11.6-12.4-22.6-16.1s-16.1-4.1-16.1-4.1Z"/>
    </clipPath>
    <clipPath id="clippath-2">
      <path class="st11" d="M217.8,70.2l-5.2,8.7s15.7,3.7,23.8,7c8.1,3.3,19,12,19,12,0,0-1.7-9.9-3.3-12.4-1.5-2.5-17.6-11-24.2-13.5s-10.1-1.7-10.1-1.7Z"/>
    </clipPath>
    <clipPath id="clippath-3">
      <path class="st11" d="M239.1,116.6s-5.4,7.4-7.2,13.2c-1.7,5.8.4,14.1,1,16.1.6,1.9,31.5,62.9,34.8,68.9,3.3,6,7,6.4,9.7,5.4,2.7-1,33.9-23.2,35-24.4s6.4-5.6,6.4-5.6c0,0,1-6.2-3.3-9.5-4.3-3.3-6.4-1.5-6.4-1.5l-27.1,7.4s-15.3-52.6-17-62.7c-1.7-10.1,1-9.5-4.5-14.9-5.4-5.4-12-9.5-12-9.5"/>
    </clipPath>
  </defs>
  <g id="Background_Simple">
    <path class="st13" d="M128.6,79.8c-4.1-29.2,17.4-50,34.8-60.4C193.1.1,225.7,0,249.3,0c32.6,0,54.3,6.8,97.7,19.5,0,0,48.5,14.3,113.8,44.4,16,7.6,50.5,24.7,60.5,34.3,54.4,50.6,11.5,120.5-40.9,131.2-18.8.9-88.6-.4-114.4.2,0,0-123.8,1.2-149-.6-9-.7-12.4-2.8-19.8-3.5-.7,0-2.8-.2-4.5-1.5-1.3-1-1.8-2.5-2.6-4.3-3.4-4.8-51.8-71.6-61.6-140Z"/>
  </g>
  <g id="Plants">
    <path class="st0" d="M473.4,177.1c-3.6,4.5-5.4,7-6.2,8.2.7-3.9,2-8.8,4.1-14.6,1.4-3.8,2.2-7.6,2.5-11.4-.2,0-.3.2-.3.2l-.3-.6c.1,0,12.5-6.6,15.9-12.8l.6.3c-3.2,5.6-12.9,11.2-15.6,12.7,2.5-.2,10.4-1.4,15.1-7.2,5.6-7,4.7-15.6,4.7-15.6,0,0-10.6,7.3-15,13-2.7,3.6-4.3,6.6-5,8.4.2-4.6-.2-9.2-1-13.7,3.5-2.8,16.6-13.5,18-21.6,1.7-9.3-.7-25.2-.7-25.2,0,0-1.7,4.3-4.7,9.6-3,5.3-12.3,13.6-14,22.6-.5,2.5-.6,4.8-.7,6.8-1.5-5.2-3.4-10.2-5.4-14.7-.5-1.2-1-2.6-1.3-4h0s-.3-.2-.3-.2c0-.1,6-10.2,6-13.1h.7c0,2.7-4.6,10.8-5.8,12.9,2.1-1.3,5.5-3.8,6.8-7.8,1.9-5.9-.9-11.3-.9-11.3,0,0-5.1,7.4-6.4,12.2-.9,3-1.1,5.3-1.2,6.7-1-2.5-2.5-5.8-4.2-8.1-3-4-5-10-5-10,0,0-3.7,6.3-1,13,2.2,5.5,8.4,7.6,10.5,8.1.2.7.5,1.4.8,2.1,2.6,6.2,5.2,13.1,6.8,20.4-1.6-2.1-4.5-5.7-7.2-7.7-4-2.9-7.7-8.1-7.7-8.1,0,0-1.7,7.1,2.8,12.7,3.7,4.6,10.2,4.8,12.4,4.7,1.5,8,1.7,16.4-.9,24.6-.2-1.6-1.1-5.9-6.3-10.7-6.6-6.1-19.8-25.4-19.8-25.4,0,0,1.1,22.9,7.4,30.4,5.8,6.9,16.7,6.5,18.5,6.4-.1.4-.2.7-.4,1.1-4.2,11.2-5,19-5.1,23.2h-7.8v36.2h21.6v-36.2h-12.4c0-1.7.2-4.1.7-7-.1,0-.2,0-.2,0l-.2-.7c.1,0,13.7-3.9,23.1-13.6l.5.5c-7.6,7.9-17.9,11.9-21.8,13.2,3.9-.5,13.4-1.9,17.9-4.8,5.6-3.7,10.6-14.6,10.6-14.6,0,0-18.3,4-23.6,10.6ZM463.2,118.2c0,0-7-3.3-8.7-11.6h.7c1.6,7.9,8.2,11,8.3,11l-.3.6ZM472.7,144l-.2.2h-.3c-.4-.3-9.2-3.9-12.8-9.1l.6-.4c3.1,4.6,10.8,8,12.3,8.7,1.1-1.8,8.3-12.9,10.8-19.9l.6.2c-2.7,7.7-11,20.2-11.1,20.3ZM469.6,168.8c-.1,0-10.6-4-15.3-13.1l.6-.3c4.6,8.9,14.9,12.7,15,12.8l-.2.6Z"/>
  </g>
  <g id="Table">
    <g>
      <g>
        <g>
          <rect class="st2" x="408" y="197" width="6.4" height="32.5"/>
          <polygon class="st1" points="442.4 229.6 442.4 174.5 414.4 197 414.4 229.6 442.4 229.6"/>
        </g>
        <g>
          <rect class="st2" x="189" y="197" width="6.4" height="32.5"/>
          <polygon class="st1" points="223.4 229.6 223.4 174.5 195.5 197 195.5 229.6 223.4 229.6"/>
        </g>
        <g>
          <polygon class="st2" points="422.2 202.8 164.2 202.8 164.1 200.7 463 169.3 463 171.4 422.2 202.8"/>
          <polygon class="st2" points="422.2 200.7 164.2 200.7 229.3 169.3 463 169.3 422.2 200.7"/>
          <polygon class="st1" points="422.2 202.8 422.2 200.7 463 169.3 463 171.4 422.2 202.8"/>
        </g>
      </g>
      <g>
        <path class="st0" d="M406.6,183.7s-4.4-.8-7.6.8c-2,1-3.7,4.5-4.8,6.9-.5,1.2.4,2.5,1.7,2.5h6c.5,0,1-.2,1.4-.6l6-6.7s-.3-2.6-2.6-2.9Z"/>
        <path class="st9" d="M402.9,192s-.6-4.1,3.7-6.5"/>
      </g>
    </g>
    <g>
      <g>
        <polygon class="st2" points="371.3 197.1 275.3 197.1 298.6 178.5 394.6 178.5 371.3 197.1"/>
        <polygon class="st7" points="394.6 179.7 394.6 178.5 371.3 197.1 371.3 198.3 394.6 179.7"/>
        <rect class="st2" x="275.3" y="197.1" width="96" height="1.2"/>
      </g>
      <g>
        <polygon class="st7" points="306.6 189.1 303.5 191.6 309.8 191.6 312.9 189.1 306.6 189.1"/>
        <polygon class="st7" points="312.9 189.1 309.8 191.6 316.2 191.6 319.3 189.1 312.9 189.1"/>
        <polygon class="st7" points="300.2 189.1 297.2 191.6 303.5 191.6 306.6 189.1 300.2 189.1"/>
        <polygon class="st7" points="309.7 186.6 303.3 186.6 300.2 189.1 306.6 189.1 309.7 186.6"/>
        <polygon class="st7" points="316 186.6 319.1 184.1 312.7 184.1 309.7 186.6 316 186.6"/>
        <polygon class="st7" points="312.7 184.1 306.4 184.1 303.3 186.6 309.7 186.6 312.7 184.1"/>
        <polygon class="st7" points="319.3 189.1 316.2 191.6 322.5 191.6 325.6 189.1 319.3 189.1"/>
        <polygon class="st7" points="350.9 189.1 347.9 191.6 354.2 191.6 357.3 189.1 350.9 189.1"/>
        <polygon class="st7" points="322.3 186.6 325.4 184.1 319.1 184.1 316 186.6 322.3 186.6"/>
        <polygon class="st7" points="325.6 189.1 322.5 191.6 328.8 191.6 331.9 189.1 325.6 189.1"/>
        <polygon class="st7" points="360.5 191.6 366.9 191.6 369.9 189.1 363.6 189.1 360.5 191.6"/>
        <polygon class="st7" points="363.6 189.1 369.9 189.1 373 186.6 366.7 186.6 363.6 189.1"/>
        <polygon class="st7" points="357.3 189.1 354.2 191.6 360.5 191.6 363.6 189.1 357.3 189.1"/>
        <polygon class="st7" points="344.6 189.1 341.5 191.6 347.9 191.6 350.9 189.1 344.6 189.1"/>
        <polygon class="st7" points="331.9 189.1 328.8 191.6 335.2 191.6 338.3 189.1 331.9 189.1"/>
        <polygon class="st7" points="338.3 189.1 335.2 191.6 341.5 191.6 344.6 189.1 338.3 189.1"/>
        <polygon class="st7" points="347.7 186.6 350.8 184.1 344.4 184.1 341.3 186.6 347.7 186.6"/>
        <polygon class="st7" points="354 186.6 350.9 189.1 357.3 189.1 360.4 186.6 354 186.6"/>
        <polygon class="st7" points="341.3 186.6 338.3 189.1 344.6 189.1 347.7 186.6 341.3 186.6"/>
        <polygon class="st7" points="328.7 186.6 325.6 189.1 331.9 189.1 335 186.6 328.7 186.6"/>
        <polygon class="st7" points="347.7 186.6 344.6 189.1 350.9 189.1 354 186.6 347.7 186.6"/>
        <polygon class="st7" points="328.7 186.6 331.8 184.1 325.4 184.1 322.3 186.6 328.7 186.6"/>
        <polygon class="st7" points="309.7 186.6 306.6 189.1 312.9 189.1 316 186.6 309.7 186.6"/>
        <polygon class="st7" points="322.3 186.6 319.3 189.1 325.6 189.1 328.7 186.6 322.3 186.6"/>
        <polygon class="st7" points="316 186.6 312.9 189.1 319.3 189.1 322.3 186.6 316 186.6"/>
        <polygon class="st7" points="335 186.6 331.9 189.1 338.3 189.1 341.3 186.6 335 186.6"/>
        <polygon class="st7" points="341.3 186.6 344.4 184.1 338.1 184.1 335 186.6 341.3 186.6"/>
        <polygon class="st7" points="366.7 186.6 373 186.6 376.1 184.1 369.8 184.1 366.7 186.6"/>
        <polygon class="st7" points="335 186.6 338.1 184.1 331.8 184.1 328.7 186.6 335 186.6"/>
        <polygon class="st7" points="360.4 186.6 363.4 184.1 357.1 184.1 354 186.6 360.4 186.6"/>
        <polygon class="st7" points="366.7 186.6 369.8 184.1 363.4 184.1 360.4 186.6 366.7 186.6"/>
        <polygon class="st7" points="357.3 189.1 363.6 189.1 366.7 186.6 360.4 186.6 357.3 189.1"/>
        <polygon class="st7" points="354 186.6 357.1 184.1 350.8 184.1 347.7 186.6 354 186.6"/>
        <polygon class="st7" points="335.2 191.6 332.1 194.1 338.4 194.1 341.5 191.6 335.2 191.6"/>
        <polygon class="st7" points="341.5 191.6 338.4 194.1 344.8 194.1 347.9 191.6 341.5 191.6"/>
        <polygon class="st7" points="328.8 191.6 325.8 194.1 332.1 194.1 335.2 191.6 328.8 191.6"/>
        <polygon class="st7" points="347.9 191.6 344.8 194.1 351.1 194.1 354.2 191.6 347.9 191.6"/>
        <polygon class="st7" points="322.5 191.6 319.4 194.1 325.8 194.1 328.8 191.6 322.5 191.6"/>
        <polygon class="st7" points="316.2 191.6 313.1 194.1 319.4 194.1 322.5 191.6 316.2 191.6"/>
        <polygon class="st7" points="354.2 191.6 351.1 194.1 357.4 194.1 360.5 191.6 354.2 191.6"/>
        <polygon class="st7" points="303.5 191.6 300.4 194.1 306.7 194.1 309.8 191.6 303.5 191.6"/>
        <polygon class="st7" points="309.8 191.6 306.7 194.1 313.1 194.1 316.2 191.6 309.8 191.6"/>
        <polygon class="st7" points="369.9 189.1 376.3 189.1 379.4 186.6 373 186.6 369.9 189.1"/>
        <polygon class="st7" points="379.2 181.6 376.1 184.1 382.5 184.1 385.5 181.6 379.2 181.6"/>
        <polygon class="st7" points="373 186.6 379.4 186.6 382.5 184.1 376.1 184.1 373 186.6"/>
        <polygon class="st7" points="297.2 191.6 294.1 194.1 300.4 194.1 303.5 191.6 297.2 191.6"/>
        <polygon class="st7" points="360.5 191.6 357.4 194.1 363.8 194.1 366.9 191.6 360.5 191.6"/>
        <polygon class="st7" points="363.8 194.1 370.1 194.1 373.2 191.6 366.9 191.6 363.8 194.1"/>
        <polygon class="st7" points="366.9 191.6 373.2 191.6 376.3 189.1 369.9 189.1 366.9 191.6"/>
        <polygon class="st7" points="303.3 186.6 297 186.6 293.9 189.1 300.2 189.1 303.3 186.6"/>
        <polygon class="st7" points="344.4 184.1 347.5 181.6 341.2 181.6 338.1 184.1 344.4 184.1"/>
        <polygon class="st7" points="350.8 184.1 353.9 181.6 347.5 181.6 344.4 184.1 350.8 184.1"/>
        <polygon class="st7" points="338.1 184.1 341.2 181.6 334.8 181.6 331.8 184.1 338.1 184.1"/>
        <polygon class="st7" points="357.1 184.1 360.2 181.6 353.9 181.6 350.8 184.1 357.1 184.1"/>
        <polygon class="st7" points="369.8 184.1 372.9 181.6 366.5 181.6 363.4 184.1 369.8 184.1"/>
        <polygon class="st7" points="363.4 184.1 366.5 181.6 360.2 181.6 357.1 184.1 363.4 184.1"/>
        <polygon class="st7" points="331.8 184.1 334.8 181.6 328.5 181.6 325.4 184.1 331.8 184.1"/>
        <polygon class="st7" points="300.2 189.1 293.9 189.1 290.8 191.6 297.2 191.6 300.2 189.1"/>
        <polygon class="st7" points="306.4 184.1 300.1 184.1 297 186.6 303.3 186.6 306.4 184.1"/>
        <polygon class="st7" points="376.1 184.1 379.2 181.6 372.9 181.6 369.8 184.1 376.1 184.1"/>
        <polygon class="st7" points="290.8 191.6 287.7 194.1 294.1 194.1 297.2 191.6 290.8 191.6"/>
        <polygon class="st7" points="309.5 181.6 303.2 181.6 300.1 184.1 306.4 184.1 309.5 181.6"/>
        <polygon class="st7" points="319.1 184.1 322.2 181.6 315.8 181.6 312.7 184.1 319.1 184.1"/>
        <polygon class="st7" points="312.7 184.1 315.8 181.6 309.5 181.6 306.4 184.1 312.7 184.1"/>
        <polygon class="st7" points="325.4 184.1 328.5 181.6 322.2 181.6 319.1 184.1 325.4 184.1"/>
      </g>
    </g>
  </g>
  <g id="Device_3">
    <g>
      <g>
        <rect class="st2" x="379.7" y="151.3" width="6.1" height="17.8"/>
        <rect class="st1" x="378.7" y="151.3" width="8" height="18"/>
      </g>
      <rect class="st2" x="328.3" y="74" width="109" height="78.8"/>
      <rect class="st6" x="333.6" y="78.3" width="98.3" height="70.3"/>
      <g>
        <path class="st12" d="M340.1,83.1h-2.3c-.3,0-.6-.3-.6-.6s.3-.6.6-.6h2.3c.3,0,.6.3.6.6s-.3.6-.6.6ZM340.7,85.2c0-.3-.3-.6-.6-.6h-2.3c-.3,0-.6.3-.6.6s.3.6.6.6h2.3c.3,0,.6-.3.6-.6ZM340.7,87.8c0-.3-.3-.6-.6-.6h-2.3c-.3,0-.6.3-.6.6s.3.6.6.6h2.3c.3,0,.6-.3.6-.6ZM340.7,90.5c0-.3-.3-.6-.6-.6h-2.3c-.3,0-.6.3-.6.6s.3.6.6.6h2.3c.3,0,.6-.3.6-.6ZM340.7,93.1c0-.3-.3-.6-.6-.6h-2.3c-.3,0-.6.3-.6.6s.3.6.6.6h2.3c.3,0,.6-.3.6-.6ZM340.7,95.8c0-.3-.3-.6-.6-.6h-2.3c-.3,0-.6.3-.6.6s.3.6.6.6h2.3c.3,0,.6-.3.6-.6ZM340.7,98.4c0-.3-.3-.6-.6-.6h-2.3c-.3,0-.6.3-.6.6s.3.6.6.6h2.3c.3,0,.6-.3.6-.6ZM340.7,101.1c0-.3-.3-.6-.6-.6h-2.3c-.3,0-.6.3-.6.6s.3.6.6.6h2.3c.3,0,.6-.3.6-.6ZM349.4,82.5c0-.3-.3-.6-.6-.6h-6.1c-.3,0-.6.3-.6.6s.3.6.6.6h6.1c.3,0,.6-.3.6-.6ZM349.4,85.2c0-.3-.3-.6-.6-.6h-6.1c-.3,0-.6.3-.6.6s.3.6.6.6h6.1c.3,0,.6-.3.6-.6ZM349.4,87.8c0-.3-.3-.6-.6-.6h-6.1c-.3,0-.6.3-.6.6s.3.6.6.6h6.1c.3,0,.6-.3.6-.6ZM349.4,90.5c0-.3-.3-.6-.6-.6h-6.1c-.3,0-.6.3-.6.6s.3.6.6.6h6.1c.3,0,.6-.3.6-.6ZM349.4,93.1c0-.3-.3-.6-.6-.6h-6.1c-.3,0-.6.3-.6.6s.3.6.6.6h6.1c.3,0,.6-.3.6-.6ZM356.7,95.8c0-.3-.3-.6-.6-.6h-6.1c-.3,0-.6.3-.6.6s.3.6.6.6h6.1c.3,0,.6-.3.6-.6ZM356.7,98.4c0-.3-.3-.6-.6-.6h-6.1c-.3,0-.6.3-.6.6s.3.6.6.6h6.1c.3,0,.6-.3.6-.6ZM356.7,101.1c0-.3-.3-.6-.6-.6h-6.1c-.3,0-.6.3-.6.6s.3.6.6.6h6.1c.3,0,.6-.3.6-.6ZM352.1,82.5c0-.4-.3-.7-.7-.7s-.7.3-.7.7.3.7.7.7.7-.3.7-.7ZM354.1,82.5c0-.4-.3-.7-.7-.7s-.7.3-.7.7.3.7.7.7.7-.3.7-.7ZM356.1,82.5c0-.4-.3-.7-.7-.7s-.7.3-.7.7.3.7.7.7.7-.3.7-.7ZM358.1,82.5c0-.4-.3-.7-.7-.7s-.7.3-.7.7.3.7.7.7.7-.3.7-.7ZM360.1,82.5c0-.4-.3-.7-.7-.7s-.7.3-.7.7.3.7.7.7.7-.3.7-.7ZM362.1,82.5c0-.4-.3-.7-.7-.7s-.7.3-.7.7.3.7.7.7.7-.3.7-.7ZM352.1,87.8c0-.4-.3-.7-.7-.7s-.7.3-.7.7.3.7.7.7.7-.3.7-.7ZM354.1,87.8c0-.4-.3-.7-.7-.7s-.7.3-.7.7.3.7.7.7.7-.3.7-.7ZM356.1,87.8c0-.4-.3-.7-.7-.7s-.7.3-.7.7.3.7.7.7.7-.3.7-.7ZM358.1,87.8c0-.4-.3-.7-.7-.7s-.7.3-.7.7.3.7.7.7.7-.3.7-.7ZM360.1,87.8c0-.4-.3-.7-.7-.7s-.7.3-.7.7.3.7.7.7.7-.3.7-.7ZM362.1,87.8c0-.4-.3-.7-.7-.7s-.7.3-.7.7.3.7.7.7.7-.3.7-.7ZM358.9,95.4c0-.4-.3-.7-.7-.7s-.7.3-.7.7.3.7.7.7.7-.3.7-.7ZM360.9,95.4c0-.4-.3-.7-.7-.7s-.7.3-.7.7.3.7.7.7.7-.3.7-.7ZM362.9,95.4c0-.4-.3-.7-.7-.7s-.7.3-.7.7.3.7.7.7.7-.3.7-.7ZM364.9,95.4c0-.4-.3-.7-.7-.7s-.7.3-.7.7.3.7.7.7.7-.3.7-.7ZM366.9,95.4c0-.4-.3-.7-.7-.7s-.7.3-.7.7.3.7.7.7.7-.3.7-.7ZM368.9,95.4c0-.4-.3-.7-.7-.7s-.7.3-.7.7.3.7.7.7.7-.3.7-.7ZM358.9,100.9c0-.4-.3-.7-.7-.7s-.7.3-.7.7.3.7.7.7.7-.3.7-.7ZM360.9,100.9c0-.4-.3-.7-.7-.7s-.7.3-.7.7.3.7.7.7.7-.3.7-.7ZM362.9,100.9c0-.4-.3-.7-.7-.7s-.7.3-.7.7.3.7.7.7.7-.3.7-.7ZM364.9,100.9c0-.4-.3-.7-.7-.7s-.7.3-.7.7.3.7.7.7.7-.3.7-.7ZM366.9,100.9c0-.4-.3-.7-.7-.7s-.7.3-.7.7.3.7.7.7.7-.3.7-.7ZM368.9,100.9c0-.4-.3-.7-.7-.7s-.7.3-.7.7.3.7.7.7.7-.3.7-.7Z"/>
        <path class="st12" d="M340.1,104.3h-2.3c-.3,0-.6-.3-.6-.6s.3-.6.6-.6h2.3c.3,0,.6.3.6.6s-.3.6-.6.6ZM340.7,106.4c0-.3-.3-.6-.6-.6h-2.3c-.3,0-.6.3-.6.6s.3.6.6.6h2.3c.3,0,.6-.3.6-.6ZM340.7,109c0-.3-.3-.6-.6-.6h-2.3c-.3,0-.6.3-.6.6s.3.6.6.6h2.3c.3,0,.6-.3.6-.6ZM340.7,111.7c0-.3-.3-.6-.6-.6h-2.3c-.3,0-.6.3-.6.6s.3.6.6.6h2.3c.3,0,.6-.3.6-.6ZM340.7,114.3c0-.3-.3-.6-.6-.6h-2.3c-.3,0-.6.3-.6.6s.3.6.6.6h2.3c.3,0,.6-.3.6-.6ZM340.7,117c0-.3-.3-.6-.6-.6h-2.3c-.3,0-.6.3-.6.6s.3.6.6.6h2.3c.3,0,.6-.3.6-.6ZM340.7,119.6c0-.3-.3-.6-.6-.6h-2.3c-.3,0-.6.3-.6.6s.3.6.6.6h2.3c.3,0,.6-.3.6-.6ZM340.7,122.3c0-.3-.3-.6-.6-.6h-2.3c-.3,0-.6.3-.6.6s.3.6.6.6h2.3c.3,0,.6-.3.6-.6ZM349.4,103.7c0-.3-.3-.6-.6-.6h-6.1c-.3,0-.6.3-.6.6s.3.6.6.6h6.1c.3,0,.6-.3.6-.6ZM349.4,106.4c0-.3-.3-.6-.6-.6h-6.1c-.3,0-.6.3-.6.6s.3.6.6.6h6.1c.3,0,.6-.3.6-.6ZM349.4,109c0-.3-.3-.6-.6-.6h-6.1c-.3,0-.6.3-.6.6s.3.6.6.6h6.1c.3,0,.6-.3.6-.6ZM349.4,111.7c0-.3-.3-.6-.6-.6h-6.1c-.3,0-.6.3-.6.6s.3.6.6.6h6.1c.3,0,.6-.3.6-.6ZM349.4,114.3c0-.3-.3-.6-.6-.6h-6.1c-.3,0-.6.3-.6.6s.3.6.6.6h6.1c.3,0,.6-.3.6-.6ZM356.7,117c0-.3-.3-.6-.6-.6h-6.1c-.3,0-.6.3-.6.6s.3.6.6.6h6.1c.3,0,.6-.3.6-.6ZM356.7,119.6c0-.3-.3-.6-.6-.6h-6.1c-.3,0-.6.3-.6.6s.3.6.6.6h6.1c.3,0,.6-.3.6-.6ZM356.7,122.3c0-.3-.3-.6-.6-.6h-6.1c-.3,0-.6.3-.6.6s.3.6.6.6h6.1c.3,0,.6-.3.6-.6ZM352.1,103.7c0-.4-.3-.7-.7-.7s-.7.3-.7.7.3.7.7.7.7-.3.7-.7ZM354.1,103.7c0-.4-.3-.7-.7-.7s-.7.3-.7.7.3.7.7.7.7-.3.7-.7ZM356.1,103.7c0-.4-.3-.7-.7-.7s-.7.3-.7.7.3.7.7.7.7-.3.7-.7ZM358.1,103.7c0-.4-.3-.7-.7-.7s-.7.3-.7.7.3.7.7.7.7-.3.7-.7ZM360.1,103.7c0-.4-.3-.7-.7-.7s-.7.3-.7.7.3.7.7.7.7-.3.7-.7ZM362.1,103.7c0-.4-.3-.7-.7-.7s-.7.3-.7.7.3.7.7.7.7-.3.7-.7ZM352.1,109c0-.4-.3-.7-.7-.7s-.7.3-.7.7.3.7.7.7.7-.3.7-.7ZM354.1,109c0-.4-.3-.7-.7-.7s-.7.3-.7.7.3.7.7.7.7-.3.7-.7ZM356.1,109c0-.4-.3-.7-.7-.7s-.7.3-.7.7.3.7.7.7.7-.3.7-.7ZM358.1,109c0-.4-.3-.7-.7-.7s-.7.3-.7.7.3.7.7.7.7-.3.7-.7ZM360.1,109c0-.4-.3-.7-.7-.7s-.7.3-.7.7.3.7.7.7.7-.3.7-.7ZM362.1,109c0-.4-.3-.7-.7-.7s-.7.3-.7.7.3.7.7.7.7-.3.7-.7ZM358.9,116.6c0-.4-.3-.7-.7-.7s-.7.3-.7.7.3.7.7.7.7-.3.7-.7ZM360.9,116.6c0-.4-.3-.7-.7-.7s-.7.3-.7.7.3.7.7.7.7-.3.7-.7ZM362.9,116.6c0-.4-.3-.7-.7-.7s-.7.3-.7.7.3.7.7.7.7-.3.7-.7ZM364.9,116.6c0-.4-.3-.7-.7-.7s-.7.3-.7.7.3.7.7.7.7-.3.7-.7ZM366.9,116.6c0-.4-.3-.7-.7-.7s-.7.3-.7.7.3.7.7.7.7-.3.7-.7ZM368.9,116.6c0-.4-.3-.7-.7-.7s-.7.3-.7.7.3.7.7.7.7-.3.7-.7ZM358.9,122.1c0-.4-.3-.7-.7-.7s-.7.3-.7.7.3.7.7.7.7-.3.7-.7ZM360.9,122.1c0-.4-.3-.7-.7-.7s-.7.3-.7.7.3.7.7.7.7-.3.7-.7ZM362.9,122.1c0-.4-.3-.7-.7-.7s-.7.3-.7.7.3.7.7.7.7-.3.7-.7ZM364.9,122.1c0-.4-.3-.7-.7-.7s-.7.3-.7.7.3.7.7.7.7-.3.7-.7ZM366.9,122.1c0-.4-.3-.7-.7-.7s-.7.3-.7.7.3.7.7.7.7-.3.7-.7ZM368.9,122.1c0-.4-.3-.7-.7-.7s-.7.3-.7.7.3.7.7.7.7-.3.7-.7Z"/>
        <path class="st12" d="M340.1,126h-2.3c-.3,0-.6-.3-.6-.6s.3-.6.6-.6h2.3c.3,0,.6.3.6.6s-.3.6-.6.6ZM340.7,128.1c0-.3-.3-.6-.6-.6h-2.3c-.3,0-.6.3-.6.6s.3.6.6.6h2.3c.3,0,.6-.3.6-.6ZM340.7,130.7c0-.3-.3-.6-.6-.6h-2.3c-.3,0-.6.3-.6.6s.3.6.6.6h2.3c.3,0,.6-.3.6-.6ZM340.7,133.4c0-.3-.3-.6-.6-.6h-2.3c-.3,0-.6.3-.6.6s.3.6.6.6h2.3c.3,0,.6-.3.6-.6ZM340.7,136c0-.3-.3-.6-.6-.6h-2.3c-.3,0-.6.3-.6.6s.3.6.6.6h2.3c.3,0,.6-.3.6-.6ZM340.7,138.7c0-.3-.3-.6-.6-.6h-2.3c-.3,0-.6.3-.6.6s.3.6.6.6h2.3c.3,0,.6-.3.6-.6ZM340.7,141.3c0-.3-.3-.6-.6-.6h-2.3c-.3,0-.6.3-.6.6s.3.6.6.6h2.3c.3,0,.6-.3.6-.6ZM340.7,144c0-.3-.3-.6-.6-.6h-2.3c-.3,0-.6.3-.6.6s.3.6.6.6h2.3c.3,0,.6-.3.6-.6ZM349.4,125.4c0-.3-.3-.6-.6-.6h-6.1c-.3,0-.6.3-.6.6s.3.6.6.6h6.1c.3,0,.6-.3.6-.6ZM349.4,128.1c0-.3-.3-.6-.6-.6h-6.1c-.3,0-.6.3-.6.6s.3.6.6.6h6.1c.3,0,.6-.3.6-.6ZM349.4,130.7c0-.3-.3-.6-.6-.6h-6.1c-.3,0-.6.3-.6.6s.3.6.6.6h6.1c.3,0,.6-.3.6-.6ZM349.4,133.4c0-.3-.3-.6-.6-.6h-6.1c-.3,0-.6.3-.6.6s.3.6.6.6h6.1c.3,0,.6-.3.6-.6ZM349.4,136c0-.3-.3-.6-.6-.6h-6.1c-.3,0-.6.3-.6.6s.3.6.6.6h6.1c.3,0,.6-.3.6-.6ZM356.7,138.7c0-.3-.3-.6-.6-.6h-6.1c-.3,0-.6.3-.6.6s.3.6.6.6h6.1c.3,0,.6-.3.6-.6ZM356.7,141.3c0-.3-.3-.6-.6-.6h-6.1c-.3,0-.6.3-.6.6s.3.6.6.6h6.1c.3,0,.6-.3.6-.6ZM356.7,144c0-.3-.3-.6-.6-.6h-6.1c-.3,0-.6.3-.6.6s.3.6.6.6h6.1c.3,0,.6-.3.6-.6ZM352.1,125.4c0-.4-.3-.7-.7-.7s-.7.3-.7.7.3.7.7.7.7-.3.7-.7ZM354.1,125.4c0-.4-.3-.7-.7-.7s-.7.3-.7.7.3.7.7.7.7-.3.7-.7ZM356.1,125.4c0-.4-.3-.7-.7-.7s-.7.3-.7.7.3.7.7.7.7-.3.7-.7ZM358.1,125.4c0-.4-.3-.7-.7-.7s-.7.3-.7.7.3.7.7.7.7-.3.7-.7ZM360.1,125.4c0-.4-.3-.7-.7-.7s-.7.3-.7.7.3.7.7.7.7-.3.7-.7ZM362.1,125.4c0-.4-.3-.7-.7-.7s-.7.3-.7.7.3.7.7.7.7-.3.7-.7ZM352.1,130.7c0-.4-.3-.7-.7-.7s-.7.3-.7.7.3.7.7.7.7-.3.7-.7ZM354.1,130.7c0-.4-.3-.7-.7-.7s-.7.3-.7.7.3.7.7.7.7-.3.7-.7ZM356.1,130.7c0-.4-.3-.7-.7-.7s-.7.3-.7.7.3.7.7.7.7-.3.7-.7ZM358.1,130.7c0-.4-.3-.7-.7-.7s-.7.3-.7.7.3.7.7.7.7-.3.7-.7ZM360.1,130.7c0-.4-.3-.7-.7-.7s-.7.3-.7.7.3.7.7.7.7-.3.7-.7ZM362.1,130.7c0-.4-.3-.7-.7-.7s-.7.3-.7.7.3.7.7.7.7-.3.7-.7ZM358.9,138.3c0-.4-.3-.7-.7-.7s-.7.3-.7.7.3.7.7.7.7-.3.7-.7ZM360.9,138.3c0-.4-.3-.7-.7-.7s-.7.3-.7.7.3.7.7.7.7-.3.7-.7ZM362.9,138.3c0-.4-.3-.7-.7-.7s-.7.3-.7.7.3.7.7.7.7-.3.7-.7ZM364.9,138.3c0-.4-.3-.7-.7-.7s-.7.3-.7.7.3.7.7.7.7-.3.7-.7ZM366.9,138.3c0-.4-.3-.7-.7-.7s-.7.3-.7.7.3.7.7.7.7-.3.7-.7ZM368.9,138.3c0-.4-.3-.7-.7-.7s-.7.3-.7.7.3.7.7.7.7-.3.7-.7ZM358.9,143.8c0-.4-.3-.7-.7-.7s-.7.3-.7.7.3.7.7.7.7-.3.7-.7ZM360.9,143.8c0-.4-.3-.7-.7-.7s-.7.3-.7.7.3.7.7.7.7-.3.7-.7ZM362.9,143.8c0-.4-.3-.7-.7-.7s-.7.3-.7.7.3.7.7.7.7-.3.7-.7ZM364.9,143.8c0-.4-.3-.7-.7-.7s-.7.3-.7.7.3.7.7.7.7-.3.7-.7ZM366.9,143.8c0-.4-.3-.7-.7-.7s-.7.3-.7.7.3.7.7.7.7-.3.7-.7ZM368.9,143.8c0-.4-.3-.7-.7-.7s-.7.3-.7.7.3.7.7.7.7-.3.7-.7Z"/>
        <path class="st12" d="M375.9,83.1h-2.3c-.3,0-.6-.3-.6-.6s.3-.6.6-.6h2.3c.3,0,.6.3.6.6s-.3.6-.6.6ZM376.5,85.2c0-.3-.3-.6-.6-.6h-2.3c-.3,0-.6.3-.6.6s.3.6.6.6h2.3c.3,0,.6-.3.6-.6ZM376.5,87.8c0-.3-.3-.6-.6-.6h-2.3c-.3,0-.6.3-.6.6s.3.6.6.6h2.3c.3,0,.6-.3.6-.6ZM376.5,90.5c0-.3-.3-.6-.6-.6h-2.3c-.3,0-.6.3-.6.6s.3.6.6.6h2.3c.3,0,.6-.3.6-.6ZM376.5,93.1c0-.3-.3-.6-.6-.6h-2.3c-.3,0-.6.3-.6.6s.3.6.6.6h2.3c.3,0,.6-.3.6-.6ZM376.5,95.8c0-.3-.3-.6-.6-.6h-2.3c-.3,0-.6.3-.6.6s.3.6.6.6h2.3c.3,0,.6-.3.6-.6ZM376.5,98.4c0-.3-.3-.6-.6-.6h-2.3c-.3,0-.6.3-.6.6s.3.6.6.6h2.3c.3,0,.6-.3.6-.6ZM376.5,101.1c0-.3-.3-.6-.6-.6h-2.3c-.3,0-.6.3-.6.6s.3.6.6.6h2.3c.3,0,.6-.3.6-.6ZM385.2,82.5c0-.3-.3-.6-.6-.6h-6.1c-.3,0-.6.3-.6.6s.3.6.6.6h6.1c.3,0,.6-.3.6-.6ZM385.2,85.2c0-.3-.3-.6-.6-.6h-6.1c-.3,0-.6.3-.6.6s.3.6.6.6h6.1c.3,0,.6-.3.6-.6ZM385.2,87.8c0-.3-.3-.6-.6-.6h-6.1c-.3,0-.6.3-.6.6s.3.6.6.6h6.1c.3,0,.6-.3.6-.6ZM385.2,90.5c0-.3-.3-.6-.6-.6h-6.1c-.3,0-.6.3-.6.6s.3.6.6.6h6.1c.3,0,.6-.3.6-.6ZM385.2,93.1c0-.3-.3-.6-.6-.6h-6.1c-.3,0-.6.3-.6.6s.3.6.6.6h6.1c.3,0,.6-.3.6-.6ZM392.5,95.8c0-.3-.3-.6-.6-.6h-6.1c-.3,0-.6.3-.6.6s.3.6.6.6h6.1c.3,0,.6-.3.6-.6ZM392.5,98.4c0-.3-.3-.6-.6-.6h-6.1c-.3,0-.6.3-.6.6s.3.6.6.6h6.1c.3,0,.6-.3.6-.6ZM392.5,101.1c0-.3-.3-.6-.6-.6h-6.1c-.3,0-.6.3-.6.6s.3.6.6.6h6.1c.3,0,.6-.3.6-.6ZM387.9,82.5c0-.4-.3-.7-.7-.7s-.7.3-.7.7.3.7.7.7.7-.3.7-.7ZM389.9,82.5c0-.4-.3-.7-.7-.7s-.7.3-.7.7.3.7.7.7.7-.3.7-.7ZM391.9,82.5c0-.4-.3-.7-.7-.7s-.7.3-.7.7.3.7.7.7.7-.3.7-.7ZM393.9,82.5c0-.4-.3-.7-.7-.7s-.7.3-.7.7.3.7.7.7.7-.3.7-.7ZM395.9,82.5c0-.4-.3-.7-.7-.7s-.7.3-.7.7.3.7.7.7.7-.3.7-.7ZM397.9,82.5c0-.4-.3-.7-.7-.7s-.7.3-.7.7.3.7.7.7.7-.3.7-.7ZM387.9,87.8c0-.4-.3-.7-.7-.7s-.7.3-.7.7.3.7.7.7.7-.3.7-.7ZM389.9,87.8c0-.4-.3-.7-.7-.7s-.7.3-.7.7.3.7.7.7.7-.3.7-.7ZM391.9,87.8c0-.4-.3-.7-.7-.7s-.7.3-.7.7.3.7.7.7.7-.3.7-.7ZM393.9,87.8c0-.4-.3-.7-.7-.7s-.7.3-.7.7.3.7.7.7.7-.3.7-.7ZM395.9,87.8c0-.4-.3-.7-.7-.7s-.7.3-.7.7.3.7.7.7.7-.3.7-.7ZM397.9,87.8c0-.4-.3-.7-.7-.7s-.7.3-.7.7.3.7.7.7.7-.3.7-.7ZM394.7,95.4c0-.4-.3-.7-.7-.7s-.7.3-.7.7.3.7.7.7.7-.3.7-.7ZM396.7,95.4c0-.4-.3-.7-.7-.7s-.7.3-.7.7.3.7.7.7.7-.3.7-.7ZM398.7,95.4c0-.4-.3-.7-.7-.7s-.7.3-.7.7.3.7.7.7.7-.3.7-.7ZM400.7,95.4c0-.4-.3-.7-.7-.7s-.7.3-.7.7.3.7.7.7.7-.3.7-.7ZM402.7,95.4c0-.4-.3-.7-.7-.7s-.7.3-.7.7.3.7.7.7.7-.3.7-.7ZM404.7,95.4c0-.4-.3-.7-.7-.7s-.7.3-.7.7.3.7.7.7.7-.3.7-.7ZM394.7,100.9c0-.4-.3-.7-.7-.7s-.7.3-.7.7.3.7.7.7.7-.3.7-.7ZM396.7,100.9c0-.4-.3-.7-.7-.7s-.7.3-.7.7.3.7.7.7.7-.3.7-.7ZM398.7,100.9c0-.4-.3-.7-.7-.7s-.7.3-.7.7.3.7.7.7.7-.3.7-.7ZM400.7,100.9c0-.4-.3-.7-.7-.7s-.7.3-.7.7.3.7.7.7.7-.3.7-.7ZM402.7,100.9c0-.4-.3-.7-.7-.7s-.7.3-.7.7.3.7.7.7.7-.3.7-.7ZM404.7,100.9c0-.4-.3-.7-.7-.7s-.7.3-.7.7.3.7.7.7.7-.3.7-.7Z"/>
        <path class="st12" d="M375.9,104.8h-2.3c-.3,0-.6-.3-.6-.6s.3-.6.6-.6h2.3c.3,0,.6.3.6.6s-.3.6-.6.6ZM376.5,106.9c0-.3-.3-.6-.6-.6h-2.3c-.3,0-.6.3-.6.6s.3.6.6.6h2.3c.3,0,.6-.3.6-.6ZM376.5,109.5c0-.3-.3-.6-.6-.6h-2.3c-.3,0-.6.3-.6.6s.3.6.6.6h2.3c.3,0,.6-.3.6-.6ZM376.5,112.2c0-.3-.3-.6-.6-.6h-2.3c-.3,0-.6.3-.6.6s.3.6.6.6h2.3c.3,0,.6-.3.6-.6ZM376.5,114.8c0-.3-.3-.6-.6-.6h-2.3c-.3,0-.6.3-.6.6s.3.6.6.6h2.3c.3,0,.6-.3.6-.6ZM376.5,117.5c0-.3-.3-.6-.6-.6h-2.3c-.3,0-.6.3-.6.6s.3.6.6.6h2.3c.3,0,.6-.3.6-.6ZM376.5,120.1c0-.3-.3-.6-.6-.6h-2.3c-.3,0-.6.3-.6.6s.3.6.6.6h2.3c.3,0,.6-.3.6-.6ZM376.5,122.8c0-.3-.3-.6-.6-.6h-2.3c-.3,0-.6.3-.6.6s.3.6.6.6h2.3c.3,0,.6-.3.6-.6ZM385.2,104.2c0-.3-.3-.6-.6-.6h-6.1c-.3,0-.6.3-.6.6s.3.6.6.6h6.1c.3,0,.6-.3.6-.6ZM385.2,106.9c0-.3-.3-.6-.6-.6h-6.1c-.3,0-.6.3-.6.6s.3.6.6.6h6.1c.3,0,.6-.3.6-.6ZM385.2,109.5c0-.3-.3-.6-.6-.6h-6.1c-.3,0-.6.3-.6.6s.3.6.6.6h6.1c.3,0,.6-.3.6-.6ZM385.2,112.2c0-.3-.3-.6-.6-.6h-6.1c-.3,0-.6.3-.6.6s.3.6.6.6h6.1c.3,0,.6-.3.6-.6ZM385.2,114.8c0-.3-.3-.6-.6-.6h-6.1c-.3,0-.6.3-.6.6s.3.6.6.6h6.1c.3,0,.6-.3.6-.6ZM392.5,117.5c0-.3-.3-.6-.6-.6h-6.1c-.3,0-.6.3-.6.6s.3.6.6.6h6.1c.3,0,.6-.3.6-.6ZM392.5,120.1c0-.3-.3-.6-.6-.6h-6.1c-.3,0-.6.3-.6.6s.3.6.6.6h6.1c.3,0,.6-.3.6-.6ZM392.5,122.8c0-.3-.3-.6-.6-.6h-6.1c-.3,0-.6.3-.6.6s.3.6.6.6h6.1c.3,0,.6-.3.6-.6ZM387.9,104.2c0-.4-.3-.7-.7-.7s-.7.3-.7.7.3.7.7.7.7-.3.7-.7ZM389.9,104.2c0-.4-.3-.7-.7-.7s-.7.3-.7.7.3.7.7.7.7-.3.7-.7ZM391.9,104.2c0-.4-.3-.7-.7-.7s-.7.3-.7.7.3.7.7.7.7-.3.7-.7ZM393.9,104.2c0-.4-.3-.7-.7-.7s-.7.3-.7.7.3.7.7.7.7-.3.7-.7ZM395.9,104.2c0-.4-.3-.7-.7-.7s-.7.3-.7.7.3.7.7.7.7-.3.7-.7ZM397.9,104.2c0-.4-.3-.7-.7-.7s-.7.3-.7.7.3.7.7.7.7-.3.7-.7ZM387.9,109.5c0-.4-.3-.7-.7-.7s-.7.3-.7.7.3.7.7.7.7-.3.7-.7ZM389.9,109.5c0-.4-.3-.7-.7-.7s-.7.3-.7.7.3.7.7.7.7-.3.7-.7ZM391.9,109.5c0-.4-.3-.7-.7-.7s-.7.3-.7.7.3.7.7.7.7-.3.7-.7ZM393.9,109.5c0-.4-.3-.7-.7-.7s-.7.3-.7.7.3.7.7.7.7-.3.7-.7ZM395.9,109.5c0-.4-.3-.7-.7-.7s-.7.3-.7.7.3.7.7.7.7-.3.7-.7ZM397.9,109.5c0-.4-.3-.7-.7-.7s-.7.3-.7.7.3.7.7.7.7-.3.7-.7ZM394.7,117.1c0-.4-.3-.7-.7-.7s-.7.3-.7.7.3.7.7.7.7-.3.7-.7ZM396.7,117.1c0-.4-.3-.7-.7-.7s-.7.3-.7.7.3.7.7.7.7-.3.7-.7ZM398.7,117.1c0-.4-.3-.7-.7-.7s-.7.3-.7.7.3.7.7.7.7-.3.7-.7ZM400.7,117.1c0-.4-.3-.7-.7-.7s-.7.3-.7.7.3.7.7.7.7-.3.7-.7ZM402.7,117.1c0-.4-.3-.7-.7-.7s-.7.3-.7.7.3.7.7.7.7-.3.7-.7ZM404.7,117.1c0-.4-.3-.7-.7-.7s-.7.3-.7.7.3.7.7.7.7-.3.7-.7ZM394.7,122.6c0-.4-.3-.7-.7-.7s-.7.3-.7.7.3.7.7.7.7-.3.7-.7ZM396.7,122.6c0-.4-.3-.7-.7-.7s-.7.3-.7.7.3.7.7.7.7-.3.7-.7ZM398.7,122.6c0-.4-.3-.7-.7-.7s-.7.3-.7.7.3.7.7.7.7-.3.7-.7ZM400.7,122.6c0-.4-.3-.7-.7-.7s-.7.3-.7.7.3.7.7.7.7-.3.7-.7ZM402.7,122.6c0-.4-.3-.7-.7-.7s-.7.3-.7.7.3.7.7.7.7-.3.7-.7ZM404.7,122.6c0-.4-.3-.7-.7-.7s-.7.3-.7.7.3.7.7.7.7-.3.7-.7Z"/>
      </g>
    </g>
  </g>
  <g id="Device_1">
    <g>
      <rect class="st1" x="266.6" y="151.1" width="8.6" height="16.8"/>
      <rect class="st2" x="219" y="74" width="109" height="78.8"/>
      <rect class="st6" x="224.9" y="78.3" width="97.3" height="70.3"/>
      <g>
        <path class="st12" d="M246.5,83.1h-2.5c-.3,0-.6-.3-.6-.6s.3-.6.6-.6h2.5c.3,0,.6.3.6.6s-.3.6-.6.6ZM247.1,85.2c0-.3-.3-.6-.6-.6h-2.5c-.3,0-.6.3-.6.6s.3.6.6.6h2.5c.3,0,.6-.3.6-.6ZM247.1,87.8c0-.3-.3-.6-.6-.6h-2.5c-.3,0-.6.3-.6.6s.3.6.6.6h2.5c.3,0,.6-.3.6-.6ZM247.1,90.5c0-.3-.3-.6-.6-.6h-2.5c-.3,0-.6.3-.6.6s.3.6.6.6h2.5c.3,0,.6-.3.6-.6ZM247.1,93.1c0-.3-.3-.6-.6-.6h-2.5c-.3,0-.6.3-.6.6s.3.6.6.6h2.5c.3,0,.6-.3.6-.6ZM247.1,95.8c0-.3-.3-.6-.6-.6h-2.5c-.3,0-.6.3-.6.6s.3.6.6.6h2.5c.3,0,.6-.3.6-.6ZM247.1,98.4c0-.3-.3-.6-.6-.6h-2.5c-.3,0-.6.3-.6.6s.3.6.6.6h2.5c.3,0,.6-.3.6-.6ZM247.1,101.1c0-.3-.3-.6-.6-.6h-2.5c-.3,0-.6.3-.6.6s.3.6.6.6h2.5c.3,0,.6-.3.6-.6ZM256.5,82.5c0-.3-.3-.6-.6-.6h-6.6c-.3,0-.6.3-.6.6s.3.6.6.6h6.6c.3,0,.6-.3.6-.6ZM256.5,85.2c0-.3-.3-.6-.6-.6h-6.6c-.3,0-.6.3-.6.6s.3.6.6.6h6.6c.3,0,.6-.3.6-.6ZM256.5,87.8c0-.3-.3-.6-.6-.6h-6.6c-.3,0-.6.3-.6.6s.3.6.6.6h6.6c.3,0,.6-.3.6-.6ZM256.5,90.5c0-.3-.3-.6-.6-.6h-6.6c-.3,0-.6.3-.6.6s.3.6.6.6h6.6c.3,0,.6-.3.6-.6ZM256.5,93.1c0-.3-.3-.6-.6-.6h-6.6c-.3,0-.6.3-.6.6s.3.6.6.6h6.6c.3,0,.6-.3.6-.6ZM264.3,95.8c0-.3-.3-.6-.6-.6h-6.6c-.3,0-.6.3-.6.6s.3.6.6.6h6.6c.3,0,.6-.3.6-.6ZM264.3,98.4c0-.3-.3-.6-.6-.6h-6.6c-.3,0-.6.3-.6.6s.3.6.6.6h6.6c.3,0,.6-.3.6-.6ZM264.3,101.1c0-.3-.3-.6-.6-.6h-6.6c-.3,0-.6.3-.6.6s.3.6.6.6h6.6c.3,0,.6-.3.6-.6ZM259.4,82.5c0-.4-.3-.7-.7-.7s-.7.3-.7.7.3.7.7.7.7-.3.7-.7ZM261.5,82.5c0-.4-.3-.7-.7-.7s-.7.3-.7.7.3.7.7.7.7-.3.7-.7ZM263.7,82.5c0-.4-.3-.7-.7-.7s-.7.3-.7.7.3.7.7.7.7-.3.7-.7ZM265.8,82.5c0-.4-.3-.7-.7-.7s-.7.3-.7.7.3.7.7.7.7-.3.7-.7ZM268,82.5c0-.4-.3-.7-.7-.7s-.7.3-.7.7.3.7.7.7.7-.3.7-.7ZM270.1,82.5c0-.4-.3-.7-.7-.7s-.7.3-.7.7.3.7.7.7.7-.3.7-.7ZM259.4,87.8c0-.4-.3-.7-.7-.7s-.7.3-.7.7.3.7.7.7.7-.3.7-.7ZM261.5,87.8c0-.4-.3-.7-.7-.7s-.7.3-.7.7.3.7.7.7.7-.3.7-.7ZM263.7,87.8c0-.4-.3-.7-.7-.7s-.7.3-.7.7.3.7.7.7.7-.3.7-.7ZM265.8,87.8c0-.4-.3-.7-.7-.7s-.7.3-.7.7.3.7.7.7.7-.3.7-.7ZM268,87.8c0-.4-.3-.7-.7-.7s-.7.3-.7.7.3.7.7.7.7-.3.7-.7ZM270.1,87.8c0-.4-.3-.7-.7-.7s-.7.3-.7.7.3.7.7.7.7-.3.7-.7ZM266.7,95.4c0-.4-.3-.7-.7-.7s-.7.3-.7.7.3.7.7.7.7-.3.7-.7ZM268.9,95.4c0-.4-.3-.7-.7-.7s-.7.3-.7.7.3.7.7.7.7-.3.7-.7ZM271,95.4c0-.4-.3-.7-.7-.7s-.7.3-.7.7.3.7.7.7.7-.3.7-.7ZM273.2,95.4c0-.4-.3-.7-.7-.7s-.7.3-.7.7.3.7.7.7.7-.3.7-.7ZM275.3,95.4c0-.4-.3-.7-.7-.7s-.7.3-.7.7.3.7.7.7.7-.3.7-.7ZM277.5,95.4c0-.4-.3-.7-.7-.7s-.7.3-.7.7.3.7.7.7.7-.3.7-.7ZM266.7,100.9c0-.4-.3-.7-.7-.7s-.7.3-.7.7.3.7.7.7.7-.3.7-.7ZM268.9,100.9c0-.4-.3-.7-.7-.7s-.7.3-.7.7.3.7.7.7.7-.3.7-.7ZM271,100.9c0-.4-.3-.7-.7-.7s-.7.3-.7.7.3.7.7.7.7-.3.7-.7ZM273.2,100.9c0-.4-.3-.7-.7-.7s-.7.3-.7.7.3.7.7.7.7-.3.7-.7ZM275.3,100.9c0-.4-.3-.7-.7-.7s-.7.3-.7.7.3.7.7.7.7-.3.7-.7ZM277.5,100.9c0-.4-.3-.7-.7-.7s-.7.3-.7.7.3.7.7.7.7-.3.7-.7Z"/>
        <path class="st12" d="M246.5,104.3h-2.5c-.3,0-.6-.3-.6-.6s.3-.6.6-.6h2.5c.3,0,.6.3.6.6s-.3.6-.6.6ZM247.1,106.4c0-.3-.3-.6-.6-.6h-2.5c-.3,0-.6.3-.6.6s.3.6.6.6h2.5c.3,0,.6-.3.6-.6ZM247.1,109c0-.3-.3-.6-.6-.6h-2.5c-.3,0-.6.3-.6.6s.3.6.6.6h2.5c.3,0,.6-.3.6-.6ZM247.1,111.7c0-.3-.3-.6-.6-.6h-2.5c-.3,0-.6.3-.6.6s.3.6.6.6h2.5c.3,0,.6-.3.6-.6ZM247.1,114.3c0-.3-.3-.6-.6-.6h-2.5c-.3,0-.6.3-.6.6s.3.6.6.6h2.5c.3,0,.6-.3.6-.6ZM247.1,117c0-.3-.3-.6-.6-.6h-2.5c-.3,0-.6.3-.6.6s.3.6.6.6h2.5c.3,0,.6-.3.6-.6ZM247.1,119.6c0-.3-.3-.6-.6-.6h-2.5c-.3,0-.6.3-.6.6s.3.6.6.6h2.5c.3,0,.6-.3.6-.6ZM247.1,122.3c0-.3-.3-.6-.6-.6h-2.5c-.3,0-.6.3-.6.6s.3.6.6.6h2.5c.3,0,.6-.3.6-.6ZM256.5,103.7c0-.3-.3-.6-.6-.6h-6.6c-.3,0-.6.3-.6.6s.3.6.6.6h6.6c.3,0,.6-.3.6-.6ZM256.5,106.4c0-.3-.3-.6-.6-.6h-6.6c-.3,0-.6.3-.6.6s.3.6.6.6h6.6c.3,0,.6-.3.6-.6ZM256.5,109c0-.3-.3-.6-.6-.6h-6.6c-.3,0-.6.3-.6.6s.3.6.6.6h6.6c.3,0,.6-.3.6-.6ZM256.5,111.7c0-.3-.3-.6-.6-.6h-6.6c-.3,0-.6.3-.6.6s.3.6.6.6h6.6c.3,0,.6-.3.6-.6ZM256.5,114.3c0-.3-.3-.6-.6-.6h-6.6c-.3,0-.6.3-.6.6s.3.6.6.6h6.6c.3,0,.6-.3.6-.6ZM264.3,117c0-.3-.3-.6-.6-.6h-6.6c-.3,0-.6.3-.6.6s.3.6.6.6h6.6c.3,0,.6-.3.6-.6ZM264.3,119.6c0-.3-.3-.6-.6-.6h-6.6c-.3,0-.6.3-.6.6s.3.6.6.6h6.6c.3,0,.6-.3.6-.6ZM264.3,122.3c0-.3-.3-.6-.6-.6h-6.6c-.3,0-.6.3-.6.6s.3.6.6.6h6.6c.3,0,.6-.3.6-.6ZM259.4,103.7c0-.4-.3-.7-.7-.7s-.7.3-.7.7.3.7.7.7.7-.3.7-.7ZM261.5,103.7c0-.4-.3-.7-.7-.7s-.7.3-.7.7.3.7.7.7.7-.3.7-.7ZM263.7,103.7c0-.4-.3-.7-.7-.7s-.7.3-.7.7.3.7.7.7.7-.3.7-.7ZM265.8,103.7c0-.4-.3-.7-.7-.7s-.7.3-.7.7.3.7.7.7.7-.3.7-.7ZM268,103.7c0-.4-.3-.7-.7-.7s-.7.3-.7.7.3.7.7.7.7-.3.7-.7ZM270.1,103.7c0-.4-.3-.7-.7-.7s-.7.3-.7.7.3.7.7.7.7-.3.7-.7ZM259.4,109c0-.4-.3-.7-.7-.7s-.7.3-.7.7.3.7.7.7.7-.3.7-.7ZM261.5,109c0-.4-.3-.7-.7-.7s-.7.3-.7.7.3.7.7.7.7-.3.7-.7ZM263.7,109c0-.4-.3-.7-.7-.7s-.7.3-.7.7.3.7.7.7.7-.3.7-.7ZM265.8,109c0-.4-.3-.7-.7-.7s-.7.3-.7.7.3.7.7.7.7-.3.7-.7ZM268,109c0-.4-.3-.7-.7-.7s-.7.3-.7.7.3.7.7.7.7-.3.7-.7ZM270.1,109c0-.4-.3-.7-.7-.7s-.7.3-.7.7.3.7.7.7.7-.3.7-.7ZM266.7,116.6c0-.4-.3-.7-.7-.7s-.7.3-.7.7.3.7.7.7.7-.3.7-.7ZM268.9,116.6c0-.4-.3-.7-.7-.7s-.7.3-.7.7.3.7.7.7.7-.3.7-.7ZM271,116.6c0-.4-.3-.7-.7-.7s-.7.3-.7.7.3.7.7.7.7-.3.7-.7ZM273.2,116.6c0-.4-.3-.7-.7-.7s-.7.3-.7.7.3.7.7.7.7-.3.7-.7ZM275.3,116.6c0-.4-.3-.7-.7-.7s-.7.3-.7.7.3.7.7.7.7-.3.7-.7ZM277.5,116.6c0-.4-.3-.7-.7-.7s-.7.3-.7.7.3.7.7.7.7-.3.7-.7ZM266.7,122.1c0-.4-.3-.7-.7-.7s-.7.3-.7.7.3.7.7.7.7-.3.7-.7ZM268.9,122.1c0-.4-.3-.7-.7-.7s-.7.3-.7.7.3.7.7.7.7-.3.7-.7ZM271,122.1c0-.4-.3-.7-.7-.7s-.7.3-.7.7.3.7.7.7.7-.3.7-.7ZM273.2,122.1c0-.4-.3-.7-.7-.7s-.7.3-.7.7.3.7.7.7.7-.3.7-.7ZM275.3,122.1c0-.4-.3-.7-.7-.7s-.7.3-.7.7.3.7.7.7.7-.3.7-.7ZM277.5,122.1c0-.4-.3-.7-.7-.7s-.7.3-.7.7.3.7.7.7.7-.3.7-.7Z"/>
        <path class="st12" d="M246.5,126h-2.5c-.3,0-.6-.3-.6-.6s.3-.6.6-.6h2.5c.3,0,.6.3.6.6s-.3.6-.6.6ZM247.1,128.1c0-.3-.3-.6-.6-.6h-2.5c-.3,0-.6.3-.6.6s.3.6.6.6h2.5c.3,0,.6-.3.6-.6ZM247.1,130.7c0-.3-.3-.6-.6-.6h-2.5c-.3,0-.6.3-.6.6s.3.6.6.6h2.5c.3,0,.6-.3.6-.6ZM247.1,133.4c0-.3-.3-.6-.6-.6h-2.5c-.3,0-.6.3-.6.6s.3.6.6.6h2.5c.3,0,.6-.3.6-.6ZM247.1,136c0-.3-.3-.6-.6-.6h-2.5c-.3,0-.6.3-.6.6s.3.6.6.6h2.5c.3,0,.6-.3.6-.6ZM247.1,138.7c0-.3-.3-.6-.6-.6h-2.5c-.3,0-.6.3-.6.6s.3.6.6.6h2.5c.3,0,.6-.3.6-.6ZM247.1,141.3c0-.3-.3-.6-.6-.6h-2.5c-.3,0-.6.3-.6.6s.3.6.6.6h2.5c.3,0,.6-.3.6-.6ZM247.1,144c0-.3-.3-.6-.6-.6h-2.5c-.3,0-.6.3-.6.6s.3.6.6.6h2.5c.3,0,.6-.3.6-.6ZM256.5,125.4c0-.3-.3-.6-.6-.6h-6.6c-.3,0-.6.3-.6.6s.3.6.6.6h6.6c.3,0,.6-.3.6-.6ZM256.5,128.1c0-.3-.3-.6-.6-.6h-6.6c-.3,0-.6.3-.6.6s.3.6.6.6h6.6c.3,0,.6-.3.6-.6ZM256.5,130.7c0-.3-.3-.6-.6-.6h-6.6c-.3,0-.6.3-.6.6s.3.6.6.6h6.6c.3,0,.6-.3.6-.6ZM256.5,133.4c0-.3-.3-.6-.6-.6h-6.6c-.3,0-.6.3-.6.6s.3.6.6.6h6.6c.3,0,.6-.3.6-.6ZM256.5,136c0-.3-.3-.6-.6-.6h-6.6c-.3,0-.6.3-.6.6s.3.6.6.6h6.6c.3,0,.6-.3.6-.6ZM264.3,138.7c0-.3-.3-.6-.6-.6h-6.6c-.3,0-.6.3-.6.6s.3.6.6.6h6.6c.3,0,.6-.3.6-.6ZM264.3,141.3c0-.3-.3-.6-.6-.6h-6.6c-.3,0-.6.3-.6.6s.3.6.6.6h6.6c.3,0,.6-.3.6-.6ZM264.3,144c0-.3-.3-.6-.6-.6h-6.6c-.3,0-.6.3-.6.6s.3.6.6.6h6.6c.3,0,.6-.3.6-.6ZM259.4,125.4c0-.4-.3-.7-.7-.7s-.7.3-.7.7.3.7.7.7.7-.3.7-.7ZM261.5,125.4c0-.4-.3-.7-.7-.7s-.7.3-.7.7.3.7.7.7.7-.3.7-.7ZM263.7,125.4c0-.4-.3-.7-.7-.7s-.7.3-.7.7.3.7.7.7.7-.3.7-.7ZM265.8,125.4c0-.4-.3-.7-.7-.7s-.7.3-.7.7.3.7.7.7.7-.3.7-.7ZM268,125.4c0-.4-.3-.7-.7-.7s-.7.3-.7.7.3.7.7.7.7-.3.7-.7ZM270.1,125.4c0-.4-.3-.7-.7-.7s-.7.3-.7.7.3.7.7.7.7-.3.7-.7ZM259.4,130.7c0-.4-.3-.7-.7-.7s-.7.3-.7.7.3.7.7.7.7-.3.7-.7ZM261.5,130.7c0-.4-.3-.7-.7-.7s-.7.3-.7.7.3.7.7.7.7-.3.7-.7ZM263.7,130.7c0-.4-.3-.7-.7-.7s-.7.3-.7.7.3.7.7.7.7-.3.7-.7ZM265.8,130.7c0-.4-.3-.7-.7-.7s-.7.3-.7.7.3.7.7.7.7-.3.7-.7ZM268,130.7c0-.4-.3-.7-.7-.7s-.7.3-.7.7.3.7.7.7.7-.3.7-.7ZM270.1,130.7c0-.4-.3-.7-.7-.7s-.7.3-.7.7.3.7.7.7.7-.3.7-.7ZM266.7,138.3c0-.4-.3-.7-.7-.7s-.7.3-.7.7.3.7.7.7.7-.3.7-.7ZM268.9,138.3c0-.4-.3-.7-.7-.7s-.7.3-.7.7.3.7.7.7.7-.3.7-.7ZM271,138.3c0-.4-.3-.7-.7-.7s-.7.3-.7.7.3.7.7.7.7-.3.7-.7ZM273.2,138.3c0-.4-.3-.7-.7-.7s-.7.3-.7.7.3.7.7.7.7-.3.7-.7ZM275.3,138.3c0-.4-.3-.7-.7-.7s-.7.3-.7.7.3.7.7.7.7-.3.7-.7ZM277.5,138.3c0-.4-.3-.7-.7-.7s-.7.3-.7.7.3.7.7.7.7-.3.7-.7ZM266.7,143.8c0-.4-.3-.7-.7-.7s-.7.3-.7.7.3.7.7.7.7-.3.7-.7ZM268.9,143.8c0-.4-.3-.7-.7-.7s-.7.3-.7.7.3.7.7.7.7-.3.7-.7ZM271,143.8c0-.4-.3-.7-.7-.7s-.7.3-.7.7.3.7.7.7.7-.3.7-.7ZM273.2,143.8c0-.4-.3-.7-.7-.7s-.7.3-.7.7.3.7.7.7.7-.3.7-.7ZM275.3,143.8c0-.4-.3-.7-.7-.7s-.7.3-.7.7.3.7.7.7.7-.3.7-.7ZM277.5,143.8c0-.4-.3-.7-.7-.7s-.7.3-.7.7.3.7.7.7.7-.3.7-.7Z"/>
        <path class="st12" d="M285,83.1h-2.5c-.3,0-.6-.3-.6-.6s.3-.6.6-.6h2.5c.3,0,.6.3.6.6s-.3.6-.6.6ZM285.6,85.2c0-.3-.3-.6-.6-.6h-2.5c-.3,0-.6.3-.6.6s.3.6.6.6h2.5c.3,0,.6-.3.6-.6ZM285.6,87.8c0-.3-.3-.6-.6-.6h-2.5c-.3,0-.6.3-.6.6s.3.6.6.6h2.5c.3,0,.6-.3.6-.6ZM285.6,90.5c0-.3-.3-.6-.6-.6h-2.5c-.3,0-.6.3-.6.6s.3.6.6.6h2.5c.3,0,.6-.3.6-.6ZM285.6,93.1c0-.3-.3-.6-.6-.6h-2.5c-.3,0-.6.3-.6.6s.3.6.6.6h2.5c.3,0,.6-.3.6-.6ZM285.6,95.8c0-.3-.3-.6-.6-.6h-2.5c-.3,0-.6.3-.6.6s.3.6.6.6h2.5c.3,0,.6-.3.6-.6ZM285.6,98.4c0-.3-.3-.6-.6-.6h-2.5c-.3,0-.6.3-.6.6s.3.6.6.6h2.5c.3,0,.6-.3.6-.6ZM285.6,101.1c0-.3-.3-.6-.6-.6h-2.5c-.3,0-.6.3-.6.6s.3.6.6.6h2.5c.3,0,.6-.3.6-.6ZM295,82.5c0-.3-.3-.6-.6-.6h-6.6c-.3,0-.6.3-.6.6s.3.6.6.6h6.6c.3,0,.6-.3.6-.6ZM295,85.2c0-.3-.3-.6-.6-.6h-6.6c-.3,0-.6.3-.6.6s.3.6.6.6h6.6c.3,0,.6-.3.6-.6ZM295,87.8c0-.3-.3-.6-.6-.6h-6.6c-.3,0-.6.3-.6.6s.3.6.6.6h6.6c.3,0,.6-.3.6-.6ZM295,90.5c0-.3-.3-.6-.6-.6h-6.6c-.3,0-.6.3-.6.6s.3.6.6.6h6.6c.3,0,.6-.3.6-.6ZM295,93.1c0-.3-.3-.6-.6-.6h-6.6c-.3,0-.6.3-.6.6s.3.6.6.6h6.6c.3,0,.6-.3.6-.6ZM428,81.9c0-.3-.3-.6-.6-.6h-6.6c-.3,0-.6.3-.6.6s.3.6.6.6h6.6c.3,0,.6-.3.6-.6ZM428,84.6c0-.3-.3-.6-.6-.6h-6.6c-.3,0-.6.3-.6.6s.3.6.6.6h6.6c.3,0,.6-.3.6-.6ZM428,87.2c0-.3-.3-.6-.6-.6h-6.6c-.3,0-.6.3-.6.6s.3.6.6.6h6.6c.3,0,.6-.3.6-.6ZM428,89.9c0-.3-.3-.6-.6-.6h-6.6c-.3,0-.6.3-.6.6s.3.6.6.6h6.6c.3,0,.6-.3.6-.6ZM428,92.5c0-.3-.3-.6-.6-.6h-6.6c-.3,0-.6.3-.6.6s.3.6.6.6h6.6c.3,0,.6-.3.6-.6ZM428.5,120.1c0-.3-.3-.6-.6-.6h-6.6c-.3,0-.6.3-.6.6s.3.6.6.6h6.6c.3,0,.6-.3.6-.6ZM428.5,122.8c0-.3-.3-.6-.6-.6h-6.6c-.3,0-.6.3-.6.6s.3.6.6.6h6.6c.3,0,.6-.3.6-.6ZM428.5,125.4c0-.3-.3-.6-.6-.6h-6.6c-.3,0-.6.3-.6.6s.3.6.6.6h6.6c.3,0,.6-.3.6-.6ZM428.5,128.1c0-.3-.3-.6-.6-.6h-6.6c-.3,0-.6.3-.6.6s.3.6.6.6h6.6c.3,0,.6-.3.6-.6ZM428.5,130.7c0-.3-.3-.6-.6-.6h-6.6c-.3,0-.6.3-.6.6s.3.6.6.6h6.6c.3,0,.6-.3.6-.6ZM302.9,95.8c0-.3-.3-.6-.6-.6h-6.6c-.3,0-.6.3-.6.6s.3.6.6.6h6.6c.3,0,.6-.3.6-.6ZM302.9,98.4c0-.3-.3-.6-.6-.6h-6.6c-.3,0-.6.3-.6.6s.3.6.6.6h6.6c.3,0,.6-.3.6-.6ZM302.9,101.1c0-.3-.3-.6-.6-.6h-6.6c-.3,0-.6.3-.6.6s.3.6.6.6h6.6c.3,0,.6-.3.6-.6ZM297.9,82.5c0-.4-.3-.7-.7-.7s-.7.3-.7.7.3.7.7.7.7-.3.7-.7ZM300,82.5c0-.4-.3-.7-.7-.7s-.7.3-.7.7.3.7.7.7.7-.3.7-.7ZM302.2,82.5c0-.4-.3-.7-.7-.7s-.7.3-.7.7.3.7.7.7.7-.3.7-.7ZM304.3,82.5c0-.4-.3-.7-.7-.7s-.7.3-.7.7.3.7.7.7.7-.3.7-.7ZM306.5,82.5c0-.4-.3-.7-.7-.7s-.7.3-.7.7.3.7.7.7.7-.3.7-.7ZM308.6,82.5c0-.4-.3-.7-.7-.7s-.7.3-.7.7.3.7.7.7.7-.3.7-.7ZM297.9,87.8c0-.4-.3-.7-.7-.7s-.7.3-.7.7.3.7.7.7.7-.3.7-.7ZM300,87.8c0-.4-.3-.7-.7-.7s-.7.3-.7.7.3.7.7.7.7-.3.7-.7ZM302.2,87.8c0-.4-.3-.7-.7-.7s-.7.3-.7.7.3.7.7.7.7-.3.7-.7ZM304.3,87.8c0-.4-.3-.7-.7-.7s-.7.3-.7.7.3.7.7.7.7-.3.7-.7ZM306.5,87.8c0-.4-.3-.7-.7-.7s-.7.3-.7.7.3.7.7.7.7-.3.7-.7ZM308.6,87.8c0-.4-.3-.7-.7-.7s-.7.3-.7.7.3.7.7.7.7-.3.7-.7ZM305.2,95.4c0-.4-.3-.7-.7-.7s-.7.3-.7.7.3.7.7.7.7-.3.7-.7ZM307.4,95.4c0-.4-.3-.7-.7-.7s-.7.3-.7.7.3.7.7.7.7-.3.7-.7ZM309.5,95.4c0-.4-.3-.7-.7-.7s-.7.3-.7.7.3.7.7.7.7-.3.7-.7ZM311.7,95.4c0-.4-.3-.7-.7-.7s-.7.3-.7.7.3.7.7.7.7-.3.7-.7ZM313.8,95.4c0-.4-.3-.7-.7-.7s-.7.3-.7.7.3.7.7.7.7-.3.7-.7ZM316,95.4c0-.4-.3-.7-.7-.7s-.7.3-.7.7.3.7.7.7.7-.3.7-.7ZM305.2,100.9c0-.4-.3-.7-.7-.7s-.7.3-.7.7.3.7.7.7.7-.3.7-.7ZM307.4,100.9c0-.4-.3-.7-.7-.7s-.7.3-.7.7.3.7.7.7.7-.3.7-.7ZM309.5,100.9c0-.4-.3-.7-.7-.7s-.7.3-.7.7.3.7.7.7.7-.3.7-.7ZM311.7,100.9c0-.4-.3-.7-.7-.7s-.7.3-.7.7.3.7.7.7.7-.3.7-.7ZM313.8,100.9c0-.4-.3-.7-.7-.7s-.7.3-.7.7.3.7.7.7.7-.3.7-.7ZM316,100.9c0-.4-.3-.7-.7-.7s-.7.3-.7.7.3.7.7.7.7-.3.7-.7Z"/>
        <path class="st12" d="M285,104.8h-2.5c-.3,0-.6-.3-.6-.6s.3-.6.6-.6h2.5c.3,0,.6.3.6.6s-.3.6-.6.6ZM285.6,106.9c0-.3-.3-.6-.6-.6h-2.5c-.3,0-.6.3-.6.6s.3.6.6.6h2.5c.3,0,.6-.3.6-.6ZM285.6,109.5c0-.3-.3-.6-.6-.6h-2.5c-.3,0-.6.3-.6.6s.3.6.6.6h2.5c.3,0,.6-.3.6-.6ZM285.6,112.2c0-.3-.3-.6-.6-.6h-2.5c-.3,0-.6.3-.6.6s.3.6.6.6h2.5c.3,0,.6-.3.6-.6ZM285.6,114.8c0-.3-.3-.6-.6-.6h-2.5c-.3,0-.6.3-.6.6s.3.6.6.6h2.5c.3,0,.6-.3.6-.6ZM285.6,117.5c0-.3-.3-.6-.6-.6h-2.5c-.3,0-.6.3-.6.6s.3.6.6.6h2.5c.3,0,.6-.3.6-.6ZM285.6,120.1c0-.3-.3-.6-.6-.6h-2.5c-.3,0-.6.3-.6.6s.3.6.6.6h2.5c.3,0,.6-.3.6-.6ZM285.6,122.8c0-.3-.3-.6-.6-.6h-2.5c-.3,0-.6.3-.6.6s.3.6.6.6h2.5c.3,0,.6-.3.6-.6ZM295,104.2c0-.3-.3-.6-.6-.6h-6.6c-.3,0-.6.3-.6.6s.3.6.6.6h6.6c.3,0,.6-.3.6-.6ZM295,106.9c0-.3-.3-.6-.6-.6h-6.6c-.3,0-.6.3-.6.6s.3.6.6.6h6.6c.3,0,.6-.3.6-.6ZM295,109.5c0-.3-.3-.6-.6-.6h-6.6c-.3,0-.6.3-.6.6s.3.6.6.6h6.6c.3,0,.6-.3.6-.6ZM295,112.2c0-.3-.3-.6-.6-.6h-6.6c-.3,0-.6.3-.6.6s.3.6.6.6h6.6c.3,0,.6-.3.6-.6ZM295,114.8c0-.3-.3-.6-.6-.6h-6.6c-.3,0-.6.3-.6.6s.3.6.6.6h6.6c.3,0,.6-.3.6-.6ZM302.9,117.5c0-.3-.3-.6-.6-.6h-6.6c-.3,0-.6.3-.6.6s.3.6.6.6h6.6c.3,0,.6-.3.6-.6ZM302.9,120.1c0-.3-.3-.6-.6-.6h-6.6c-.3,0-.6.3-.6.6s.3.6.6.6h6.6c.3,0,.6-.3.6-.6ZM302.9,122.8c0-.3-.3-.6-.6-.6h-6.6c-.3,0-.6.3-.6.6s.3.6.6.6h6.6c.3,0,.6-.3.6-.6ZM297.9,104.2c0-.4-.3-.7-.7-.7s-.7.3-.7.7.3.7.7.7.7-.3.7-.7ZM300,104.2c0-.4-.3-.7-.7-.7s-.7.3-.7.7.3.7.7.7.7-.3.7-.7ZM302.2,104.2c0-.4-.3-.7-.7-.7s-.7.3-.7.7.3.7.7.7.7-.3.7-.7ZM304.3,104.2c0-.4-.3-.7-.7-.7s-.7.3-.7.7.3.7.7.7.7-.3.7-.7ZM306.5,104.2c0-.4-.3-.7-.7-.7s-.7.3-.7.7.3.7.7.7.7-.3.7-.7ZM308.6,104.2c0-.4-.3-.7-.7-.7s-.7.3-.7.7.3.7.7.7.7-.3.7-.7ZM297.9,109.5c0-.4-.3-.7-.7-.7s-.7.3-.7.7.3.7.7.7.7-.3.7-.7ZM300,109.5c0-.4-.3-.7-.7-.7s-.7.3-.7.7.3.7.7.7.7-.3.7-.7ZM302.2,109.5c0-.4-.3-.7-.7-.7s-.7.3-.7.7.3.7.7.7.7-.3.7-.7ZM304.3,109.5c0-.4-.3-.7-.7-.7s-.7.3-.7.7.3.7.7.7.7-.3.7-.7ZM306.5,109.5c0-.4-.3-.7-.7-.7s-.7.3-.7.7.3.7.7.7.7-.3.7-.7ZM308.6,109.5c0-.4-.3-.7-.7-.7s-.7.3-.7.7.3.7.7.7.7-.3.7-.7ZM305.2,117.1c0-.4-.3-.7-.7-.7s-.7.3-.7.7.3.7.7.7.7-.3.7-.7ZM307.4,117.1c0-.4-.3-.7-.7-.7s-.7.3-.7.7.3.7.7.7.7-.3.7-.7ZM309.5,117.1c0-.4-.3-.7-.7-.7s-.7.3-.7.7.3.7.7.7.7-.3.7-.7ZM311.7,117.1c0-.4-.3-.7-.7-.7s-.7.3-.7.7.3.7.7.7.7-.3.7-.7ZM313.8,117.1c0-.4-.3-.7-.7-.7s-.7.3-.7.7.3.7.7.7.7-.3.7-.7ZM316,117.1c0-.4-.3-.7-.7-.7s-.7.3-.7.7.3.7.7.7.7-.3.7-.7ZM305.2,122.6c0-.4-.3-.7-.7-.7s-.7.3-.7.7.3.7.7.7.7-.3.7-.7ZM307.4,122.6c0-.4-.3-.7-.7-.7s-.7.3-.7.7.3.7.7.7.7-.3.7-.7ZM309.5,122.6c0-.4-.3-.7-.7-.7s-.7.3-.7.7.3.7.7.7.7-.3.7-.7ZM311.7,122.6c0-.4-.3-.7-.7-.7s-.7.3-.7.7.3.7.7.7.7-.3.7-.7ZM313.8,122.6c0-.4-.3-.7-.7-.7s-.7.3-.7.7.3.7.7.7.7-.3.7-.7ZM316,122.6c0-.4-.3-.7-.7-.7s-.7.3-.7.7.3.7.7.7.7-.3.7-.7Z"/>
      </g>
    </g>
  </g>
  <g id="Character">
    <g>
      <g>
        <path class="st8" d="M275.3,51.6c-.3,3.8-2.1,6.7-4,6.6-1.9-.1-3.2-3.3-2.9-7.1.3-3.8,2.1-6.7,4-6.6,1.9.1,3.2,3.3,2.9,7.1Z"/>
        <g>
          <path class="st3" d="M272.4,32.1s.4,7-.8,10.3c-1.2,3.3-2.7,5.4-2.7,7s2.5,3.5,2.5,6.6-5.6,18-7.2,20.9c-1.5,2.9-1,3.9-2.9,4.1s-6.8-2.1-6.8-2.1c0,0-2.9.4-3.3,1.5-.4,1.2-1.4,5.2-1.4,5.2l-28.2-12.6s4.1-4.3,5.8-9.9c1.7-5.6-1-14.3-1-14.3,0,0-2.7-20.3,9.7-26.1,12.4-5.8,30.4-2.1,33.3.8,2.9,2.9,2.9,8.7,2.9,8.7Z"/>
          <g class="st19">
            <path class="st5" d="M254.3,64.2c.3-9-2.1-20.5-2.1-20.5,0,0,.3-2.8-4.9-11.5-1.9-3.2-4.1-7.4-7-11.2-1.4.4-2.8.9-4.1,1.5-12.4,5.8-9.7,26.1-9.7,26.1,0,0,2.7,8.7,1,14.3s-5.8,9.9-5.8,9.9l16.4,7.3,13.1-1.8s.7.3,1.7.7c.9-.3,1.7-.4,1.7-.4,0,0,4.8,2.3,6.8,2.1,1.3-1.6-7.4-7.6-7-16.6Z"/>
          </g>
          <path class="st7" d="M272.4,32.1s.4,7-.8,10.3c-1.2,3.3-2.7,5.4-2.7,7s2.5,3.5,2.5,6.6-5.6,18-7.2,20.9c-1.5,2.9-1,3.9-2.9,4.1s-6.8-2.1-6.8-2.1c0,0-2.9.4-3.3,1.5-.4,1.2-1.4,5.2-1.4,5.2l-28.2-12.6s4.1-4.3,5.8-9.9c1.7-5.6-1-14.3-1-14.3,0,0-2.7-20.3,9.7-26.1,12.4-5.8,30.4-2.1,33.3.8,2.9,2.9,2.9,8.7,2.9,8.7Z"/>
        </g>
        <path class="st4" d="M249,50.1s4.6,1.4,5.2,0c.6-1.4-1.2-1.7,1-2.5,2.1-.8,7.2-3.9,7.2-7s-5.8-8.3-2.9-9.1c2.9-.8,11.8-.4,11.8-.4,0,0-6.2,2.9-3.1,4.3,3.1,1.4,10.6-.4,13.5-4.6,2.9-4.3-1.2-11-6.8-14.7-5.6-3.7-16.8-6.8-27.9-6.4-11,.4-19.2,4.3-21.5,10.6s1.4,28.8,1.5,34.8c.2,6,3.9,7.7,8.1,7.7s7.9-3.7,8.9-7c1-3.3,1.4-6.6,1.9-7.4.6-.8,2.9,1.5,2.9,1.5Z"/>
        <line class="st8" x1="247.2" y1="46.8" x2="274.9" y2="49.7"/>
        <path class="st2" d="M251.1,53s.4-6.8-2.1-10.1c-2.5-3.3-4.6-1-5.8,5.6-1.2,6.6-1.2,10.1,1.4,11,2.5,1,5-.2,5-.2"/>
      </g>
      <path class="st10" d="M321.7,228.8c-2.3-2.3-8.5-7.7-16.2-9.6-9.9-2.4-53.3-7.3-53.3-7.3l-2.1-8.7s-6.1-1.9-7.5-1.9-7.8,2.1-21.9,5.2c-14.1,3.1-39.5-4.4-39.5-4.4,0,0-6.9,5.1-6.9,14.7s.6,11,1.3,12h146.2Z"/>
      <g>
        <path class="st17" d="M215.9,76.8s-.3.2-.7.5c-2.7,1.9-12.8,8.8-20.4,14.8-8.9,7-9.5,19.9-9.9,30-.4,10.1-6.9,72.7-8.4,80.4-1.5,7.7,12.3,9.7,25.6,11.7,13.4,1.9,30.6-.2,38.9-4.1,8.3-3.9,10.3-3.7,10.3-7.9s.2-13.9.2-14.7,6-48.2,5.6-62.1c-.4-13.9.8-21.5-2.5-28.4-3.3-7-11.6-12.4-22.6-16.1s-16.1-4.1-16.1-4.1Z"/>
        <g class="st15">
          <path class="st14" d="M248.3,104.9c-3.3-6.6-13.8-18.6-13.8-18.6,0,0,8-2.4-19.3-9,0,0,0,0,0,0-2.7,1.9-12.8,8.8-20.4,14.8-8.9,7-9.5,19.9-9.9,30-.4,10.1-6.9,72.7-8.4,80.4-1.5,7.7,12.3,9.7,25.6,11.7,3.4.5,7,.7,10.6.7l38.9-31.9s0,.1.3.3c1-8.9,3.6-30.2,4.6-45.3-2.8-13.1-6.1-28.5-8.3-33.1Z"/>
          <path class="st8" d="M202.7,117s1.8,17.2,10.1,28.1"/>
          <path class="st8" d="M227.6,145.7s1.8,4.1,10.7,11"/>
          <path class="st8" d="M220.5,158.1s9.5,3.3,18.7,1.5"/>
          <path class="st8" d="M217.5,214.7s19.5-10.1,27.2-19.8"/>
        </g>
        <path class="st8" d="M215.9,76.8s-.3.2-.7.5c-2.7,1.9-12.8,8.8-20.4,14.8-8.9,7-9.5,19.9-9.9,30-.4,10.1-6.9,72.7-8.4,80.4-1.5,7.7,12.3,9.7,25.6,11.7,13.4,1.9,30.6-.2,38.9-4.1,8.3-3.9,10.3-3.7,10.3-7.9s.2-13.9.2-14.7,6-48.2,5.6-62.1c-.4-13.9.8-21.5-2.5-28.4-3.3-7-11.6-12.4-22.6-16.1s-16.1-4.1-16.1-4.1Z"/>
      </g>
      <g>
        <path class="st17" d="M217.8,70.2l-5.2,8.7s15.7,3.7,23.8,7c8.1,3.3,19,12,19,12,0,0-1.7-9.9-3.3-12.4-1.5-2.5-17.6-11-24.2-13.5s-10.1-1.7-10.1-1.7Z"/>
        <g class="st18">
          <path class="st14" d="M242,88.7c.8-.4,1.4-.9,1.4-1.6.6-4.6-7.2-11.2-7.6-11.5-3.1-1.5-5.9-2.8-7.9-3.6-6.6-2.5-10.1-1.7-10.1-1.7l-5.2,8.7s15.7,3.7,23.8,7c1.8.7,3.7,1.7,5.6,2.8Z"/>
        </g>
        <path class="st8" d="M217.8,70.2l-5.2,8.7s15.7,3.7,23.8,7c8.1,3.3,19,12,19,12,0,0-1.7-9.9-3.3-12.4-1.5-2.5-17.6-11-24.2-13.5s-10.1-1.7-10.1-1.7Z"/>
      </g>
      <g>
        <path class="st2" d="M310.9,179.7s5-4.3,7.4-8.5c2.3-4.3,3.9-5.4,5.6-5s3.1.4,3.1.4c0,0,6.2-3.7,8.1-4.1s5.8,4.3,5.8,4.3c0,0,6.6,5,5.8,6.2-.8,1.2-1.9.6-2.7.6s-2.5-1.4-3.5-1c-1,.4-5.2,3.1-5.2,3.1,0,0,5,0,6.4.6,1.4.6,6.4,5,5.4,5.6-1,.6-1,.8-2.1.6-1.2-.2-3.9-1.9-3.9-1.9l-5.2,1s3.1,3.3,4.1,4.1c1,.8,4.6,1.9,3.1,2.9-1.5,1-2.7.6-4.6-.8-1.9-1.4-6.2-3.5-7-3.5s-2.9,2.7-6.4,3.9c-3.5,1.2-8.7,1.2-8.7,1.2l-1,1-5.8-7-1.2-1,2.5-2.5Z"/>
        <path class="st7" d="M340.9,166.8s-1.7-1-2.9-.4c-1.2.6-8.5,4.8-8.5,4.8"/>
        <line class="st7" x1="327" y1="166.6" x2="323.5" y2="168.9"/>
      </g>
      <g>
        <path class="st2" d="M276.1,182.8s12.8-.2,14.7-1.4c1.9-1.2,6.6-4.5,6.8-5.8s-1-2.1-2.9-1.4c-1.9.8-7,2.7-7.7,2.7s-4.1-1.2-4.1-1.2c0,0,5.6-5,7.9-6.4,2.3-1.4,4.8-.8,6.2,0,1.4.8,3.5-1.7,1.7-3.1-1.7-1.4-4.3-2.3-6.2-2.1-1.9.2-2.7.6-2.7.6,0,0-2.1-3.5-3.7-3.1-1.5.4-2.7,1.5-2.7,1.5,0,0-1.7-1-3.5.2-1.7,1.2-3.5,1.5-5.4,3.1-1.9,1.5-7.5,5.2-8.3,6.6-.8,1.4,9.9,9.7,9.9,9.7Z"/>
        <line class="st7" x1="289.8" y1="164.8" x2="284.4" y2="167.9"/>
        <line class="st7" x1="283.4" y1="163.3" x2="279.5" y2="166"/>
      </g>
      <g>
        <path class="st17" d="M239.1,116.6s-5.4,7.4-7.2,13.2c-1.7,5.8.4,14.1,1,16.1.6,1.9,31.5,62.9,34.8,68.9,3.3,6,7,6.4,9.7,5.4,2.7-1,33.9-23.2,35-24.4s6.4-5.6,6.4-5.6c0,0,1-6.2-3.3-9.5-4.3-3.3-6.4-1.5-6.4-1.5l-27.1,7.4s-15.3-52.6-17-62.7c-1.7-10.1,1-9.5-4.5-14.9-5.4-5.4-12-9.5-12-9.5"/>
        <g class="st16">
          <path class="st14" d="M312.4,195.8c1.2-1.2,6.4-5.6,6.4-5.6,0,0,.3-2.1-.2-4.5-10.9,4.3-33.2,13.2-34.5,14.5-1.7,1.7-.9-1.3-.9-4.7s-5.2,6-6,8.2c-.9,2.2-2.8-6.1-3.5-9.5-.6-3.4-10.8-29.3-13.8-41.4-3-12.1-8.4-41.3-11.7-47.9-.5-1-1.2-2.1-1.9-3.3l-8.2,14.6s-4.5,7.9-6.2,13.7c-1.7,5.8.4,14.1,1,16.1.3,1.1,9.6,19.6,18.6,37.3l.2-.2s16.4,41.5,24.5,37.5c7.9-5,35.3-23.7,36.3-24.7Z"/>
        </g>
        <path class="st8" d="M239.1,116.6s-5.4,7.4-7.2,13.2c-1.7,5.8.4,14.1,1,16.1.6,1.9,31.5,62.9,34.8,68.9,3.3,6,7,6.4,9.7,5.4,2.7-1,33.9-23.2,35-24.4s6.4-5.6,6.4-5.6c0,0,1-6.2-3.3-9.5-4.3-3.3-6.4-1.5-6.4-1.5l-27.1,7.4s-15.3-52.6-17-62.7c-1.7-10.1,1-9.5-4.5-14.9-5.4-5.4-12-9.5-12-9.5"/>
      </g>
      <path class="st8" d="M305.5,180.9s8.8,1.1,9.3,12.8"/>
    </g>
  </g>
  <g id="Chair">
    <g>
      <path class="st2" d="M211.9,229.6h4.5c-6.9-12.8-44.7-83.7-46-86.9-1.4-3.5-3.5-3.5-4.2-5-.7-1.4.2-7.5,0-11.6s-13.2-41.3-16.7-47.4c-3.5-6.1-8.9-5.4-8.9-5.4l-1.4,3.8,22.4,61.1,50.5,91.4Z"/>
      <path class="st1" d="M124.3,142c9.3,21.5,35.7,81.7,37.9,87.6h49.8c-5.8-10.5-40.6-73.4-47.9-93.3-8-21.7-20.5-60.4-23.5-63-3.1-2.6-18.4-2.6-24.5-.7-6.1,1.9-6.4,2.6-6.1,6.6s5.1,41.3,14.4,62.7Z"/>
      <line class="st1" x1="162.2" y1="229.6" x2="478.2" y2="229.6"/>
    </g>
  </g>
</svg>