<svg
  xmlns="http://www.w3.org/2000/svg"
  width="24"
  height="24"
  viewBox="0 0 24 24"
  fill="none"
  class="size-4"
  stroke-width="2"
  stroke-linecap="round"
  stroke-linejoin="round"
>
  <style>
    path { stroke: #1F2328; /* GitHub light theme text color */ }
    @media (prefers-color-scheme: dark) {
      path { stroke: #E6EDF3; /* GitHub dark theme text color */ }
    }
  </style>
  <path d="M14 9.536V7a4 4 0 0 1 4-4h1.5a.5.5 0 0 1 .5.5V5a4 4 0 0 1-4 4 4 4 0 0 0-4 4c0 2 1 3 1 5a5 5 0 0 1-1 3" />
  <path d="M4 9a5 5 0 0 1 8 4 5 5 0 0 1-8-4" />
  <path d="M5 21h14" />
</svg>
