<?xml version="1.0" encoding="UTF-8"?>
<svg id="Layer_1" xmlns="http://www.w3.org/2000/svg" version="1.1" viewBox="0 0 512 512">
  <!-- Generator: Adobe Illustrator 29.2.1, SVG Export Plug-In . SVG Version: 2.1.0 Build 116)  -->
  <defs>
    <style>
      .st0 {
        fill: #fff;
        fill-rule: evenodd;
      }

      .st1 {
        fill: #3178c6;
      }
    </style>
  </defs>
  <rect class="st1" y="0" width="512" height="512" rx="50" ry="50"/>
  <rect class="st1" y="0" width="512" height="512" rx="50" ry="50"/>
  <path class="st0" d="M316.9,407.4v50.1c8.1,4.2,17.8,7.3,28.9,9.4s22.8,3.1,35.1,3.1,23.4-1.1,34.2-3.4c10.8-2.3,20.3-6.1,28.4-11.3,8.1-5.3,14.6-12.1,19.3-20.6s7.1-19,7.1-31.5-1.4-17-4.1-23.9-6.6-12.9-11.7-18.2c-5.1-5.3-11.2-10.1-18.4-14.3s-15.2-8.2-24.2-12c-6.6-2.7-12.5-5.3-17.7-7.9-5.2-2.6-9.7-5.2-13.3-7.8-3.7-2.7-6.5-5.5-8.5-8.4-2-3-3-6.3-3-10.1s.9-6.5,2.7-9.3,4.3-5.1,7.5-7.1c3.2-2,7.2-3.5,11.9-4.6,4.7-1.1,9.9-1.6,15.7-1.6s8.6.3,13.2.9c4.6.6,9.3,1.6,14,2.9,4.7,1.3,9.3,2.9,13.7,4.9,4.4,2,8.5,4.3,12.3,6.9v-46.8c-7.6-2.9-15.9-5.1-25-6.5s-19.4-2.1-31.1-2.1-23.2,1.3-33.8,3.8-20,6.5-28.1,12c-8.1,5.4-14.5,12.3-19.2,20.7-4.7,8.4-7,18.4-7,30.1s4.3,27.6,12.9,38.2c8.6,10.5,21.7,19.5,39.2,26.8,6.9,2.8,13.3,5.6,19.2,8.3s11.1,5.5,15.4,8.4c4.3,2.9,7.7,6.1,10.3,9.5,2.5,3.4,3.8,7.4,3.8,11.7s-.8,6.2-2.3,9-3.9,5.2-7.1,7.2-7.1,3.6-11.9,4.8c-4.7,1.1-10.3,1.7-16.7,1.7-10.9,0-21.6-1.9-32.2-5.7-10.6-3.8-20.5-9.5-29.6-17.1h0ZM232.8,284.1h64.2v-41.1H118v41.1h63.9v182.9h50.9v-182.9Z"/>
</svg>