<?xml version="1.0" encoding="UTF-8"?>
<svg xmlns="http://www.w3.org/2000/svg" version="1.1" xmlns:xlink="http://www.w3.org/1999/xlink" viewBox="0 0 100 100">
  <!-- Generator: Adobe Illustrator 29.2.1, SVG Export Plug-In . SVG Version: 2.1.0 Build 116)  -->
  <defs>
    <style>
      .st0 {
        mask: url(#mask);
      }

      .st1 {
        fill: #fff;
      }

      .st1, .st2 {
        fill-rule: evenodd;
      }

      .st3 {
        fill: #1f9cf0;
      }

      .st4 {
        fill: #0065a9;
      }

      .st5 {
        isolation: isolate;
      }

      .st6 {
        mix-blend-mode: overlay;
        opacity: .2;
      }

      .st7 {
        fill: #007acc;
      }

      .st2 {
        fill: url(#linear-gradient);
      }
    </style>
    <mask id="mask" x="0" y="0" width="100" height="100" maskUnits="userSpaceOnUse">
      <g id="mask0">
        <path class="st1" d="M70.9,99.6c1.6.6,3.4.6,5-.2l20.6-10c2.2-1,3.5-3.2,3.5-5.7V16.2c0-2.4-1.4-4.6-3.5-5.7L75.9.6c-2.1-1-4.5-.8-6.4.6-.3.2-.5.4-.7.6L29.4,38l-17.2-13.1c-1.6-1.2-3.8-1.1-5.3.2l-5.5,5c-1.8,1.7-1.8,4.5,0,6.2l14.9,13.7L1.4,63.7c-1.8,1.7-1.8,4.5,0,6.2l5.5,5c1.5,1.4,3.7,1.5,5.3.2l17.2-13.1,39.4,36.1c.6.6,1.4,1.1,2.1,1.4ZM75,27.2l-29.9,22.8,29.9,22.8V27.2Z"/>
      </g>
    </mask>
    <linearGradient id="linear-gradient" x1="50" y1="102" x2="50" y2="2" gradientTransform="translate(0 102) scale(1 -1)" gradientUnits="userSpaceOnUse">
      <stop offset="0" stop-color="#fff"/>
      <stop offset="1" stop-color="#fff" stop-opacity="0"/>
    </linearGradient>
  </defs>
  <g class="st5">
    <g id="Layer_1">
      <g class="st0">
        <g>
          <path class="st4" d="M96.5,10.6L75.9.6c-2.4-1.2-5.2-.7-7.1,1.2L1.4,63.7c-1.8,1.7-1.8,4.5,0,6.2l5.5,5c1.5,1.4,3.7,1.5,5.3.2L93.4,13.2c2.7-2.1,6.6-.1,6.6,3.3v-.2c0-2.4-1.4-4.6-3.5-5.7Z"/>
          <path class="st7" d="M96.5,89.4l-20.6,10c-2.4,1.2-5.2.7-7.1-1.2L1.4,36.3c-1.8-1.7-1.8-4.5,0-6.2l5.5-5c1.5-1.4,3.7-1.5,5.3-.2l81.2,61.9c2.7,2.1,6.6.1,6.6-3.3v.2c0,2.4-1.4,4.6-3.5,5.7Z"/>
          <path class="st3" d="M75.9,99.4c-2.4,1.2-5.2.7-7.1-1.2,2.3,2.3,6.2.7,6.2-2.6V4.4c0-3.3-3.9-4.9-6.2-2.6,1.9-1.9,4.7-2.4,7.1-1.2l20.6,10c2.2,1,3.5,3.2,3.5,5.7v67.5c0,2.4-1.4,4.6-3.5,5.7l-20.6,10Z"/>
          <g class="st6">
            <path class="st2" d="M70.9,99.6c1.6.6,3.4.6,5-.2l20.6-10c2.2-1,3.5-3.2,3.5-5.7V16.2c0-2.4-1.4-4.6-3.5-5.7L75.8.6c-2.1-1-4.5-.8-6.4.6-.3.2-.5.4-.7.6L29.3,38l-17.2-13.1c-1.6-1.2-3.8-1.1-5.3.2l-5.5,5c-1.8,1.7-1.8,4.5,0,6.2l14.9,13.7L1.4,63.7c-1.8,1.7-1.8,4.5,0,6.2l5.5,5c1.5,1.4,3.7,1.5,5.3.2l17.2-13.1,39.4,36.1c.6.6,1.4,1.1,2.1,1.4ZM75,27.2l-29.9,22.8,29.9,22.8V27.2Z"/>
          </g>
        </g>
      </g>
    </g>
  </g>
</svg>