<?xml version="1.0" encoding="UTF-8"?>
<svg xmlns="http://www.w3.org/2000/svg" version="1.1" xmlns:xlink="http://www.w3.org/1999/xlink" viewBox="0 0 500 500">
  <!-- Generator: Adobe Illustrator 29.2.1, SVG Export Plug-In . SVG Version: 2.1.0 Build 116)  -->
  <defs>
    <style>
      .st0 {
        fill: url(#linear-gradient);
      }

      .st0, .st1 {
        fill-rule: evenodd;
      }

      .st0, .st2 {
        isolation: isolate;
      }

      .st0, .st3 {
        mix-blend-mode: overlay;
        opacity: .25;
      }

      .st4, .st1 {
        fill: #fff;
      }

      .st5 {
        mask: url(#mask);
      }

      .st6 {
        fill: none;
      }

      .st7 {
        fill: #0065a9;
      }

      .st8 {
        clip-path: url(#clippath);
      }

      .st9 {
        fill: #d9d9d9;
      }

      .st10 {
        fill: #e6e6e6;
      }
    </style>
    <clipPath id="clippath">
      <rect class="st6" x="50" y="50" width="399.99" height="399.99"/>
    </clipPath>
    <mask id="mask" x="49.76" y="50" width="400.24" height="399.99" maskUnits="userSpaceOnUse">
      <g id="mask0">
        <path class="st1" d="M333.64,448.29c6.3,2.47,13.48,2.31,19.84-.77l82.35-39.83c8.65-4.18,14.16-12.99,14.16-22.65V114.96c0-9.66-5.5-18.46-14.16-22.65l-82.35-39.83c-8.35-4.04-18.11-3.05-25.44,2.3-1.05.76-2.04,1.62-2.98,2.56l-157.65,144.58-68.67-52.4c-6.39-4.88-15.33-4.48-21.27.95l-22.02,20.14c-7.26,6.64-7.27,18.12-.02,24.78l59.55,54.61-59.55,54.61c-7.25,6.65-7.24,18.14.02,24.78l22.02,20.14c5.94,5.43,14.88,5.83,21.27.95l68.67-52.4,157.65,144.57c2.49,2.51,5.42,4.4,8.57,5.63ZM350.05,158.73l-119.62,91.27,119.62,91.27v-182.55Z"/>
      </g>
    </mask>
    <linearGradient id="linear-gradient" x1="249.75" y1="452" x2="249.75" y2="52" gradientTransform="translate(0 502) scale(1 -1)" gradientUnits="userSpaceOnUse">
      <stop offset="0" stop-color="#fff"/>
      <stop offset="1" stop-color="#fff" stop-opacity="0"/>
    </linearGradient>
  </defs>
  <g class="st2">
    <g id="Layer_1">
      <rect class="st7" width="500" height="500" rx="50" ry="50"/>
      <g class="st8">
        <g class="st5">
          <g>
            <path class="st9" d="M435.84,92.38l-82.42-39.89c-9.54-4.62-20.94-2.67-28.43,4.86L55.19,304.61c-7.26,6.65-7.25,18.14.02,24.78l22.04,20.14c5.94,5.43,14.89,5.83,21.28.95L423.43,102.72c10.9-8.31,26.56-.5,26.56,13.26v-.96c0-9.65-5.5-18.45-14.15-22.64Z"/>
            <path class="st10" d="M435.84,407.63l-82.42,39.89c-9.54,4.62-20.94,2.67-28.43-4.86L55.19,195.39c-7.26-6.65-7.25-18.14.02-24.78l22.04-20.14c5.94-5.43,14.89-5.83,21.28-.95l324.9,247.76c10.9,8.31,26.56.5,26.56-13.26v.96c0,9.65-5.5,18.45-14.15,22.64Z"/>
            <path class="st4" d="M353.43,447.52c-9.54,4.62-20.94,2.67-28.43-4.86,9.23,9.27,25,2.71,25-10.41V67.75c0-13.11-15.77-19.68-25-10.41,7.49-7.53,18.89-9.48,28.43-4.86l82.4,39.83c8.66,4.19,14.17,12.99,14.17,22.65v270.08c0,9.66-5.51,18.46-14.17,22.65l-82.4,39.83Z"/>
            <g class="st3">
              <path class="st0" d="M333.4,448.29c6.3,2.47,13.48,2.31,19.84-.77l82.35-39.83c8.65-4.18,14.15-12.99,14.15-22.65V114.96c0-9.66-5.5-18.46-14.15-22.65l-82.35-39.83c-8.35-4.04-18.11-3.05-25.44,2.3-1.05.76-2.04,1.62-2.98,2.56l-157.65,144.58-68.67-52.4c-6.39-4.88-15.33-4.48-21.27.95l-22.02,20.14c-7.26,6.64-7.27,18.12-.02,24.78l59.55,54.61-59.55,54.61c-7.25,6.65-7.24,18.14.02,24.78l22.02,20.14c5.94,5.43,14.88,5.83,21.27.95l68.67-52.4,157.65,144.57c2.49,2.51,5.42,4.4,8.57,5.63ZM349.81,158.73l-119.62,91.27,119.62,91.27v-182.55Z"/>
            </g>
          </g>
        </g>
      </g>
    </g>
  </g>
</svg>