<?xml version="1.0" encoding="UTF-8"?>
<svg id="Layer_1" xmlns="http://www.w3.org/2000/svg" version="1.1" xmlns:xlink="http://www.w3.org/1999/xlink" viewBox="0 0 176.5 176.5">
  <!-- Generator: Adobe Illustrator 29.2.1, SVG Export Plug-In . SVG Version: 2.1.0 Build 116)  -->
  <defs>
    <style>
      .st0 {
        fill: url(#linear-gradient2);
      }

      .st1 {
        fill: #fff;
      }

      .st2 {
        mask: url(#mask);
      }

      .st3 {
        fill: url(#linear-gradient1);
      }

      .st4 {
        fill: none;
      }

      .st5 {
        clip-path: url(#clippath-1);
      }

      .st6 {
        fill: url(#linear-gradient);
      }

      .st7 {
        fill: #5e438f;
      }

      .st8 {
        clip-path: url(#clippath);
      }
    </style>
    <clipPath id="clippath">
      <rect class="st4" width="176.5" height="176.5"/>
    </clipPath>
    <clipPath id="clippath-1">
      <rect class="st4" width="176.5" height="176.5"/>
    </clipPath>
    <mask id="mask" x="0" y="0" width="176.5" height="176.5" maskUnits="userSpaceOnUse">
      <g id="mask0">
        <path class="st1" d="M32.3,149.3L2.9,127.2c-.9-.7-1.7-1.6-2.2-2.6S0,122.5,0,121.3V55.1c0-1.1.3-2.3.8-3.3.5-1,1.3-1.9,2.2-2.6l29.4-22.1c-.8.7-1.4,1.7-1.7,2.7-.4,1-.4,2.1-.3,3.2v110.3c-.2,1.1,0,2.2.3,3.2s.9,1.9,1.7,2.7Z"/>
        <path class="st1" d="M173.2,30.6c-1.2-.8-2.6-1.2-4.1-1.2-.9,0-1.9.2-2.7.5-.9.4-1.7.9-2.3,1.5l-.5.5-58.7,56.2-32.5,31.1-30,28.8-.5.5c-.7.7-1.5,1.2-2.3,1.5-.9.4-1.8.5-2.7.5-1.6,0-3.1-.5-4.4-1.5L2.9,127.2c1.5,1.1,3.4,1.6,5.2,1.4,1.9-.2,3.6-1.1,4.8-2.5l32.6-37.9,26.8-31.1L119.3,2.6c.7-.8,1.5-1.5,2.5-1.9C122.8.2,123.8,0,124.9,0c1.4,0,2.9.4,4.1,1.2l44.2,29.4Z"/>
        <path class="st1" d="M173.2,145.8l-44.1,29.4c-1.5,1-3.3,1.4-5.1,1.1-1.8-.2-3.4-1.1-4.6-2.5l-47-54.6-26.8-31.2L12.9,50.3c-1.2-1.4-2.9-2.3-4.8-2.5-1.9-.2-3.7.3-5.2,1.4l29.4-22.1c1.3-1,2.8-1.5,4.4-1.5.9,0,1.9.2,2.7.5.9.4,1.7.9,2.3,1.5l.5.5,30,28.8,32.5,31.1,58.7,56.2.5.5c.7.7,1.5,1.2,2.3,1.5.9.4,1.8.5,2.7.5,1.4,0,2.9-.4,4.1-1.2Z"/>
        <path class="st1" d="M176.5,36.8v102.9c0,1.2-.3,2.4-.9,3.5-.6,1.1-1.4,2-2.4,2.7l-44.1,29.4c1-.7,1.8-1.6,2.4-2.7.6-1.1.9-2.3.9-3.5V7.4c0-1.2-.3-2.4-.9-3.5-.6-1.1-1.4-2-2.5-2.6l44.2,29.4c1,.7,1.8,1.6,2.4,2.7.6,1.1.9,2.3.9,3.5Z"/>
      </g>
    </mask>
    <linearGradient id="linear-gradient" x1="153.1" y1="184.3" x2="22.1" y2="52.4" gradientTransform="translate(0 194) scale(1 -1)" gradientUnits="userSpaceOnUse">
      <stop offset="0" stop-color="#7252aa"/>
      <stop offset="1" stop-color="#7252aa"/>
    </linearGradient>
    <linearGradient id="linear-gradient1" x1="23.8" y1="168.3" x2="147" y2="30.5" gradientTransform="translate(0 194) scale(1 -1)" gradientUnits="userSpaceOnUse">
      <stop offset="0" stop-color="#ae7fe2"/>
      <stop offset="1" stop-color="#9a70d4"/>
    </linearGradient>
    <linearGradient id="linear-gradient2" x1="152.7" y1="196.3" x2="152.7" y2="18.9" gradientTransform="translate(0 194) scale(1 -1)" gradientUnits="userSpaceOnUse">
      <stop offset="0" stop-color="#d59dff"/>
      <stop offset="1" stop-color="#c18ef1"/>
    </linearGradient>
  </defs>
  <g class="st8">
    <g class="st5">
      <g class="st2">
        <g>
          <path class="st7" d="M32.3,149.3L2.9,127.2c-.9-.7-1.7-1.6-2.2-2.6C.3,123.6,0,122.5,0,121.3V55.1c0-1.1.3-2.3.8-3.3.5-1,1.3-1.9,2.2-2.6l29.4-22.1c-.8.7-1.4,1.7-1.7,2.7-.4,1-.4,2.1-.3,3.2v110.3c-.2,1.1,0,2.2.3,3.2s.9,1.9,1.7,2.7Z"/>
          <path class="st6" d="M173.2,30.6c-1.2-.8-2.6-1.2-4.1-1.2-.9,0-1.9.2-2.7.5-.9.4-1.7.9-2.3,1.5l-.5.5-31.2,30-27.4,26.3-32.5,31.1-30,28.8-.5.5c-.7.7-1.5,1.2-2.3,1.5-.9.4-1.8.5-2.7.5-1.6,0-3.1-.5-4.4-1.5L2.9,127.2c1.5,1.1,3.4,1.6,5.2,1.4,1.9-.2,3.6-1.1,4.8-2.5l16.5-19.1,16.2-18.8,26.8-31.1L119.3,2.6c.7-.8,1.5-1.5,2.5-1.9C122.8.2,123.8,0,124.9,0c1.5,0,2.9.4,4.1,1.2l44.2,29.4Z"/>
          <path class="st3" d="M173.2,145.8l-44.1,29.4c-1.5,1-3.3,1.4-5.1,1.1-1.8-.2-3.4-1.1-4.6-2.5l-47-54.6-26.8-31.2-16.2-18.7-16.5-19.1c-1.2-1.4-2.9-2.3-4.8-2.5-1.9-.2-3.7.3-5.2,1.4l29.4-22.1c1.3-1,2.8-1.5,4.4-1.5.9,0,1.9.2,2.7.5.9.4,1.7.9,2.3,1.5l.5.5,30,28.8,32.5,31.1,27.5,26.3,31.2,29.9.5.5c.7.7,1.5,1.2,2.3,1.5.9.4,1.8.5,2.7.5,1.4,0,2.9-.4,4.1-1.2Z"/>
          <path class="st0" d="M176.5,36.8v102.9c0,1.2-.3,2.4-.9,3.5-.6,1.1-1.4,2-2.4,2.7l-44.1,29.4c1-.7,1.8-1.6,2.4-2.7.6-1.1.9-2.3.9-3.5V7.4c0-1.2-.3-2.4-.9-3.5-.6-1.1-1.4-2-2.5-2.6l44.2,29.4c1,.7,1.8,1.6,2.4,2.7.6,1.1.9,2.3.9,3.5Z"/>
        </g>
      </g>
    </g>
  </g>
</svg>