<?xml version="1.0" encoding="UTF-8"?>
<svg id="Layer_1" xmlns="http://www.w3.org/2000/svg" version="1.1" xmlns:xlink="http://www.w3.org/1999/xlink" viewBox="0 0 392.43 392.43">
  <!-- Generator: Adobe Illustrator 29.2.1, SVG Export Plug-In . SVG Version: 2.1.0 Build 116)  -->
  <defs>
    <style>
      .st0 {
        fill: url(#linear-gradient1);
      }

      .st1 {
        fill: url(#linear-gradient);
      }
    </style>
    <linearGradient id="linear-gradient" x1="98.25" y1="53.31" x2="327.25" y2="364.31" gradientTransform="translate(0 -96.1)" gradientUnits="userSpaceOnUse">
      <stop offset="0" stop-color="#41d1ff"/>
      <stop offset="1" stop-color="#bd34fe"/>
    </linearGradient>
    <linearGradient id="linear-gradient1" x1="206.16" y1="100.63" x2="247.56" y2="384.73" gradientTransform="translate(0 -96.1)" gradientUnits="userSpaceOnUse">
      <stop offset="0" stop-color="#ffea83"/>
      <stop offset="0" stop-color="#ffdd35"/>
      <stop offset="1" stop-color="#ffa800"/>
    </linearGradient>
  </defs>
  <path class="st1" d="M390.84,58.11l-184,329c-3.8,6.8-13.6,6.8-17.4,0L1.74,58.21c-4.2-7.4,2.1-16.3,10.4-14.8l184.2,32.9c1.2.2,2.4.2,3.6,0l180.3-32.9c8.3-1.5,14.6,7.3,10.5,14.7h.1Z"/>
  <path class="st0" d="M284.14.21l-136.2,26.7c-2.2.4-3.9,2.3-4,4.6l-8.4,141.5c-.2,3.3,2.9,5.9,6.1,5.2l37.9-8.7c3.5-.8,6.8,2.3,6,5.9l-11.3,55.2c-.8,3.7,2.7,6.9,6.4,5.8l23.4-7.1c3.6-1.1,7.1,2.1,6.3,5.8l-17.9,86.6c-1.1,5.4,6.1,8.4,9.1,3.7l2-3.1,111-221.4c1.9-3.7-1.3-7.9-5.4-7.1l-39,7.5c-3.7.7-6.8-2.7-5.8-6.3l25.5-88.3c1-3.6-2.1-7-5.8-6.3l.1-.2Z"/>
</svg>