<?xml version="1.0" encoding="UTF-8"?>
<svg id="Layer_1" xmlns="http://www.w3.org/2000/svg" version="1.1" viewBox="0 0 500 500">
  <!-- Generator: Adobe Illustrator 29.2.1, SVG Export Plug-In . SVG Version: 2.1.0 Build 116)  -->
  <defs>
    <style>
      .st0 {
        fill: #fff;
      }

      .st1 {
        fill: #ff4a00;
      }
    </style>
  </defs>
  <rect class="st1" width="500" height="500" rx="50" ry="50"/>
  <path class="st0" d="M300,250.9c0,14.4-2.6,28.7-7.7,42.2-13.5,5.1-27.8,7.7-42.2,7.7h-.2c-14.4,0-28.7-2.6-42.2-7.7-5.1-13.5-7.7-27.8-7.7-42.2v-.2c0-14.9,2.7-29.1,7.7-42.2,13.5-5.1,27.8-7.7,42.2-7.7h.2c14.9,0,29.1,2.7,42.2,7.7,5.1,13.5,7.7,27.8,7.7,42.2v.2h0ZM447.2,217.5h-116.7l82.5-82.5c-13-18.2-28.9-34.2-47.1-47.1l-82.6,82.5V53.6c-11-1.8-22.1-2.8-33.2-2.8h-.2c-11.3,0-22.4,1-33.2,2.8v116.7l-82.6-82.6c-9.1,6.5-17.6,13.7-25.5,21.6h0c-7.9,7.9-15.1,16.5-21.6,25.6l82.6,82.5H52.8s-2.8,21.9-2.8,33.3h0c0,11.5,1,22.6,2.8,33.4h116.8l-82.6,82.5c13,18.2,28.9,34.2,47.2,47.1l82.6-82.5v116.8c10.8,1.8,21.9,2.8,33.2,2.8h.3c11.1,0,22.2-.9,33.2-2.8v-116.8l82.6,82.6c9.1-6.5,17.6-13.7,25.5-21.6h0c7.9-7.9,15.1-16.4,21.6-25.5l-82.5-82.6h116.8c1.8-10.8,2.8-21.9,2.8-33.2v-.3c0-11.1-.9-22.2-2.8-33.2h0s0,0,0,0Z"/>
</svg>